<?xml version="1.0" encoding="utf-8"?>
<!-- Generator: Adobe Illustrator 21.0.0, SVG Export Plug-In . SVG Version: 6.00 Build 0)  -->
<svg version="1.1" id="Layer_1" xmlns="http://www.w3.org/2000/svg" xmlns:xlink="http://www.w3.org/1999/xlink" x="0px" y="0px"
	 viewBox="0 0 229.0323 67.7419" enable-background="new 0 0 229.0323 67.7419" xml:space="preserve">
<path fill="#999999" d="M2.871,1.8739h48.6251v13.6719H22.621v11.1143h24.6599v12.8509H22.621v26.0097H2.871V1.8739z"/>
<path fill="#999999" d="M62.35,1.8739h29.2146c5.7624,0,10.4118,0.7815,13.9639,2.3444c3.5443,1.563,6.4728,3.8048,8.7857,6.7254
	c2.3207,2.9286,3.9942,6.3228,5.0362,10.2065c1.042,3.8758,1.563,7.9884,1.563,12.3299c0,6.7965-0.7736,12.0774-2.3207,15.8269
	c-1.5472,3.7416-3.6943,6.8833-6.4492,9.4172c-2.747,2.5339-5.6992,4.2152-8.8567,5.0599c-4.31,1.1525-8.2173,1.7366-11.7221,1.7366
	H62.35V1.8739z M82.0132,16.2878v34.7717h4.8231c4.1047,0,7.0333-0.4499,8.7699-1.3656c1.7366-0.9078,3.0943-2.5023,4.081-4.7757
	c0.9788-2.2734,1.4761-5.9518,1.4761-11.0512c0-6.7412-1.1051-11.359-3.2996-13.8455c-2.2023-2.4944-5.8492-3.7337-10.9407-3.7337
	H82.0132z"/>
<path fill="#999999" d="M132.0276,1.8739h19.7106v63.6468h-19.7106V1.8739z"/>
<path fill="#999999" d="M208.2254,39.4716l17.2319,5.2098c-1.1525,4.8309-2.9759,8.8725-5.4703,12.1089
	c-2.4865,3.2443-5.5729,5.6914-9.2672,7.3411c-3.6863,1.6498-8.3831,2.4707-14.0902,2.4707c-6.9149,0-12.5668-1.0025-16.9478-3.0154
	c-4.3889-2.005-8.17-5.5414-11.359-10.6091c-3.1812-5.0599-4.7757-11.5406-4.7757-19.4343c0-10.5302,2.8023-18.6212,8.4068-24.2731
	c5.5966-5.6598,13.5219-8.4857,23.7679-8.4857c8.0121,0,14.3192,1.6261,18.9054,4.8625c4.5862,3.2443,7.9963,8.2252,10.2223,14.9349
	l-17.3661,3.8679c-0.6078-1.9418-1.2393-3.3627-1.9103-4.2547c-1.0972-1.5077-2.447-2.6681-4.0337-3.4732
	c-1.5945-0.8131-3.3706-1.2156-5.344-1.2156c-4.452,0-7.87,1.7919-10.246,5.3756c-1.7919,2.6602-2.6917,6.8359-2.6917,12.5352
	c0,7.0491,1.0735,11.8879,3.2127,14.5007c2.1471,2.6207,5.1546,3.9232,9.0304,3.9232c3.7653,0,6.607-1.0578,8.5331-3.1654
	C205.9599,46.5601,207.3571,43.4895,208.2254,39.4716z"/>
<g>
</g>
<g>
</g>
<g>
</g>
<g>
</g>
<g>
</g>
<g>
</g>
<g>
</g>
<g>
</g>
<g>
</g>
<g>
</g>
<g>
</g>
<g>
</g>
<g>
</g>
<g>
</g>
<g>
</g>
</svg>
