<?xml version="1.0" encoding="utf-8"?>
<!-- Generator: Adobe Illustrator 19.1.1, SVG Export Plug-In . SVG Version: 6.00 Build 0)  -->
<svg version="1.1" id="Layer_1" xmlns="http://www.w3.org/2000/svg" xmlns:xlink="http://www.w3.org/1999/xlink" x="0px" y="0px"
	 viewBox="0 0 1000 1000" style="enable-background:new 0 0 1000 1000;" xml:space="preserve">
<style type="text/css">
	.st0{fill:#F1F0F0;}
</style>
<g>
	<polygon class="st0" points="846.1,0 769.2,0 769.2,153.8 615.4,153.8 615.4,230.8 769.2,230.8 769.2,384.6 846.1,384.6 
		846.1,230.8 1000,230.8 1000,153.8 846.1,153.8 	"/>
	<path class="st0" d="M575.4,636.7c-10.6-14.2-22.3-27.4-35.2-39.6c-12.9-12.2-25.7-23.3-38.5-33.3c-12.9-10-24.6-19.7-35.2-28.9
		c-10.7-9.2-19.3-18.9-25.9-28.8c-6.6-10.1-9.9-20.3-9.9-30.7c0-14.4,4.6-27.9,13.8-40.5c9.2-12.6,20.4-24.8,33.7-36.7
		c13.2-11.8,26.4-24.7,39.6-38.8c13.2-14,24.5-32.5,33.7-55.6c9.2-23,13.8-49.4,13.8-79c0-35.3-7.8-69.2-23.4-101.6
		c-15.6-32.5-37.7-57.7-66.1-75.7h81.1L638.2,0H375.6c-37.3,0-74.8,4-112.4,12c-55.7,12.4-102.6,40.8-140.6,85
		c-38.1,44.3-57.1,94.5-57.1,150.5c0,59.3,21.4,108.6,64,147.9c42.7,39.3,93.8,58.9,153.6,58.9c12,0,26-1,42.1-3
		c-0.9,3.2-2.2,7.5-4.2,12.9c-2,5.4-3.6,9.8-4.8,12.9c-1.2,3.1-2.2,7.1-3,11.7c-0.8,4.6-1.2,9.3-1.2,14.1
		c0,26.5,12.8,56.3,38.5,89.5c-30.5,0.8-60.5,3.6-90.1,8.1c-29.7,4.6-60.7,11.8-93.1,21.7c-32.4,9.8-61.5,24-87.1,42.7
		c-25.7,18.6-44.9,40.8-57.7,66.4C7.4,761,0,788.1,0,812.5c0,26.9,6,51.1,18,73c12,21.8,27.5,39.7,46.3,53.5
		c18.8,13.9,40.5,25.5,65.2,34.9c24.7,9.4,49.1,16.1,73.3,20.1c24.2,4,48.2,6,71.8,6c107.4,0,191.5-26.2,252.4-78.7
		c56.1-48.8,84.2-105.3,84.2-169.4c0-22.8-3.4-44.2-10-64C594.7,667.9,586,650.9,575.4,636.7z M343.8,418.3
		c-20.4,0-39.9-5.2-58.3-15.6c-18.4-10.4-34.1-23.9-46.9-40.6c-12.8-16.6-24.1-35.4-33.6-56.2c-9.6-20.9-16.8-41.7-21.4-62.5
		c-4.6-20.9-6.9-40.7-6.9-59.5c0-38.5,10.2-71.5,30.6-99.2c20.4-27.6,49.3-41.4,86.6-41.4c26.4,0,50.4,8.2,71.8,24.6
		c21.5,16.5,38.3,37.3,50.5,62.5c12.3,25.3,21.7,51.5,28.3,78.5c6.6,27,9.9,52.6,9.9,76.6c0,40.1-8.7,72.2-26.2,96.4
		C410.8,406.1,382.6,418.3,343.8,418.3z M509.9,869.6c-11,18.8-25.9,33.5-44.7,44.1c-18.8,10.6-38.9,18.4-60.4,23.4
		c-21.4,5-43.9,7.5-67.6,7.5c-25.7,0-51.1-3-76.4-9c-25.2-6-49.4-15.1-72.4-27.3c-23.1-12.3-41.7-29.1-55.9-50.5
		c-14.2-21.5-21.3-45.8-21.3-73.1c0-24,5.4-45.5,16.2-64.3c10.9-18.9,24.7-33.9,41.5-45.1c16.8-11.2,36.4-20.5,58.9-27.6
		c22.4-7.2,44.1-12.2,64.9-15c20.9-2.8,42.1-4.2,63.7-4.2c13.2,0,23.2,0.4,30,1.2c2.4,1.6,8.5,5.8,18.3,12.6
		c9.8,6.8,16.5,11.3,19.8,13.8c3.4,2.4,9.6,7,18.7,13.9c9,6.8,15.4,11.9,19.2,15.3c3.8,3.4,9.3,8.5,16.5,15.3
		c7.3,6.8,12.6,12.8,15.9,17.8c3.4,5,7.6,11.1,12.6,18.4c5,7.2,8.5,14.1,10.5,20.7c2,6.7,3.9,13.9,5.7,21.7
		c1.8,7.8,2.7,15.9,2.7,24.3C526.4,828.7,520.9,850.7,509.9,869.6z"/>
</g>
</svg>
