<?xml version="1.0" encoding="utf-8"?>
<!-- Generator: Adobe Illustrator 19.1.1, SVG Export Plug-In . SVG Version: 6.00 Build 0)  -->
<svg version="1.1" id="Layer_1" xmlns="http://www.w3.org/2000/svg" xmlns:xlink="http://www.w3.org/1999/xlink" x="0px" y="0px"
	 viewBox="0 0 1000 1000" style="enable-background:new 0 0 1000 1000;" xml:space="preserve">
<style type="text/css">
	.st0{fill:#F1F0F0;}
</style>
<g>
	<path class="st0" d="M113.9,6.9C45.1,6.9,0,53.4,0,113.9c0,59,43.6,106.9,111.1,106.9c71.7,0,115.3-47.9,115.3-106.9
		C225,53.4,182.8,6.9,113.9,6.9z"/>
	<path class="st0" d="M753.9,289.8c-115.4,0-184.3,66-212.3,111.1h-4.3l-9.9-95.7H341.7c2.8,61.9,5.7,133.6,5.7,219.4V993h213.8
		V596.4c0-19.7,1.4-39.4,7-53.4c15.5-39.4,50.6-80.2,109.7-80.2c77.3,0,108.3,60.6,108.3,149.1V993H1000V586.5
		C1000,384,894.5,289.8,753.9,289.8z"/>
	<rect x="5.7" y="305.2" class="st0" width="213.8" height="687.8"/>
</g>
</svg>
