<?xml version="1.0" encoding="utf-8"?>
<!-- Generator: Adobe Illustrator 19.1.1, SVG Export Plug-In . SVG Version: 6.00 Build 0)  -->
<svg version="1.1" id="Layer_1" xmlns="http://www.w3.org/2000/svg" xmlns:xlink="http://www.w3.org/1999/xlink" x="0px" y="0px"
	 viewBox="0 0 1000 1000" style="enable-background:new 0 0 1000 1000;" xml:space="preserve">
<style type="text/css">
	.st0{fill:#F1F0F0;}
</style>
<g>
	<path class="st0" d="M972.4,108.7c-39.7,23.5-83.6,40.6-130.3,49.8c-37.4-39.8-90.8-64.8-149.8-64.8
		c-113.3,0-205.2,91.9-205.2,205.2c0,16.1,1.8,31.7,5.3,46.8C321.9,337,170.8,255.4,69.6,131.2c-17.7,30.4-27.8,65.6-27.8,103.2
		c0,71.2,36.2,134,91.3,170.7c-33.6-1-65.2-10.3-92.9-25.7c0,0.9,0,1.7,0,2.6c0,99.3,70.7,182.3,164.5,201.1
		c-17.1,4.7-35.3,7.3-54,7.3c-13.2,0-26-1.3-38.6-3.7c26.1,81.5,101.9,140.8,191.7,142.5c-70.3,55.1-158.7,87.8-254.8,87.8
		c-16.5,0-32.9-0.9-48.9-2.9c90.8,58.2,198.6,92.2,314.5,92.2c377.4,0,583.8-312.6,583.8-583.8c0-8.9-0.3-17.7-0.7-26.5
		c40.1-28.9,74.9-65,102.4-106.2c-36.7,16.4-76.3,27.3-117.9,32.3C924.5,196.8,957.1,156.6,972.4,108.7z"/>
</g>
</svg>
