<?xml version="1.0" standalone="no"?>
<!DOCTYPE svg PUBLIC "-//W3C//DTD SVG 1.1//EN" "http://www.w3.org/Graphics/SVG/1.1/DTD/svg11.dtd" >
<svg xmlns="http://www.w3.org/2000/svg" xmlns:xlink="http://www.w3.org/1999/xlink" version="1.1">
<metadata></metadata>
<defs>
<font id="overlockblack_italic" horiz-adv-x="574" >
<font-face units-per-em="1000" ascent="800" descent="-200" />
<missing-glyph horiz-adv-x="190" />
<glyph unicode="&#xd;" horiz-adv-x="333" />
<glyph unicode=" "  horiz-adv-x="190" />
<glyph unicode="&#x09;" horiz-adv-x="190" />
<glyph unicode="&#xa0;" horiz-adv-x="190" />
<glyph unicode="!" horiz-adv-x="296" d="M123 640q0 31 -2 43q44 11 80 11q80 0 80 -59q0 -22 -29 -148.5t-29 -207.5q0 -22 2 -31q-36 -19 -71 -19q-31 0 -50.5 13.5t-19.5 38.5q0 6 10 71.5t19.5 150t9.5 137.5zM119 -10q-32 0 -53 21t-21 54q0 39 29 71t70 32q31 0 52.5 -22.5t21.5 -55.5q0 -38 -30 -69 t-69 -31z" />
<glyph unicode="&#x22;" horiz-adv-x="426" d="M176 737q60 0 60 -45q0 -40 -44 -188q-16 -49 -69 -49q-26 0 -47 8q13 44 15 124.5t4 94.5q3 27 20.5 41t60.5 14zM388 737q60 0 60 -45q0 -40 -44 -188q-16 -49 -69 -49q-26 0 -47 8q13 44 15 124.5t4 94.5q3 27 20.5 41t60.5 14z" />
<glyph unicode="#" d="M215 266q74 0 109 2q6 19 31 120q-30 2 -69 2h-36q-23 -73 -35 -124zM449 463q27 1 134 10q-2 -44 -17 -69t-57 -25q-6 0 -36.5 3t-46.5 3q-16 -46 -35 -117q27 1 134 10q-2 -44 -17 -69t-57 -25q-6 0 -35.5 3.5t-45.5 3.5q-30 -137 -30 -167q-20 -11 -44 -11 q-35 0 -35 32q0 9 3.5 25t8 30.5t14 45t14.5 48.5q-37 1 -66 1h-39q-31 -141 -31 -171q-20 -11 -44 -11q-35 0 -35 32q0 17 41 149q-74 -4 -134 -24q-2 18 -2 25q0 39 22 56.5t71 17.5q7 0 28.5 -0.5t36.5 -0.5l30 120q-78 -4 -137 -24q-2 18 -2 25q0 39 22 56.5t71 17.5 q7 0 28 -0.5t37 -0.5q34 133 42 175q19 4 36 4q39 0 39 -35q0 -7 -3.5 -20.5t-8 -27.5t-14 -43.5t-17.5 -54.5h101q36 144 43 177q19 4 36 4q39 0 39 -35q0 -7 -3 -20t-7.5 -26.5t-14 -42.5t-17.5 -54z" />
<glyph unicode="$" d="M431 502q-8 25 -30 44t-55 23l-25 -172q31 -10 44.5 -14.5t40 -18.5t39.5 -28.5t24 -39.5t11 -57q0 -99 -56 -165t-158 -79q-5 -42 -5 -71l-22 -3q-36 0 -36 30q0 4 5 40q-70 2 -121.5 31.5t-51.5 69.5q0 27 19.5 43t56.5 30q8 -30 37.5 -52t72.5 -24l3 18q6 42 11 84 t10 79q-35 12 -54 20.5t-45.5 28t-39 50.5t-12.5 75q0 86 54.5 147t150.5 76q2 14 4 38.5t2 28.5q18 5 25 5q35 0 35 -29l-1 -4q0 -4 -1.5 -14t-2.5 -21q58 -3 105 -29.5t47 -70.5q0 -55 -81 -69zM266 420l19 138q-52 -27 -52 -86q0 -32 33 -52zM300 247l-19 -141 q51 33 51 93q0 29 -32 48z" />
<glyph unicode="%" horiz-adv-x="854" d="M214 407q31 0 46.5 35t15.5 75q0 75 -37 75q-33 0 -48.5 -35.5t-15.5 -75.5q0 -74 39 -74zM205 333q-66 0 -104 37t-38 100q0 83 51 139t134 56q66 0 103.5 -36.5t37.5 -100.5q0 -83 -50.5 -139t-133.5 -56zM616 64q31 0 46.5 35t15.5 75q0 75 -37 75q-33 0 -48.5 -35.5 t-15.5 -75.5q0 -74 39 -74zM607 -10q-66 0 -104 37t-38 100q0 83 51 139t134 56q66 0 103.5 -36.5t37.5 -100.5q0 -83 -50.5 -139t-133.5 -56zM181 48q396 546 466 652q53 -11 53 -41q0 -17 -15 -37q-393 -545 -466 -654q-53 16 -53 44q0 16 15 36z" />
<glyph unicode="&#x26;" horiz-adv-x="757" d="M789 403q0 -45 -40.5 -88t-100.5 -43q-19 0 -27 1q-43 -154 -128 -219t-213 -65q-112 0 -178.5 56t-66.5 134q0 61 34 113.5t106 82.5q-70 35 -70 117q0 74 70.5 128.5t172.5 54.5q50 0 102 -25t52 -71q0 -23 -22 -40.5t-70 -21.5q-20 59 -74 59q-34 0 -57 -21t-23 -56 q0 -25 18.5 -43.5t65.5 -18.5q10 0 16 1q5 -20 5 -36q0 -49 -46 -58q-55 -11 -83 -50t-28 -88q0 -48 31 -83t84 -35q67 0 107 48.5t56 166.5h-6q-40 0 -66 -22q-13 25 -13 53q0 29 17 46.5t45 17.5q24 0 81 -14t73 -14q43 0 43 32q0 16 -14 35q29 31 81 31q33 0 49.5 -18 t16.5 -47z" />
<glyph unicode="'" horiz-adv-x="214" d="M176 737q60 0 60 -45q0 -40 -44 -188q-16 -49 -69 -49q-26 0 -47 8q13 44 15 124.5t4 94.5q3 27 20.5 41t60.5 14z" />
<glyph unicode="(" horiz-adv-x="343" d="M74 178q0 97 32 201t76 179t88.5 124t70.5 49q18 0 34 -23q-84 -107 -129.5 -274.5t-45.5 -311.5q0 -200 57 -302q-20 -23 -39 -23q-20 0 -45 31.5t-47 82t-37 123t-15 144.5z" />
<glyph unicode=")" horiz-adv-x="343" d="M268 350q0 -99 -32.5 -204t-77 -179t-88.5 -122t-69 -48q-19 0 -33 23q84 110 129 274t45 314q0 198 -57 300q20 23 39 23q20 0 45 -31.5t47 -82t37 -123t15 -144.5z" />
<glyph unicode="*" horiz-adv-x="464" d="M339 703q0 -23 -21 -82q80 53 93 65q35 -30 35 -62q0 -45 -129 -76q50 -56 92 -91q-13 -20 -34.5 -34t-43.5 -14q-24 0 -40.5 22.5t-35.5 71.5q-12 -17 -80 -111q-28 10 -46.5 26t-18.5 34q3 37 98 100q-69 26 -119 41q8 30 27.5 50.5t45.5 20.5q39 0 71 -40q0 10 1 33.5 t1 37.5q0 13 -2 39q32 9 50 9q56 0 56 -40z" />
<glyph unicode="+" d="M328 292q105 0 208 11q4 -12 4 -42q0 -25 -14.5 -42.5t-37.5 -17.5q-24 0 -75 5t-86 5q0 -79 11 -202q-21 -4 -43 -4q-24 0 -42 13t-18 38q0 8 4 49.5t6 106.5q-46 0 -206 -11q-4 21 -4 42q0 23 12.5 41.5t39.5 18.5q8 0 53.5 -4t106.5 -6q0 103 -12 202q13 4 43 4 q25 0 42.5 -14t17.5 -37q0 -24 -5 -72t-5 -84z" />
<glyph unicode="," horiz-adv-x="248" d="M29 12q-6 15 -6 31q0 37 27.5 65t69.5 28q37 0 55.5 -24.5t18.5 -64.5q0 -72 -50.5 -141t-119.5 -69q-40 0 -40 33q0 12 5 27h4q27 0 49.5 24t22.5 50q0 33 -36 41z" />
<glyph unicode="-" horiz-adv-x="275" d="M270 291q0 -41 -21 -64.5t-61 -23.5q-9 0 -36 3.5t-43 3.5q-35 0 -82 -16q-2 18 -2 27q0 96 83 96q6 0 32.5 -3t42.5 -3h7q40 0 76 15q4 -20 4 -35z" />
<glyph unicode="." horiz-adv-x="255" d="M103 -10q-39 0 -60 23.5t-21 57.5q0 41 28.5 73.5t75.5 32.5q38 0 59.5 -25.5t21.5 -60.5q0 -40 -27.5 -70.5t-76.5 -30.5z" />
<glyph unicode="/" horiz-adv-x="254" d="M247 742q46 0 46 -30q0 -20 -117 -415.5t-117 -413.5q-22 -5 -34 -5q-40 0 -40 33q0 13 113 399t119 427z" />
<glyph unicode="0" d="M192 283q0 -83 19 -138.5t56 -55.5q48 0 81 90t33 203q0 81 -19 136.5t-56 55.5q-46 0 -80 -86t-34 -205zM236 -10q-96 0 -150 68.5t-54 187.5q0 112 36 208.5t106.5 157.5t161.5 61q96 0 150.5 -68.5t54.5 -187.5q0 -111 -36 -207t-107 -158t-162 -62z" />
<glyph unicode="1" d="M357 93q63 0 96 4q2 -12 2 -24q0 -75 -43 -75q-7 0 -38.5 0.5t-82.5 1t-105 0.5q-72 0 -101 -1q-2 20 -2 27q0 71 62 71h63q3 25 16 111t21 143q17 121 26 215q-96 -11 -112 -14q-1 5 -1 17q0 77 61 88q142 16 167 16q18 0 31.5 -11.5t13.5 -38.5q0 -8 -7.5 -49.5 t-19.5 -113t-21 -135.5l-8 -56q-15 -109 -18 -176z" />
<glyph unicode="2" d="M167 491q-32 3 -56 24t-24 46q0 48 63 79.5t144 31.5q95 0 154 -42.5t59 -137.5q0 -63 -23 -117.5t-69.5 -102t-86.5 -79.5t-103 -76q-8 -5 -12 -8q26 -3 62 -3q126 0 198 29q13 -33 13 -59q0 -19 -6 -32.5t-20 -21.5t-28.5 -13t-41.5 -7.5t-47.5 -3t-57.5 -0.5 q-54 0 -134 1t-108 1q-43 0 -43 62q0 20 5 40q40 34 103.5 82t98.5 76.5t73.5 66t55.5 73.5t17 75q0 46 -22.5 72.5t-56.5 26.5q-63 0 -107 -83z" />
<glyph unicode="3" d="M349 364q58 -21 86.5 -59t28.5 -86q0 -102 -86.5 -165.5t-204.5 -63.5q-74 0 -112 23t-38 53q0 38 64 60q26 -37 94 -37q59 0 95 37.5t36 84.5q0 40 -33 68t-90 28q-40 0 -40 49q0 18 5 40q80 0 126 33.5t46 78.5q0 28 -17 47t-46 19q-24 0 -48 -17t-40 -50 q-36 0 -56 16.5t-20 40.5q0 36 68 72.5t146 36.5q83 0 128 -38t45 -94q0 -117 -137 -177z" />
<glyph unicode="4" d="M334 653q24 21 108 21q37 0 58 -3q-2 -11 -16.5 -93t-24 -144.5t-18.5 -137.5q71 6 93 16q7 -22 7 -47q0 -46 -27 -61q-21 -11 -85 -14q-11 -110 -11 -136q0 -30 4 -53q-35 -11 -80 -11t-62 13.5t-17 44.5q0 5 21 141q-178 0 -235 4q-25 1 -25 48q0 27 8 53 q47 69 151 193.5t151 165.5zM183 292q27 -3 56 -3q36 0 60 4q5 44 11 84.5t10.5 72.5t6.5 43q-21 -25 -46 -60t-55 -79t-43 -62z" />
<glyph unicode="5" d="M441 553q-67 0 -163 6l-22 -112q26 3 48 3q91 0 139.5 -46t48.5 -133q0 -115 -83 -198t-216 -83q-157 0 -157 70q0 40 42 68q32 -38 95 -38q62 0 109.5 40t47.5 109q0 48 -36.5 81t-102.5 33q-41 0 -73 -6q-6 8 -6 29q0 6 50 288q33 -2 227 -2q81 0 130 8q6 -23 6 -43 q0 -74 -84 -74z" />
<glyph unicode="6" d="M235 -10q-98 0 -140.5 57t-42.5 151q0 64 17 131t51 128.5t79.5 109.5t107.5 77t130 29q56 0 56 -43q0 -27 -14 -50q-20 4 -47 4q-83 0 -138.5 -66t-75.5 -168q65 62 140 62q59 0 98.5 -42.5t39.5 -122.5q0 -97 -74.5 -177t-186.5 -80zM279 314q-30 0 -68 -47 q-4 -26 -4 -58q0 -119 61 -119q29 0 48.5 41t19.5 92q0 42 -15.5 66.5t-41.5 24.5z" />
<glyph unicode="7" d="M391 556q-132 -5 -246 -5q-60 0 -60 58q0 31 13 61q55 -8 125 -8q272 0 329 2q5 -20 5 -34q0 -30 -22 -81q-39 -85 -302 -489q-45 -70 -95 -70q-45 0 -93 58q82 79 189 241t157 267z" />
<glyph unicode="8" d="M238 -10q-98 0 -149 44.5t-51 110.5q0 80 44 135.5t111 86.5q-83 50 -83 135q0 75 65 123t159 48q77 0 129 -34t52 -90q0 -119 -126 -182q50 -28 77.5 -66t27.5 -97q0 -87 -67 -150.5t-189 -63.5zM261 89q33 0 55 35.5t22 80.5q0 39 -17.5 63t-53.5 49q-72 -53 -72 -142 q0 -36 17.5 -61t48.5 -25zM313 574q-19 0 -34.5 -20t-15.5 -49q0 -52 52 -87q47 41 47 104q0 23 -14 37.5t-35 14.5z" />
<glyph unicode="9" d="M334 674q185 0 185 -206q0 -61 -17 -127t-51 -128.5t-79.5 -112t-107.5 -80t-130 -30.5q-29 0 -40 10.5t-11 32.5q0 11 6 51q19 -3 37 -3q86 0 144.5 68t79.5 165q-68 -61 -139 -61q-59 0 -98 44.5t-39 119.5q0 97 74 177t186 80zM293 349q31 0 69 48q3 30 3 60 q0 119 -60 119q-31 0 -50.5 -41.5t-19.5 -93.5q0 -43 15.5 -67.5t42.5 -24.5z" />
<glyph unicode=":" horiz-adv-x="269" d="M103 -10q-39 0 -60 23.5t-21 57.5q0 41 28.5 73.5t75.5 32.5q38 0 59.5 -25.5t21.5 -60.5q0 -40 -27.5 -70.5t-76.5 -30.5zM141 298q-39 0 -60 23.5t-21 57.5q0 41 28.5 73.5t75.5 32.5q38 0 59.5 -25.5t21.5 -60.5q0 -40 -27.5 -70.5t-76.5 -30.5z" />
<glyph unicode=";" horiz-adv-x="298" d="M156 298q-39 0 -60 23.5t-21 57.5q0 41 28.5 73.5t75.5 32.5q38 0 59.5 -25.5t21.5 -60.5q0 -40 -27.5 -70.5t-76.5 -30.5zM29 12q-6 15 -6 31q0 37 27.5 65t69.5 28q37 0 55.5 -24.5t18.5 -64.5q0 -72 -50.5 -141t-119.5 -69q-40 0 -40 33q0 12 5 27h4q27 0 49.5 24 t22.5 50q0 33 -36 41z" />
<glyph unicode="&#x3c;" d="M198 254q19 -19 60 -55.5t92.5 -81.5t69.5 -61q-11 -21 -30.5 -35t-39.5 -14q-19 0 -36 16l-225 231l227 216q19 16 36 16q21 0 41 -15t29 -34q-25 -22 -78.5 -65.5t-97.5 -78.5t-48 -39z" />
<glyph unicode="=" d="M514 361q0 -25 -14 -42.5t-37 -17.5q-17 0 -78 5.5t-91 5.5q-113 0 -216 -11q-4 21 -4 42q0 23 12.5 41.5t38.5 18.5q4 0 68 -5t111 -5q136 0 205 10q5 -20 5 -42zM514 165q0 -25 -14 -42.5t-37 -17.5q-17 0 -78 5.5t-91 5.5q-113 0 -216 -11q-4 21 -4 42q0 23 12.5 41.5 t38.5 18.5q4 0 68 -5t111 -5q136 0 205 10q5 -20 5 -42z" />
<glyph unicode="&#x3e;" d="M352 254q-1 1 -80 77t-107 106q12 19 32 34t40 15q16 0 32 -16l185 -216l-242 -231q-17 -16 -36 -16q-18 0 -34.5 14t-23.5 35q19 16 113.5 94.5t120.5 103.5z" />
<glyph unicode="?" horiz-adv-x="407" d="M244 250q-43 -21 -73 -21q-74 0 -74 53q0 30 17 60.5t41.5 56t49.5 51t42 55.5t17 60q0 43 -47 43q-24 0 -48 -20.5t-34 -54.5q-81 10 -81 58q0 47 55.5 75.5t128.5 28.5q66 0 119 -28.5t53 -90.5q0 -43 -17.5 -78.5t-42 -60.5t-49.5 -48t-42.5 -51.5t-17.5 -59.5 q0 -13 3 -28zM138 -10q-32 0 -53 21t-21 54q0 39 29 71t70 32q31 0 52.5 -22.5t21.5 -55.5q0 -38 -30 -69t-69 -31z" />
<glyph unicode="@" horiz-adv-x="847" d="M448 204q7 23 21.5 77t16.5 60q-19 13 -40 13q-26 0 -46 -30t-29 -64.5t-9 -62.5q0 -48 26 -48q30 0 60 55zM323 54q-38 0 -60 27t-22 80q0 64 27 127.5t80.5 109t119.5 45.5q93 0 155 -46q-66 -176 -66 -247q0 -33 18 -33q29 0 63.5 76.5t34.5 160.5q0 160 -168 160 q-85 0 -162 -56.5t-121 -142.5t-44 -172q0 -90 53.5 -131t130.5 -41q53 0 96.5 17t55.5 42q52 -20 52 -52q0 -40 -55.5 -66t-133.5 -26q-54 0 -104.5 14t-94.5 42.5t-71 78.5t-27 115q0 110 60 214.5t165.5 172t223.5 67.5q120 0 187.5 -60t67.5 -157q0 -68 -30 -137 t-90 -118t-135 -49q-72 0 -82 77q-57 -92 -124 -92z" />
<glyph unicode="A" horiz-adv-x="593" d="M405 30q-13 54 -31 161q-41 -3 -84 -3q-42 0 -85 3q-74 -178 -83 -204q-132 3 -132 63q0 15 13 42.5t52 103.5t75 153q116 248 137 321q50 6 82 6q83 0 95 -65q42 -229 63 -318q46 -201 70 -279q-60 -24 -107 -24q-56 0 -65 40zM335 549q-38 -125 -92 -262q32 -2 66 -2 q38 0 52 2q-16 132 -26 262z" />
<glyph unicode="B" horiz-adv-x="566" d="M46 56q28 111 56 331q24 185 24 273q82 13 175 13q241 0 241 -146q0 -63 -32.5 -107t-83.5 -58q48 -25 74 -56.5t26 -78.5q0 -107 -75 -172t-181 -65q-154 0 -224 66zM280 91q39 0 66.5 33t27.5 87q0 100 -92 100q-16 0 -36 -3q-15 -108 -35 -197q24 -20 69 -20zM277 566 q-9 -96 -18 -164q18 -2 29 -2q103 0 103 99q0 35 -21 54t-54 19q-20 0 -39 -6z" />
<glyph unicode="C" horiz-adv-x="568" d="M456 170q74 -27 74 -68q0 -42 -65 -77t-154 -35q-124 0 -195.5 74.5t-71.5 199.5q0 104 34.5 186t89.5 129t116.5 70.5t123.5 23.5q75 0 125 -32t50 -86q0 -29 -26 -47.5t-68 -23.5q-9 44 -36.5 66t-62.5 22q-80 0 -129 -85.5t-49 -199.5q0 -87 33 -141.5t100 -54.5 q66 0 111 79z" />
<glyph unicode="D" horiz-adv-x="669" d="M279 570q-20 -243 -64 -454q36 -25 92 -25q49 0 86.5 28.5t57 74t28.5 93t9 95.5q0 95 -43.5 142.5t-124.5 47.5q-15 0 -41 -2zM46 53q29 131 52.5 304.5t26.5 303.5q66 12 173 12q354 0 354 -269q0 -80 -26 -153.5t-73.5 -132t-122.5 -93.5t-166 -35q-147 0 -218 63z " />
<glyph unicode="E" horiz-adv-x="521" d="M517 540q-46 21 -159 21q-32 0 -82 -3q-2 -34 -18 -152q133 0 165 4q2 -20 2 -35q0 -65 -44 -70q-24 -2 -138 -2q-20 -163 -20 -202q28 -2 64 -2q53 0 108.5 6.5t72.5 15.5q8 -38 8 -56q0 -48 -35 -58t-158 -10q-153 0 -185 2q-24 1 -34 9t-10 26q0 28 33.5 272t33.5 325 q0 18 -1 25q118 9 236 9q153 0 172 -19q8 -8 8 -28q0 -40 -19 -78z" />
<glyph unicode="F" horiz-adv-x="497" d="M104 437q17 131 17 194q0 18 -1 25q118 9 241 9q153 0 172 -19q8 -8 8 -28q0 -40 -19 -78q-46 21 -159 21q-37 0 -87 -3q-2 -34 -18 -152q133 0 165 4q2 -20 2 -35q0 -65 -44 -70q-24 -2 -138 -2l-13 -104q-12 -86 -12 -132q0 -34 4 -59q-33 -11 -91 -11q-42 0 -59.5 15 t-17.5 47q0 6 5 41.5t18 131t27 205.5z" />
<glyph unicode="G" horiz-adv-x="600" d="M409 295q36 9 73 9q84 0 84 -51q0 -5 -6 -29.5t-14.5 -66t-13.5 -79.5q-8 -38 -71.5 -63t-150.5 -25q-124 0 -195 74.5t-71 199.5q0 183 104 296t267 113q72 0 120 -33t48 -84q0 -29 -26 -48t-68 -24q-9 44 -36 66t-61 22q-78 0 -129 -82t-51 -197q0 -90 28 -146t83 -56 q44 0 73 32q7 85 13 172z" />
<glyph unicode="H" horiz-adv-x="668" d="M570 666q82 0 82 -53q0 -5 -4.5 -32t-13 -80t-15.5 -109l-25 -193q-12 -86 -12 -132q0 -34 4 -59q-33 -11 -91 -11q-42 0 -59.5 15t-17.5 47q0 6 3 29t12 89.5t18 131.5q-14 0 -42 -0.5t-43 -0.5q-40 0 -122 2l-14 -111q-12 -86 -12 -132q0 -34 4 -59q-33 -11 -91 -11 q-42 0 -59.5 15t-17.5 47q0 6 5 41.5t18 131t27 205.5q19 153 22 223q31 6 80 6q82 0 82 -53q0 -5 -4.5 -29.5t-12.5 -74t-14 -100.5q39 -1 119 -1q58 0 88 1l4 28q19 153 22 223q31 6 80 6z" />
<glyph unicode="I" horiz-adv-x="304" d="M206 666q82 0 82 -53q0 -5 -4.5 -32t-13 -80t-15.5 -109l-25 -193q-12 -86 -12 -132q0 -34 4 -59q-33 -11 -91 -11q-42 0 -59.5 15t-17.5 47q0 6 5 41.5t18 131t27 205.5q19 153 22 223q31 6 80 6z" />
<glyph unicode="J" horiz-adv-x="378" d="M1 -16q76 6 102 44.5t39 135.5l37 277q13 95 21 219q34 6 80 6q82 0 82 -53q0 -6 -4.5 -34t-13 -79t-14.5 -93l-41 -285q-16 -106 -81.5 -173.5t-148.5 -67.5q-59 0 -59 74q0 19 1 29z" />
<glyph unicode="K" horiz-adv-x="577" d="M206 666q82 0 82 -53q0 -5 -4.5 -29.5t-12.5 -72.5t-14 -98q109 87 155.5 145t63.5 110q97 -16 97 -62q0 -40 -41.5 -83.5t-166.5 -143.5q47 -103 133 -253q10 -19 22 -23.5t35 -4.5q9 0 19 3q3 -16 3 -31q0 -80 -88 -80q-34 0 -57 12t-47 45q-30 41 -68 113.5t-61 137.5 l-15 -10l-11 -89q-12 -86 -12 -132q0 -34 4 -59q-33 -11 -91 -11q-42 0 -59.5 15t-17.5 47q0 6 5 41.5t18 131t27 205.5q19 153 22 223q31 6 80 6z" />
<glyph unicode="L" horiz-adv-x="454" d="M107 454q12 93 19 206q29 6 77 6q85 0 85 -52q0 -6 -5.5 -35.5t-14 -79.5t-14.5 -91q-4 -26 -8.5 -60t-7 -51.5t-6 -41t-5 -35t-3.5 -27.5l-3 -24t-2 -19t-1 -18t-0.5 -15t-0.5 -16q14 -1 48 -1q52 0 106.5 6.5t71.5 15.5q11 -29 11 -59q0 -16 -5 -27t-17 -18 t-23.5 -11.5t-33.5 -6t-38 -2t-45 -0.5q-141 0 -186 3q-52 5 -52 54q0 40 53 399z" />
<glyph unicode="M" horiz-adv-x="830" d="M770 436l-33 -233q-14 -92 -14 -144q0 -26 4 -51q-36 -11 -95 -11q-40 0 -56.5 16t-16.5 48q0 36 74 402q-123 -278 -173 -460q-33 -5 -59 -5q-78 0 -89 48q-22 99 -73 417q-32 -317 -32 -404q0 -20 4 -54q-35 -8 -85 -8q-72 0 -72 58q0 9 4 35t11 70t11 71l36 252 q10 72 10 127q0 26 -3 49q48 8 99 8q53 0 74.5 -20t35.5 -74q13 -50 25 -110.5t18.5 -99.5t18.5 -115t17 -106q86 262 191 467q31 61 120 61q41 0 92 -11q-24 -65 -44 -223z" />
<glyph unicode="N" horiz-adv-x="648" d="M554 5q-29 -8 -62 -8q-73 0 -92 45q-25 56 -75 193.5t-77 200.5q-40 -303 -40 -373q0 -20 4 -54q-33 -12 -76 -12q-46 0 -64 14.5t-18 45.5q0 9 4.5 39t11 74.5t10.5 72.5q7 60 19 147.5t16.5 130.5t4.5 81q0 32 -4 53q38 12 77 12q69 0 99 -49q10 -16 23.5 -44t30 -68 t30 -73t34 -85t31.5 -78l17 159q19 160 23 231q31 6 67 6q84 0 84 -59q0 -7 -6 -40t-14.5 -83.5t-13.5 -91.5t-17.5 -134.5t-18 -148t-8.5 -104.5z" />
<glyph unicode="O" horiz-adv-x="672" d="M368 572q-69 0 -112.5 -81t-43.5 -196q0 -88 28.5 -146t88.5 -58q72 0 114.5 84t42.5 199q0 85 -28.5 141.5t-89.5 56.5zM301 -10q-121 0 -189 73.5t-68 199.5q0 175 97.5 292.5t253.5 117.5q122 0 191 -72t69 -199q0 -172 -98 -292t-256 -120z" />
<glyph unicode="P" horiz-adv-x="550" d="M237 255q-19 -155 -19 -188q0 -34 4 -59q-33 -11 -91 -11q-42 0 -59.5 15t-17.5 47q0 6 5.5 42t18 130t26.5 206q18 155 18 224q79 12 164 12q52 0 94.5 -8.5t80 -28.5t58.5 -57.5t21 -90.5q0 -122 -64.5 -193.5t-145.5 -71.5q-56 0 -93 32zM313 573q-18 0 -39 -4 q-10 -111 -17 -161l-10 -66q29 -18 52 -18q39 0 63 42.5t24 110.5q0 54 -19 75t-54 21z" />
<glyph unicode="Q" horiz-adv-x="672" d="M655 402q0 -157 -82 -272t-219 -136q23 -43 75.5 -64t116.5 -21q101 0 147 89q65 -31 65 -79q0 -43 -32 -71t-70 -37t-79 -9q-257 0 -325 192q-99 14 -153.5 85t-54.5 184q0 175 97.5 293t253.5 118q122 0 191 -72.5t69 -199.5zM368 572q-69 0 -112.5 -81t-43.5 -196 q0 -88 28.5 -146t88.5 -58q72 0 114.5 84t42.5 199q0 85 -28.5 141.5t-89.5 56.5z" />
<glyph unicode="R" horiz-adv-x="586" d="M491 123q9 -14 18.5 -19.5t30.5 -5.5q14 0 25 3q3 -18 3 -36q0 -38 -25 -56.5t-63 -18.5q-61 0 -88 27.5t-52 97.5q-25 69 -50 149q-8 9 -8 28q0 27 13 53q4 -1 12 -1q20 0 34.5 14t21.5 36t10 43.5t3 42.5q0 56 -16 75t-52 19q-21 0 -34 -4q-5 -64 -18 -168l-26 -203 q-12 -101 -12 -138q0 -32 4 -53q-33 -11 -91 -11q-77 0 -77 57q0 11 3.5 38t10 70t9.5 69l26 200q18 133 18 230q79 12 165 12q135 0 197 -53t62 -133q0 -75 -34.5 -131t-86.5 -68q37 -117 67 -165z" />
<glyph unicode="S" horiz-adv-x="520" d="M432 490q-9 35 -39 55.5t-63 20.5q-39 0 -66.5 -25t-27.5 -71q0 -28 25.5 -45.5t62 -29t73.5 -26.5t62.5 -49.5t25.5 -86.5q0 -115 -73.5 -179t-198.5 -64q-74 0 -132 30.5t-58 73.5q0 54 75 78q15 -36 50 -57.5t73 -21.5q42 0 71.5 26.5t29.5 78.5q0 21 -13 36t-34.5 23 t-47 16t-50.5 20t-46.5 29t-34.5 49t-13 75q0 106 75 165.5t191 59.5q62 0 116.5 -27t54.5 -74q0 -29 -21 -51t-67 -29z" />
<glyph unicode="T" horiz-adv-x="475" d="M43 558q-2 18 -2 34q0 66 50 68q23 1 97 1h179q139 0 171 3q3 -36 3 -38q0 -62 -49 -63q-29 -1 -130 -1q-6 -41 -18 -126t-17.5 -125.5t-12.5 -96.5t-10 -91t-3 -58q0 -32 4 -57q-33 -11 -90 -11q-42 0 -60 15t-18 47q0 11 11 86.5t27 196.5t26 218q-115 0 -158 -2z" />
<glyph unicode="U" horiz-adv-x="664" d="M442 274q40 302 44 386q31 6 80 6q82 0 82 -53q0 -5 -4.5 -32t-13 -80t-15.5 -109l-24 -193q-12 -86 -12 -132q0 -34 4 -59q-36 -11 -92 -11q-47 0 -62 16.5t-15 51.5q0 3 1.5 12t3.5 25t4 30q-43 -68 -100 -105t-112 -37q-67 0 -103.5 48t-36.5 119q0 24 25 212t30 290 q31 7 80 7q82 0 82 -53q0 -3 -4 -27t-11.5 -72.5t-13.5 -92.5q-30 -197 -30 -228q0 -91 59 -91q38 0 84 49t70 123z" />
<glyph unicode="V" horiz-adv-x="622" d="M105 521q0 73 -27 129q36 24 96 24q98 0 98 -95q0 -47 -20.5 -173.5t-20.5 -185.5q0 -96 18 -132q52 7 94 58t65.5 122.5t36 144t12.5 134.5t-17 106q39 21 96 21q96 0 96 -80q0 -54 -15 -127.5t-49 -157.5t-81 -154.5t-119 -117.5t-156 -47q-30 0 -60 11q-80 66 -80 190 q0 64 16.5 156t16.5 174z" />
<glyph unicode="W" horiz-adv-x="963" d="M105 521q0 73 -27 129q36 24 96 24q98 0 98 -95q0 -47 -20.5 -173.5t-20.5 -185.5q0 -96 18 -132q50 7 89.5 58t62.5 122.5t34.5 144t11.5 134.5t-17 106q39 21 96 21q96 0 96 -80q0 -118 -54 -265q-2 -32 -2 -49q0 -119 34 -192q50 7 89.5 58t62.5 122.5t34.5 144 t11.5 134.5t-17 106q39 21 96 21q96 0 96 -80q0 -54 -14.5 -127.5t-47.5 -157.5t-79 -154.5t-117 -117.5t-153 -47q-29 0 -59 11q-44 27 -60 105q-103 -116 -232 -116q-29 0 -59 11q-80 66 -80 190q0 64 16.5 156t16.5 174z" />
<glyph unicode="X" horiz-adv-x="566" d="M565 76q-63 -86 -122 -86q-12 0 -23.5 4.5t-22 14.5t-19.5 20t-18.5 28.5t-16 32t-16 38t-15 39.5t-16 43t-15.5 43q-44 -53 -88.5 -132.5t-58.5 -130.5q-61 11 -94.5 27.5t-33.5 48.5q0 18 14.5 44t48 63t53.5 58t66.5 66t51.5 50q-48 102 -83 153.5t-87 87.5 q66 85 121 85q44 0 74 -58q31 -62 68 -180q41 63 74.5 132t40.5 107q41 -8 65.5 -15t46 -23.5t21.5 -39.5q0 -12 -7 -28.5t-22.5 -38t-29 -38.5t-37.5 -43.5t-36 -39.5t-37 -39t-28 -29q36 -90 78 -157.5t103 -106.5z" />
<glyph unicode="Y" horiz-adv-x="509" d="M188 282q-87 274 -143 327q34 33 57.5 46t51.5 13q25 0 41.5 -9.5t26.5 -37.5q43 -112 80 -232q36 56 81 152t49 131q133 0 133 -63q0 -51 -221 -327l-10 -83q-12 -103 -12 -132q0 -34 4 -59q-33 -11 -91 -11q-42 0 -59.5 15t-17.5 47q0 5 3 27.5t11 80t16 115.5z" />
<glyph unicode="Z" horiz-adv-x="586" d="M154 667q34 0 152 -13.5t175 -13.5q53 0 80 13q23 -23 23 -63q0 -36 -20 -59l-258 -295q-52 -61 -87 -113q7 1 23 1q33 0 103.5 -13t101.5 -13q57 0 88 16q15 -34 15 -58q0 -36 -27 -51t-98 -15q-31 0 -123 12.5t-146 12.5q-55 0 -93 -12q-27 27 -27 58q0 23 16 53 q54 97 336 421q-35 0 -110 11.5t-114 11.5t-77 -19q-14 35 -14 62q0 66 81 66z" />
<glyph unicode="[" horiz-adv-x="412" d="M310 640l-99 -749q36 2 75 2q37 0 37 -34q0 -19 -10 -49h-236l120 910h236q1 -7 1 -21q0 -61 -49 -61q-41 0 -75 2z" />
<glyph unicode="\" horiz-adv-x="270" d="M108 214q-76 468 -76 489q0 39 52 39q17 0 30 -5q12 -137 54 -407q37 -242 59 -381q4 -21 4.5 -25.5t0.5 -5.5q0 -40 -47 -40q-13 0 -35 5q-9 108 -42 331z" />
<glyph unicode="]" horiz-adv-x="395" d="M102 -110l99 749q-36 -2 -75 -2q-36 0 -36 33q0 20 9 50h236l-120 -910h-236q-1 7 -1 20q0 62 49 62q41 0 75 -2z" />
<glyph unicode="^" horiz-adv-x="537" d="M270 543q-7 -7 -33 -35t-42.5 -45t-40.5 -39t-43 -33t-33 -11q-26 0 -59 33q28 42 112.5 128.5t137.5 133.5q54 -49 137.5 -134.5t111.5 -127.5q-33 -33 -58 -33q-9 0 -21.5 6.5t-28 19t-30 25t-32.5 31t-30 30.5t-28 29t-20 22z" />
<glyph unicode="_" horiz-adv-x="535" d="M535 -110q0 -18 -10 -30t-26 -12q-15 0 -69 4t-82 4h-143q-114 0 -202 -8q-3 15 -3 30q0 16 9 29t27 13q3 0 63 -3.5t104 -3.5h142q127 0 187 7q3 -9 3 -30z" />
<glyph unicode="`" horiz-adv-x="229" d="M10 755q18 -31 60.5 -65t73 -61t30.5 -50q0 -18 -7.5 -29.5t-27.5 -26.5q-30 26 -81 57t-78.5 53t-27.5 46q0 47 58 76z" />
<glyph unicode="a" horiz-adv-x="534" d="M310 189l25 169q-30 36 -61 36q-42 0 -66 -61t-24 -137q0 -50 11 -83.5t32 -33.5q19 0 43 30.5t40 79.5zM303 104q-28 -55 -68 -84.5t-83 -29.5q-56 0 -91 45.5t-35 132.5q0 78 29 148t91.5 118.5t146.5 48.5q102 0 199 -66q-45 -212 -45 -293q0 -38 32 -58 q-26 -76 -100 -76q-41 0 -59 22t-18 67q0 16 1 25z" />
<glyph unicode="b" horiz-adv-x="530" d="M223 286q-4 -26 -26 -176q30 -31 61 -31q37 0 63 51.5t26 140.5q0 49 -14 85.5t-39 36.5q-16 0 -36 -29t-35 -78zM38 46q19 109 49 319t30 244q0 45 -31 50q7 38 37 60.5t70 22.5q78 0 78 -87q0 -55 -32 -256q25 40 61.5 62.5t71.5 22.5q58 0 95.5 -49.5t37.5 -138.5 q0 -78 -31 -147t-94.5 -114t-146.5 -45q-100 0 -195 56z" />
<glyph unicode="c" horiz-adv-x="457" d="M344 314q-3 39 -21.5 58t-38.5 19q-46 0 -74 -54.5t-28 -129.5q0 -64 22.5 -95.5t57.5 -31.5q21 0 44 17.5t38 45.5q32 -12 46.5 -26.5t14.5 -38.5q0 -37 -40.5 -62.5t-117.5 -25.5q-99 0 -160.5 48t-61.5 146q0 73 25.5 132t66.5 95t89.5 55t98.5 19q29 0 59.5 -8 t56.5 -29.5t26 -52.5q0 -30 -29.5 -53.5t-73.5 -27.5z" />
<glyph unicode="d" horiz-adv-x="530" d="M311 189l24 169q-30 36 -65 36q-36 0 -61.5 -54.5t-25.5 -138.5q0 -122 44 -122q18 0 43 31t41 79zM346 435q7 40 13.5 102t6.5 73q0 43 -31 49q4 35 35.5 59t72.5 24q77 0 77 -89q0 -35 -32 -270t-32 -257q0 -38 31 -59q-26 -77 -101 -77q-85 0 -85 92q0 15 1 22 q-28 -55 -68 -84.5t-83 -29.5q-56 0 -91 45.5t-35 132.5q0 130 62 223t153 93q50 0 106 -49z" />
<glyph unicode="e" horiz-adv-x="467" d="M202 242q40 0 63 33.5t23 77.5q0 18 -10 30t-23 12q-24 0 -43.5 -41.5t-24.5 -110.5q5 -1 15 -1zM351 134q22 -11 37.5 -28t15.5 -34q0 -35 -51.5 -58.5t-118.5 -23.5q-86 0 -147.5 42.5t-61.5 131.5q0 126 80.5 223.5t205.5 97.5q57 0 96.5 -32t39.5 -88 q0 -89 -66.5 -138.5t-167.5 -49.5q-12 0 -30 2q0 -99 79 -99q52 0 89 54z" />
<glyph unicode="f" horiz-adv-x="380" d="M397 568q-14 57 -68 57q-24 0 -41 -23.5t-24.5 -56t-10.5 -72.5q70 0 133 5q6 -15 6 -36q0 -25 -11.5 -42t-36.5 -18q-23 -2 -101 -2q-18 -192 -31 -292l-5.5 -44t-7 -42t-10.5 -43t-15 -34.5t-22 -31t-29.5 -17.5t-39.5 -8q-29 0 -51.5 19.5t-31.5 58.5q68 20 95 433 q-30 -1 -60 -5q-4 22 -4 34q0 67 57 67h16q8 108 66.5 173.5t175.5 65.5q51 0 92.5 -20.5t41.5 -63.5q0 -22 -20 -39t-63 -23z" />
<glyph unicode="g" horiz-adv-x="526" d="M286 483q111 0 207 -66q-32 -135 -49 -267q-3 -20 -6.5 -56.5t-6 -58.5t-8 -55t-12 -54t-18 -48t-26 -44t-36.5 -35.5t-48.5 -28.5t-62.5 -16.5t-79 -6.5q-63 0 -105 17.5t-42 49.5q0 26 21 45.5t43 28.5q28 -51 93 -51q128 0 138 243q-29 -47 -66 -68.5t-70 -21.5 q-63 0 -94.5 52.5t-31.5 127.5q0 127 74.5 220t184.5 93zM228 79q17 0 42 29.5t41 80.5q5 28 13 88t12 81q-28 36 -61 36q-39 0 -64.5 -57t-25.5 -139q0 -53 11.5 -86t31.5 -33z" />
<glyph unicode="h" horiz-adv-x="549" d="M197 742q76 0 76 -90q0 -75 -32 -267q31 47 73.5 72.5t81.5 25.5q53 0 82 -32.5t29 -84.5q0 -18 -20.5 -117.5t-20.5 -122.5q0 -40 34 -60q-12 -36 -41 -56t-63 -20q-36 0 -61 22.5t-25 61.5q0 32 19 128.5t19 133.5q0 56 -33 56q-24 0 -53 -41.5t-42 -95.5l-2 -10 q-19 -141 -19 -173q0 -23 4 -57q-38 -17 -84 -17q-77 0 -77 56q0 29 38.5 273.5t38.5 284.5q0 43 -31 47q5 35 35.5 59t73.5 24z" />
<glyph unicode="i" horiz-adv-x="283" d="M161 485q76 0 76 -90q0 -40 -22 -142t-22 -126q0 -40 32 -60q-14 -38 -41.5 -57.5t-60.5 -19.5q-85 0 -85 91q0 47 22.5 148t22.5 126q0 43 -31 47q5 35 35.5 59t73.5 24zM175 531q-38 0 -57.5 22.5t-19.5 54.5q0 39 26.5 69.5t71.5 30.5q37 0 57 -24t20 -57 q0 -39 -25.5 -67.5t-72.5 -28.5z" />
<glyph unicode="j" horiz-adv-x="317" d="M192 485q76 0 76 -93q0 -82 -55 -412q-17 -108 -80.5 -170.5t-172.5 -62.5q-26 0 -54.5 4.5t-57 20.5t-28.5 42q0 21 18.5 42t45.5 32q11 -21 32 -36t44 -15q31 0 58 32.5t39 105.5q57 346 57 380q0 43 -31 47q5 35 35.5 59t73.5 24zM200 531q-38 0 -57.5 22.5 t-19.5 54.5q0 39 26.5 69.5t71.5 30.5q37 0 57 -24t20 -57q0 -39 -25.5 -67.5t-72.5 -28.5z" />
<glyph unicode="k" horiz-adv-x="525" d="M318 388q-12 0 -26.5 -8t-36 -39t-35.5 -81l-2 -12q-19 -118 -19 -183q0 -23 4 -57q-38 -17 -84 -17q-77 0 -77 56q0 29 38.5 273.5t38.5 284.5q0 43 -31 47q5 35 35.5 59t73.5 24q76 0 76 -90q0 -73 -32 -263q42 54 76.5 77.5t75.5 23.5q44 0 73.5 -29t29.5 -75 q0 -62 -39 -112t-97 -60q4 -11 10 -27l9 -24t8 -19.5t8 -17t7 -13.5t8 -11t9 -7t10.5 -5t11.5 -1q21 0 52 9q7 -23 7 -34q0 -33 -32 -50t-71 -17q-34 0 -52 7t-34 29q-30 42 -62 172q-5 5 -5 17q0 24 16 51q12 -3 21 -3q30 0 51.5 26t21.5 60q0 39 -36 39z" />
<glyph unicode="l" horiz-adv-x="271" d="M185 742q76 0 76 -90q0 -40 -32 -270.5t-32 -254.5q0 -40 32 -60q-11 -31 -35.5 -54t-62.5 -23q-89 0 -89 91q0 44 32.5 268t32.5 263q0 43 -31 47q5 35 35.5 59t73.5 24z" />
<glyph unicode="m" horiz-adv-x="811" d="M213 253q-14 -118 -14 -181q0 -23 4 -57q-38 -17 -84 -17q-77 0 -77 56q0 5 20 135.5t20 161.5q0 44 -31 51q6 38 35.5 60.5t65.5 22.5q85 0 85 -83q0 -2 -0.5 -7.5t-0.5 -8.5q30 47 72.5 72t81.5 25q48 0 76.5 -27.5t33.5 -72.5q72 100 158 100q53 0 82 -32.5t29 -84.5 q0 -18 -20.5 -117.5t-20.5 -122.5q0 -40 34 -60q-12 -36 -41 -56t-63 -20q-36 0 -61 22.5t-25 61.5q0 32 19 128.5t19 133.5q0 56 -33 56q-24 0 -53 -40t-42 -93q0 -3 -2 -11q-13 -108 -13 -176q0 -23 4 -57q-38 -17 -84 -17q-77 0 -77 56q0 7 8 59t18 117.5t13 98.5v7 q0 25 -11.5 40.5t-28.5 15.5q-24 0 -53.5 -42t-42.5 -97z" />
<glyph unicode="n" horiz-adv-x="543" d="M213 253q-14 -118 -14 -181q0 -23 4 -57q-38 -17 -84 -17q-77 0 -77 56q0 5 20 135.5t20 161.5q0 44 -31 51q6 38 35.5 60.5t65.5 22.5q85 0 85 -83q0 -2 -0.5 -7.5t-0.5 -8.5q30 47 72.5 72t81.5 25q53 0 82 -32.5t29 -84.5q0 -18 -20.5 -117.5t-20.5 -122.5 q0 -40 34 -60q-12 -36 -41 -56t-63 -20q-36 0 -61 22.5t-25 61.5q0 32 19 128.5t19 133.5q0 56 -33 56q-24 0 -53.5 -42t-42.5 -97z" />
<glyph unicode="o" horiz-adv-x="517" d="M267 394q-35 0 -57.5 -57.5t-22.5 -130.5q0 -55 16 -90.5t45 -35.5q35 0 57.5 56.5t22.5 128.5q0 57 -15.5 93t-45.5 36zM220 -10q-90 0 -142.5 55.5t-52.5 145.5q0 123 75.5 208t192.5 85q93 0 146 -51.5t53 -141.5q0 -123 -78.5 -212t-193.5 -89z" />
<glyph unicode="p" horiz-adv-x="535" d="M379 484q58 0 94.5 -44t36.5 -136q0 -135 -66 -224.5t-150 -89.5q-60 0 -106 45q-20 -111 -20 -148q0 -43 32 -63q-28 -77 -106 -77q-81 0 -81 97q0 46 37 262.5t37 245.5q0 42 -31 50q6 39 35 61t66 22q85 0 85 -81q0 -8 -1 -13q27 45 63.5 69t74.5 24zM230 294 q-6 -43 -31 -184q28 -31 62 -31q37 0 64 54.5t27 147.5q0 51 -13.5 82t-36.5 31q-16 0 -36.5 -27.5t-35.5 -72.5z" />
<glyph unicode="q" horiz-adv-x="515" d="M492 417q-18 -74 -53 -286.5t-35 -247.5q0 -40 32 -60q-10 -31 -36 -54t-61 -23q-53 0 -71.5 26.5t-18.5 75.5q0 52 38 232q-56 -90 -136 -90q-56 0 -91 46t-35 133q0 129 75.5 221.5t185.5 92.5q112 0 206 -66zM310 193q4 24 12 83.5t12 82.5q-33 35 -61 35 q-39 0 -64.5 -58.5t-25.5 -151.5q0 -44 11 -74t32 -30q19 0 44 31t40 82z" />
<glyph unicode="r" horiz-adv-x="396" d="M210 233q-12 -113 -12 -170q0 -18 4 -48q-37 -17 -85 -17q-76 0 -76 56q0 8 20 137.5t20 159.5q0 44 -31 51q4 33 31.5 58t71.5 25q83 0 83 -82q0 -14 -4 -37q29 59 65.5 88.5t68.5 29.5q51 0 51 -53q0 -23 -11 -47t-28 -38q-31 25 -62 25q-70 0 -106 -138z" />
<glyph unicode="s" horiz-adv-x="429" d="M305 324q-4 31 -20.5 48t-39.5 17t-40.5 -13.5t-17.5 -39.5q0 -20 19.5 -32t47.5 -19t56 -17.5t47.5 -35.5t19.5 -65q0 -79 -63.5 -128t-148.5 -49q-160 0 -160 75q0 57 88 93q6 -36 29.5 -54t52.5 -18q30 0 50 12.5t20 39.5q0 17 -19.5 27t-47.5 17t-55.5 18t-47 37.5 t-19.5 67.5q0 76 63 128t144 52q32 0 62.5 -7t56 -26t25.5 -47q0 -64 -102 -81z" />
<glyph unicode="t" horiz-adv-x="390" d="M74 475h33q3 18 8 57t5 42q30 6 68 6q46 0 62.5 -8.5t16.5 -31.5q0 -16 -9 -66q114 0 156 5q5 -18 5 -37q0 -56 -50 -60q-33 -2 -126 -2q-33 -234 -33 -257q0 -25 15 -38t38 -13q40 0 66 31q27 -27 27 -55q0 -58 -124 -58q-88 0 -128 34t-40 101q0 19 5 59.5t15 106 t13 89.5q-13 0 -79 -6q-2 16 -2 27q0 74 58 74z" />
<glyph unicode="u" horiz-adv-x="548" d="M321 104q-26 -47 -69.5 -80.5t-93.5 -33.5q-53 0 -82 32t-29 83q0 22 20 117t20 128q0 42 -31 52q6 39 35.5 61t65.5 22q87 0 87 -92q0 -35 -19.5 -125t-20.5 -132q0 -55 32 -55q23 0 51 40t41 96q27 160 32 247q40 14 70 14q78 0 78 -72q0 -22 -21.5 -143t-21.5 -139 q0 -39 32 -58q-9 -30 -34 -53t-64 -23q-46 0 -62.5 23.5t-16.5 64.5q0 17 1 26z" />
<glyph unicode="v" horiz-adv-x="479" d="M67 366q0 51 -19 91q37 27 95 27q48 0 67 -19.5t19 -58.5q0 -29 -16 -112.5t-16 -128.5q0 -38 8 -66q36 10 64.5 60t41.5 108t13 108q0 55 -15 84q32 25 83 25q36 0 60.5 -16.5t24.5 -49.5q0 -48 -25.5 -119t-68 -140.5t-108.5 -119t-136 -49.5q-24 0 -44 8 q-49 43 -49 134q0 45 10.5 110.5t10.5 123.5z" />
<glyph unicode="w" horiz-adv-x="727" d="M67 366q0 51 -19 91q37 27 95 27q48 0 67 -19.5t19 -58.5q0 -29 -16 -112.5t-16 -128.5q0 -38 8 -66q36 10 64.5 60t41.5 108t13 108q0 55 -15 84q32 25 83 25q36 0 60.5 -16.5t24.5 -49.5q0 -63 -40 -157q0 -123 16 -162q36 10 64.5 60t41.5 108t13 108q0 55 -15 84 q32 25 83 25q36 0 60.5 -16.5t24.5 -49.5q0 -48 -25.5 -119t-68 -140.5t-108.5 -119t-136 -49.5q-24 0 -44 8q-27 23 -32 72q-82 -80 -172 -80q-24 0 -44 8q-49 43 -49 134q0 45 10.5 110.5t10.5 123.5z" />
<glyph unicode="x" horiz-adv-x="462" d="M44 370q-4 22 -4 35q0 34 27.5 58.5t63.5 24.5q17 0 31.5 -5t26 -18t19.5 -22.5t16.5 -31.5t12 -31t11.5 -35t10 -31q40 60 48 168q10 2 32 2q44 0 70.5 -19t26.5 -50q0 -14 -7.5 -31t-16 -30.5t-27 -33.5t-27 -29t-30 -29.5t-23.5 -22.5q4 -8 14 -28.5t14 -27.5 t13 -23.5t14 -23t14.5 -17t17.5 -14.5t19 -7.5t23 -3.5q4 -20 4 -34q0 -31 -24.5 -50.5t-59.5 -19.5q-60 0 -86.5 37t-59.5 138q-67 -111 -73 -171q-10 -1 -27 -1q-45 0 -70.5 16t-25.5 43q0 12 5.5 26t17.5 29t21.5 26.5t29 28.5t27.5 24t29 23.5t23 18.5q-4 8 -13 28 t-13 27.5t-12 23t-13 22t-13.5 16.5t-16.5 14t-18 7.5t-21 3.5z" />
<glyph unicode="y" horiz-adv-x="485" d="M249 112q63 161 69 278q0 38 -15 69q35 25 81 25q86 0 86 -79q0 -73 -53.5 -193t-118.5 -216q-32 -48 -52.5 -75.5t-52.5 -60.5t-62 -50t-72 -28.5t-93 -11.5q-66 0 -106 21t-40 53q0 42 70 78q7 -26 34 -44t55 -18q93 0 176 143q-2 58 -52.5 214.5t-99.5 194.5 q23 32 54 51.5t59 19.5q29 0 51.5 -21.5t33.5 -64.5q27 -109 48 -285z" />
<glyph unicode="z" horiz-adv-x="472" d="M119 483q28 0 122 -9.5t138 -9.5q49 0 71 9q17 -18 17 -51q0 -24 -15 -40q-159 -167 -242 -274q5 1 15 1q22 0 69 -9.5t68 -9.5q35 0 55 12q11 -25 11 -48q0 -34 -22.5 -49t-74.5 -15q-25 0 -100.5 9t-117.5 9q-50 0 -83 -9q-19 26 -19 42q0 15 12 38q36 63 246 293 q-24 0 -72 6t-74 6q-31 0 -59 -14q-8 29 -8 53q0 60 63 60z" />
<glyph unicode="{" horiz-adv-x="412" d="M182 286q22 -8 41.5 -36.5t19.5 -58.5q0 -7 -13.5 -107t-13.5 -109q0 -18 14 -25.5t52 -7.5q39 0 39 -36q0 -16 -9 -47q-13 -1 -34 -1q-100 0 -144 23.5t-44 70.5q0 18 14.5 120t14.5 118q0 28 -14.5 49.5t-44.5 21.5l6 50q35 0 57 27t26 57l27 209q8 56 58 83.5 t158 27.5q22 0 34 -1q1 -7 1 -21q0 -62 -53 -62q-50 0 -63 -12t-18 -48l-24 -178q-5 -35 -32.5 -66.5t-54.5 -40.5z" />
<glyph unicode="|" horiz-adv-x="503" d="M208 302v17q0 335 -12 413q23 5 43 5q66 0 66 -55q0 -5 -2.5 -76t-5 -187.5t-2.5 -232.5v-17q0 -335 12 -413q-23 -5 -43 -5q-66 0 -66 55q0 5 2.5 76t5 187.5t2.5 232.5z" />
<glyph unicode="}" horiz-adv-x="411" d="M229 287q-22 8 -41.5 36.5t-19.5 58.5q0 7 13.5 107.5t13.5 108.5q0 18 -14 25.5t-52 7.5q-40 0 -40 34q0 17 10 49q13 1 34 1q100 0 144 -23.5t44 -70.5q0 -18 -14.5 -122t-14.5 -117q0 -27 14.5 -48.5t44.5 -21.5l-6 -50q-35 0 -57 -27t-26 -57l-27 -209 q-8 -56 -58 -83.5t-158 -27.5q-22 0 -33 1q-1 7 -1 20q0 63 52 63q50 0 63 12t18 48l24 178q5 35 32.5 66.5t54.5 40.5z" />
<glyph unicode="~" horiz-adv-x="608" d="M31 267q0 82 128 82q55 0 142.5 -20t129.5 -20q73 0 112 35q34 -36 34 -69q0 -42 -45.5 -62t-107.5 -20q-35 0 -118 20t-128 20q-74 0 -113 -35q-34 36 -34 69z" />
<glyph unicode="&#xa1;" horiz-adv-x="344" d="M212 -165q0 -31 2 -43q-44 -11 -80 -11q-80 0 -80 59q0 22 29 148.5t29 207.5q0 22 -2 31q36 19 71 19q31 0 50.5 -13.5t19.5 -38.5q0 -6 -9.5 -71.5t-19.5 -150t-10 -137.5zM216 485q32 0 53 -21t21 -54q0 -39 -29 -71t-70 -32q-31 0 -52.5 22.5t-21.5 55.5q0 38 30 69 t69 31z" />
<glyph unicode="&#xa2;" d="M277 -16q-36 0 -36 30q0 9 7 59q-81 14 -134.5 65t-53.5 138q0 126 75 202t181 96q6 40 10 103q14 5 25 5q35 0 35 -29q0 -2 -10 -72h7q74 0 118.5 -27.5t44.5 -62.5q0 -21 -18.5 -38.5t-53.5 -26.5q-37 58 -97 58q-3 0 -7.5 -0.5t-6.5 -0.5q-17 -128 -45 -318 q6 -1 19 -1q65 0 100 60q64 -12 64 -50q0 -30 -21 -52.5t-54 -33t-63.5 -15.5t-57.5 -5q-4 -28 -6 -81zM216 296q0 -69 48 -107l37 270q-38 -26 -61.5 -69t-23.5 -94z" />
<glyph unicode="&#xa3;" d="M428 312l-67 3q0 -67 -28.5 -115.5t-114.5 -95.5q20 -1 64.5 -9.5t63.5 -8.5q64 0 69 66h10q84 0 84 -56q0 -34 -26 -57.5t-59 -32.5t-69 -9q-88 0 -164 16t-85 16q-9 -13 -27.5 -22t-36.5 -9q-37 0 -37 37q0 28 26 51t78 26q53 57 75 93.5t22 78.5q0 18 -4 31 q-29 0 -68 -1.5t-61 -1.5q-2 14 -2 21q0 55 46 60q3 0 61 3q-31 69 -31 107q0 73 69.5 122t162.5 49q47 0 75 -21t28 -49q0 -23 -20 -44t-59 -32q-15 40 -52 40q-23 0 -39.5 -15.5t-16.5 -42.5q0 -19 23 -59t28 -51q85 4 147 12q3 -20 3 -38q0 -30 -14.5 -46t-53.5 -16z" />
<glyph unicode="&#xa5;" d="M521 354v-10q0 -53 -43 -53h-133l-7 -55q86 0 168 8v-10q0 -53 -43 -53h-132q-13 -89 -13 -123q0 -24 3 -51q-32 -10 -76 -10q-42 0 -59 13t-17 40q0 24 16 130q-97 -2 -155 -7q-2 6 -2 18q0 45 42 45h124l8 55q-83 -1 -157 -8q-2 6 -2 18q0 45 42 45h96 q-69 206 -126 267q51 55 99 55q46 0 64 -44q50 -127 82 -241q43 63 92 157.5t54 131.5q126 0 126 -63q0 -27 -52.5 -104t-121.5 -159q60 1 123 8z" />
<glyph unicode="&#xa6;" d="M242 554v7q0 139 -12 171q23 5 43 5q66 0 66 -55q0 -2 -2.5 -31.5t-5 -77.5t-2.5 -96v-7q0 -138 12 -170q-23 -6 -43 -6q-66 0 -66 54q0 2 2.5 31.5t5 78t2.5 96.5zM242 11v7q0 139 -12 171q23 5 43 5q66 0 66 -55q0 -2 -2.5 -31.5t-5 -77.5t-2.5 -96v-7q0 -138 12 -170 q-23 -6 -43 -6q-66 0 -66 54q0 2 2.5 31.5t5 78t2.5 96.5z" />
<glyph unicode="&#xa7;" horiz-adv-x="482" d="M68 309q0 80 68 128q-19 32 -19 70q0 81 64 123t153 42q73 0 110.5 -22t37.5 -53q0 -26 -25 -49t-67 -32q-4 29 -26 47t-49 18t-47 -15t-20 -43q0 -27 21 -49t51.5 -38.5t61 -35.5t51.5 -48.5t21 -68.5q0 -72 -64 -125q20 -32 20 -68q0 -78 -68 -123t-155 -45 q-85 0 -126.5 22t-41.5 54q0 23 19.5 44.5t51.5 32.5q24 -63 108 -63q32 0 54.5 19t22.5 53q0 28 -21.5 48t-51.5 34t-60.5 30.5t-52 44.5t-21.5 68zM162 363q0 -33 30.5 -59.5t84.5 -56t79 -51.5q6 13 6 26q0 30 -31 56.5t-83.5 58.5t-79.5 58q-6 -13 -6 -32z" />
<glyph unicode="&#xa8;" horiz-adv-x="409" d="M191 530q-35 0 -54 21t-19 52q0 37 25.5 66.5t68.5 29.5q34 0 53.5 -23t19.5 -55q0 -36 -25 -63.5t-69 -27.5zM419 530q-35 0 -54 21t-19 52q0 37 25.5 66.5t68.5 29.5q34 0 53.5 -23t19.5 -55q0 -36 -25 -63.5t-69 -27.5z" />
<glyph unicode="&#xa9;" horiz-adv-x="840" d="M613 161q0 -26 -41 -45.5t-97 -19.5q-41 0 -78 11.5t-70.5 36t-53.5 70t-20 105.5q0 114 66 173t150 59q30 0 61.5 -8.5t57.5 -29t26 -49.5q0 -39 -73 -49q-8 31 -31 47t-48 16q-40 0 -67 -41t-27 -107q0 -84 34.5 -122.5t81.5 -38.5q54 0 88 46q41 -25 41 -54zM808 320 q0 -150 -100.5 -252t-244.5 -102q-147 0 -247 101.5t-100 252.5q0 152 100 253t247 101q145 0 245 -101t100 -253zM736 320q0 132 -79.5 214.5t-193.5 82.5q-116 0 -195.5 -82t-79.5 -215t79.5 -215t195.5 -82q114 0 193.5 82t79.5 215z" />
<glyph unicode="&#xaa;" horiz-adv-x="345" d="M201 482q-18 -2 -27.5 -3.5t-22 -6t-18 -13t-5.5 -20.5q0 -22 21 -22q27 0 44 15l2 16q2 20 6 34zM106 551q-18 2 -30.5 12.5t-12.5 23.5q0 31 39 43.5t81 12.5q47 0 79 -18t32 -58q0 -8 -9.5 -70.5t-9.5 -96.5q0 -19 2 -27q-17 -11 -47 -11q-42 0 -42 31 q-30 -35 -76 -35q-32 0 -54.5 19t-22.5 53q0 17 4 30t9.5 22t17.5 16.5t20 11t26.5 7t28 5t32 4t32.5 3.5q2 20 2 27q0 17 -7.5 24.5t-27.5 7.5q-46 0 -66 -37zM281 286q0 -72 -78 -72q-11 0 -40 3.5t-45 3.5h-5q-41 0 -91 -16q-2 14 -2 31q0 72 74 72q6 0 36 -3t48 -3h13 q47 0 86 15q4 -17 4 -31z" />
<glyph unicode="&#xab;" horiz-adv-x="568" d="M201 235q24 -37 48 -86.5t24 -66.5q0 -30 -74 -58q-63 63 -145 211q117 145 200 211q59 -31 59 -55q0 -27 -112 -156zM441 235q24 -37 48 -86.5t24 -66.5q0 -30 -74 -58q-63 63 -145 211q117 145 200 211q59 -31 59 -55q0 -27 -112 -156z" />
<glyph unicode="&#xac;" d="M495 336q3 -233 3 -236q0 -36 -13.5 -52t-49.5 -16q-38 0 -64 12q25 85 25 202v15h-186q-81 0 -143 -21q-10 22 -10 43q0 53 60 53h378z" />
<glyph unicode="&#xae;" horiz-adv-x="572" d="M416 356q4 -8 4 -16q0 -11 -10 -17.5t-24 -6.5q-25 0 -40 18q-43 45 -65 85v-23q0 -42 9 -68q-19 -10 -37 -10q-47 0 -47 30q0 9 1 30t1 29v67q0 52 -5 86q75 6 97 6q112 0 112 -78q0 -51 -60 -70q7 -14 46 -58q4 -4 18 -4zM301 451q39 0 39 37q0 18 -13.5 29.5 t-32.5 11.5h-13v-77q4 -1 20 -1zM533 440q0 -99 -66.5 -166t-161.5 -67q-97 0 -163 67t-66 166q0 100 66 166.5t163 66.5q95 0 161.5 -67t66.5 -166zM474 440q0 82 -49 132.5t-120 50.5q-72 0 -121 -50.5t-49 -132.5t49 -132.5t121 -50.5q71 0 120 50.5t49 132.5z" />
<glyph unicode="&#xaf;" horiz-adv-x="412" d="M276 646q59 0 143 8q0 -2 -0.5 -17.5t-1 -21t-2.5 -18.5t-5.5 -19t-8.5 -14t-13.5 -11t-19.5 -3l-20 2q-19 2 -50 3.5t-59 1.5h-27q-62 0 -125 -7v15t0.5 19.5t2 19t4.5 19.5t8 15t13 12t18 4q3 0 48.5 -4t67.5 -4h27z" />
<glyph unicode="&#xb0;" horiz-adv-x="351" d="M47 520q0 77 49.5 134t127.5 57q58 0 93.5 -37t35.5 -95q0 -77 -49 -134.5t-127 -57.5q-59 0 -94.5 37t-35.5 96zM212 642q-37 0 -60.5 -35.5t-23.5 -78.5q0 -33 14 -52.5t42 -19.5q37 0 59.5 36t22.5 79q0 32 -13.5 51.5t-40.5 19.5z" />
<glyph unicode="&#xb1;" d="M493 57q0 -25 -14 -42.5t-37 -17.5q-17 0 -76.5 5.5t-89.5 5.5q-113 0 -216 -11q-4 21 -4 42q0 23 12.5 41.5t38.5 18.5q4 0 67.5 -5t109.5 -5q134 0 203 10q6 -12 6 -42zM326 333q85 0 188 11q4 -12 4 -42q0 -25 -14.5 -42.5t-37.5 -17.5q-24 0 -65 5t-76 5 q0 -65 11 -126q-32 -6 -43 -6q-24 0 -42 12.5t-18 36.5q0 10 5 42t5 42q-34 0 -196 -11q-4 21 -4 42q0 23 12.5 41.5t39.5 18.5q8 0 48.5 -4t101.5 -6q0 73 -12 172q13 4 43 4q25 0 42.5 -14t17.5 -37t-5 -57t-5 -69z" />
<glyph unicode="&#xb2;" horiz-adv-x="499" d="M163 509q-57 9 -57 50q0 35 35.5 62.5t77.5 39.5t76 12q72 0 108.5 -30.5t36.5 -78.5q0 -39 -19.5 -75t-58 -69t-66.5 -52.5t-74 -47.5q17 -1 50 -1q86 0 148 19q15 -30 15 -53q0 -43 -33 -53q-41 -12 -126 -12q-38 0 -94 1t-83 1q-45 0 -45 37q0 17 7 43 q243 147 243 244q0 36 -43 36q-57 0 -98 -73z" />
<glyph unicode="&#xb3;" horiz-adv-x="493" d="M172 484q122 2 122 79q0 30 -39 30q-26 0 -55.5 -14t-43.5 -34q-38 11 -38 46q0 28 31.5 47.5t66 27t62.5 7.5q77 0 114.5 -25t37.5 -67q0 -43 -25.5 -75t-69.5 -48q73 -25 73 -97q0 -77 -62.5 -115t-156.5 -38q-22 0 -49 3.5t-56.5 17.5t-29.5 37q0 37 54 73 q29 -47 92 -47q75 0 75 72q0 25 -21 41t-63 16q-26 0 -26 28q0 14 7 35z" />
<glyph unicode="&#xb4;" horiz-adv-x="272" d="M243 629q-25 -15 -111.5 -51.5t-105.5 -54.5q-26 25 -26 56q0 21 26.5 41t61.5 35.5t77 42t66 55.5q17 -11 29 -32t12 -40q0 -34 -29 -52z" />
<glyph unicode="&#xb5;" horiz-adv-x="544" d="M317 104q-14 -47 -40.5 -80.5t-63.5 -33.5q-23 0 -48 15q-12 -38 -12 -78q0 -75 43 -103q-28 -77 -106 -77q-81 0 -81 97q0 46 36.5 261t37.5 245q0 42 -31 52q6 39 35.5 61t65.5 22q87 0 87 -92q0 -35 -19.5 -125t-20.5 -132q0 -55 32 -55q23 0 51 40t41 96 q27 160 32 247q40 14 70 14q78 0 78 -72q0 -22 -21.5 -143t-21.5 -139q0 -39 32 -58q-9 -30 -34 -53t-64 -23q-46 0 -62.5 23.5t-16.5 64.5q0 17 1 26z" />
<glyph unicode="&#xb6;" horiz-adv-x="504" d="M236 228q-2 -17 -46 -17q-58 0 -97 40t-39 107q0 95 61.5 156t146.5 61q7 0 72.5 -2t97.5 -2q66 0 102 1q2 -16 2 -22q0 -48 -65 -48h-23q-43 -200 -67 -391q-29 -230 -191 -230q-75 0 -75 54q0 18 11 43q28 -12 58 -12t50 15.5t28.5 45t12.5 56t6.5 64.5t4.5 54 q27 181 52 300q-29 0 -55 2q-21 -83 -47 -275z" />
<glyph unicode="&#xb7;" horiz-adv-x="229" d="M107 167q-39 0 -60 23.5t-21 57.5q0 41 28.5 73.5t75.5 32.5q38 0 59.5 -25t21.5 -61q0 -40 -27.5 -70.5t-76.5 -30.5z" />
<glyph unicode="&#xb8;" horiz-adv-x="394" d="M116 32l81 -5q-2 -6 -9 -17.5t-11.5 -22t-4.5 -19.5t11 -18.5t24 -17.5t24 -24.5t11 -38.5q0 -52 -53.5 -86.5t-111.5 -34.5q-61 0 -61 41q0 25 30 58q11 -13 32 -13q16 0 25.5 10.5t9.5 26.5q0 15 -17.5 35t-17.5 34q0 29 38 92z" />
<glyph unicode="&#xb9;" horiz-adv-x="436" d="M298 308q36 0 72 4q3 -12 3 -27q0 -26 -9.5 -46t-29.5 -20q-6 0 -31 0.5t-68.5 1t-96.5 0.5q-47 0 -73 -1q-2 18 -2 28q0 62 52 62h45q16 105 35 272q-44 -5 -84 -20q-5 17 -5 34q0 54 39 63q59 14 138 14q59 0 59 -52q0 -17 -13 -82t-16 -89q-15 -105 -15 -142z" />
<glyph unicode="&#xba;" horiz-adv-x="385" d="M172 419q33 0 51.5 29.5t18.5 68.5q0 71 -47 71q-32 0 -50 -29t-18 -68q0 -72 45 -72zM165 366q-56 0 -89 31.5t-33 84.5q0 65 45 113t113 48q57 0 90.5 -31t33.5 -84q0 -65 -46 -113.5t-114 -48.5zM281 286q0 -72 -78 -72q-11 0 -40 3.5t-45 3.5h-5q-41 0 -91 -16 q-2 14 -2 31q0 72 74 72q6 0 36 -3t48 -3h13q47 0 86 15q4 -17 4 -31z" />
<glyph unicode="&#xbb;" horiz-adv-x="571" d="M129 235q-22 32 -47.5 81t-25.5 68q0 14 15 28t60 34q57 -57 145 -211q-120 -146 -202 -211q-59 24 -59 52q0 34 114 159zM370 235q-22 32 -47.5 81t-25.5 68q0 14 15 28t60 34q57 -57 145 -211q-120 -146 -202 -211q-59 24 -59 52q0 34 114 159z" />
<glyph unicode="&#xbc;" horiz-adv-x="996" d="M249 -38l284 474q109 180 173 303q24 0 44 -10t20 -29q0 -16 -11 -32l-284 -474q-114 -188 -173 -303q-25 1 -44.5 11.5t-19.5 29.5q0 13 11 30zM298 308q36 0 72 4q3 -12 3 -27q0 -26 -9.5 -46t-29.5 -20q-6 0 -31 0.5t-68.5 1t-96.5 0.5q-47 0 -73 -1q-2 18 -2 28 q0 62 52 62h45q16 105 35 272q-44 -5 -84 -20q-5 17 -5 34q0 54 39 63q59 14 138 14q59 0 59 -52q0 -17 -13 -82t-16 -89q-15 -105 -15 -142zM757 434q25 21 84 21q36 0 61 -5q0 -5 -5.5 -37t-15.5 -92.5t-18 -122.5q45 3 65 12q5 -30 5 -44q0 -32 -18 -43t-64 -13 q-6 -39 -6 -64q0 -23 5 -48q-30 -8 -53 -8q-36 0 -50 9.5t-14 30.5q0 2 12 79q-145 2 -174 7q-25 5 -25 35q0 2 7 44q43 63 102.5 133.5t101.5 105.5zM660 195q19 -2 97 -2q9 77 21 148q-72 -79 -118 -146z" />
<glyph unicode="&#xbd;" horiz-adv-x="1026" d="M249 -38l284 474q109 180 173 303q24 0 44 -10t20 -29q0 -16 -11 -32l-284 -474q-114 -188 -173 -303q-25 1 -44.5 11.5t-19.5 29.5q0 13 11 30zM298 308q36 0 72 4q3 -12 3 -27q0 -26 -9.5 -46t-29.5 -20q-6 0 -31 0.5t-68.5 1t-96.5 0.5q-47 0 -73 -1q-2 18 -2 28 q0 62 52 62h45q16 105 35 272q-44 -5 -84 -20q-5 17 -5 34q0 54 39 63q59 14 138 14q59 0 59 -52q0 -17 -13 -82t-16 -89q-15 -105 -15 -142zM690 287q-57 9 -57 50q0 35 35.5 62.5t77.5 39.5t76 12q72 0 108.5 -30.5t36.5 -78.5q0 -39 -19.5 -75t-58 -69t-66.5 -52.5 t-74 -47.5q17 -1 50 -1q86 0 148 19q15 -30 15 -53q0 -43 -33 -53q-41 -12 -126 -12q-38 0 -94 1t-83 1q-45 0 -45 37q0 17 7 43q243 147 243 244q0 36 -43 36q-57 0 -98 -73z" />
<glyph unicode="&#xbe;" horiz-adv-x="1007" d="M260 -38l284 474q109 180 173 303q24 0 44 -10t20 -29q0 -16 -11 -32l-284 -474q-114 -188 -173 -303q-25 1 -44.5 11.5t-19.5 29.5q0 13 11 30zM768 434q25 21 84 21q36 0 61 -5q0 -5 -5.5 -37t-15.5 -92.5t-18 -122.5q45 3 65 12q5 -30 5 -44q0 -32 -18 -43t-64 -13 q-6 -39 -6 -64q0 -23 5 -48q-30 -8 -53 -8q-36 0 -50 9.5t-14 30.5q0 2 12 79q-145 2 -174 7q-25 5 -25 35q0 2 7 44q43 63 102.5 133.5t101.5 105.5zM671 195q19 -2 97 -2q9 77 21 148q-72 -79 -118 -146zM172 484q122 2 122 79q0 30 -39 30q-26 0 -55.5 -14t-43.5 -34 q-38 11 -38 46q0 28 31.5 47.5t66 27t62.5 7.5q77 0 114.5 -25t37.5 -67q0 -43 -25.5 -75t-69.5 -48q73 -25 73 -97q0 -77 -62.5 -115t-156.5 -38q-22 0 -49 3.5t-56.5 17.5t-29.5 37q0 37 54 73q29 -47 92 -47q75 0 75 72q0 25 -21 41t-63 16q-26 0 -26 28q0 14 7 35z" />
<glyph unicode="&#xbf;" horiz-adv-x="410" d="M166 226q43 21 73 21q74 0 74 -53q0 -30 -17 -60.5t-41.5 -56t-49.5 -51t-42 -55.5t-17 -60q0 -43 47 -43q24 0 48 20.5t34 54.5q81 -10 81 -58q0 -47 -55.5 -75.5t-128.5 -28.5q-66 0 -119 28.5t-53 90.5q0 43 17.5 78.5t42.5 60.5t49.5 48t42 51.5t17.5 59.5 q0 13 -3 28zM272 486q32 0 53 -21t21 -54q0 -39 -29 -71t-70 -32q-31 0 -52.5 22.5t-21.5 55.5q0 38 30 69t69 31z" />
<glyph unicode="&#xc0;" horiz-adv-x="593" d="M405 30q-13 54 -31 161q-41 -3 -84 -3q-42 0 -85 3q-74 -178 -83 -204q-132 3 -132 63q0 15 13 42.5t52 103.5t75 153q116 248 137 321q50 6 82 6q83 0 95 -65q42 -229 63 -318q46 -201 70 -279q-60 -24 -107 -24q-56 0 -65 40zM235 948q18 -31 60.5 -65t73 -61t30.5 -50 q0 -18 -7.5 -29.5t-27.5 -26.5q-30 26 -81 57t-78.5 53t-27.5 46q0 47 58 76zM335 549q-38 -125 -92 -262q32 -2 66 -2q38 0 52 2q-16 132 -26 262z" />
<glyph unicode="&#xc1;" horiz-adv-x="593" d="M405 30q-13 54 -31 161q-41 -3 -84 -3q-42 0 -85 3q-74 -178 -83 -204q-132 3 -132 63q0 15 13 42.5t52 103.5t75 153q116 248 137 321q50 6 82 6q83 0 95 -65q42 -229 63 -318q46 -201 70 -279q-60 -24 -107 -24q-56 0 -65 40zM490 822q-25 -15 -111.5 -51.5 t-105.5 -54.5q-26 25 -26 56q0 21 26.5 41t61.5 35.5t77 42t66 55.5q17 -11 29 -32t12 -40q0 -34 -29 -52zM335 549q-38 -125 -92 -262q32 -2 66 -2q38 0 52 2q-16 132 -26 262z" />
<glyph unicode="&#xc2;" horiz-adv-x="593" d="M405 30q-13 54 -31 161q-41 -3 -84 -3q-42 0 -85 3q-74 -178 -83 -204q-132 3 -132 63q0 15 13 42.5t52 103.5t75 153q116 248 137 321q50 6 82 6q83 0 95 -65q42 -229 63 -318q46 -201 70 -279q-60 -24 -107 -24q-56 0 -65 40zM360 912q39 -26 64 -45t48 -46.5t23 -49.5 q0 -16 -18.5 -34t-47.5 -25q-19 28 -40 50t-33 30l-12 9q-104 -81 -126 -81q-17 0 -26 7.5t-21 30.5q87 89 189 154zM335 549q-38 -125 -92 -262q32 -2 66 -2q38 0 52 2q-16 132 -26 262z" />
<glyph unicode="&#xc3;" horiz-adv-x="593" d="M405 30q-13 54 -31 161q-41 -3 -84 -3q-42 0 -85 3q-74 -178 -83 -204q-132 3 -132 63q0 15 13 42.5t52 103.5t75 153q116 248 137 321q50 6 82 6q83 0 95 -65q42 -229 63 -318q46 -201 70 -279q-60 -24 -107 -24q-56 0 -65 40zM518 833q0 -41 -44.5 -73.5t-89.5 -32.5 q-23 0 -61 21.5t-54 21.5q-20 0 -69 -40q-31 13 -31 35q0 40 45.5 73t88.5 33q23 0 61 -21.5t55 -21.5q21 0 68 40q11 -2 21 -11.5t10 -23.5zM335 549q-38 -125 -92 -262q32 -2 66 -2q38 0 52 2q-16 132 -26 262z" />
<glyph unicode="&#xc4;" horiz-adv-x="593" d="M405 30q-13 54 -31 161q-41 -3 -84 -3q-42 0 -85 3q-74 -178 -83 -204q-132 3 -132 63q0 15 13 42.5t52 103.5t75 153q116 248 137 321q50 6 82 6q83 0 95 -65q42 -229 63 -318q46 -201 70 -279q-60 -24 -107 -24q-56 0 -65 40zM219 723q-35 0 -54 21t-19 52 q0 37 25.5 66.5t68.5 29.5q34 0 53.5 -23t19.5 -55q0 -36 -25 -63.5t-69 -27.5zM447 723q-35 0 -54 21t-19 52q0 37 25.5 66.5t68.5 29.5q34 0 53.5 -23t19.5 -55q0 -36 -25 -63.5t-69 -27.5zM335 549q-38 -125 -92 -262q32 -2 66 -2q38 0 52 2q-16 132 -26 262z" />
<glyph unicode="&#xc5;" horiz-adv-x="593" d="M405 30q-13 54 -31 161q-41 -3 -84 -3q-42 0 -85 3q-74 -178 -83 -204q-132 3 -132 63q0 15 13 42.5t52 103.5t75 153q116 248 137 321q50 6 82 6q83 0 95 -65q42 -229 63 -318q46 -201 70 -279q-60 -24 -107 -24q-56 0 -65 40zM339 733q-43 0 -69 26.5t-26 70.5 q0 54 35.5 95t90.5 41q43 0 68 -26t25 -70q0 -57 -33.5 -97t-90.5 -40zM335 549q-38 -125 -92 -262q32 -2 66 -2q38 0 52 2q-16 132 -26 262zM346 783q27 0 43.5 22.5t16.5 51.5q0 27 -11 43t-32 16q-27 0 -44 -22.5t-17 -51.5q0 -26 11.5 -42.5t32.5 -16.5z" />
<glyph unicode="&#xc6;" horiz-adv-x="796" d="M792 540q-46 21 -159 21q-33 0 -82 -3q-2 -34 -18 -152q133 0 165 4q2 -20 2 -35q0 -65 -44 -70q-24 -2 -138 -2q-20 -163 -20 -202q28 -2 64 -2q53 0 108.5 6.5t72.5 15.5q8 -38 8 -56q0 -48 -35 -58t-158 -10q-153 0 -185 2q-24 1 -34 9t-10 26q0 33 17 155 q-21 -1 -63 -1q-35 0 -93 2q-94 -141 -124 -200q-110 15 -110 61q0 19 19 48t67 96.5t71 102.5q142 207 223 356q176 11 295 11q153 0 172 -19q8 -8 8 -28q0 -40 -19 -78zM386 491l-132 -205q14 -1 48 -1q30 0 58 2q21 160 26 204z" />
<glyph unicode="&#xc7;" horiz-adv-x="568" d="M456 170q74 -27 74 -68q0 -40 -58 -73.5t-141 -37.5q-5 -13 -5 -23q0 -9 11 -18.5t24 -17.5t24 -24.5t11 -38.5q0 -52 -53.5 -86.5t-111.5 -34.5q-61 0 -61 41q0 25 30 58q11 -13 32 -13q16 0 25.5 10.5t9.5 26.5q0 15 -17.5 35t-17.5 34q0 24 17 56q-96 17 -150.5 88.5 t-54.5 179.5q0 104 34.5 186t89.5 129t116.5 70.5t123.5 23.5q75 0 125 -32t50 -86q0 -29 -26 -47.5t-68 -23.5q-9 44 -36.5 66t-62.5 22q-80 0 -129 -85.5t-49 -199.5q0 -87 33 -141.5t100 -54.5q66 0 111 79z" />
<glyph unicode="&#xc8;" horiz-adv-x="521" d="M517 540q-46 21 -159 21q-32 0 -82 -3q-2 -34 -18 -152q133 0 165 4q2 -20 2 -35q0 -65 -44 -70q-24 -2 -138 -2q-20 -163 -20 -202q28 -2 64 -2q53 0 108.5 6.5t72.5 15.5q8 -38 8 -56q0 -48 -35 -58t-158 -10q-153 0 -185 2q-24 1 -34 9t-10 26q0 28 33.5 272t33.5 325 q0 18 -1 25q118 9 236 9q153 0 172 -19q8 -8 8 -28q0 -40 -19 -78zM247 948q18 -31 60.5 -65t73 -61t30.5 -50q0 -18 -7.5 -29.5t-27.5 -26.5q-30 26 -81 57t-78.5 53t-27.5 46q0 47 58 76z" />
<glyph unicode="&#xc9;" horiz-adv-x="521" d="M517 540q-46 21 -159 21q-32 0 -82 -3q-2 -34 -18 -152q133 0 165 4q2 -20 2 -35q0 -65 -44 -70q-24 -2 -138 -2q-20 -163 -20 -202q28 -2 64 -2q53 0 108.5 6.5t72.5 15.5q8 -38 8 -56q0 -48 -35 -58t-158 -10q-153 0 -185 2q-24 1 -34 9t-10 26q0 28 33.5 272t33.5 325 q0 18 -1 25q118 9 236 9q153 0 172 -19q8 -8 8 -28q0 -40 -19 -78zM502 822q-25 -15 -111.5 -51.5t-105.5 -54.5q-26 25 -26 56q0 21 26.5 41t61.5 35.5t77 42t66 55.5q17 -11 29 -32t12 -40q0 -34 -29 -52z" />
<glyph unicode="&#xca;" horiz-adv-x="521" d="M517 540q-46 21 -159 21q-32 0 -82 -3q-2 -34 -18 -152q133 0 165 4q2 -20 2 -35q0 -65 -44 -70q-24 -2 -138 -2q-20 -163 -20 -202q28 -2 64 -2q53 0 108.5 6.5t72.5 15.5q8 -38 8 -56q0 -48 -35 -58t-158 -10q-153 0 -185 2q-24 1 -34 9t-10 26q0 28 33.5 272t33.5 325 q0 18 -1 25q118 9 236 9q153 0 172 -19q8 -8 8 -28q0 -40 -19 -78zM372 912q39 -26 64 -45t48 -46.5t23 -49.5q0 -16 -18.5 -34t-47.5 -25q-19 28 -40 50t-33 30l-12 9q-103 -81 -126 -81q-17 0 -26 7.5t-21 30.5q87 89 189 154z" />
<glyph unicode="&#xcb;" horiz-adv-x="538" d="M517 540q-46 21 -159 21q-32 0 -82 -3q-2 -34 -18 -152q133 0 165 4q2 -20 2 -35q0 -65 -44 -70q-24 -2 -138 -2q-20 -163 -20 -202q28 -2 64 -2q53 0 108.5 6.5t72.5 15.5q8 -38 8 -56q0 -48 -35 -58t-158 -10q-153 0 -185 2q-24 1 -34 9t-10 26q0 28 33.5 272t33.5 325 q0 18 -1 25q118 9 236 9q153 0 172 -19q8 -8 8 -28q0 -40 -19 -78zM231 723q-35 0 -54 21t-19 52q0 37 25.5 66.5t68.5 29.5q34 0 53.5 -23t19.5 -55q0 -36 -25 -63.5t-69 -27.5zM459 723q-35 0 -54 21t-19 52q0 37 25.5 66.5t68.5 29.5q34 0 53.5 -23t19.5 -55 q0 -36 -25 -63.5t-69 -27.5z" />
<glyph unicode="&#xcc;" horiz-adv-x="304" d="M206 666q82 0 82 -53q0 -5 -4.5 -32t-13 -80t-15.5 -109l-25 -193q-12 -86 -12 -132q0 -34 4 -59q-33 -11 -91 -11q-42 0 -59.5 15t-17.5 47q0 6 5 41.5t18 131t27 205.5q19 153 22 223q31 6 80 6zM133 948q18 -31 60.5 -65t73 -61t30.5 -50q0 -18 -7.5 -29.5 t-27.5 -26.5q-30 26 -81 57t-78.5 53t-27.5 46q0 47 58 76z" />
<glyph unicode="&#xcd;" horiz-adv-x="304" d="M206 666q82 0 82 -53q0 -5 -4.5 -32t-13 -80t-15.5 -109l-25 -193q-12 -86 -12 -132q0 -34 4 -59q-33 -11 -91 -11q-42 0 -59.5 15t-17.5 47q0 6 5 41.5t18 131t27 205.5q19 153 22 223q31 6 80 6zM368 822q-25 -15 -111.5 -51.5t-105.5 -54.5q-26 25 -26 56 q0 21 26.5 41t61.5 35.5t77 42t66 55.5q17 -11 29 -32t12 -40q0 -34 -29 -52z" />
<glyph unicode="&#xce;" horiz-adv-x="304" d="M206 666q82 0 82 -53q0 -5 -4.5 -32t-13 -80t-15.5 -109l-25 -193q-12 -86 -12 -132q0 -34 4 -59q-33 -11 -91 -11q-42 0 -59.5 15t-17.5 47q0 6 5 41.5t18 131t27 205.5q19 153 22 223q31 6 80 6zM238 912q39 -26 64 -45t48 -46.5t23 -49.5q0 -16 -18.5 -34t-47.5 -25 q-19 28 -40 50t-33 30l-12 9q-103 -81 -126 -81q-17 0 -26 7.5t-21 30.5q87 89 189 154z" />
<glyph unicode="&#xcf;" horiz-adv-x="304" d="M206 666q82 0 82 -53q0 -5 -4.5 -32t-13 -80t-15.5 -109l-25 -193q-12 -86 -12 -132q0 -34 4 -59q-33 -11 -91 -11q-42 0 -59.5 15t-17.5 47q0 6 5 41.5t18 131t27 205.5q19 153 22 223q31 6 80 6zM97 723q-35 0 -54 21t-19 52q0 37 25.5 66.5t68.5 29.5q34 0 53.5 -23 t19.5 -55q0 -36 -25 -63.5t-69 -27.5zM325 723q-35 0 -54 21t-19 52q0 37 25.5 66.5t68.5 29.5q34 0 53.5 -23t19.5 -55q0 -36 -25 -63.5t-69 -27.5z" />
<glyph unicode="&#xd0;" horiz-adv-x="713" d="M90 53q24 110 45 250q-66 0 -97 -4q-2 20 -2 35q0 65 44 70q30 2 69 2q17 139 20 255q66 12 173 12q354 0 354 -269q0 -80 -26 -153.5t-73.5 -132t-122.5 -93.5t-166 -35q-147 0 -218 63zM323 570q-4 -62 -17 -164q122 0 153 4q2 -20 2 -35q0 -65 -44 -70q-23 -2 -125 -2 q-16 -107 -33 -187q36 -25 92 -25q49 0 86.5 28.5t57 74t28.5 93t9 95.5q0 95 -43.5 142.5t-124.5 47.5q-15 0 -41 -2z" />
<glyph unicode="&#xd1;" horiz-adv-x="648" d="M554 5q-29 -8 -62 -8q-73 0 -92 45q-25 56 -75 193.5t-77 200.5q-40 -303 -40 -373q0 -20 4 -54q-33 -12 -76 -12q-46 0 -64 14.5t-18 45.5q0 9 4.5 39t11 74.5t10.5 72.5q7 60 19 147.5t16.5 130.5t4.5 81q0 32 -4 53q38 12 77 12q69 0 99 -49q10 -16 23.5 -44t30 -68 t30 -73t34 -85t31.5 -78l17 159q19 160 23 231q31 6 67 6q84 0 84 -59q0 -7 -6 -40t-14.5 -83.5t-13.5 -91.5t-17.5 -134.5t-18 -148t-8.5 -104.5zM578 833q0 -41 -44.5 -73.5t-89.5 -32.5q-23 0 -61 21.5t-54 21.5q-20 0 -69 -40q-31 13 -31 35q0 40 45.5 73t88.5 33 q23 0 61 -21.5t55 -21.5q21 0 68 40q11 -2 21 -11.5t10 -23.5z" />
<glyph unicode="&#xd2;" horiz-adv-x="672" d="M368 572q-69 0 -112.5 -81t-43.5 -196q0 -88 28.5 -146t88.5 -58q72 0 114.5 84t42.5 199q0 85 -28.5 141.5t-89.5 56.5zM301 -10q-121 0 -189 73.5t-68 199.5q0 175 97.5 292.5t253.5 117.5q122 0 191 -72t69 -199q0 -172 -98 -292t-256 -120zM301 948q18 -31 60.5 -65 t73 -61t30.5 -50q0 -18 -7.5 -29.5t-27.5 -26.5q-30 26 -81 57t-78.5 53t-27.5 46q0 47 58 76z" />
<glyph unicode="&#xd3;" horiz-adv-x="672" d="M368 572q-69 0 -112.5 -81t-43.5 -196q0 -88 28.5 -146t88.5 -58q72 0 114.5 84t42.5 199q0 85 -28.5 141.5t-89.5 56.5zM301 -10q-121 0 -189 73.5t-68 199.5q0 175 97.5 292.5t253.5 117.5q122 0 191 -72t69 -199q0 -172 -98 -292t-256 -120zM556 822 q-25 -15 -111.5 -51.5t-105.5 -54.5q-26 25 -26 56q0 21 26.5 41t61.5 35.5t77 42t66 55.5q17 -11 29 -32t12 -40q0 -34 -29 -52z" />
<glyph unicode="&#xd4;" horiz-adv-x="672" d="M368 572q-69 0 -112.5 -81t-43.5 -196q0 -88 28.5 -146t88.5 -58q72 0 114.5 84t42.5 199q0 85 -28.5 141.5t-89.5 56.5zM301 -10q-121 0 -189 73.5t-68 199.5q0 175 97.5 292.5t253.5 117.5q122 0 191 -72t69 -199q0 -172 -98 -292t-256 -120zM426 912q39 -26 64 -45 t48 -46.5t23 -49.5q0 -16 -18.5 -34t-47.5 -25q-19 28 -40 50t-33 30l-12 9q-104 -81 -126 -81q-17 0 -26 7.5t-21 30.5q87 89 189 154z" />
<glyph unicode="&#xd5;" horiz-adv-x="672" d="M368 572q-69 0 -112.5 -81t-43.5 -196q0 -88 28.5 -146t88.5 -58q72 0 114.5 84t42.5 199q0 85 -28.5 141.5t-89.5 56.5zM301 -10q-121 0 -189 73.5t-68 199.5q0 175 97.5 292.5t253.5 117.5q122 0 191 -72t69 -199q0 -172 -98 -292t-256 -120zM584 833 q0 -41 -44.5 -73.5t-89.5 -32.5q-23 0 -61 21.5t-54 21.5q-20 0 -69 -40q-31 13 -31 35q0 40 45.5 73t88.5 33q23 0 61.5 -21.5t54.5 -21.5q21 0 68 40q11 -2 21 -11.5t10 -23.5z" />
<glyph unicode="&#xd6;" horiz-adv-x="672" d="M368 572q-69 0 -112.5 -81t-43.5 -196q0 -88 28.5 -146t88.5 -58q72 0 114.5 84t42.5 199q0 85 -28.5 141.5t-89.5 56.5zM301 -10q-121 0 -189 73.5t-68 199.5q0 175 97.5 292.5t253.5 117.5q122 0 191 -72t69 -199q0 -172 -98 -292t-256 -120zM285 723q-35 0 -54 21 t-19 52q0 37 25.5 66.5t68.5 29.5q34 0 53.5 -23t19.5 -55q0 -36 -25 -63.5t-69 -27.5zM513 723q-35 0 -54 21t-19 52q0 37 25.5 66.5t68.5 29.5q34 0 53.5 -23t19.5 -55q0 -36 -25 -63.5t-69 -27.5z" />
<glyph unicode="&#xd7;" d="M348 236q15 -15 75 -68.5t98 -84.5q-33 -53 -73 -53q-18 0 -33 15q-20 19 -62 66t-63 68q-95 -94 -159 -173q-19 13 -27.5 20t-17.5 21.5t-9 31.5q0 19 14 33q7 7 51 44.5t90 80.5q-100 97 -174 161q35 54 72 54q19 0 34 -16q7 -7 46.5 -52.5t80.5 -89.5q132 144 158 176 q20 -11 36.5 -31.5t16.5 -41.5q0 -18 -15 -33q-18 -19 -67 -62t-72 -66z" />
<glyph unicode="&#xd8;" horiz-adv-x="672" d="M301 -10q-60 0 -108 18l-53 -92q-24 1 -40 12t-16 29q0 14 12 32l36 55q-88 73 -88 219q0 175 97.5 293t253.5 118q71 0 128 -27q12 19 32 53.5t26 44.5q24 -1 40 -12t16 -29q0 -12 -12 -32l-44 -66q74 -72 74 -204q0 -172 -98 -292t-256 -120zM368 572q-69 0 -112.5 -81 t-43.5 -196q0 -61 13 -107l223 342q-31 42 -80 42zM486 374q0 42 -7 76l-216 -332q27 -27 66 -27q72 0 114.5 84t42.5 199z" />
<glyph unicode="&#xd9;" horiz-adv-x="664" d="M442 274q40 302 44 386q31 6 80 6q82 0 82 -53q0 -5 -4.5 -32t-13 -80t-15.5 -109l-24 -193q-12 -86 -12 -132q0 -34 4 -59q-36 -11 -92 -11q-47 0 -62 16.5t-15 51.5q0 3 1.5 12t3.5 25t4 30q-43 -68 -100 -105t-112 -37q-67 0 -103.5 48t-36.5 119q0 24 25 212t30 290 q31 7 80 7q82 0 82 -53q0 -3 -4 -27t-11.5 -72.5t-13.5 -92.5q-30 -197 -30 -228q0 -91 59 -91q38 0 84 49t70 123zM311 948q18 -31 60.5 -65t73 -61t30.5 -50q0 -18 -7.5 -29.5t-27.5 -26.5q-30 26 -81 57t-78.5 53t-27.5 46q0 47 58 76z" />
<glyph unicode="&#xda;" horiz-adv-x="664" d="M442 274q40 302 44 386q31 6 80 6q82 0 82 -53q0 -5 -4.5 -32t-13 -80t-15.5 -109l-24 -193q-12 -86 -12 -132q0 -34 4 -59q-36 -11 -92 -11q-47 0 -62 16.5t-15 51.5q0 3 1.5 12t3.5 25t4 30q-43 -68 -100 -105t-112 -37q-67 0 -103.5 48t-36.5 119q0 24 25 212t30 290 q31 7 80 7q82 0 82 -53q0 -3 -4 -27t-11.5 -72.5t-13.5 -92.5q-30 -197 -30 -228q0 -91 59 -91q38 0 84 49t70 123zM566 822q-25 -15 -111.5 -51.5t-105.5 -54.5q-26 25 -26 56q0 21 26.5 41t61.5 35.5t77 42t66 55.5q17 -11 29 -32t12 -40q0 -34 -29 -52z" />
<glyph unicode="&#xdb;" horiz-adv-x="664" d="M442 274q40 302 44 386q31 6 80 6q82 0 82 -53q0 -5 -4.5 -32t-13 -80t-15.5 -109l-24 -193q-12 -86 -12 -132q0 -34 4 -59q-36 -11 -92 -11q-47 0 -62 16.5t-15 51.5q0 3 1.5 12t3.5 25t4 30q-43 -68 -100 -105t-112 -37q-67 0 -103.5 48t-36.5 119q0 24 25 212t30 290 q31 7 80 7q82 0 82 -53q0 -3 -4 -27t-11.5 -72.5t-13.5 -92.5q-30 -197 -30 -228q0 -91 59 -91q38 0 84 49t70 123zM436 912q39 -26 64 -45t48 -46.5t23 -49.5q0 -16 -18.5 -34t-47.5 -25q-19 28 -40 50t-33 30l-12 9q-104 -81 -126 -81q-17 0 -26 7.5t-21 30.5 q87 89 189 154z" />
<glyph unicode="&#xdc;" horiz-adv-x="664" d="M442 274q40 302 44 386q31 6 80 6q82 0 82 -53q0 -5 -4.5 -32t-13 -80t-15.5 -109l-24 -193q-12 -86 -12 -132q0 -34 4 -59q-36 -11 -92 -11q-47 0 -62 16.5t-15 51.5q0 3 1.5 12t3.5 25t4 30q-43 -68 -100 -105t-112 -37q-67 0 -103.5 48t-36.5 119q0 24 25 212t30 290 q31 7 80 7q82 0 82 -53q0 -3 -4 -27t-11.5 -72.5t-13.5 -92.5q-30 -197 -30 -228q0 -91 59 -91q38 0 84 49t70 123zM295 723q-35 0 -54 21t-19 52q0 37 25.5 66.5t68.5 29.5q34 0 53.5 -23t19.5 -55q0 -36 -25 -63.5t-69 -27.5zM523 723q-35 0 -54 21t-19 52q0 37 25.5 66.5 t68.5 29.5q34 0 53.5 -23t19.5 -55q0 -36 -25 -63.5t-69 -27.5z" />
<glyph unicode="&#xdd;" horiz-adv-x="509" d="M188 282q-87 274 -143 327q34 33 57.5 46t51.5 13q25 0 41.5 -9.5t26.5 -37.5q43 -112 80 -232q36 56 81 152t49 131q133 0 133 -63q0 -51 -221 -327l-10 -83q-12 -103 -12 -132q0 -34 4 -59q-33 -11 -91 -11q-42 0 -59.5 15t-17.5 47q0 5 3 27.5t11 80t16 115.5z M512 822q-25 -15 -111.5 -51.5t-105.5 -54.5q-26 25 -26 56q0 21 26.5 41t61.5 35.5t77 42t66 55.5q17 -11 29 -32t12 -40q0 -34 -29 -52z" />
<glyph unicode="&#xde;" horiz-adv-x="536" d="M198 666q82 0 82 -53q0 -3 -7 -43q253 -2 253 -185q0 -122 -64.5 -193.5t-145.5 -71.5q-66 0 -100 40q-6 -46 -6 -93q0 -34 4 -59q-33 -11 -91 -11q-42 0 -59.5 15t-17.5 47q0 6 5 41.5t18 131t27 205.5q19 153 22 223q31 6 80 6zM299 470q-12 0 -42 -4q-5 -28 -10 -74 l-20 -151q35 -20 58 -20q39 0 63 42.5t24 110.5q0 54 -19 75t-54 21z" />
<glyph unicode="&#xdf;" horiz-adv-x="573" d="M286 142q1 -27 17.5 -41.5t37.5 -14.5q22 0 36.5 17.5t14.5 42.5t-23 48.5t-51 39.5t-51 43t-23 59q0 27 18 51t39 40.5t39 44t18 61.5q0 45 -44 45q-29 0 -55.5 -23t-31.5 -69q-48 -432 -68 -520q-11 -45 -38 -69.5t-61 -24.5q-55 0 -89 55q29 20 54.5 137t55.5 401 q6 53 34 95t69 65.5t85 35.5t87 12q79 0 118 -30.5t39 -77.5q0 -34 -13 -61.5t-32 -45t-38 -32t-32 -30.5t-13 -34t15.5 -36.5t38 -36.5t45 -38.5t38 -50t15.5 -63.5q0 -62 -57 -104.5t-139 -42.5q-53 0 -92.5 25.5t-39.5 64.5q0 54 77 62z" />
<glyph unicode="&#xe0;" horiz-adv-x="543" d="M319 189l25 169q-30 36 -61 36q-29 0 -50 -31.5t-30.5 -75t-9.5 -91.5q0 -50 11 -83.5t32 -33.5q19 0 43 30.5t40 79.5zM312 104q-28 -55 -68 -84.5t-83 -29.5q-56 0 -91 45.5t-35 132.5q0 78 29 148t91.5 118.5t146.5 48.5q102 0 199 -66q-45 -212 -45 -293 q0 -38 32 -58q-26 -76 -100 -76q-41 0 -59 22t-18 67q0 16 1 25zM220 755q18 -31 60.5 -65t73 -61t30.5 -50q0 -18 -7.5 -29.5t-27.5 -26.5q-30 26 -81 57t-78.5 53t-27.5 46q0 47 58 76z" />
<glyph unicode="&#xe1;" horiz-adv-x="546" d="M319 189l25 169q-30 36 -61 36q-29 0 -50 -31.5t-30.5 -75t-9.5 -91.5q0 -50 11 -83.5t32 -33.5q19 0 43 30.5t40 79.5zM312 104q-28 -55 -68 -84.5t-83 -29.5q-56 0 -91 45.5t-35 132.5q0 78 29 148t91.5 118.5t146.5 48.5q102 0 199 -66q-45 -212 -45 -293 q0 -38 32 -58q-26 -76 -100 -76q-41 0 -59 22t-18 67q0 16 1 25zM475 629q-25 -15 -111.5 -51.5t-105.5 -54.5q-26 25 -26 56q0 21 26.5 41t61.5 35.5t77 42t66 55.5q17 -11 29 -32t12 -40q0 -34 -29 -52z" />
<glyph unicode="&#xe2;" horiz-adv-x="543" d="M319 189l25 169q-30 36 -61 36q-29 0 -50 -31.5t-30.5 -75t-9.5 -91.5q0 -50 11 -83.5t32 -33.5q19 0 43 30.5t40 79.5zM312 104q-28 -55 -68 -84.5t-83 -29.5q-56 0 -91 45.5t-35 132.5q0 78 29 148t91.5 118.5t146.5 48.5q102 0 199 -66q-45 -212 -45 -293 q0 -38 32 -58q-26 -76 -100 -76q-41 0 -59 22t-18 67q0 16 1 25zM345 719q39 -26 64 -45t48 -46.5t23 -49.5q0 -16 -18.5 -34t-47.5 -25q-19 28 -40 50.5t-33 30.5l-12 8q-103 -81 -126 -81q-17 0 -26 7.5t-21 30.5q87 89 189 154z" />
<glyph unicode="&#xe3;" horiz-adv-x="545" d="M319 189l25 169q-30 36 -61 36q-29 0 -50 -31.5t-30.5 -75t-9.5 -91.5q0 -50 11 -83.5t32 -33.5q19 0 43 30.5t40 79.5zM312 104q-28 -55 -68 -84.5t-83 -29.5q-56 0 -91 45.5t-35 132.5q0 78 29 148t91.5 118.5t146.5 48.5q102 0 199 -66q-45 -212 -45 -293 q0 -38 32 -58q-26 -76 -100 -76q-41 0 -59 22t-18 67q0 16 1 25zM503 640q0 -41 -44.5 -73.5t-89.5 -32.5q-23 0 -61 21.5t-54 21.5q-20 0 -69 -40q-31 13 -31 35q0 40 45.5 73t88.5 33q22 0 61 -21.5t55 -21.5q21 0 68 40q11 -2 21 -11.5t10 -23.5z" />
<glyph unicode="&#xe4;" horiz-adv-x="568" d="M319 189l25 169q-30 36 -61 36q-29 0 -50 -31.5t-30.5 -75t-9.5 -91.5q0 -50 11 -83.5t32 -33.5q19 0 43 30.5t40 79.5zM312 104q-28 -55 -68 -84.5t-83 -29.5q-56 0 -91 45.5t-35 132.5q0 78 29 148t91.5 118.5t146.5 48.5q102 0 199 -66q-45 -212 -45 -293 q0 -38 32 -58q-26 -76 -100 -76q-41 0 -59 22t-18 67q0 16 1 25zM204 530q-35 0 -54 21t-19 52q0 37 25.5 66.5t68.5 29.5q34 0 53.5 -23t19.5 -55q0 -36 -25 -63.5t-69 -27.5zM432 530q-35 0 -54 21t-19 52q0 37 25.5 66.5t68.5 29.5q34 0 53.5 -23t19.5 -55 q0 -36 -25 -63.5t-69 -27.5z" />
<glyph unicode="&#xe5;" horiz-adv-x="543" d="M319 189l25 169q-30 36 -61 36q-29 0 -50 -31.5t-30.5 -75t-9.5 -91.5q0 -50 11 -83.5t32 -33.5q19 0 43 30.5t40 79.5zM312 104q-28 -55 -68 -84.5t-83 -29.5q-56 0 -91 45.5t-35 132.5q0 78 29 148t91.5 118.5t146.5 48.5q102 0 199 -66q-45 -212 -45 -293 q0 -38 32 -58q-26 -76 -100 -76q-41 0 -59 22t-18 67q0 16 1 25zM331 590q27 0 43.5 22.5t16.5 51.5q0 27 -11 43t-32 16q-27 0 -44 -22.5t-17 -51.5q0 -26 11.5 -42.5t32.5 -16.5zM324 540q-43 0 -69 26.5t-26 70.5q0 54 35.5 95t90.5 41q43 0 68 -26t25 -70 q0 -57 -33.5 -97t-90.5 -40z" />
<glyph unicode="&#xe6;" horiz-adv-x="753" d="M653 131q52 -24 52 -60q0 -35 -49.5 -58t-116.5 -23q-71 0 -129 29.5t-79 91.5q-69 -121 -170 -121q-56 0 -91 45.5t-35 132.5q0 78 29 148t91.5 118.5t146.5 48.5q78 0 143 -47q70 47 146 47q59 0 100.5 -33t41.5 -92q0 -91 -63.5 -142t-160.5 -51q-12 0 -30 2 q6 -87 84 -87q57 0 90 51zM319 189l2 6q4 91 48 161q-46 39 -81 39q-46 0 -70.5 -57t-24.5 -142q0 -50 11 -83.5t32 -33.5q19 0 43 30.5t40 79.5zM568 346q0 21 -7.5 35t-21.5 14q-23 0 -40 -41t-20 -106q16 1 26.5 3t27.5 10.5t26 30t9 54.5z" />
<glyph unicode="&#xe7;" horiz-adv-x="457" d="M344 314q-3 39 -21.5 58t-38.5 19q-46 0 -74 -54.5t-28 -129.5q0 -64 22.5 -95.5t57.5 -31.5q21 0 44 17.5t38 45.5q32 -12 46.5 -26.5t14.5 -38.5q0 -36 -39 -61.5t-112 -26.5q-5 -12 -5 -22q0 -9 11 -18.5t24 -17.5t24 -24.5t11 -38.5q0 -52 -53.5 -86.5t-111.5 -34.5 q-61 0 -61 41q0 25 30 58q11 -13 32 -13q16 0 25.5 10.5t9.5 26.5q0 15 -17.5 35t-17.5 34q0 24 18 58q-69 16 -108.5 62t-39.5 124q0 73 25.5 132t66.5 95t89.5 55t98.5 19q29 0 59.5 -8t56.5 -29.5t26 -52.5q0 -30 -29.5 -53.5t-73.5 -27.5z" />
<glyph unicode="&#xe8;" horiz-adv-x="467" d="M202 242q40 0 63 33.5t23 77.5q0 18 -10 30t-23 12q-24 0 -43.5 -41.5t-24.5 -110.5q5 -1 15 -1zM351 134q22 -11 37.5 -28t15.5 -34q0 -35 -51.5 -58.5t-118.5 -23.5q-86 0 -147.5 42.5t-61.5 131.5q0 126 80.5 223.5t205.5 97.5q57 0 96.5 -32t39.5 -88 q0 -89 -66.5 -138.5t-167.5 -49.5q-12 0 -30 2q0 -99 79 -99q52 0 89 54zM174 755q18 -31 60.5 -65t73 -61t30.5 -50q0 -18 -7.5 -29.5t-27.5 -26.5q-30 26 -81 57t-78.5 53t-27.5 46q0 47 58 76z" />
<glyph unicode="&#xe9;" horiz-adv-x="478" d="M202 242q40 0 63 33.5t23 77.5q0 18 -10 30t-23 12q-24 0 -43.5 -41.5t-24.5 -110.5q5 -1 15 -1zM351 134q22 -11 37.5 -28t15.5 -34q0 -35 -51.5 -58.5t-118.5 -23.5q-86 0 -147.5 42.5t-61.5 131.5q0 126 80.5 223.5t205.5 97.5q57 0 96.5 -32t39.5 -88 q0 -89 -66.5 -138.5t-167.5 -49.5q-12 0 -30 2q0 -99 79 -99q52 0 89 54zM429 629q-25 -15 -111.5 -51.5t-105.5 -54.5q-26 25 -26 56q0 21 26.5 41t61.5 35.5t77 42t66 55.5q17 -11 29 -32t12 -40q0 -34 -29 -52z" />
<glyph unicode="&#xea;" horiz-adv-x="467" d="M202 242q40 0 63 33.5t23 77.5q0 18 -10 30t-23 12q-24 0 -43.5 -41.5t-24.5 -110.5q5 -1 15 -1zM351 134q22 -11 37.5 -28t15.5 -34q0 -35 -51.5 -58.5t-118.5 -23.5q-86 0 -147.5 42.5t-61.5 131.5q0 126 80.5 223.5t205.5 97.5q57 0 96.5 -32t39.5 -88 q0 -89 -66.5 -138.5t-167.5 -49.5q-12 0 -30 2q0 -99 79 -99q52 0 89 54zM299 719q39 -26 64 -45t48 -46.5t23 -49.5q0 -16 -18.5 -34t-47.5 -25q-19 28 -40 50.5t-33 30.5l-12 8q-103 -81 -126 -81q-17 0 -26 7.5t-21 30.5q87 89 189 154z" />
<glyph unicode="&#xeb;" horiz-adv-x="500" d="M202 242q40 0 63 33.5t23 77.5q0 18 -10 30t-23 12q-24 0 -43.5 -41.5t-24.5 -110.5q5 -1 15 -1zM351 134q22 -11 37.5 -28t15.5 -34q0 -35 -51.5 -58.5t-118.5 -23.5q-86 0 -147.5 42.5t-61.5 131.5q0 126 80.5 223.5t205.5 97.5q57 0 96.5 -32t39.5 -88 q0 -89 -66.5 -138.5t-167.5 -49.5q-12 0 -30 2q0 -99 79 -99q52 0 89 54zM158 530q-35 0 -54 21t-19 52q0 37 25.5 66.5t68.5 29.5q34 0 53.5 -23t19.5 -55q0 -36 -25 -63.5t-69 -27.5zM386 530q-35 0 -54 21t-19 52q0 37 25.5 66.5t68.5 29.5q34 0 53.5 -23t19.5 -55 q0 -36 -25 -63.5t-69 -27.5z" />
<glyph unicode="&#xec;" horiz-adv-x="283" d="M161 485q76 0 76 -90q0 -40 -22 -142t-22 -126q0 -40 32 -60q-14 -38 -41.5 -57.5t-60.5 -19.5q-85 0 -85 91q0 47 22.5 148t22.5 126q0 43 -31 47q5 35 35.5 59t73.5 24zM84 755q18 -31 60.5 -65t73 -61t30.5 -50q0 -18 -7.5 -29.5t-27.5 -26.5q-30 26 -81 57t-78.5 53 t-27.5 46q0 47 58 76z" />
<glyph unicode="&#xed;" horiz-adv-x="283" d="M161 485q76 0 76 -90q0 -40 -22 -142t-22 -126q0 -40 32 -60q-14 -38 -41.5 -57.5t-60.5 -19.5q-85 0 -85 91q0 47 22.5 148t22.5 126q0 43 -31 47q5 35 35.5 59t73.5 24zM289 629q-25 -15 -111.5 -51.5t-105.5 -54.5q-26 25 -26 56q0 21 26.5 41t61.5 35.5t77 42 t66 55.5q17 -11 29 -32t12 -40q0 -34 -29 -52z" />
<glyph unicode="&#xee;" horiz-adv-x="283" d="M161 485q76 0 76 -90q0 -40 -22 -142t-22 -126q0 -40 32 -60q-14 -38 -41.5 -57.5t-60.5 -19.5q-85 0 -85 91q0 47 22.5 148t22.5 126q0 43 -31 47q5 35 35.5 59t73.5 24zM174 719q39 -26 64 -45t48 -46.5t23 -49.5q0 -16 -18.5 -34t-47.5 -25q-19 28 -40 50.5t-33 30.5 l-12 8q-103 -81 -126 -81q-17 0 -26 7.5t-21 30.5q87 89 189 154z" />
<glyph unicode="&#xef;" horiz-adv-x="283" d="M161 485q76 0 76 -90q0 -40 -22 -142t-22 -126q0 -40 32 -60q-14 -38 -41.5 -57.5t-60.5 -19.5q-85 0 -85 91q0 47 22.5 148t22.5 126q0 43 -31 47q5 35 35.5 59t73.5 24zM39 530q-35 0 -54 21t-19 52q0 37 25.5 66.5t68.5 29.5q34 0 53.5 -23t19.5 -55q0 -36 -25 -63.5 t-69 -27.5zM267 530q-35 0 -54 21t-19 52q0 37 25.5 66.5t68.5 29.5q34 0 53.5 -23t19.5 -55q0 -36 -25 -63.5t-69 -27.5z" />
<glyph unicode="&#xf0;" horiz-adv-x="565" d="M222 498q-30 23 -30 46t27 41q9 6 32 20q-47 25 -119 25q-1 7 -1 18q0 27 15 38.5t47 11.5q77 0 143 -37q34 24 94 72q26 -22 26 -49q0 -20 -25 -38q-5 -3 -18 -13t-21 -15q52 -50 80.5 -123.5t28.5 -158.5q0 -48 -9.5 -95t-30.5 -92.5t-51.5 -80.5t-77 -56.5 t-101.5 -21.5q-92 0 -145.5 53t-53.5 145q0 62 26.5 128t82 115t123.5 49q65 0 93 -32q-18 71 -50 111l-9 -6q-6 -4 -76 -55zM243 86q40 0 65.5 32.5t34 71t8.5 80.5q0 55 -17.5 87t-51.5 32q-30 0 -52.5 -18.5t-34 -48.5t-17 -59.5t-5.5 -59.5q0 -52 18 -84.5t52 -32.5z " />
<glyph unicode="&#xf1;" horiz-adv-x="543" d="M213 253q-14 -118 -14 -181q0 -23 4 -57q-38 -17 -84 -17q-77 0 -77 56q0 5 20 135.5t20 161.5q0 44 -31 51q6 38 35.5 60.5t65.5 22.5q85 0 85 -83q0 -2 -0.5 -7.5t-0.5 -8.5q30 47 72.5 72t81.5 25q53 0 82 -32.5t29 -84.5q0 -18 -20.5 -117.5t-20.5 -122.5 q0 -40 34 -60q-12 -36 -41 -56t-63 -20q-36 0 -61 22.5t-25 61.5q0 32 19 128.5t19 133.5q0 56 -33 56q-24 0 -53.5 -42t-42.5 -97zM496 640q0 -41 -44.5 -73.5t-89.5 -32.5q-23 0 -61 21.5t-54 21.5q-20 0 -69 -40q-31 13 -31 35q0 40 45.5 73t88.5 33q23 0 61 -21.5 t55 -21.5q21 0 68 40q11 -2 21 -11.5t10 -23.5z" />
<glyph unicode="&#xf2;" horiz-adv-x="517" d="M267 394q-35 0 -57.5 -57.5t-22.5 -130.5q0 -55 16 -90.5t45 -35.5q35 0 57.5 56.5t22.5 128.5q0 57 -15.5 93t-45.5 36zM220 -10q-90 0 -142.5 55.5t-52.5 145.5q0 123 75.5 208t192.5 85q93 0 146 -51.5t53 -141.5q0 -123 -78.5 -212t-193.5 -89zM210 755 q18 -31 60.5 -65t73 -61t30.5 -50q0 -18 -7.5 -29.5t-27.5 -26.5q-30 26 -81 57t-78.5 53t-27.5 46q0 47 58 76z" />
<glyph unicode="&#xf3;" horiz-adv-x="519" d="M267 394q-35 0 -57.5 -57.5t-22.5 -130.5q0 -55 16 -90.5t45 -35.5q35 0 57.5 56.5t22.5 128.5q0 57 -15.5 93t-45.5 36zM220 -10q-90 0 -142.5 55.5t-52.5 145.5q0 123 75.5 208t192.5 85q93 0 146 -51.5t53 -141.5q0 -123 -78.5 -212t-193.5 -89zM465 629 q-25 -15 -111.5 -51.5t-105.5 -54.5q-26 25 -26 56q0 21 26.5 41t61.5 35.5t77 42t66 55.5q17 -11 29 -32t12 -40q0 -34 -29 -52z" />
<glyph unicode="&#xf4;" horiz-adv-x="517" d="M267 394q-35 0 -57.5 -57.5t-22.5 -130.5q0 -55 16 -90.5t45 -35.5q35 0 57.5 56.5t22.5 128.5q0 57 -15.5 93t-45.5 36zM220 -10q-90 0 -142.5 55.5t-52.5 145.5q0 123 75.5 208t192.5 85q93 0 146 -51.5t53 -141.5q0 -123 -78.5 -212t-193.5 -89zM335 719 q39 -26 64 -45t48 -46.5t23 -49.5q0 -16 -18.5 -34t-47.5 -25q-19 28 -40 50.5t-33 30.5l-12 8q-103 -81 -126 -81q-17 0 -26 7.5t-21 30.5q87 89 189 154z" />
<glyph unicode="&#xf5;" horiz-adv-x="518" d="M267 394q-35 0 -57.5 -57.5t-22.5 -130.5q0 -55 16 -90.5t45 -35.5q35 0 57.5 56.5t22.5 128.5q0 57 -15.5 93t-45.5 36zM220 -10q-90 0 -142.5 55.5t-52.5 145.5q0 123 75.5 208t192.5 85q93 0 146 -51.5t53 -141.5q0 -123 -78.5 -212t-193.5 -89zM493 640 q0 -41 -44.5 -73.5t-89.5 -32.5q-23 0 -61 21.5t-54 21.5q-20 0 -69 -40q-31 13 -31 35q0 40 45.5 73t88.5 33q22 0 61 -21.5t55 -21.5q21 0 68 40q11 -2 21 -11.5t10 -23.5z" />
<glyph unicode="&#xf6;" horiz-adv-x="541" d="M267 394q-35 0 -57.5 -57.5t-22.5 -130.5q0 -55 16 -90.5t45 -35.5q35 0 57.5 56.5t22.5 128.5q0 57 -15.5 93t-45.5 36zM220 -10q-90 0 -142.5 55.5t-52.5 145.5q0 123 75.5 208t192.5 85q93 0 146 -51.5t53 -141.5q0 -123 -78.5 -212t-193.5 -89zM194 530q-35 0 -54 21 t-19 52q0 37 25.5 66.5t68.5 29.5q34 0 53.5 -23t19.5 -55q0 -36 -25 -63.5t-69 -27.5zM422 530q-35 0 -54 21t-19 52q0 37 25.5 66.5t68.5 29.5q34 0 53.5 -23t19.5 -55q0 -36 -25 -63.5t-69 -27.5z" />
<glyph unicode="&#xf7;" d="M281 359q-31 0 -53 21.5t-22 56.5q0 32 22 54.5t53 22.5q30 0 51.5 -22.5t21.5 -54.5q0 -35 -21 -56.5t-52 -21.5zM509 260q0 -25 -14 -42.5t-37 -17.5q-17 0 -81.5 5.5t-94.5 5.5q-113 0 -216 -11q-4 21 -4 42q0 23 12.5 41.5t38.5 18.5q4 0 67.5 -5t109.5 -5 q144 0 213 10q6 -12 6 -42zM281 -6q-31 0 -53 22t-22 56q0 32 22 54.5t53 22.5q30 0 51.5 -22.5t21.5 -54.5q0 -35 -21 -56.5t-52 -21.5z" />
<glyph unicode="&#xf8;" horiz-adv-x="517" d="M220 -10q-38 0 -68 10l-49 -86q-24 1 -40 12t-16 29q0 14 12 32l30 47q-64 55 -64 157q0 123 75.5 208t192.5 85q41 0 80 -13q30 50 50 86q24 -1 40 -12t16 -29q0 -12 -12 -32l-32 -48q57 -54 57 -145q0 -123 -78.5 -212t-193.5 -89zM267 394q-35 0 -57.5 -57.5 t-22.5 -130.5v-22l120 184q-16 26 -40 26zM248 80q35 0 57.5 56.5t22.5 128.5v7l-114 -175q14 -17 34 -17z" />
<glyph unicode="&#xf9;" horiz-adv-x="548" d="M321 104q-26 -47 -69.5 -80.5t-93.5 -33.5q-53 0 -82 32t-29 83q0 22 20 117t20 128q0 42 -31 52q6 39 35.5 61t65.5 22q87 0 87 -92q0 -35 -19.5 -125t-20.5 -132q0 -55 32 -55q23 0 51 40t41 96q27 160 32 247q40 14 70 14q78 0 78 -72q0 -22 -21.5 -143t-21.5 -139 q0 -39 32 -58q-9 -30 -34 -53t-64 -23q-46 0 -62.5 23.5t-16.5 64.5q0 17 1 26zM229 755q18 -31 60.5 -65t73 -61t30.5 -50q0 -18 -7.5 -29.5t-27.5 -26.5q-30 26 -81 57t-78.5 53t-27.5 46q0 47 58 76z" />
<glyph unicode="&#xfa;" horiz-adv-x="553" d="M321 104q-26 -47 -69.5 -80.5t-93.5 -33.5q-53 0 -82 32t-29 83q0 22 20 117t20 128q0 42 -31 52q6 39 35.5 61t65.5 22q87 0 87 -92q0 -35 -19.5 -125t-20.5 -132q0 -55 32 -55q23 0 51 40t41 96q27 160 32 247q40 14 70 14q78 0 78 -72q0 -22 -21.5 -143t-21.5 -139 q0 -39 32 -58q-9 -30 -34 -53t-64 -23q-46 0 -62.5 23.5t-16.5 64.5q0 17 1 26zM484 629q-25 -15 -111.5 -51.5t-105.5 -54.5q-26 25 -26 56q0 21 26.5 41t61.5 35.5t77 42t66 55.5q17 -11 29 -32t12 -40q0 -34 -29 -52z" />
<glyph unicode="&#xfb;" horiz-adv-x="548" d="M321 104q-26 -47 -69.5 -80.5t-93.5 -33.5q-53 0 -82 32t-29 83q0 22 20 117t20 128q0 42 -31 52q6 39 35.5 61t65.5 22q87 0 87 -92q0 -35 -19.5 -125t-20.5 -132q0 -55 32 -55q23 0 51 40t41 96q27 160 32 247q40 14 70 14q78 0 78 -72q0 -22 -21.5 -143t-21.5 -139 q0 -39 32 -58q-9 -30 -34 -53t-64 -23q-46 0 -62.5 23.5t-16.5 64.5q0 17 1 26zM354 719q39 -26 64 -45t48 -46.5t23 -49.5q0 -16 -18.5 -34t-47.5 -25q-19 28 -40 50.5t-33 30.5l-12 8q-103 -81 -126 -81q-17 0 -26 7.5t-21 30.5q87 89 189 154z" />
<glyph unicode="&#xfc;" horiz-adv-x="575" d="M321 104q-26 -47 -69.5 -80.5t-93.5 -33.5q-53 0 -82 32t-29 83q0 22 20 117t20 128q0 42 -31 52q6 39 35.5 61t65.5 22q87 0 87 -92q0 -35 -19.5 -125t-20.5 -132q0 -55 32 -55q23 0 51 40t41 96q27 160 32 247q40 14 70 14q78 0 78 -72q0 -22 -21.5 -143t-21.5 -139 q0 -39 32 -58q-9 -30 -34 -53t-64 -23q-46 0 -62.5 23.5t-16.5 64.5q0 17 1 26zM213 530q-35 0 -54 21t-19 52q0 37 25.5 66.5t68.5 29.5q34 0 53.5 -23t19.5 -55q0 -36 -25 -63.5t-69 -27.5zM441 530q-35 0 -54 21t-19 52q0 37 25.5 66.5t68.5 29.5q34 0 53.5 -23t19.5 -55 q0 -36 -25 -63.5t-69 -27.5z" />
<glyph unicode="&#xfd;" horiz-adv-x="485" d="M249 112q63 161 69 278q0 38 -15 69q35 25 81 25q86 0 86 -79q0 -73 -53.5 -193t-118.5 -216q-32 -48 -52.5 -75.5t-52.5 -60.5t-62 -50t-72 -28.5t-93 -11.5q-66 0 -106 21t-40 53q0 42 70 78q7 -26 34 -44t55 -18q93 0 176 143q-2 58 -52.5 214.5t-99.5 194.5 q23 32 54 51.5t59 19.5q29 0 51.5 -21.5t33.5 -64.5q27 -109 48 -285zM412 629q-25 -15 -111.5 -51.5t-105.5 -54.5q-26 25 -26 56q0 21 26.5 41t61.5 35.5t77 42t66 55.5q17 -11 29 -32t12 -40q0 -34 -29 -52z" />
<glyph unicode="&#xfe;" horiz-adv-x="535" d="M205 742q76 0 76 -90q0 -44 -33 -250q56 82 131 82q58 0 94.5 -44t36.5 -136q0 -135 -66 -224.5t-150 -89.5q-60 0 -106 45q-20 -111 -20 -148q0 -43 32 -63q-28 -77 -106 -77q-81 0 -81 97q0 48 57 388t57 380q0 43 -31 47q5 35 35.5 59t73.5 24zM230 294l-31 -184 q28 -31 62 -31q37 0 64 54.5t27 147.5q0 51 -13.5 82t-36.5 31q-16 0 -36.5 -27.5t-35.5 -72.5z" />
<glyph unicode="&#xff;" horiz-adv-x="485" d="M249 112q63 161 69 278q0 38 -15 69q35 25 81 25q86 0 86 -79q0 -73 -53.5 -193t-118.5 -216q-32 -48 -52.5 -75.5t-52.5 -60.5t-62 -50t-72 -28.5t-93 -11.5q-66 0 -106 21t-40 53q0 42 70 78q7 -26 34 -44t55 -18q93 0 176 143q-2 58 -52.5 214.5t-99.5 194.5 q23 32 54 51.5t59 19.5q29 0 51.5 -21.5t33.5 -64.5q27 -109 48 -285zM131 530q-35 0 -54 21t-19 52q0 37 25.5 66.5t68.5 29.5q34 0 53.5 -23t19.5 -55q0 -36 -25 -63.5t-69 -27.5zM359 530q-35 0 -54 21t-19 52q0 37 25.5 66.5t68.5 29.5q34 0 53.5 -23t19.5 -55 q0 -36 -25 -63.5t-69 -27.5z" />
<glyph unicode="&#x131;" horiz-adv-x="283" d="M161 485q76 0 76 -90q0 -40 -22 -142t-22 -126q0 -40 32 -60q-14 -38 -41.5 -57.5t-60.5 -19.5q-85 0 -85 91q0 47 22.5 148t22.5 126q0 43 -31 47q5 35 35.5 59t73.5 24z" />
<glyph unicode="&#x141;" horiz-adv-x="459" d="M112 454q12 93 19 206q29 6 77 6q85 0 85 -52q0 -5 -4.5 -30t-12.5 -68.5t-13 -79.5q61 43 96 78q39 -20 39 -50q0 -20 -28 -40l-121 -85q-27 -187 -27 -238q14 -1 48 -1q52 0 106.5 6.5t71.5 15.5q11 -29 11 -59q0 -16 -5 -27t-17 -18t-23.5 -11.5t-33.5 -6t-38 -2 t-45 -0.5q-141 0 -186 3q-52 5 -52 54q0 23 19 163q-38 -29 -77 -63q-39 24 -39 52q0 19 28 38l102 71z" />
<glyph unicode="&#x142;" horiz-adv-x="280" d="M210 742q76 0 76 -90q0 -30 -22 -175q16 12 45.5 35.5t41.5 32.5q39 -19 39 -50q0 -21 -28 -40l-114 -79q-36 -228 -36 -249q0 -40 32 -60q-11 -31 -35.5 -54t-62.5 -23q-89 0 -89 91q0 40 21 173q-77 -60 -87 -68q-39 24 -39 52q0 18 28 38l116 81q36 216 36 255 q0 43 -31 47q5 35 35.5 59t73.5 24z" />
<glyph unicode="&#x152;" horiz-adv-x="903" d="M899 540q-46 21 -159 21q-32 0 -82 -3q-2 -34 -18 -152q133 0 165 4q2 -20 2 -35q0 -65 -44 -70q-24 -2 -138 -2q-20 -163 -20 -202q28 -2 64 -2q53 0 108.5 6.5t72.5 15.5q8 -38 8 -56q0 -48 -35 -58t-158 -10q-153 0 -185 2q-28 1 -42 28q-70 -37 -137 -37 q-121 0 -189 73.5t-68 199.5q0 175 97.5 293t253.5 118q59 0 108 -24q119 15 235 15q153 0 172 -19q8 -8 8 -28q0 -40 -19 -78zM368 572q-69 0 -112.5 -81t-43.5 -196q0 -88 28.5 -146t88.5 -58q74 0 118 53q3 22 22 160.5t26 206.5q-54 61 -127 61z" />
<glyph unicode="&#x153;" horiz-adv-x="764" d="M664 131q52 -24 52 -60q0 -35 -49.5 -58t-116.5 -23q-101 0 -166 68q-75 -68 -164 -68q-90 0 -142.5 55.5t-52.5 145.5q0 123 75.5 208t192.5 85q93 0 149 -67q77 66 160 66q59 0 100.5 -33t41.5 -92q0 -91 -63.5 -142t-160.5 -51q-12 0 -30 2q6 -87 84 -87q57 0 90 51z M267 394q-35 0 -57.5 -57.5t-22.5 -130.5q0 -55 16 -90.5t45 -35.5q35 0 57.5 56.5t22.5 128.5q0 57 -15.5 93t-45.5 36zM579 346q0 21 -7.5 35t-21.5 14q-23 0 -40 -41t-20 -106q16 1 26.5 3t27.5 10.5t26 30t9 54.5z" />
<glyph unicode="&#x160;" horiz-adv-x="520" d="M432 490q-9 35 -39 55.5t-63 20.5q-39 0 -66.5 -25t-27.5 -71q0 -28 25.5 -45.5t62 -29t73.5 -26.5t62.5 -49.5t25.5 -86.5q0 -115 -73.5 -179t-198.5 -64q-74 0 -132 30.5t-58 73.5q0 54 75 78q15 -36 50 -57.5t73 -21.5q42 0 71.5 26.5t29.5 78.5q0 21 -13 36t-34.5 23 t-47 16t-50.5 20t-46.5 29t-34.5 49t-13 75q0 106 75 165.5t191 59.5q62 0 116.5 -27t54.5 -74q0 -29 -21 -51t-67 -29zM314 712q-136 93 -136 145q0 37 60 59q14 -24 37 -47t39 -34l16 -11q56 46 80.5 63t43.5 17q22 0 50 -38q-90 -90 -190 -154z" />
<glyph unicode="&#x161;" horiz-adv-x="458" d="M305 324q-4 31 -20.5 48t-39.5 17t-40.5 -13.5t-17.5 -39.5q0 -20 19.5 -32t47.5 -19t56 -17.5t47.5 -35.5t19.5 -65q0 -79 -63.5 -128t-148.5 -49q-160 0 -160 75q0 57 88 93q6 -36 29.5 -54t52.5 -18q30 0 50 12.5t20 39.5q0 17 -19.5 27t-47.5 17t-55.5 18t-47 37.5 t-19.5 67.5q0 76 63 128t144 52q32 0 62.5 -7t56 -26t25.5 -47q0 -64 -102 -81zM246 519q-136 93 -136 145q0 37 60 59q14 -24 37 -47t39 -34l16 -11q56 46 80.5 63t43.5 17q22 0 50 -38q-90 -90 -190 -154z" />
<glyph unicode="&#x178;" horiz-adv-x="509" d="M188 282q-87 274 -143 327q34 33 57.5 46t51.5 13q25 0 41.5 -9.5t26.5 -37.5q43 -112 80 -232q36 56 81 152t49 131q133 0 133 -63q0 -51 -221 -327l-10 -83q-12 -103 -12 -132q0 -34 4 -59q-33 -11 -91 -11q-42 0 -59.5 15t-17.5 47q0 5 3 27.5t11 80t16 115.5z M241 723q-35 0 -54 21t-19 52q0 37 25.5 66.5t68.5 29.5q34 0 53.5 -23t19.5 -55q0 -36 -25 -63.5t-69 -27.5zM469 723q-35 0 -54 21t-19 52q0 37 25.5 66.5t68.5 29.5q34 0 53.5 -23t19.5 -55q0 -36 -25 -63.5t-69 -27.5z" />
<glyph unicode="&#x17d;" horiz-adv-x="586" d="M154 667q34 0 152 -13.5t175 -13.5q53 0 80 13q23 -23 23 -63q0 -36 -20 -59l-258 -295q-52 -61 -87 -113q7 1 23 1q33 0 103.5 -13t101.5 -13q57 0 88 16q15 -34 15 -58q0 -36 -27 -51t-98 -15q-31 0 -123 12.5t-146 12.5q-55 0 -93 -12q-27 27 -27 58q0 23 16 53 q54 97 336 421q-35 0 -110 11.5t-114 11.5t-77 -19q-14 35 -14 62q0 66 81 66zM353 712q-136 93 -136 145q0 37 60 59q14 -24 37 -47t39 -34l16 -11q56 46 80.5 63t43.5 17q22 0 50 -38q-90 -90 -190 -154z" />
<glyph unicode="&#x17e;" horiz-adv-x="477" d="M119 483q28 0 122 -9.5t138 -9.5q49 0 71 9q17 -18 17 -51q0 -24 -15 -40q-159 -167 -242 -274q5 1 15 1q22 0 69 -9.5t68 -9.5q35 0 55 12q11 -25 11 -48q0 -34 -22.5 -49t-74.5 -15q-25 0 -100.5 9t-117.5 9q-50 0 -83 -9q-19 26 -19 42q0 15 12 38q36 63 246 293 q-24 0 -72 6t-74 6q-31 0 -59 -14q-8 29 -8 53q0 60 63 60zM282 519q-136 93 -136 145q0 37 60 59q14 -24 37 -47t39 -34l16 -11q56 46 80.5 63t43.5 17q22 0 50 -38q-90 -90 -190 -154z" />
<glyph unicode="&#x192;" d="M341 356l-44 -236q-13 -55 -30.5 -95t-45.5 -74.5t-70.5 -52.5t-98.5 -18q-46 0 -69 16.5t-23 41.5q0 54 89 82q6 -46 37 -46q24 0 35 27.5t25 100.5l49 255q-30 -1 -54 -4q-3 10 -3 23q0 53 40 58l33 1q14 52 32.5 91.5t48 74.5t74.5 54t103 19q49 0 73.5 -17t24.5 -43 q0 -24 -23.5 -47t-69.5 -34q-4 28 -13.5 37.5t-27.5 9.5q-35 0 -49 -31.5t-28 -110.5q72 5 125 13q3 -17 3 -31q0 -67 -62 -67z" />
<glyph unicode="&#x2c6;" horiz-adv-x="406" d="M304 719q39 -26 64 -45t48 -46.5t23 -49.5q0 -16 -18.5 -34t-47.5 -25q-19 28 -40 50.5t-33 30.5l-12 8q-103 -81 -126 -81q-17 0 -26 7.5t-21 30.5q87 89 189 154z" />
<glyph unicode="&#x2c7;" horiz-adv-x="404" d="M313 519q-136 93 -136 145q0 37 60 59q14 -24 37 -47t39 -34l16 -11q56 46 80.5 63t43.5 17q22 0 50 -38q-90 -90 -190 -154z" />
<glyph unicode="&#x2d8;" horiz-adv-x="403" d="M272 639q36 0 57 21.5t38 66.5q76 -4 76 -43q0 -49 -56.5 -99.5t-128.5 -50.5q-69 0 -108 44t-39 91q0 51 89 58q4 -45 20 -66.5t52 -21.5z" />
<glyph unicode="&#x2d9;" horiz-adv-x="409" d="M238 531q-38 0 -57.5 22.5t-19.5 54.5q0 39 26.5 69.5t71.5 30.5q37 0 57 -24t20 -57q0 -39 -25.5 -67.5t-72.5 -28.5z" />
<glyph unicode="&#x2da;" horiz-adv-x="378" d="M313 590q27 0 43.5 22.5t16.5 51.5q0 27 -11 43t-32 16q-27 0 -44 -22.5t-17 -51.5q0 -26 11.5 -42.5t32.5 -16.5zM306 540q-43 0 -69 26.5t-26 70.5q0 54 35.5 95t90.5 41q43 0 68 -26t25 -70q0 -57 -33.5 -97t-90.5 -40z" />
<glyph unicode="&#x2db;" horiz-adv-x="398" d="M243 15l71 -8q-42 -22 -76 -60t-34 -79q0 -26 23 -26q34 0 63 37q37 -23 37 -49q0 -19 -13 -33.5t-33 -22t-40 -10.5t-39 -3q-57 0 -87 24t-30 62q0 56 46 99.5t112 68.5z" />
<glyph unicode="&#x2dc;" horiz-adv-x="396" d="M479 640q0 -41 -44.5 -73.5t-89.5 -32.5q-23 0 -61 21.5t-54 21.5q-20 0 -69 -40q-31 13 -31 35q0 40 45.5 73t88.5 33q22 0 61 -21.5t55 -21.5q21 0 68 40q11 -2 21 -11.5t10 -23.5z" />
<glyph unicode="&#x2dd;" horiz-adv-x="444" d="M222 632q-27 -19 -94.5 -57.5t-83.5 -51.5q-33 20 -33 45q0 21 21.5 37t73 51t99.5 84q49 -28 49 -60q0 -28 -32 -48zM451 632q-27 -19 -94.5 -57.5t-83.5 -51.5q-33 20 -33 45q0 21 21.5 37t73 51t99.5 84q49 -28 49 -60q0 -28 -32 -48z" />
<glyph unicode="&#x3c0;" horiz-adv-x="508" d="M107 383q-47 -2 -84 -18q-5 11 -5 32q0 31 15.5 55.5t45.5 24.5l36 -1q36 0 111 -0.5t169 -0.5q99 0 148 19q4 -20 4 -35q0 -29 -14.5 -53t-44.5 -24h-44q-42 -223 -42 -319q0 -32 3 -53q-35 -13 -79 -13q-38 0 -51.5 12.5t-13.5 37.5q0 7 7 56t20 136.5t21 144.5h-73 l-39 -320q-2 -17 -4.5 -26t-10 -20.5t-23.5 -16t-41 -4.5q-45 0 -68 13q21 47 31 128q8 58 14 115t8.5 90.5t3.5 39.5z" />
<glyph unicode="&#x2013;" d="M539 294q0 -39 -21.5 -63.5t-60.5 -24.5q-20 0 -75 3.5t-85 3.5h-99q-75 0 -167 -16q-1 11 -1 27q0 43 19.5 69.5t61.5 26.5q12 0 67.5 -3t89.5 -3h112q84 0 155 15q4 -20 4 -35z" />
<glyph unicode="&#x2014;" horiz-adv-x="835" d="M802 329q3 -17 3 -33q0 -39 -20 -64.5t-62 -25.5q-21 0 -75 3.5t-84 3.5h-366q-73 0 -167 -16q-1 9 -1 26q0 97 82 97q12 0 66 -3t88 -3h380q83 0 156 15z" />
<glyph unicode="&#x2018;" horiz-adv-x="261" d="M237 565q5 -14 5 -31q0 -38 -27 -65.5t-69 -27.5q-37 0 -55.5 25t-18.5 66q0 74 52.5 141t128.5 67q30 0 30 -30q0 -14 -6 -30h-4q-25 0 -48.5 -22t-23.5 -51q0 -35 36 -42z" />
<glyph unicode="&#x2019;" horiz-adv-x="263" d="M108 619q-6 15 -6 31q0 37 27.5 65t69.5 28q37 0 55.5 -24.5t18.5 -64.5q0 -72 -50.5 -141t-119.5 -69q-40 0 -40 33q0 12 5 27h4q27 0 49.5 24t22.5 50q0 33 -36 41z" />
<glyph unicode="&#x201a;" horiz-adv-x="269" d="M45 12q-6 15 -6 31q0 37 27.5 65t69.5 28q37 0 55.5 -24.5t18.5 -64.5q0 -72 -50.5 -141t-119.5 -69q-40 0 -40 33q0 12 5 27h4q27 0 49.5 24t22.5 50q0 33 -36 41z" />
<glyph unicode="&#x201c;" horiz-adv-x="507" d="M237 565q5 -14 5 -31q0 -38 -27 -65.5t-69 -27.5q-37 0 -55.5 25t-18.5 66q0 74 52.5 141t128.5 67q30 0 30 -30q0 -14 -6 -30h-4q-25 0 -48.5 -22t-23.5 -51q0 -35 36 -42zM483 565q5 -14 5 -31q0 -38 -27 -65.5t-69 -27.5q-37 0 -55.5 25t-18.5 66q0 74 52.5 141 t128.5 67q30 0 30 -30q0 -14 -6 -30h-4q-25 0 -48.5 -22t-23.5 -51q0 -35 36 -42z" />
<glyph unicode="&#x201d;" horiz-adv-x="497" d="M108 619q-6 15 -6 31q0 37 27.5 65t69.5 28q37 0 55.5 -24.5t18.5 -64.5q0 -72 -50.5 -141t-119.5 -69q-40 0 -40 33q0 12 5 27h4q27 0 49.5 24t22.5 50q0 33 -36 41zM342 619q-6 15 -6 31q0 37 27.5 65t69.5 28q37 0 55.5 -24.5t18.5 -64.5q0 -72 -50.5 -141t-119.5 -69 q-40 0 -40 33q0 12 5 27h4q27 0 49.5 24t22.5 50q0 33 -36 41z" />
<glyph unicode="&#x201e;" horiz-adv-x="503" d="M45 12q-6 15 -6 31q0 37 27.5 65t69.5 28q37 0 55.5 -24.5t18.5 -64.5q0 -72 -50.5 -141t-119.5 -69q-40 0 -40 33q0 12 5 27h4q27 0 49.5 24t22.5 50q0 33 -36 41zM279 12q-6 15 -6 31q0 37 27.5 65t69.5 28q37 0 55.5 -24.5t18.5 -64.5q0 -72 -50.5 -141t-119.5 -69 q-40 0 -40 33q0 12 5 27h4q27 0 49.5 24t22.5 50q0 33 -36 41z" />
<glyph unicode="&#x2020;" horiz-adv-x="489" d="M216 513q0 4 7 154q42 6 80 6q35 0 76 -6q-1 -3 -13.5 -61t-18.5 -93q66 1 139 24q3 -15 3 -32q0 -39 -15.5 -67t-50.5 -28q-15 0 -42 2.5t-48 3.5q-18 -156 -26.5 -254t-10 -130t-2.5 -41q-2 -17 -26 -41.5t-46 -39.5l-23 -16q-8 6 -19.5 16.5t-30.5 35.5t-19 42 q0 7 6.5 35.5t25.5 133t42 260.5q-36 -1 -82.5 -6t-60.5 -6q-1 7 -1 23q0 40 14.5 69t49.5 29q13 0 44 -6t48 -7z" />
<glyph unicode="&#x2021;" horiz-adv-x="497" d="M306 150q35 1 78.5 6t60.5 6q1 -6 1 -20q0 -41 -15 -71t-50 -30q-13 0 -44 6t-48 7q-4 -37 -9 -154q-41 -6 -80 -6q-36 0 -76 6q27 119 33 154q-65 -1 -138 -24q-3 15 -3 31q0 39 16.5 67.5t50.5 28.5q16 0 42.5 -3t46.5 -3q5 122 7 133q1 4 32 133q-35 -1 -81 -6t-62 -6 q-1 6 -1 20q0 41 15 71t50 30q13 0 44 -6t48 -7q4 37 9 154q40 6 80 6q35 0 76 -6q-27 -119 -33 -154q65 1 138 24q3 -15 3 -31q0 -39 -16.5 -67.5t-50.5 -28.5q-16 0 -42.5 3t-46.5 3q-3 -126 -4 -132q-2 -10 -7 -32t-12.5 -52.5t-11.5 -49.5z" />
<glyph unicode="&#x2022;" horiz-adv-x="366" d="M165 106q-56 0 -92.5 38.5t-36.5 99.5q0 69 50 128.5t122 59.5q54 0 90 -39.5t36 -100.5q0 -69 -48.5 -127.5t-120.5 -58.5z" />
<glyph unicode="&#x2026;" horiz-adv-x="800" d="M97 -10q-39 0 -60 23.5t-21 57.5q0 41 28.5 73.5t75.5 32.5q38 0 59.5 -25.5t21.5 -60.5q0 -40 -27.5 -70.5t-76.5 -30.5zM659 -10q-39 0 -60 23.5t-21 57.5q0 41 28.5 73.5t75.5 32.5q38 0 59.5 -25.5t21.5 -60.5q0 -40 -27.5 -70.5t-76.5 -30.5zM378 -10 q-39 0 -60 23.5t-21 57.5q0 41 28.5 73.5t75.5 32.5q38 0 59.5 -25.5t21.5 -60.5q0 -40 -27.5 -70.5t-76.5 -30.5z" />
<glyph unicode="&#x2030;" horiz-adv-x="1232" d="M214 407q31 0 46.5 35t15.5 75q0 75 -37 75q-33 0 -48.5 -35.5t-15.5 -75.5q0 -74 39 -74zM205 333q-66 0 -104 37t-38 100q0 83 51 139t134 56q66 0 103.5 -36.5t37.5 -100.5q0 -83 -50.5 -139t-133.5 -56zM616 64q31 0 46.5 35t15.5 75q0 75 -37 75q-33 0 -48.5 -35.5 t-15.5 -75.5q0 -74 39 -74zM607 -10q-66 0 -104 37t-38 100q0 83 51 139t134 56q66 0 103.5 -36.5t37.5 -100.5q0 -83 -50.5 -139t-133.5 -56zM181 48q396 546 466 652q53 -11 53 -41q0 -17 -15 -37q-393 -545 -466 -654q-53 16 -53 44q0 16 15 36zM994 64q31 0 46.5 35 t15.5 75q0 75 -37 75q-33 0 -48.5 -35.5t-15.5 -75.5q0 -74 39 -74zM985 -10q-66 0 -104 37t-38 100q0 83 51 139t134 56q66 0 103.5 -36.5t37.5 -100.5q0 -83 -50.5 -139t-133.5 -56z" />
<glyph unicode="&#x2039;" horiz-adv-x="328" d="M201 235q24 -37 48 -86.5t24 -66.5q0 -30 -74 -58q-63 63 -145 211q117 145 200 211q59 -31 59 -55q0 -27 -112 -156z" />
<glyph unicode="&#x203a;" horiz-adv-x="330" d="M129 235q-22 32 -47.5 81t-25.5 68q0 14 15 28t60 34q57 -57 145 -211q-120 -146 -202 -211q-59 24 -59 52q0 34 114 159z" />
<glyph unicode="&#x2044;" horiz-adv-x="219" d="M-150 -38l284 474q109 180 173 303q24 0 44 -10t20 -29q0 -16 -11 -32l-284 -474q-114 -188 -173 -303q-25 1 -44.5 11.5t-19.5 29.5q0 13 11 30z" />
<glyph unicode="&#x20ac;" d="M459 244h-205q9 -83 48.5 -119.5t85.5 -36.5q64 0 105 36q32 -24 32 -64q0 -69 -152 -69q-51 0 -94.5 12t-83.5 39t-65 78.5t-31 123.5q-34 -2 -74 -8q-1 6 -1 15q0 22 10.5 35t30.5 13h32q0 19 6 55q-28 -2 -63 -7q-1 6 -1 15q0 22 10.5 35t30.5 13h37q37 113 128 188 t222 75q135 0 135 -63q0 -19 -15 -38.5t-38 -30.5q-36 36 -102 36q-56 0 -102.5 -48t-72.5 -119h25q133 0 217 8l1 -12q0 -51 -41 -51h-217q-6 -38 -6 -56h31q133 0 217 8l1 -12q0 -51 -41 -51z" />
<glyph unicode="&#x2122;" horiz-adv-x="956" d="M115 652h148q101 0 133 3q8 -13 8 -32q0 -20 -9 -34.5t-28 -14.5h-73v-169q0 -66 13 -104q-31 -10 -61 -10q-60 0 -60 49v234q-71 0 -103 -4q-7 18 -7 35q0 47 39 47zM894 552v-150q0 -63 12 -105q-26 -7 -52 -7q-68 0 -68 40q0 19 0.5 62.5t0.5 90.5q-29 -79 -56 -188 q-27 -5 -55 -5q-55 0 -63 24q-9 28 -21 66.5t-21 65.5t-17 45v-89q0 -63 12 -105q-21 -7 -47 -7q-58 0 -58 40q0 7 0.5 31.5t0.5 74.5v120q0 49 -9 94q30 6 65 6q53 0 73 -37q40 -78 82 -214q36 121 82 215q9 17 33 26.5t51 9.5q40 0 64 -8q-9 -38 -9 -96z" />
<glyph unicode="&#x2126;" horiz-adv-x="855" d="M482 678q123 0 202.5 -72.5t79.5 -190.5q0 -213 -227 -321h152q29 35 63 97q10 4 16 4q24 0 24 -20q0 -13 -48 -175h-237q-61 0 -61 51q0 17 7 49q75 49 115 133t40 182q0 82 -35 127t-104 45q-67 0 -114 -46t-66 -108.5t-19 -131.5q0 -130 87 -201q1 -6 1 -17 q0 -83 -81 -83h-236q-5 56 -5 151q0 43 29 43q9 0 17 -3q26 -76 37 -97h153q-76 42 -115.5 96.5t-39.5 133.5q0 150 105.5 252t259.5 102z" />
<glyph unicode="&#x2202;" horiz-adv-x="547" d="M150 555q-11 33 -11 55q0 34 24 48.5t75 14.5q45 0 90.5 -14.5t89 -45t70.5 -88t27 -134.5q0 -71 -20 -140.5t-57.5 -128.5t-99.5 -95.5t-139 -36.5q-86 0 -128.5 46t-42.5 117q0 57 25.5 117.5t76.5 105.5t113 45q69 0 124 -55q4 27 4 55q0 152 -119 152q-40 0 -102 -18 zM287 326q-47 0 -78 -64.5t-31 -119.5q0 -56 37 -56q51 0 86.5 56t51.5 134q-30 50 -66 50z" />
<glyph unicode="&#x2206;" horiz-adv-x="663" d="M543 0h-508q-36 0 -36 34q0 8 1 13q237 425 311 571q13 27 68 27q21 0 48 -5q111 -411 164 -592q-7 -48 -48 -48zM322 467l-188 -348q48 -7 147 -7q95 0 134 5z" />
<glyph unicode="&#x220f;" horiz-adv-x="669" d="M746 668q1 -5 1 -19q0 -83 -46 -83l-100 4q-27 -136 -47.5 -292t-20.5 -213q0 -28 3 -55q-29 -13 -77 -13t-65 12.5t-17 37.5q0 6 5 43t24 174.5t42 307.5h-17q-84 0 -114 -1l-45 -340q-4 -34 -11 -94t-9 -78q-4 -32 -24 -47t-69 -15t-68 12q25 64 41 194l24 179 q7 50 12.5 118t5.5 70q-72 -3 -116 -13q-4 20 -4 42q0 31 14 48t50 17q18 0 89 -1t110 -1h179q142 0 250 6z" />
<glyph unicode="&#x2211;" horiz-adv-x="658" d="M107 663h508q7 -79 7 -150q0 -34 -39 -34q-8 0 -14 1q-17 78 -33 107h-279l86 -195q7 -14 7 -31q0 -23 -15 -46l-191 -260h334q21 28 55 97q6 1 14 1q32 0 32 -21q0 -29 -55 -194h-535q-12 0 -12 18v3l258 345l-153 331q4 28 25 28z" />
<glyph unicode="&#x2212;" d="M490 260q0 -25 -14 -42.5t-37 -17.5q-17 0 -76.5 5.5t-89.5 5.5q-113 0 -216 -11q-4 21 -4 42q0 23 12.5 41.5t38.5 18.5q4 0 67.5 -5t109.5 -5q134 0 203 10q6 -12 6 -42z" />
<glyph unicode="&#x221a;" horiz-adv-x="592" d="M228 494l103 -319l185 560q20 4 38 4q40 0 40 -25q0 -3 -1.5 -9.5t-5.5 -20t-9.5 -31t-16.5 -48.5t-23 -66t-30.5 -90.5t-39 -115.5t-50 -146.5t-60.5 -178.5q-8 -23 -22 -31.5t-42 -8.5q-9 0 -37 2l-138 429q-22 -9 -72 -35q-17 11 -17 28q0 15 14 25q24 17 77.5 40 t106.5 37z" />
<glyph unicode="&#x221e;" horiz-adv-x="752" d="M198 421q51 0 92.5 -27.5t87.5 -78.5q35 35 55 52.5t56 35.5t72 18q69 0 114.5 -45.5t45.5 -113.5q0 -74 -50.5 -117.5t-119.5 -43.5q-43 0 -83.5 24t-92.5 78q-45 -46 -88 -73.5t-93 -27.5q-69 0 -116 45.5t-47 112.5q0 69 48 115t119 46zM202 185q55 0 125 70 q-9 13 -24.5 29t-47 36t-59.5 20q-34 0 -55 -23.5t-21 -59.5q0 -31 23.5 -51.5t58.5 -20.5zM633 264q0 37 -23 56.5t-58 19.5q-50 0 -116 -68l-8 -8q69 -79 123 -79q37 0 59.5 21.5t22.5 57.5z" />
<glyph unicode="&#x222b;" horiz-adv-x="385" d="M155 416q20 152 95 237.5t169 85.5q39 0 58.5 -14.5t19.5 -36.5q0 -28 -22.5 -48.5t-52.5 -25.5q-7 19 -20 34.5t-28 15.5q-42 0 -58 -130q-8 -63 -22 -195.5t-21 -184.5q-12 -86 -39.5 -151.5t-64 -103t-77 -56t-83.5 -18.5q-37 0 -56 14.5t-19 36.5q0 29 23.5 52 t55.5 28q6 -35 14.5 -45.5t26.5 -10.5q49 0 67 145q8 59 16.5 183t17.5 188z" />
<glyph unicode="&#x2248;" d="M574 374q0 -37 -52 -83.5t-102 -46.5q-38 0 -77.5 17t-67.5 38t-61.5 38t-59.5 17q-46 0 -110 -84q-44 20 -44 50q0 43 55 83.5t102 40.5q40 0 82 -17.5t70 -38.5t58.5 -38.5t51.5 -17.5q47 0 108 91q47 -14 47 -49zM574 144q0 -37 -52 -83.5t-102 -46.5q-38 0 -77.5 17 t-67.5 38t-61.5 38t-59.5 17q-46 0 -110 -84q-44 20 -44 50q0 43 55 83.5t102 40.5q40 0 82 -17.5t70 -38.5t58.5 -38.5t51.5 -17.5q47 0 108 91q47 -14 47 -49z" />
<glyph unicode="&#x2260;" d="M180 12q-22 -40 -28 -57q-46 5 -46 31q0 10 25 55l40 72q-45 -2 -95 -8q-4 21 -4 42q0 23 12.5 41.5t38.5 18.5q6 0 19.5 -1t35.5 -3t41 -3l62 112q-116 -1 -205 -11q-4 21 -4 42q0 23 12.5 41.5t38.5 18.5q4 0 68 -5t111 -5h24l61 109q10 18 28 57q46 -5 46 -31 q0 -11 -22 -50l-47 -84q85 4 115 9q5 -20 5 -42q0 -25 -14 -42.5t-37 -17.5q-16 0 -58.5 4t-57.5 5l-62 -113h19q136 0 205 10q5 -20 5 -42q0 -25 -14 -42.5t-37 -17.5q-17 0 -78 5.5t-91 5.5q-38 0 -55 -1z" />
<glyph unicode="&#x2264;" d="M441 57q0 -25 -14 -42.5t-37 -17.5q-13 0 -57.5 5.5t-67.5 5.5q-85 0 -162 -11q-4 21 -4 42q0 23 12.5 41.5t38.5 18.5q3 0 51 -5t82 -5q102 0 153 10q5 -12 5 -42zM215 317l204 -134q-11 -21 -30.5 -35t-39.5 -14q-19 0 -36 16l-207 167l206 176q19 16 36 16 q21 0 41 -15t29 -34z" />
<glyph unicode="&#x2265;" d="M120 57q0 30 5 42q51 -10 153 -10q34 0 82 5t51 5q26 0 38.5 -18.5t12.5 -41.5q0 -21 -4 -42q-77 11 -162 11q-23 0 -67.5 -5.5t-57.5 -5.5q-23 0 -37 17.5t-14 42.5zM142 184l204 134l-203 143q9 19 29 34t41 15q17 0 36 -16l206 -176l-207 -167q-17 -16 -36 -16 q-20 0 -39.5 14t-30.5 35z" />
<glyph unicode="&#x25ca;" horiz-adv-x="506" d="M36 343l219 322q14 21 59 21q44 0 53 -21l129 -322l-222 -325q-13 -18 -57 -18t-53 22zM397 343l-97 246l-164 -246l95 -246z" />
<glyph unicode="&#x25fc;" horiz-adv-x="490" d="M0 490h490v-490h-490v490z" />
<glyph unicode="&#xf724;" d="M91 389q0 78 55 131.5t150 65.5q4 41 5 62q18 5 25 5q35 0 35 -29q0 -1 -0.5 -5.5t-1.5 -13t-2 -16.5q58 -3 104.5 -29t46.5 -69q0 -50 -77 -63q-21 54 -88 62l-22 -147q29 -8 44 -12.5t41 -16.5t39 -25.5t24 -36t11 -50.5q0 -90 -56.5 -143t-150.5 -65q-3 -31 -3 -59 l-22 -3q-36 0 -36 30q0 6 3 28q-70 1 -123 28.5t-53 64.5q0 43 69 70q12 -29 44 -48.5t75 -20.5q11 74 20 146q-27 7 -44 12.5t-41 18t-37.5 28t-23.5 41.5t-10 59zM303 214q-2 -15 -8 -57l-9 -63q56 23 56 77q0 28 -39 43zM266 362q4 32 17 123q-54 -19 -54 -75 q0 -30 37 -48z" />
<glyph unicode="&#xf730;" horiz-adv-x="509" d="M239 126q53 0 93 33t40 89q0 42 -24 71.5t-79 29.5q-52 0 -91.5 -32.5t-39.5 -87.5q0 -43 24 -73t77 -30zM222 -10q-92 0 -144.5 54t-52.5 148q0 120 71 207t191 87q92 0 144.5 -53.5t52.5 -148.5q0 -123 -70.5 -208.5t-191.5 -85.5z" />
<glyph unicode="&#xf731;" horiz-adv-x="371" d="M250 92q37 0 79 4q2 -8 2 -22q0 -32 -10.5 -54t-32.5 -22q-7 0 -33 0.5t-71 1t-99 0.5q-53 0 -82 -1q-3 12 -3 30q0 68 61 68h47q21 123 39 286q-73 -11 -91 -14q-2 12 -2 19q0 28 14 51.5t40 28.5q95 17 149 17q18 0 31 -14t13 -46q0 -8 -6.5 -39t-16.5 -82t-16 -97 q-12 -92 -12 -115z" />
<glyph unicode="&#xf732;" horiz-adv-x="487" d="M217 114q44 0 125 6q59 2 97 13q8 -26 8 -56q0 -69 -72 -75q-57 -4 -192 -4q-67 0 -153 2q-40 1 -40 57q0 18 4 42q48 21 92 44t92.5 54.5t77.5 68t29 71.5q0 24 -13 37.5t-35 13.5q-26 0 -55.5 -21t-50.5 -60q-31 4 -52.5 23t-21.5 40q0 39 69.5 77t153.5 38 q80 0 119.5 -35.5t39.5 -90.5q0 -45 -17.5 -82.5t-53.5 -67.5t-68 -49.5t-83 -45.5z" />
<glyph unicode="&#xf733;" horiz-adv-x="425" d="M272 201q50 -19 75.5 -55t25.5 -81q0 -85 -78.5 -154.5t-204.5 -69.5q-125 0 -125 68q0 40 65 67q23 -36 67 -36q46 0 85.5 32.5t39.5 82.5q0 39 -32 61.5t-83 22.5q-34 0 -34 41q0 21 6 45q82 1 126 30.5t44 73.5q0 26 -15.5 43t-42.5 17q-22 0 -44.5 -20.5t-39.5 -60.5 q-36 0 -56 16.5t-20 41.5q0 39 66.5 78.5t140.5 39.5q78 0 120 -35.5t42 -88.5q0 -105 -128 -159z" />
<glyph unicode="&#xf734;" horiz-adv-x="530" d="M315 467q23 18 89 18q15 0 63 -3q0 -3 -7.5 -39.5t-18.5 -100t-20 -129.5l-10 -76q70 6 94 17q5 -17 5 -38q0 -52 -26 -68q-20 -12 -87 -15q-14 -86 -14 -134q0 -26 4 -46q-37 -12 -73 -12q-44 0 -62 13.5t-18 42.5q0 10 21 134q-168 0 -231 7q-24 3 -24 47q0 25 6 50 q70 84 168 191.5t141 140.5zM155 134q27 -3 57 -3t59 3l33 202q-31 -36 -149 -202z" />
<glyph unicode="&#xf735;" horiz-adv-x="457" d="M359 365q-76 0 -159 8l-25 -107q37 5 63 5q163 0 163 -156q0 -124 -91.5 -199t-229.5 -75q-51 0 -83 15t-32 44q0 19 11 37t29 27q26 -25 78 -25q62 0 112 38t50 107q0 99 -134 99q-32 0 -72 -5q-6 8 -6 28q0 10 53 271q32 -1 218 -1q73 0 121 8q7 -22 7 -45 q0 -34 -19 -54t-54 -20z" />
<glyph unicode="&#xf736;" horiz-adv-x="500" d="M206 -10q-94 0 -137.5 48t-43.5 130q0 116 53.5 224t144 175t192.5 67q33 0 52.5 -11t19.5 -31t-13 -49q-17 4 -36 4q-78 0 -138.5 -52.5t-89.5 -130t-29 -163.5q0 -115 63 -115q31 0 52.5 48.5t21.5 103.5q0 38 -10.5 63t-31.5 25q-7 0 -12 -1q-5 18 -5 32q0 58 75 58 q70 0 105 -39.5t35 -106.5q0 -105 -74.5 -192t-193.5 -87z" />
<glyph unicode="&#xf737;" horiz-adv-x="484" d="M291 368q-150 -3 -206 -3q-62 0 -62 57q0 28 14 61q49 -8 121 -8q264 0 322 2q4 -12 4 -26q0 -27 -22 -69q-33 -65 -134.5 -235.5t-156.5 -246.5q-23 -31 -42.5 -45t-44.5 -14t-55 18.5t-54 47.5q77 76 170.5 217t145.5 244z" />
<glyph unicode="&#xf738;" horiz-adv-x="499" d="M210 -10q-96 0 -145.5 41.5t-49.5 103.5q0 76 43.5 129t109.5 82q-79 47 -79 124q0 73 63 118.5t158 45.5q73 0 123.5 -32t50.5 -85q0 -112 -123 -171q48 -28 74.5 -62.5t26.5 -88.5q0 -84 -66 -144.5t-186 -60.5zM233 86q31 0 52.5 33t21.5 74q0 34 -16.5 55t-51.5 44 q-69 -49 -69 -129q0 -32 17 -54.5t46 -22.5zM288 538q-19 0 -33.5 -19t-14.5 -48q0 -48 47 -80q45 38 45 99q0 21 -12.5 34.5t-31.5 13.5z" />
<glyph unicode="&#xf739;" horiz-adv-x="500" d="M294 485q94 0 137.5 -48t43.5 -130q0 -114 -50 -220.5t-144 -176t-207 -69.5q-61 0 -61 38q0 20 13 53q17 -4 36 -4q78 0 138.5 52.5t89.5 130t29 163.5q0 115 -63 115q-31 0 -52.5 -48.5t-21.5 -103.5q0 -38 10.5 -63t31.5 -25q7 0 12 1q5 -18 5 -32q0 -58 -75 -58 q-70 0 -105 40t-35 106q0 105 74.5 192t193.5 87z" />
<glyph unicode="&#xf7a2;" d="M287 -96q-36 0 -36 30q0 5 6 59q-97 11 -142.5 65t-45.5 134q0 109 68 190.5t186 98.5q2 15 7 83q18 5 25 5q35 0 35 -29q0 -1 -7 -55q50 -3 98 -29t48 -71q0 -23 -19.5 -41t-52.5 -25q-33 68 -87 69l-42 -302h12q45 0 86 59q29 -4 45 -18.5t16 -33.5q0 -47 -56.5 -73.5 t-115.5 -29.5q-4 -28 -6 -83zM226 207q0 -71 46 -103q18 123 36 268q-37 -21 -59.5 -65.5t-22.5 -99.5z" />
<glyph unicode="&#xfb00;" horiz-adv-x="748" d="M765 568q-14 57 -68 57q-24 0 -41 -23.5t-24.5 -56t-10.5 -72.5q70 0 133 5q6 -15 6 -36q0 -25 -11.5 -42t-36.5 -18q-23 -2 -101 -2q-18 -192 -31 -292l-5.5 -44t-7 -42t-10.5 -43t-15 -34.5t-22 -31t-29.5 -17.5t-39.5 -8q-29 0 -51.5 19.5t-31.5 58.5q68 21 95 436 h-220q-19 -191 -31 -294l-5.5 -44t-7 -42t-10.5 -43t-15 -34.5t-22 -31t-29.5 -17.5t-39.5 -8q-29 0 -51.5 19.5t-31.5 58.5q68 21 95 432q-49 -2 -74 -5q-3 15 -3 31q0 71 59 71h32q7 105 59 172t154 67q55 0 88 -26.5t33 -60.5q0 -24 -20 -43t-58 -25q-7 31 -22.5 44.5 t-31.5 13.5q-27 0 -41.5 -42.5t-18.5 -99.5h221q8 108 66.5 173.5t175.5 65.5q51 0 92.5 -20.5t41.5 -63.5q0 -22 -20 -39t-63 -23z" />
<glyph unicode="&#xfb01;" horiz-adv-x="603" d="M501 485q76 0 76 -90q0 -40 -16.5 -142t-16.5 -126q0 -40 32 -60q-14 -38 -41.5 -57.5t-60.5 -19.5q-85 0 -85 91q0 47 17 148t17 126q0 15 -6 29q-56 -2 -174 -2q-19 -191 -31 -294l-5.5 -44t-7 -42t-10.5 -43t-15 -34.5t-22 -31t-29.5 -17.5t-39.5 -8q-29 0 -51.5 19.5 t-31.5 58.5q68 21 95 432q-47 -2 -73 -5q-3 15 -3 31q0 71 59 71h29q6 65 38 115t79 78t97 42t101 14q162 0 162 -82q0 -78 -131 -82q-16 60 -78 60q-46 0 -82.5 -37t-40.5 -108q163 0 205 2q21 8 44 8z" />
<glyph unicode="&#xfb02;" horiz-adv-x="640" d="M554 742q76 0 76 -90q0 -40 -37 -270.5t-37 -254.5q0 -40 32 -60q-11 -31 -35.5 -54t-62.5 -23q-89 0 -89 91q0 44 34 249t39 252q-65 40 -114 40q-92 0 -108 -147q69 0 131 5q4 -20 4 -34q0 -59 -48 -62q-46 -2 -96 -2q-19 -191 -31 -294l-5.5 -44t-7 -42t-10.5 -43 t-15 -34.5t-22 -31t-29.5 -17.5t-39.5 -8q-29 0 -51.5 19.5t-31.5 58.5q68 21 95 432q-47 -2 -73 -5q-3 15 -3 31q0 71 59 71h29q11 118 86.5 178.5t179.5 60.5q46 0 91 -12q32 40 90 40z" />
<glyph unicode="&#xfb03;" horiz-adv-x="971" d="M869 485q76 0 76 -90q0 -40 -16.5 -142t-16.5 -126q0 -40 32 -60q-14 -38 -41.5 -57.5t-60.5 -19.5q-85 0 -85 91q0 47 17 148t17 126q0 15 -6 29q-56 -2 -174 -2q-19 -191 -31 -294l-5.5 -44t-7 -42t-10.5 -43t-15 -34.5t-22 -31t-29.5 -17.5t-39.5 -8q-29 0 -51.5 19.5 t-31.5 58.5q68 21 95 436h-220q-19 -191 -31 -294l-5.5 -44t-7 -42t-10.5 -43t-15 -34.5t-22 -31t-29.5 -17.5t-39.5 -8q-29 0 -51.5 19.5t-31.5 58.5q68 21 95 432q-49 -2 -74 -5q-3 15 -3 31q0 71 59 71h30q7 105 60 172t155 67q55 0 88 -26.5t33 -60.5q0 -24 -20 -43 t-58 -25q-7 31 -22.5 44.5t-31.5 13.5q-27 0 -41.5 -42.5t-18.5 -99.5h224q10 86 63.5 144.5t118 81.5t133.5 23q162 0 162 -82q0 -78 -131 -82q-16 60 -78 60q-46 0 -82.5 -37t-40.5 -108q163 0 205 2q21 8 44 8z" />
<glyph unicode="&#xfb04;" horiz-adv-x="1001" d="M922 742q76 0 76 -90q0 -40 -37 -270.5t-37 -254.5q0 -40 32 -60q-11 -31 -35.5 -54t-62.5 -23q-89 0 -89 91q0 43 34 246.5t39 254.5q-64 40 -113 40q-94 0 -109 -147q69 0 131 5q4 -20 4 -34q0 -59 -48 -62q-46 -2 -96 -2q-19 -191 -31 -294l-5.5 -44t-7 -42t-10.5 -43 t-15 -34.5t-22 -31t-29.5 -17.5t-39.5 -8q-29 0 -51.5 19.5t-31.5 58.5q68 21 95 436h-220q-19 -191 -31 -294l-5.5 -44t-7 -42t-10.5 -43t-15 -34.5t-22 -31t-29.5 -17.5t-39.5 -8q-29 0 -51.5 19.5t-31.5 58.5q68 21 95 432q-49 -2 -74 -5q-3 15 -3 31q0 71 59 71h32 q7 105 59 172t154 67q55 0 88 -26.5t33 -60.5q0 -24 -20 -43t-58 -25q-7 31 -22.5 44.5t-31.5 13.5q-27 0 -41.5 -42.5t-18.5 -99.5h224q11 118 86.5 178.5t179.5 60.5q46 0 91 -12q32 40 90 40z" />
<glyph unicode="&#xfb06;" horiz-adv-x="827" d="M305 324q-4 31 -20.5 48t-39.5 17t-40.5 -13.5t-17.5 -39.5q0 -20 19.5 -32t47.5 -19t56 -17.5t47.5 -35.5t19.5 -65q0 -79 -63.5 -128t-148.5 -49q-160 0 -160 75q0 57 88 93q6 -36 29.5 -54t52.5 -18q30 0 50 12.5t20 39.5q0 17 -19.5 27t-47.5 17t-55.5 18t-47 37.5 t-19.5 67.5q0 76 63 128t144 52q39 0 77 -12q-1 8 -1 24q0 72 60 117t139 45q60 0 112.5 -29.5t53.5 -85.5q0 -20 -9 -70q113 0 156 5q5 -18 5 -37q0 -56 -50 -60q-33 -2 -126 -2q-33 -234 -33 -257q0 -25 15 -38t38 -13q40 0 66 31q27 -27 27 -55q0 -58 -124 -58 q-88 0 -128 34t-40 101q0 19 5 59.5t15 106t13 89.5q-13 0 -79 -6q-2 16 -2 27q0 74 58 74h33q9 63 9 73q0 44 -52 44q-43 0 -76 -40t-33 -87q0 -13 7.5 -29t7.5 -30q0 -65 -102 -82z" />
<glyph d="M447 204h-195q12 -60 48.5 -88t80.5 -28q60 0 106 34q28 -40 28 -67q0 -65 -150 -65q-244 0 -268 214q-36 -2 -73 -9q-2 7 -2 16q0 48 42 48h31q0 24 5 54q-30 -2 -63 -8q-2 7 -2 16q0 48 42 48h38q34 97 119.5 159t217.5 62q53 0 91.5 -14t38.5 -47q0 -39 -50 -72 q-37 37 -102 37q-54 0 -95.5 -35t-64.5 -90h11q124 0 219 9l2 -13q0 -51 -42 -51h-208q-5 -32 -5 -55h21q124 0 219 9l2 -13q0 -51 -42 -51z" />
<glyph horiz-adv-x="443" d="M344 666q83 0 83 -53q0 -7 -5.5 -34t-15 -77t-16.5 -97q-8 -56 -19.5 -137t-19.5 -138t-9 -61q-17 -96 -87.5 -153t-174.5 -57q-57 0 -98.5 21t-41.5 52q0 34 47 72q38 -47 98 -47q36 0 64.5 30t38.5 96l52 356q14 91 24 219q33 8 80 8z" />
<glyph horiz-adv-x="671" d="M655 402q0 -156 -81.5 -271t-217.5 -136q18 -51 64.5 -83t98.5 -32q61 0 102 45q30 -37 30 -71t-33 -54t-90 -20q-99 0 -172.5 57.5t-100.5 155.5q-100 13 -155.5 84.5t-55.5 185.5q0 175 97.5 293t253.5 118q122 0 191 -72.5t69 -199.5zM368 572q-69 0 -112.5 -81 t-43.5 -196q0 -88 28.5 -146t88.5 -58q72 0 114.5 84t42.5 199q0 85 -28.5 141.5t-89.5 56.5z" />
<glyph horiz-adv-x="649" d="M353 673q71 0 109 -32t38 -79q0 -41 -13 -74.5t-44 -64.5t-50 -46t-62 -45q39 -69 78 -116q4 24 4 37q0 17 -3 35q31 19 80 19q72 0 72 -57q0 -68 -50 -129q47 -30 91 -30q1 -6 1 -19q0 -41 -25 -61.5t-64 -20.5q-56 0 -112 42q-79 -42 -153 -42q-91 0 -143.5 46 t-52.5 115q0 65 32 109.5t90 85.5q-41 96 -41 151q0 77 63.5 126.5t154.5 49.5zM333 95q-57 63 -104 146q-18 -27 -18 -58q0 -46 22.5 -71.5t63.5 -25.5q19 0 36 9zM278 489q0 -27 12 -65q56 46 56 100q0 57 -28 57q-19 0 -29.5 -26t-10.5 -66z" />
<glyph horiz-adv-x="1000" d="M448 389q0 -24 -20.5 -41.5t-62.5 -23.5q-7 34 -28.5 50.5t-42.5 16.5q-51 0 -81.5 -54.5t-30.5 -129.5q0 -64 22.5 -95.5t57.5 -31.5q44 0 85 63q58 -29 58 -64q0 -44 -46 -66.5t-112 -22.5q-99 0 -160.5 48t-61.5 146q0 73 25.5 131.5t66.5 94t89.5 54.5t98.5 19 q31 0 62 -9q-35 55 -35 99q0 46 28.5 81t74 53.5t92.5 27t94 8.5q57 0 82 -17t25 -74q0 -51 -36 -267q31 47 73.5 72.5t81.5 25.5q53 0 82 -32.5t29 -84.5q0 -18 -20.5 -117.5t-20.5 -122.5q0 -40 34 -60q-12 -36 -41 -56t-63 -20q-36 0 -61 22.5t-25 61.5q0 32 19 128.5 t19 133.5q0 56 -33 56q-24 0 -53 -41.5t-42 -95.5l-2 -10q-19 -141 -19 -173q0 -23 4 -57q-38 -17 -84 -17q-77 0 -77 56q0 29 40.5 273.5t40.5 284.5q0 28 -16.5 39t-49.5 11q-99 0 -99 -107q0 -34 19.5 -90.5t19.5 -75.5z" />
<glyph horiz-adv-x="868" d="M552 475h33q9 71 9 76q0 41 -52 41q-43 0 -76 -40t-33 -87q0 -13 7.5 -37.5t7.5 -38.5q0 -24 -20.5 -41.5t-62.5 -23.5q-7 34 -28.5 50.5t-42.5 16.5q-51 0 -81.5 -54.5t-30.5 -129.5q0 -64 22.5 -95.5t57.5 -31.5q44 0 85 63q58 -29 58 -64q0 -44 -46 -66.5t-112 -22.5 q-99 0 -160.5 48t-61.5 146q0 73 25.5 131.5t66.5 94t89.5 54.5t98.5 19q39 0 78 -15q-3 15 -3 30q0 74 61 117.5t138 43.5q60 0 113 -29.5t53 -85.5q0 -20 -9 -70q114 0 156 5q5 -18 5 -37q0 -56 -50 -60q-33 -2 -126 -2q-33 -234 -33 -257q0 -25 15 -38t38 -13q40 0 66 31 q27 -27 27 -55q0 -58 -124 -58q-88 0 -128 34t-40 101q0 19 5 59.5t15 106t13 89.5q-13 0 -79 -6q-2 16 -2 27q0 74 58 74z" />
<glyph horiz-adv-x="366" d="M330 714q62 0 99 -26.5t37 -60.5q0 -24 -20 -43t-58 -25q-10 31 -30.5 44.5t-42.5 13.5q-37 0 -57.5 -42.5t-24.5 -99.5q69 0 131 5q4 -20 4 -34q0 -59 -48 -62q-46 -2 -96 -2q-21 -244 -38 -342q-40 -244 -235 -244q-48 0 -80.5 21t-32.5 52q0 22 19 41.5t56 30.5 q15 -38 46 -38q39 0 58.5 43t31.5 135q4 30 28 297q-49 -2 -74 -5q-3 15 -3 31q0 71 59 71h32q8 105 66.5 172t172.5 67z" />
<glyph horiz-adv-x="730" d="M304 714q55 0 88 -26.5t33 -60.5q0 -24 -20 -43t-58 -25q-7 31 -22.5 44.5t-31.5 13.5q-27 0 -41.5 -42.5t-18.5 -99.5h198h7h16q8 108 66.5 173.5t175.5 65.5q51 0 92.5 -20.5t41.5 -63.5q0 -22 -20 -39t-63 -23q-14 57 -68 57q-24 0 -41 -23.5t-24.5 -56t-10.5 -72.5 q70 0 133 5q6 -15 6 -36q0 -25 -11.5 -42t-36.5 -18q-23 -2 -101 -2q-18 -192 -31 -292l-5.5 -44t-7 -42t-10.5 -43t-15 -34.5t-22 -31t-29.5 -17.5t-39.5 -8q-29 0 -51.5 19.5t-31.5 58.5q68 21 95 436h-221q-21 -244 -38 -342q-40 -244 -235 -244q-48 0 -80.5 21t-32.5 52 q0 22 19 41.5t56 30.5q15 -38 46 -38q39 0 58.5 43t31.5 135q4 30 28 297q-49 -2 -74 -5q-3 15 -3 31q0 71 59 71h32q7 105 59 172t154 67z" />
<glyph horiz-adv-x="735" d="M699 714q62 0 99 -26.5t37 -60.5q0 -24 -20 -43t-58 -25q-10 31 -30.5 44.5t-42.5 13.5q-37 0 -57.5 -42.5t-24.5 -99.5q69 0 131 5q4 -20 4 -34q0 -59 -48 -62q-46 -2 -96 -2q-21 -244 -38 -342q-40 -244 -235 -244q-48 0 -80.5 21t-32.5 52q0 22 19 41.5t56 30.5 q15 -38 46 -38q39 0 58.5 43t31.5 135q5 35 9 81t9 111t9 109h-221q-21 -244 -38 -342q-40 -244 -235 -244q-48 0 -80.5 21t-32.5 52q0 22 19 41.5t56 30.5q15 -38 46 -38q39 0 58.5 43t31.5 135q4 30 28 297q-49 -2 -74 -5q-3 15 -3 31q0 71 59 71h32q7 105 59 172t154 67 q55 0 88 -26.5t33 -60.5q0 -24 -20 -43t-58 -25q-7 31 -22.5 44.5t-31.5 13.5q-27 0 -41.5 -42.5t-18.5 -99.5h226l1 2q8 105 66 171t173 66z" />
<glyph horiz-adv-x="583" d="M481 485q76 0 76 -90q0 -40 -16.5 -142t-16.5 -126q0 -40 32 -60q-14 -38 -41.5 -57.5t-60.5 -19.5q-85 0 -85 91q0 47 17 148t17 126q0 15 -6 29q-56 -2 -174 -2q-21 -244 -38 -342q-40 -244 -235 -244q-48 0 -80.5 21t-32.5 52q0 22 19 41.5t56 30.5q15 -38 46 -38 q39 0 58.5 43t31.5 135q4 30 28 297q-49 -2 -74 -5q-3 15 -3 31q0 71 59 71h37q10 86 61.5 144.5t114 81.5t131.5 23q162 0 162 -82q0 -78 -131 -82q-16 60 -78 60q-46 0 -82.5 -37t-40.5 -108q163 0 205 2q21 8 44 8z" />
<glyph horiz-adv-x="621" d="M535 742q76 0 76 -90q0 -40 -37 -270.5t-37 -254.5q0 -40 32 -60q-11 -31 -35.5 -54t-62.5 -23q-89 0 -89 91q0 43 34 248t39 254q-53 34 -100 34q-50 0 -83 -38t-39 -104q69 0 131 5q4 -20 4 -34q0 -59 -48 -62q-46 -2 -96 -2q-21 -244 -38 -342q-40 -244 -235 -244 q-48 0 -80.5 21t-32.5 52q0 22 19 41.5t56 30.5q15 -38 46 -38q39 0 58.5 43t31.5 135q4 30 28 297q-49 -2 -74 -5q-3 15 -3 31q0 71 59 71h32q11 118 85 178.5t178 60.5q46 0 91 -12q32 40 90 40z" />
<glyph d="M345 316l-23 -197q-13 -114 -65.5 -176.5t-170.5 -62.5q-52 0 -76.5 19.5t-24.5 49.5q0 29 22.5 47t70.5 32q6 -52 36 -52q15 0 24 7t15.5 26.5t9 37t7.5 55.5l26 215q-30 -1 -65 -4q-4 20 -4 29q0 49 48 52q10 1 30 1q9 53 24 92t43 72t74 50t110 17q54 0 80 -20t26 -50 q0 -28 -27.5 -47t-65.5 -25q-10 47 -45 47q-34 0 -47 -24.5t-20 -82.5l-3 -25q91 5 137 12q5 -22 5 -36q0 -62 -62 -62q-13 0 -28 0.5t-32.5 1.5t-28.5 1z" />
<glyph horiz-adv-x="754" d="M428 125q0 24 32 257h-217q-19 -191 -31 -294l-5.5 -44t-7 -42t-10.5 -43t-15 -34.5t-22 -31t-29.5 -17.5t-39.5 -8q-29 0 -51.5 19.5t-31.5 58.5q68 21 95 432q-49 -2 -74 -5q-3 15 -3 31q0 71 59 71h32q7 105 59 172t154 67q55 0 88 -26.5t33 -60.5q0 -24 -20 -43 t-58 -25q-7 31 -22.5 44.5t-31.5 13.5q-27 0 -41.5 -42.5t-18.5 -99.5h222q8 60 11 99q30 6 68 6q46 0 62.5 -8.5t16.5 -31.5q0 -16 -9 -66q114 0 156 5q5 -18 5 -37q0 -56 -50 -60q-33 -2 -126 -2q-33 -234 -33 -257q0 -25 15 -38t38 -13q40 0 66 31q27 -27 27 -55 q0 -58 -124 -58q-88 0 -128 34t-40 101z" />
<glyph horiz-adv-x="736" d="M304 714q55 0 88 -26.5t33 -60.5q0 -24 -20 -43t-58 -25q-7 31 -22.5 44.5t-31.5 13.5q-27 0 -41.5 -42.5t-18.5 -99.5h222q8 60 11 99q30 6 68 6q46 0 62.5 -8.5t16.5 -31.5q0 -16 -9 -66q114 0 156 5q5 -18 5 -37q0 -56 -50 -60q-33 -2 -126 -2q-33 -234 -33 -257 q0 -25 15 -38t38 -13q40 0 66 31q27 -27 27 -55q0 -58 -124 -58q-88 0 -128 34t-40 101q0 24 32 257h-218q-21 -244 -38 -342q-40 -244 -235 -244q-48 0 -80.5 21t-32.5 52q0 22 19 41.5t56 30.5q15 -38 46 -38q39 0 58.5 43t31.5 135q4 30 28 297q-49 -2 -74 -5 q-3 15 -3 31q0 71 59 71h32q7 105 59 172t154 67z" />
<glyph horiz-adv-x="287" d="M74 355q0 43 -31 47q5 35 35.5 59t73.5 24q77 0 77 -95q0 -15 -25 -189t-32 -213q-17 -102 -69 -156t-133 -54q-67 0 -67 60q0 16 7 46q23 -7 40 -7q14 0 25 4.5t19 14.5t13 19t9 25.5t6 26t4.5 28t3.5 24.5q2 17 14.5 107t18.5 131q11 71 11 98zM165 531 q-38 0 -57.5 22.5t-19.5 54.5q0 39 26.5 69.5t71.5 30.5q37 0 57 -24t20 -57q0 -39 -25.5 -67.5t-72.5 -28.5z" />
<glyph horiz-adv-x="891" d="M217 289q26 0 41 28t15 61q0 64 -34 64q-26 0 -41.5 -27t-15.5 -60q0 -66 35 -66zM209 219q-61 0 -95.5 32t-34.5 88q0 74 46.5 123t121.5 49q60 0 95 -32.5t35 -88.5q0 -73 -47 -122t-121 -49zM211 38l217 252q169 199 211 252q50 -16 50 -43q0 -17 -18 -38l-205 -239 q-128 -148 -224 -267q-49 20 -49 45q0 17 18 38zM638 60q26 0 41 28t15 61q0 64 -34 64q-26 0 -41.5 -27t-15.5 -60q0 -66 35 -66zM630 -10q-61 0 -95.5 32t-34.5 88q0 74 46.5 123t121.5 49q60 0 95 -32.5t35 -88.5q0 -73 -47 -122t-121 -49z" />
<glyph horiz-adv-x="1235" d="M217 289q26 0 41 28t15 61q0 64 -34 64q-26 0 -41.5 -27t-15.5 -60q0 -66 35 -66zM209 219q-61 0 -95.5 32t-34.5 88q0 74 46.5 123t121.5 49q60 0 95 -32.5t35 -88.5q0 -73 -47 -122t-121 -49zM211 38l217 252q169 199 211 252q50 -16 50 -43q0 -17 -18 -38l-205 -239 q-128 -148 -224 -267q-49 20 -49 45q0 17 18 38zM638 60q26 0 41 28t15 61q0 64 -34 64q-26 0 -41.5 -27t-15.5 -60q0 -66 35 -66zM630 -10q-61 0 -95.5 32t-34.5 88q0 74 46.5 123t121.5 49q60 0 95 -32.5t35 -88.5q0 -73 -47 -122t-121 -49zM982 60q26 0 41 28t15 61 q0 64 -34 64q-26 0 -41.5 -27t-15.5 -60q0 -66 35 -66zM974 -10q-61 0 -95.5 32t-34.5 88q0 74 46.5 123t121.5 49q60 0 95 -32.5t35 -88.5q0 -73 -47 -122t-121 -49z" />
<glyph d="M459 357q4 -22 4 -33q0 -65 -62 -65q-14 0 -58 2q0 -50 -20 -84.5t-83 -80.5q9 -1 47 -6t55 -5q58 0 62 56h8q32 0 51 -18t19 -43q0 -33 -30.5 -58t-87.5 -25q-39 0 -106.5 14.5t-92.5 14.5q-3 0 -7 -0.5t-7 -0.5q-11 -12 -32.5 -21t-39.5 -9q-37 0 -37 33q0 25 21 46 t71 28q59 74 59 139q0 11 -3 22h-18q-51 0 -91 -4q-3 12 -3 26q0 51 40 55q6 0 24 0.5t28 0.5q-29 64 -29 98q0 70 63.5 111t139.5 41q46 0 76.5 -17t30.5 -49q0 -43 -50 -72q-12 34 -56 34q-24 0 -42 -13.5t-18 -35.5q0 -16 19.5 -49.5t23.5 -43.5q79 5 131 12z" />
<glyph horiz-adv-x="524" d="M155 -10q-51 0 -79.5 32t-28.5 83q0 22 20 117t20 128q0 42 -31 52q6 39 35.5 61t65.5 22q87 0 87 -92q0 -35 -19.5 -125t-20.5 -132q0 -55 27 -55q18 0 46 40.5t41 95.5q27 160 32 247q40 14 70 14q78 0 78 -72q0 -6 -14 -93q-32 -180 -41 -234q-7 -40 -12 -66 t-15.5 -62t-23.5 -58.5t-34.5 -48.5t-48.5 -40.5t-65.5 -24t-86.5 -9.5q-60 0 -102 20.5t-42 54.5q0 41 70 76q7 -27 34.5 -44.5t55.5 -17.5q21 0 37 7t28 24.5t20 33t16 47.5t11.5 50.5t10.5 59.5q-28 -43 -67.5 -67t-73.5 -24z" />
<glyph horiz-adv-x="533" d="M155 -10q-51 0 -79.5 32t-28.5 83q0 22 20 117t20 128q0 42 -31 52q6 39 35.5 61t65.5 22q87 0 87 -92q0 -35 -19.5 -125t-20.5 -132q0 -55 27 -55q18 0 46 40.5t41 95.5q27 160 32 247q40 14 70 14q78 0 78 -72q0 -6 -14 -93q-32 -180 -41 -234q-7 -40 -12 -66 t-15.5 -62t-23.5 -58.5t-34.5 -48.5t-48.5 -40.5t-65.5 -24t-86.5 -9.5q-60 0 -102 20.5t-42 54.5q0 41 70 76q7 -27 34.5 -44.5t55.5 -17.5q21 0 37 7t28 24.5t20 33t16 47.5t11.5 50.5t10.5 59.5q-28 -43 -67.5 -67t-73.5 -24zM478 629q-25 -15 -111.5 -51.5t-105.5 -54.5 q-26 25 -26 56q0 21 26.5 41t61.5 35.5t77 42t66 55.5q17 -11 29 -32t12 -40q0 -34 -29 -52z" />
<glyph horiz-adv-x="535" d="M155 -10q-51 0 -79.5 32t-28.5 83q0 22 20 117t20 128q0 42 -31 52q6 39 35.5 61t65.5 22q87 0 87 -92q0 -35 -19.5 -125t-20.5 -132q0 -55 27 -55q18 0 46 40.5t41 95.5q27 160 32 247q40 14 70 14q78 0 78 -72q0 -6 -14 -93q-32 -180 -41 -234q-7 -40 -12 -66 t-15.5 -62t-23.5 -58.5t-34.5 -48.5t-48.5 -40.5t-65.5 -24t-86.5 -9.5q-60 0 -102 20.5t-42 54.5q0 41 70 76q7 -27 34.5 -44.5t55.5 -17.5q21 0 37 7t28 24.5t20 33t16 47.5t11.5 50.5t10.5 59.5q-28 -43 -67.5 -67t-73.5 -24zM187 530q-35 0 -54 21t-19 52 q0 37 25.5 66.5t68.5 29.5q34 0 53.5 -23t19.5 -55q0 -36 -25 -63.5t-69 -27.5zM415 530q-35 0 -54 21t-19 52q0 37 25.5 66.5t68.5 29.5q34 0 53.5 -23t19.5 -55q0 -36 -25 -63.5t-69 -27.5z" />
<glyph d="M299 310q39 58 83.5 149.5t49.5 128.5q14 2 30 2q37 0 64 -12.5t27 -41.5q0 -22 -43.5 -90t-114.5 -154q76 4 114 8v-10q0 -23 -10.5 -39t-31.5 -16h-120l-6 -44q83 2 155 9v-10q0 -23 -10.5 -39t-31.5 -16h-119q-6 -66 -6 -86q0 -29 4 -49q-44 -10 -77 -10 q-25 0 -42 4.5t-24 12.5t-9.5 16t-2.5 18q0 11 11 94q-94 -2 -151 -7q-2 6 -2 17q0 46 42 46h120q1 4 2.5 18.5t3.5 23.5q-1 1 -1 2q-95 -2 -152 -7q-2 6 -2 17q0 46 42 46h91q-25 65 -45 110q-19 39 -27 55.5t-21 36.5t-29 38q47 54 97 54q45 0 67 -57q3 -8 14 -37 t19.5 -52t20.5 -59t21 -70z" />
</font>
</defs>
</svg>
