<?xml version="1.0" standalone="no"?>
<!DOCTYPE svg PUBLIC "-//W3C//DTD SVG 1.1//EN" "http://www.w3.org/Graphics/SVG/1.1/DTD/svg11.dtd" >
<svg xmlns="http://www.w3.org/2000/svg" xmlns:xlink="http://www.w3.org/1999/xlink" version="1.1">
<metadata></metadata>
<defs>
<font id="halantlight" horiz-adv-x="927" >
<font-face units-per-em="2048" ascent="1638" descent="-410" />
<missing-glyph horiz-adv-x="512" />
<glyph unicode="&#xfb01;" horiz-adv-x="1105" d="M55 122.5q0 12.5 6 27.5q80 10 109 29.5t29 66.5v706q-60 9 -138 9l2 26q63 20 136 31v145q0 203 97 297t230 94t255 -77.5t122 -155.5q0 -29 -17.5 -48.5t-44 -19.5t-61.5 36t-66.5 80t-86 80t-117.5 36q-109 0 -159 -58.5t-50 -197.5v-211q455 0 582 24v-858 q66 -29 145 -34q0 -29 -6 -48h-383q-4 25 4 48q78 8 106.5 27.5t28.5 66.5v708h-477v-768q66 -29 145 -34q0 -29 -6 -48h-383q-2 8 -2 20.5z" />
<glyph unicode="&#xfb02;" horiz-adv-x="1050" d="M55 102v17.5t2 30.5q80 8 109 27.5t29 66.5v708q-60 9 -138 9l2 26q66 20 136 31v145q0 205 97 298t250.5 93t284.5 -36v-1334q63 -29 146 -34q0 -29 -6 -48h-381q-2 18 2 48q80 8 108.5 27.5t28.5 66.5v1208q-92 33 -211 33t-168 -57.5t-49 -198.5v-211q182 0 301 10 q0 -41 -16 -76h-285v-768q63 -29 145 -34q0 -29 -6 -48h-381z" />
<glyph horiz-adv-x="0" />
<glyph horiz-adv-x="682" />
<glyph horiz-adv-x="0" />
<glyph horiz-adv-x="0" />
<glyph unicode="&#xd;" horiz-adv-x="681" />
<glyph unicode=" "  horiz-adv-x="512" />
<glyph unicode="&#x09;" horiz-adv-x="512" />
<glyph unicode="&#xa0;" horiz-adv-x="512" />
<glyph unicode="!" horiz-adv-x="970" d="M344 190.5q0 38.5 25.5 65.5t63.5 27t65.5 -27t27.5 -65.5t-26.5 -64.5t-65.5 -26t-64.5 26t-25.5 64.5zM375 1446h8l102 -35l-12 -1003h-6l-66 32z" />
<glyph unicode="&#x22;" horiz-adv-x="696" d="M137 1716h142l-35 -327h-72zM381 1716h141l-35 -327h-71z" />
<glyph unicode="#" horiz-adv-x="1583" d="M139 514v88h324l78 410h-281v88h299l78 407h88l-78 -407h414l78 407h88l-78 -407h334v-88h-350l-78 -410h307v-88h-326l-78 -412h-90l80 412h-413l-78 -412h-90l79 412h-307zM553 602h412l77 410h-411z" />
<glyph unicode="$" horiz-adv-x="1105" d="M141 334l62 78q154 -209 385 -209q111 0 191.5 67.5t80.5 181t-57 171.5q-66 66 -258 149q-164 72 -213 121q-70 70 -82 117t-12 92q0 147 99 235t234 95v116h72v-118q178 -16 285 -123l-47 -66q-102 119 -291 119q-104 0 -183 -65.5t-79 -188.5q0 -109 90 -168 q41 -29 106.5 -57.5t109.5 -49t81 -39t92 -54.5t82 -70q70 -90 69.5 -220.5t-95.5 -217.5t-236 -99v-123h-72v123q-133 8 -242.5 72.5t-171.5 130.5z" />
<glyph unicode="%" horiz-adv-x="1730" d="M213 1124.5q0 145.5 63.5 245.5t189.5 100t190.5 -101t64.5 -250.5t-62.5 -252t-187.5 -102.5t-191.5 107.5t-66.5 253zM309 1122q0 -127 43 -204.5t115 -77.5t115 74.5t43 207.5q0 272 -160 273q-156 -1 -156 -273zM418 102l778 1352h111l-777 -1352h-112zM1014 442.5 q0 145.5 63.5 245.5t189.5 100t190.5 -101t64.5 -250.5t-62.5 -252t-187.5 -102.5t-191.5 107.5t-66.5 253zM1110 438q0 -127 43 -203.5t114.5 -76.5t114.5 74.5t43 205.5q0 274 -159 275q-156 -1 -156 -275z" />
<glyph unicode="&#x26;" horiz-adv-x="1310" d="M102 408q0 72 39 133t84 98t106.5 81t66.5 47t12 7q-172 209 -172 342q0 96 87 168t190 72t177 -65.5t74 -151.5t-44 -155t-183 -175l-23 -18q133 -158 383 -377q72 123 139 325h260l-20 -67h-209q-61 -182 -129 -293q190 -160 285 -223l-84 -54q-180 143 -248 201 q-166 -227 -404 -227q-147 0 -267 93t-120 239zM193 428q0 -129 101 -203.5t238 -74.5q184 0 320 188q-266 231 -412 397q-195 -143 -231 -225q-16 -39 -16 -82zM328 1135q-1 -111 155 -308q197 147 197 289q0 74 -58.5 128t-136.5 54q-158 0 -157 -163z" />
<glyph unicode="'" horiz-adv-x="817" d="M365 1716h141l-35 -327h-72z" />
<glyph unicode="(" horiz-adv-x="774" d="M250 840q0 561 459 985l57 -49q-416 -387 -416 -936q0 -266 101.5 -521.5t314.5 -453.5l-57 -47q-459 424 -459 1022z" />
<glyph unicode=")" horiz-adv-x="735" d="M8 -135q213 199 314.5 453.5t101.5 521.5q0 549 -416 936l58 49q458 -424 458 -985q0 -598 -458 -1022z" />
<glyph unicode="*" horiz-adv-x="948" d="M123 1208q0 27 10 57.5t23 41.5l225 -82l-33 252q29 16 56.5 16t50.5 -6l-13 -264l213 84q12 -10 22.5 -44t8.5 -57l-229 -41l178 -180q-18 -47 -78 -72l-147 215l-129 -221q-51 8 -88 60l169 196z" />
<glyph unicode="+" horiz-adv-x="1189" d="M115 827v7h430v421h6l92 -73v-348h387l47 -93v-6h-434v-420h-6l-92 72v348h-385z" />
<glyph unicode="," horiz-adv-x="522" d="M162 186v7l45 79q86 -37 123 -100t36.5 -151.5t-63.5 -192.5q-23 -35 -61 -92l-62 28q4 4 18.5 29t19.5 33t16.5 29.5t17.5 35.5q29 68 29 121q0 115 -119 174z" />
<glyph unicode="-" horiz-adv-x="1087" d="M115 827v7h794l45 -93v-6h-794z" />
<glyph unicode="." horiz-adv-x="610" d="M233 180q0 35 23 57.5t55.5 22.5t56 -23.5t23.5 -56.5t-23.5 -56.5t-56 -23.5t-55.5 22.5t-23 57.5z" />
<glyph unicode="/" horiz-adv-x="960" d="M258 92l350 1393h92l-352 -1393h-90z" />
<glyph unicode="0" horiz-adv-x="1005" d="M102 717q0 291 100.5 467t299 176t300 -176t101.5 -467t-101.5 -465t-300 -174t-299 174t-100.5 465zM211 745q0 -289 78 -443.5t223 -154.5t214 147.5t69 395.5q0 287 -79 443.5t-224.5 156.5t-213 -148.5t-67.5 -396.5z" />
<glyph unicode="1" horiz-adv-x="618" d="M82 121.5q0 11.5 8 23.5q98 10 134 29t36 64v981l-174 -21q0 20 2 27q182 100 246 129l24 -11v-1157q84 -39 179 -41q0 -25 -7 -43h-446q-2 8 -2 19.5z" />
<glyph unicode="2" horiz-adv-x="892" d="M61 180q254 281 384 455t161 250t31 172t-61.5 167.5t-160 71.5t-163 -54t-94.5 -177q-23 0 -33 4q0 131 10 207q154 84 300.5 84t232.5 -86t86 -227.5t-96.5 -275.5t-456.5 -529q-29 -31 -43 -47h362q109 0 154 45t61 159q18 0 35 -8q0 -150 -22 -289h-672 q-14 43 -15 78z" />
<glyph unicode="3" horiz-adv-x="909" d="M82 199q10 31 29 43q109 -86 253 -86t228 67.5t84 190.5q0 264 -363 297v51q135 0 226.5 91t91.5 210q0 233 -197 233q-102 0 -166.5 -54t-95.5 -177q-23 0 -33 4q0 131 11 207q154 84 293 84t218.5 -77t79.5 -202t-78.5 -218t-195.5 -126q162 -31 240.5 -120t78.5 -226 t-112.5 -226t-278.5 -89t-313 123z" />
<glyph unicode="4" horiz-adv-x="950" d="M61 518l578 834h57v-828h183q10 -29 10 -46t-2 -25h-191v-275q70 -31 138 -33q0 -25 -7 -43h-364q-4 25 4 43q76 10 102.5 29t26.5 64v215h-496q-27 27 -39 65zM154 524h442v629z" />
<glyph unicode="5" horiz-adv-x="985" d="M102 199q6 27 31 47q117 -88 268.5 -88t251 103.5t99.5 246.5t-70 218t-192.5 75t-288.5 -123l-35 16l61 619h398q139 0 172 76q25 0 37 -5q-12 -92 -41 -165h-498l-53 -451q131 121 269 121t244.5 -96.5t106.5 -265.5t-131 -309t-308 -140t-321 121z" />
<glyph unicode="6" horiz-adv-x="942" d="M123 553q0 152 51 291t179 276t323 228q29 -23 33 -48q-375 -199 -455 -577q51 68 111.5 102.5t100.5 40.5t101 6q121 0 197 -110.5t76 -273t-119 -285.5t-266.5 -123t-239.5 125t-92 348zM233 528q0 -157 62.5 -263.5t177.5 -106.5t188.5 87t73.5 230t-52 226t-153 83 q-174 0 -290 -147q-6 -51 -7 -109z" />
<glyph unicode="7" horiz-adv-x="821" d="M59 1116q0 111 23 217h670q31 -33 39 -71l-484 -1160q-14 -2 -28 -2l-70 15l407 913l105 211h-430q-111 0 -149 -24.5t-50 -106.5q-16 0 -33 8z" />
<glyph unicode="8" horiz-adv-x="1060" d="M156 361.5q0 113.5 73.5 193.5t231.5 170q-117 47 -203 132t-86 187q0 135 126 223.5t271.5 88.5t234.5 -84t89 -191.5t-66.5 -176t-205.5 -150.5q299 -125 299 -346q0 -127 -122 -227.5t-279 -100.5t-260 84t-103 197.5zM252 385q0 -121 81 -177t183 -56 q154 0 234.5 66.5t80.5 178.5q0 123 -102 197q-72 51 -203 104q-150 -94 -212 -161.5t-62 -151.5zM270 1059q0 -166 287 -279q133 78 187.5 138.5t54.5 147.5t-64.5 152.5t-191.5 65.5t-200 -58t-73 -167z" />
<glyph unicode="9" horiz-adv-x="942" d="M102 949q0 163 119 286t266.5 123t239.5 -125t92 -348q0 -152 -51 -291t-179 -276.5t-323 -227.5q-29 23 -33 47q375 199 455 578q-51 -68 -111.5 -102.5t-100.5 -41t-101 -6.5q-121 0 -197 110.5t-76 273.5zM207 962.5q0 -143.5 52.5 -226.5t152.5 -83q174 0 290 148 q6 51 7 108q0 158 -62.5 264.5t-177.5 106.5t-188.5 -87t-73.5 -230.5z" />
<glyph unicode=":" horiz-adv-x="512" d="M176 328.5q0 33.5 22.5 56.5t56.5 23t57.5 -23t23.5 -56.5t-23.5 -56t-57.5 -22.5t-56.5 22.5t-22.5 56zM176 1033q0 34 22.5 57.5t56.5 23.5t57.5 -23.5t23.5 -57.5t-23.5 -56.5t-57.5 -22.5t-56.5 22.5t-22.5 56.5z" />
<glyph unicode=";" horiz-adv-x="512" d="M176 1071q0 35 22.5 57.5t56.5 22.5t57.5 -22.5t23.5 -56.5t-23.5 -56.5t-57.5 -22.5t-56.5 21.5t-22.5 56.5zM201 295v8l45 78q86 -37 123 -100t37 -131q0 -121 -125 -306l-62 29q2 4 17.5 28.5t19.5 33t16.5 30t17.5 35.5t13 35q14 45 14 92q0 111 -116 168z" />
<glyph unicode="&#x3c;" horiz-adv-x="1253" d="M201 786l757 390l66 -84l-682 -344l682 -308l-29 -69l-745 334z" />
<glyph unicode="=" horiz-adv-x="1263" d="M211 670v8h799l45 -92v-8h-799zM211 965v8h799l45 -92v-9h-799z" />
<glyph unicode="&#x3e;" horiz-adv-x="1257" d="M205 455l682 344l-682 307l28 70l748 -334l47 -82l-758 -389z" />
<glyph unicode="?" horiz-adv-x="1222" d="M238 1395q139 113 311 112.5t293 -102.5t121 -252q0 -233 -353 -352v-260h-20l-66 30v295q4 2 49 20.5t59.5 26t56.5 28t59.5 33.5t47 37.5t44.5 47.5q34 62 34 117q0 115 -84.5 178t-223 63t-263.5 -98zM485 235.5q0 34.5 22.5 59t57.5 24.5t59.5 -24.5t24.5 -58 t-24.5 -57t-59.5 -23.5t-57.5 22.5t-22.5 57z" />
<glyph unicode="@" horiz-adv-x="1714" d="M123 489q0 375 220 613.5t556 238.5t514 -203.5t178 -512.5q0 -248 -116.5 -397.5t-245.5 -149.5q-160 0 -199 129q-123 -129 -239.5 -129t-190.5 69.5t-74 180.5q0 162 140 254q117 76 284 75q35 0 72 -4v119q0 96 -38 143.5t-126 47.5q-137 0 -250 -66l-24 23 q137 133 305 133q109 0 174 -70.5t65 -189.5v-514q0 -57 26 -84t85 -27q92 0 169 125t77 332q0 281 -154.5 462t-412.5 181q-317 0 -503 -217t-186 -580q0 -262 152 -446q76 -92 204 -146.5t292 -54.5q-2 -18 -27 -66q-344 0 -535.5 204t-191.5 527zM635 336q0 -78 47 -123 t119 -45q131 0 221 90v348h-35q-162 0 -257 -73.5t-95 -196.5z" />
<glyph unicode="A" horiz-adv-x="1132" d="M-8 102q0 23 8 43q125 14 156 109l368 1089q27 16 80 17l365 -1102q31 -100 172 -113q-4 -31 -11 -43h-387q0 29 9 43q96 14 139 43l-107 326h-467l-112 -334q59 -27 149 -35q0 -18 -8 -43h-354zM336 569h430l-219 660l-23 -90z" />
<glyph unicode="B" horiz-adv-x="1083" d="M61 1290q0 27 5 43h428q217 0 313 -90t96 -225q0 -98 -56 -170t-147 -105q123 -23 193 -111.5t70 -210.5t-103.5 -220.5t-306.5 -98.5h-487q0 33 4 43q76 10 102.5 29t26.5 64v1022q-63 29 -138 30zM297 160h256q152 0 222.5 76.5t70.5 195.5t-70.5 197t-222.5 78h-256 v-547zM297 764l301 -2q190 61 190 258q0 117 -69.5 188.5t-224.5 71.5h-197v-516z" />
<glyph unicode="C" horiz-adv-x="1161" d="M115 706.5q0 282.5 181 468t443 185.5q162 0 299 -60q0 -113 -28 -223q-23 0 -29 2q0 100 -68.5 153.5t-171.5 53.5q-233 0 -371.5 -157.5t-138.5 -412.5t134.5 -405.5t325 -150.5t351.5 104l27 -24q-162 -162 -392.5 -162t-396 173t-165.5 455.5z" />
<glyph unicode="D" horiz-adv-x="1142" d="M61 1290q0 27 5 43h419q281 0 449 -161.5t168 -452.5t-167 -454t-448 -163h-419q-4 25 4 43q76 10 102.5 29t26.5 64v1022q-63 29 -140 30zM299 160h184q242 0 372 152.5t130 406.5t-130 407.5t-372 153.5h-184v-1120z" />
<glyph unicode="E" horiz-adv-x="1017" d="M63 1290q0 31 7 43h802q2 -39 2 -102.5t-10 -140.5q-8 -4 -35 -5q-10 109 -47 152t-137 43h-342v-518l354 10h54v-78h-54l-354 8v-542h375q100 0 138 42t48 150q27 0 39 -2q6 -82 6 -143.5t-2 -104.5h-837q-4 27 6 43q76 10 102.5 29t26.5 64v1019q-61 29 -142 33z" />
<glyph unicode="F" horiz-adv-x="954" d="M61 122.5q0 12.5 7 27.5q80 10 108.5 29.5t28.5 66.5v1011q-59 29 -142 33q0 31 7 43h802q2 -39 2 -102.5t-10 -140.5q-8 -4 -35 -5q-10 109 -47 152t-137 43h-342v-559l324 10h63v-78h-63l-324 6v-462q76 -29 203 -47q0 -35 -4 -48h-439q-2 8 -2 20.5z" />
<glyph unicode="G" horiz-adv-x="1222" d="M115 701.5q0 287.5 181 473t443 185.5q162 0 299 -60q0 -113 -28 -223q-20 0 -29 2q0 100 -68.5 153.5t-171.5 53.5q-244 0 -377 -155.5t-133 -418.5t121 -407.5t295 -144.5t303 80v391q-70 33 -139 35q0 20 4 45h365q2 -8 2 -20.5t-6 -24.5q-76 -10 -102.5 -29 t-26.5 -62v-473h-48l-38 80q-141 -104 -318 -104q-219 0 -373.5 168t-154.5 455.5z" />
<glyph unicode="H" horiz-adv-x="1241" d="M63 1290q0 31 7 43h364q0 -31 -4 -43q-74 -8 -100.5 -26.5t-26.5 -61.5v-452h637v507q-72 31 -137 33q0 31 6 43h365q4 -18 -5 -43q-76 -8 -102.5 -25.5t-26.5 -62.5v-1024q70 -31 138 -33l-2 -43h-367q0 33 2 43q76 10 102.5 29t26.5 64v454h-637v-514q72 -31 137 -33 q0 -25 -6 -43h-364q-4 27 6 43q76 10 102.5 29t26.5 64v1019q-63 27 -142 33z" />
<glyph unicode="I" horiz-adv-x="505" d="M63 1290q0 31 7 43h364q0 -31 -4 -43q-74 -8 -100.5 -26.5t-26.5 -61.5v-1024q72 -31 137 -33q0 -25 -6 -43h-364q-4 27 6 43q76 10 102.5 29t26.5 64v1019q-63 27 -142 33z" />
<glyph unicode="J" horiz-adv-x="481" d="M-4 -274q131 72 170 159.5t39 220.5v1151q-63 27 -142 33q0 31 7 43h364q0 -31 -4 -43q-74 -8 -100.5 -26.5t-26.5 -61.5v-1091q0 -172 -70.5 -267.5t-228.5 -144.5z" />
<glyph unicode="K" horiz-adv-x="1142" d="M63 1290q0 31 7 43h364q0 -31 -4 -43q-74 -8 -100.5 -26.5t-26.5 -61.5v-471l492 524q-53 29 -136 35q0 29 9 43h383q0 -23 -7 -43q-119 0 -190 -73l-434 -455q61 -6 100 -60l326 -438q51 -66 93 -88t114 -26q0 -29 -9 -48h-196l-422 555q-31 39 -68 39l-55 -57v-461 q72 -31 137 -33q0 -25 -6 -43h-364q-4 27 6 43q76 10 102.5 29t26.5 64v1019q-63 27 -142 33z" />
<glyph unicode="L" horiz-adv-x="1040" d="M61 1290q0 27 5 43h364q4 -18 -4 -43q-74 -8 -100.5 -26.5t-26.5 -61.5v-1042h401q100 0 137 42t48 148q27 0 35 -2q10 -86 10 -146.5t-2 -99.5h-860q-4 25 4 43q76 10 102.5 29t26.5 64v1019q-72 31 -140 33z" />
<glyph unicode="M" horiz-adv-x="1591" d="M23 102q0 23 8 43q150 18 155 107l86 1010q-47 18 -96 24q-6 27 0 47h213l393 -1069l426 1069h201q8 -20 8 -45q-94 -6 -94 -90v-10l86 -1008q65 -29 143 -35q2 -10 2 -21t-4 -22h-364q-4 25 0 43q76 10 100 29q23 18 23 57v7l-82 966l-64 -170l-372 -932h-37l-359 971 l-57 166l-88 -1059q68 -31 153 -35q0 -18 -8 -43h-372z" />
<glyph unicode="N" horiz-adv-x="1292" d="M63.5 121.5q-0.5 11.5 6.5 23.5q143 18 143 107v1008q-68 29 -135 30q0 27 4 43h237l537 -768l178 -266v958q-57 25 -160 33q0 31 7 43h372q0 -31 -4 -43q-145 -14 -145 -106v-1082h-45l-684 981l-92 144v-1047q66 -27 157 -35q0 -25 -6 -43h-368q-2 8 -2.5 19.5z" />
<glyph unicode="O" horiz-adv-x="1320" d="M117 714.5q0 282.5 145.5 464t397 181.5t399 -181.5t147.5 -464t-147.5 -460.5t-398 -178t-397 178t-146.5 460.5zM225 715q6 -291 127 -430.5t321.5 -139.5t312.5 150.5t112 394.5q0 297 -127 448.5t-323.5 151.5t-309.5 -158.5t-113 -383.5v-33z" />
<glyph unicode="P" horiz-adv-x="1013" d="M61 1290q0 27 5 43h477q188 0 299.5 -104.5t111.5 -246.5t-111.5 -246.5t-299.5 -104.5h-244v-443q90 -37 207 -43q0 -25 -6 -43h-432q-4 25 4 43q76 10 102.5 29t26.5 64v1019q-72 31 -140 33zM299 688h215q158 0 240 84t82 212t-80 212t-242 84h-215v-592z" />
<glyph unicode="Q" horiz-adv-x="1318" d="M117 735q0 262 145.5 443.5t397 181.5t399 -181.5t147.5 -453.5t-129 -444t-358 -213q76 -25 172 -109q31 -27 89 -47.5t132 -20.5t114 34t60 104l21 -6q2 -13 2 -27q0 -78 -47.5 -149.5t-157.5 -71.5q-72 0 -141.5 40t-115.5 87t-108.5 87t-123 40t-88 -39t-27.5 -71 t2 -48h-23q-24 45 -24 92q0 92 77 127q-195 45 -305 214t-110 431zM225 715q6 -291 127 -430.5t321.5 -139.5t312.5 150.5t112 394.5q0 297 -127 448.5t-323.5 151.5t-309.5 -158.5t-113 -383.5v-33z" />
<glyph unicode="R" horiz-adv-x="1085" d="M63 1290q0 31 7 43h442q186 0 282.5 -91t96.5 -222q0 -268 -250 -326q53 -23 98 -106l179 -336q35 -63 66.5 -86t90.5 -23q0 -27 -4 -41h-194l-242 467q-31 59 -65.5 85t-114.5 26h-152v-494q78 -33 164 -41q4 -23 -4 -43h-393q-4 27 6 43q76 10 102.5 29t26.5 64v1017 q-70 33 -142 35zM303 737h180q293 0 293 269q0 274 -293 274h-180v-543z" />
<glyph unicode="S" horiz-adv-x="933" d="M113 273.5q0 66.5 18 175.5q18 0 31 -5v-12q0 -285 297 -285q121 0 201.5 72t80.5 180q0 131 -118 213q-53 37 -117 69t-128.5 65.5t-117.5 72.5q-119 90 -119 230.5t100.5 221.5t254 81t311.5 -64q-2 -115 -21 -211q-25 0 -30 4q-39 207 -275 207q-115 0 -179 -58.5 t-64 -151.5t62 -156.5t150.5 -104.5t177.5 -86t151.5 -122.5t62.5 -186.5q0 -150 -110.5 -242t-287 -92t-329.5 90q-2 29 -2 95.5z" />
<glyph unicode="T" horiz-adv-x="1011" d="M39 1215.5q0 62.5 4 117.5h922q4 -47 4 -107.5t-8 -133.5q-12 -4 -35 -5q-10 109 -49 151t-138 42h-186v-1094q96 -35 205 -41q0 -31 -4 -43h-508q0 33 6 43q123 8 163 26.5t40 66.5v1042h-187q-98 0 -137 -42t-49 -151q-25 0 -35 5q-8 61 -8 123.5z" />
<glyph unicode="U" horiz-adv-x="1296" d="M90 1290q-2 16 4 43h365q0 -31 -4 -43q-74 -8 -100.5 -26.5t-26.5 -61.5v-690q0 -182 89 -273.5t238.5 -91.5t236.5 92.5t87 272.5v745q-72 31 -137 33q0 31 6 43h364q2 -6 2 -16t-6 -27q-76 -8 -102.5 -25.5t-26.5 -62.5v-674q0 -229 -116.5 -339.5t-307 -110.5 t-308.5 110.5t-118 339.5v729q-63 27 -139 33z" />
<glyph unicode="V" horiz-adv-x="1150" d="M14 1333h330q6 -23 6 -45q-78 -8 -90 -19.5t-12 -27.5t8 -41l295 -809q29 -82 37 -125h6l354 991q-57 25 -133 31q0 27 6 45h322q0 -20 -6 -45q-61 -8 -93 -27.5t-53 -70.5l-395 -1100h-35l-432 1172q-51 18 -113 26q-4 37 -2 45z" />
<glyph unicode="W" horiz-adv-x="1724" d="M8 1320v13h340q8 -18 8 -45q-84 -8 -100 -20.5t-16 -29.5t6 -38l227 -782q23 -72 31 -139h6l364 989h31l309 -881q20 -59 27 -119h4l287 983q-59 29 -113 37q2 23 11 45h282q0 -6 -4 -45q-63 -12 -90 -31.5t-45 -78.5l-326 -1088h-30l-345 989l-372 -989h-33l-340 1170 q-59 23 -117 28q-2 23 -2 32z" />
<glyph unicode="X" horiz-adv-x="1202" d="M70 1320q0 9 2 13h334q8 -18 8 -43q-90 -8 -102.5 -20.5t-12.5 -26.5t18 -39l289 -411l346 464q-74 31 -141 33q0 25 6 43h313q2 -18 -4 -43q-51 -8 -78.5 -27.5t-66.5 -70.5l-336 -453l406 -575q39 -12 73 -19q8 -27 6 -43h-331q-8 14 -8 43q88 8 100 20.5t12 26 t-18 41.5l-299 424l-338 -477q61 -29 143 -35q0 -23 -6 -43h-313v15.5t4 27.5q49 8 76.5 29t70.5 72l324 467l-395 559q-45 14 -74 16q-8 23 -8 32z" />
<glyph unicode="Y" horiz-adv-x="1097" d="M-12 1333h348q8 -18 8 -45q-82 -8 -95 -21.5t-13 -28.5t16 -46l301 -543h2q16 45 41 84l334 527q-66 25 -129 28q0 20 4 45h303q2 -18 -4 -45q-55 -8 -83 -26.5t-60 -71.5l-371 -586v-424q70 -29 139 -35q0 -25 -6 -43h-367q-4 25 4 43q76 10 102.5 29t26.5 64v340 l-389 686q-51 16 -106 24z" />
<glyph unicode="Z" horiz-adv-x="1085" d="M109 154l741 1124h-465q-98 0 -140 -43t-59 -150q-16 0 -32 9q0 117 22 239h778q8 -18 9 -51l-738 -1120h502q100 0 141 41t58 147q18 0 30 -6q0 -137 -18 -242h-815q-14 20 -14 52z" />
<glyph unicode="[" horiz-adv-x="757" d="M174 -55v1769h375l61 -90h-336v-1679h275l59 -88h-356z" />
<glyph unicode="\" horiz-adv-x="952" d="M258 1485h92l350 -1393h-90z" />
<glyph unicode="]" horiz-adv-x="677" d="M150 -55h333v1679h-276l-57 90h356l78 -90v-1767h-377z" />
<glyph unicode="^" horiz-adv-x="884" d="M82 594l324 715q20 2 43 2l43 -2l323 -715q-37 -16 -84 -21l-289 641l-286 -641q-35 2 -74 21z" />
<glyph unicode="_" horiz-adv-x="1087" d="M115 297v6h794l45 -92v-6h-794z" />
<glyph unicode="`" horiz-adv-x="380" d="M20 1391v18q39 37 109 55l231 -329l-32 -21z" />
<glyph unicode="a" d="M102 336q0 115 77 188.5t243 110.5l182 43v98q0 96 -37 143.5t-145.5 47.5t-251.5 -54l-18 27q143 115 317 115q111 0 175.5 -70t64.5 -190v-519q0 -61 14 -86.5t47 -25.5t80 10l6 -14q-55 -82 -131 -82q-45 0 -78 29.5t-41 82.5q-104 -113 -228 -113l-1 1 q-125 0 -200 71.5t-75 186.5zM211 340q0 -84 49 -129t133 -45q125 0 211 88v364l-170 -43q-223 -57 -223 -235z" />
<glyph unicode="b" horiz-adv-x="1021" d="M18 1448q0 25 9 41q115 51 239 76v-740q37 111 114 170.5t171 59.5q147 0 260 -121t113 -352.5t-132.5 -367.5t-318.5 -136q-125 0 -246 72q-31 -43 -92 -70l-18 16q47 96 47 226v1126q-33 2 -70 2t-76 -2zM266 213q96 -55 230.5 -55t221.5 110.5t87 313t-77 299 t-183.5 96.5t-184 -77t-94.5 -232v-455z" />
<glyph unicode="c" d="M94 559q0 217 126 356.5t316.5 139.5t294.5 -86q0 -106 -16 -201l-33 6v6q0 94 -66 150q-68 58 -177 59q-152 0 -243 -118.5t-91 -305t87 -301t235.5 -114.5t291.5 92l21 -21q-82 -76 -156 -109.5t-180 -33.5q-176 0 -293 132t-117 349z" />
<glyph unicode="d" horiz-adv-x="1062" d="M100 555q0 231 153 365.5t374 134.5q51 0 108 -11v404q-35 2 -70.5 2t-74.5 -2q0 23 6 41q119 51 242 76v-1289q0 -63 13 -87.5t46 -24.5t80 10l10 -14q-61 -82 -133 -82q-45 0 -77 29.5t-40 80.5q-102 -111 -263 -111l-1 1q-162 0 -267.5 123t-105.5 354zM207 572.5 q0 -205.5 79 -308t217 -102.5t232 88v706q-73 19 -151 19q-178 0 -277.5 -98.5t-99.5 -304z" />
<glyph unicode="e" horiz-adv-x="950" d="M96 551q0 125 41 226.5t107 158.5q135 119 281.5 119t240.5 -103.5t94 -285.5q-12 -18 -16 -23h-637q-2 -18 -2 -59q0 -195 84 -306.5t241.5 -111.5t307.5 106l10 -26q-147 -168 -352 -168q-156 0 -278 123t-122 350zM215 698l260 17h273q-3 141 -72.5 208.5t-167.5 67.5 t-183 -73.5t-110 -219.5z" />
<glyph unicode="f" horiz-adv-x="583" d="M55 122.5q0 12.5 6 27.5q80 10 109 29.5t29 66.5v706q-60 9 -138 9l2 26q63 20 136 31v145q0 199 89 295t203.5 96t202.5 -92q-2 -84 -20 -172q-23 0 -47 4v21q0 170 -140 170q-92 0 -139 -58.5t-47 -197.5v-211q182 0 301 10q0 -45 -14 -76h-287v-757q98 -39 223 -45 q0 -35 -4 -48h-463q-2 8 -2 20.5z" />
<glyph unicode="g" horiz-adv-x="1011" d="M74 -91q0 134 133 214q-96 41 -96 151.5t155 178.5q-149 93 -149 272q0 152 103.5 241t246.5 89t242 -70q125 82 280 82v-25.5t-8 -68.5l-231 -25q86 -86 86 -228t-103.5 -232.5t-255.5 -90.5q-88 0 -162 31q-112 -55 -112 -130q0 -48 36.5 -79t116.5 -31l396 5h8 q111 0 171 -49.5t60 -133.5q-2 -139 -168 -262t-356.5 -123t-291.5 75t-101 209zM137 -75q0 -105 87 -163.5t251 -58.5t288 91q122 90 122 187q0 121 -131 121h-2l-424 -2q-41 0 -76 6q-115 -76 -115 -181zM227 741q0 -139 76 -217t184.5 -78t174 71t65.5 183 q0 147 -76 226.5t-184.5 79.5t-174 -73t-65.5 -192z" />
<glyph unicode="h" horiz-adv-x="1085" d="M61 1442q0 20 7 39q141 55 241 73v-714q109 215 316 215q115 0 189.5 -77t74.5 -224v-570q68 -29 145 -34q0 -23 -4 -48h-381q-2 18 2 48q78 8 106.5 27.5t28.5 66.5v506q0 106 -50 162.5t-140 56.5q-195 0 -287 -215v-570q63 -29 146 -34q0 -29 -6 -48h-381q-2 18 2 48 q80 8 108.5 27.5t28.5 66.5v1196q-59 2 -93 2h-53z" />
<glyph unicode="i" horiz-adv-x="532" d="M61 926q0 20 7 41q125 47 241 75v-858q63 -29 146 -34q0 -29 -6 -48h-381q-2 18 2 48q80 8 108.5 27.5t28.5 66.5v680q-59 2 -93 2h-53zM164 1346.5q0 37.5 26.5 64.5t64.5 27t64.5 -27t26.5 -64.5t-26.5 -65.5t-64.5 -28t-64.5 28t-26.5 65.5z" />
<glyph unicode="j" horiz-adv-x="495" d="M-43 -311q160 80 209 190q39 88 39 221v824q-59 2 -92 2h-52q0 20 7 41q125 47 241 75v-936q0 -178 -81 -286.5t-263 -159.5zM164 1346.5q0 37.5 26.5 64.5t64.5 27t64.5 -27t26.5 -64.5t-26.5 -65.5t-64.5 -28t-64.5 28t-26.5 65.5z" />
<glyph unicode="k" horiz-adv-x="1036" d="M61 1448q0 23 7 41q113 51 241 76v-1020l418 401q-63 14 -127 47q0 25 6 37h385q0 -27 -6 -49q-121 0 -197 -74l-282 -264q31 -14 61 -53l250 -322q51 -66 95 -90t112 -28q0 -29 -8 -48h-201l-342 445q-18 25 -35 33l-129 -121v-275q63 -29 146 -34q0 -29 -6 -48h-381 q-2 18 2 48q80 8 108.5 27.5t28.5 66.5v1204q-35 2 -71 2t-75 -2z" />
<glyph unicode="l" horiz-adv-x="530" d="M61 1448q0 23 7 41q113 51 241 76v-1381q63 -29 146 -34q0 -29 -6 -48h-381q-2 18 2 48q80 8 108.5 27.5t28.5 66.5v1204q-35 2 -71 2t-75 -2z" />
<glyph unicode="m" horiz-adv-x="1665" d="M61 930q0 20 7 39q135 53 227 73q10 -80 14 -202q106 215 316 215q98 0 168.5 -58.5t89.5 -173.5q47 106 131 169t195.5 63t186 -77t74.5 -224v-570q68 -29 146 -34q0 -23 -4 -48h-381q-2 18 2 48q78 8 106.5 27.5t28.5 66.5v506q0 106 -50 162.5t-140 56.5 q-199 0 -289 -221v-564q68 -29 145 -34q0 -23 -4 -48h-381q-2 18 2 48q78 8 106.5 27.5t28.5 66.5v506q0 106 -50 162.5t-140 56.5q-195 0 -287 -215v-570q63 -29 146 -34q0 -29 -6 -48h-381q-2 18 2 48q80 8 108.5 27.5t28.5 66.5v684q-59 2 -93 2h-53z" />
<glyph unicode="n" horiz-adv-x="1085" d="M61 930q0 20 7 39q135 53 227 73q10 -80 14 -202q106 215 316 215q115 0 189.5 -77t74.5 -224v-570q68 -29 145 -34q0 -23 -4 -48h-381q-2 18 2 48q78 8 106.5 27.5t28.5 66.5v506q0 106 -50 162.5t-140 56.5q-195 0 -287 -215v-570q63 -29 146 -34q0 -29 -6 -48h-381 q-2 18 2 48q80 8 108.5 27.5t28.5 66.5v684q-59 2 -93 2h-53z" />
<glyph unicode="o" horiz-adv-x="1019" d="M96 564q0 216 114 353.5t303 137.5t300 -135.5t111 -351.5t-114 -353t-306.5 -137t-300 135t-107.5 351zM206 566q3 -194 83 -306.5t229.5 -112.5t222 110t72.5 288q0 209 -81 328.5t-230 119.5q-148 -1 -224 -117q-73 -112 -72 -295v-15z" />
<glyph unicode="p" horiz-adv-x="1050" d="M63 930q0 20 7 39q135 53 225 73q12 -68 16 -178q74 190 269 191q147 0 259.5 -121t112.5 -353.5t-144 -367.5t-339 -135q-90 0 -158 24v-358q88 -37 197 -47q0 -35 -4 -47h-438q-4 27 6 47q78 10 106.5 29.5t28.5 66.5v1135q-63 2 -95 2h-49zM311 193q88 -35 178 -35 q141 0 244 112.5t103 313t-77 297t-176.5 96.5t-170 -57.5t-101.5 -174.5v-552z" />
<glyph unicode="q" horiz-adv-x="1021" d="M100 555q0 231 153 365.5t372 134.5q88 0 157 -31q18 27 43 45h13v-1337q66 -29 145 -35q0 -33 -6 -47h-438q-4 31 0 47q113 8 154.5 34.5t41.5 80.5v374q-100 -109 -261 -109l-1 1q-162 0 -267.5 123t-105.5 354zM207 572.5q0 -205.5 79 -308t217 -102.5t232 88v698 q-79 27 -151 27q-176 0 -276.5 -98.5t-100.5 -304z" />
<glyph unicode="r" horiz-adv-x="688" d="M61 930q0 20 7 39q135 53 227 73q14 -94 14 -235v-27q49 125 148.5 200t210.5 75q6 -16 6 -43t-8 -64q-166 0 -277 -121q-66 -72 -80 -178v-454q96 -39 223 -45q0 -29 -6 -48h-460q-2 18 2 48q80 10 109.5 29.5t29.5 66.5v682q-59 2 -93 2h-53z" />
<glyph unicode="s" horiz-adv-x="851" d="M119 233.5q0 61.5 14 124.5q20 0 31 -2q-2 -14 -2 -28q0 -96 68.5 -142.5t180 -46.5t176 48.5t64.5 122t-78.5 128t-172 88t-172 104t-78.5 183.5t90 177.5t210.5 64.5t241.5 -39q2 -31 2 -87.5t-12 -133.5q-20 0 -33 4q2 18 2 35q0 86 -51 123.5t-146.5 37.5t-152.5 -48 t-57 -117.5t52 -116.5t127 -80t150.5 -67t128 -91t52.5 -133q0 -127 -102.5 -195.5t-248 -68.5t-280.5 45q-4 49 -4 110.5z" />
<glyph unicode="t" horiz-adv-x="708" d="M61 961l2 26q66 23 134 31l82 233l22 -6v-227q180 0 299 10q0 -45 -14 -76h-285v-624q0 -158 131 -158q111 0 205 84l16 -16q-100 -160 -243 -160q-90 0 -151.5 55t-61.5 170v649q-60 9 -136 9z" />
<glyph unicode="u" horiz-adv-x="1062" d="M41 928q0 20 6 39q133 61 219 75v-647q0 -106 51.5 -167.5t135.5 -61.5t159.5 57.5t130.5 159.5v487q0 84 -45 123q4 16 7 21q61 28 143 28h6q-8 -74 -8 -168v-667q59 -2 90 -2h47q2 -16 2 -25.5v-15.5q-102 -53 -225 -72q-16 82 -17 213q-137 -227 -315 -227 q-111 0 -187.5 81t-76.5 232v537q-25 2 -55.5 2t-67.5 -2z" />
<glyph unicode="v" horiz-adv-x="997" d="M-10 1012.5v17.5h387q6 -23 6 -47q-100 -8 -154 -37l285 -764q6 41 21 74l229 602q14 27 14 48.5t-12 37.5q-27 33 -139 39q-10 23 -6 47h391q2 -14 -6 -47q-61 -8 -127 -31l-338 -862h-76l-320 784q-25 59 -54 81t-99 28q-2 18 -2 29.5z" />
<glyph unicode="w" horiz-adv-x="1529" d="M41 1011.5v18.5h354q6 -24 6 -49q-133 -12 -133 -78q0 -12 4 -26l181 -519q16 -47 24 -94h4l277 727h41l219 -633q23 -63 29 -94h4l219 584q14 37 14 61.5t-20.5 44t-124.5 27.5q-6 25 -4 49h348v-18.5t-4 -30.5q-57 -12 -95 -29l-337 -862h-41l-248 715l-281 -715h-41 l-299 864q-51 23 -94 27q-2 18 -2 30.5z" />
<glyph unicode="x" horiz-adv-x="1032" d="M29 102q0 18 4 48q63 6 100 28.5t82 73.5l254 307l-225 297q-80 109 -211 127q-4 18 -4 29.5v17.5h370q6 -23 7 -47q-88 -8 -119 -22l248 -330l258 327q-39 18 -123 25q0 25 6 47h323q2 -6 2 -18.5t-8 -28.5q-63 -6 -99 -28.5t-81 -75.5l-244 -295l230 -305 q51 -70 92 -95.5t104 -33.5q4 -18 4 -29.5v-18.5h-356q-6 20 -6 48q78 6 123 24l-258 340l-264 -340q43 -18 120 -24q0 -18 -4 -48h-325z" />
<glyph unicode="y" horiz-adv-x="1013" d="M8 1012.5v17.5h385q6 -23 6 -47q-82 -6 -151 -37l282 -735q6 33 19 57l229 590q12 29 12.5 52.5t-14.5 37.5q-29 29 -135 35q-8 25 -4 47h364q2 -6 2.5 -17.5t-8.5 -29.5q-33 -4 -92 -20l-438 -1076q-53 -131 -106.5 -184t-133.5 -53h-22q-16 37 -16.5 62.5t1.5 41.5h33 q53 0 85 23.5t69 93.5l104 221l-315 782q-23 59 -52.5 81t-101.5 28q-2 18 -2 29.5z" />
<glyph unicode="z" horiz-adv-x="905" d="M96 102q-2 25 8 58l588 811h-313q-106 0 -151.5 -46t-63.5 -161q-18 0 -35 10q0 121 23 256h665q10 -39 -6 -61l-573 -805h333q109 0 154 45t61 160q18 0 35 -9q0 -119 -22 -258h-703z" />
<glyph unicode="{" horiz-adv-x="1081" d="M195 827v78q84 6 113.5 45t29.5 91.5t-10.5 163t-10.5 199.5t18.5 160.5t74.5 127.5q102 104 411 104v-78q-268 0 -342 -100q-39 -51 -51 -102.5t-12 -132t9 -182t9 -164t-21.5 -105.5t-103.5 -66q82 -25 103.5 -67.5t21.5 -105t-9 -163t-9 -173t6 -115.5t29.5 -90.5 t64.5 -73.5q98 -66 305 -66v-78q-309 0 -411 105q-55 55 -74 127t-19 162t10.5 198.5t10.5 161.5t-29.5 93t-113.5 46z" />
<glyph unicode="|" horiz-adv-x="671" d="M297 92v1393h90v-1393h-90z" />
<glyph unicode="}" horiz-adv-x="1085" d="M264 12q266 0 342 101q39 51 51.5 103t12.5 133t-9.5 181.5t-9.5 163t21.5 105.5t101.5 67q-80 23 -101.5 66t-21.5 105.5t9.5 164t9.5 182t-12.5 132t-51.5 102.5q-76 100 -342 100v78q311 0 412 -104q53 -55 71.5 -127t18.5 -161t-10.5 -199.5t-10.5 -163t30 -91.5 t116 -45v-78q-86 -6 -116 -46t-30 -93t10.5 -161.5t10.5 -198.5t-18.5 -162t-71.5 -127q-100 -104 -412 -105v78z" />
<glyph unicode="~" horiz-adv-x="964" d="M98 514q8 100 64.5 169t156.5 69q68 0 192 -79t177 -79q98 0 129 164h47q-8 -100 -63.5 -171t-143.5 -71t-210.5 79t-170.5 79q-100 0 -129 -160h-49z" />
<glyph unicode="&#xa1;" horiz-adv-x="970" d="M344 1204q0 39 25.5 64.5t64.5 25.5t65.5 -25.5t26.5 -64.5t-27.5 -65.5t-65.5 -26.5t-63.5 26.5t-25.5 65.5zM375 -51l26 1005l66 33h6l12 -1003l-102 -35h-8z" />
<glyph unicode="&#xa2;" horiz-adv-x="866" d="M121 689q0 165 97 267.5t247 106.5v123h65v-125q131 -14 213 -84l-47 -70q-78 92 -197.5 92t-199.5 -77.5t-80 -220t89 -222.5t217 -80t212 80l37 -33q-20 -35 -86.5 -72.5t-157.5 -43.5v-125h-65v125q-152 10 -248 102t-96 257z" />
<glyph unicode="&#xa3;" horiz-adv-x="1294" d="M141 707v10l29 53h201q-31 141 -31 229q0 174 97.5 277.5t260.5 103.5q182 0 328 -114q14 -10 16 -11l-45 -75q-47 55 -120.5 93t-149.5 38q-137 0 -213 -72t-76 -190.5t37 -278.5h389v-10l-39 -53h-336q14 -78 14.5 -153t-27 -177.5t-81.5 -171.5q104 35 184 35t205 -30 t185 -30q113 0 112 164l39 2q4 -25 4 -41t-3 -51t-17 -66.5t-53 -58.5t-112 -27t-197 26t-181 26q-147 0 -250 -52l-63 50q154 123 153 383q0 70 -18 172h-242z" />
<glyph unicode="&#xa4;" horiz-adv-x="884" d="M102 467l105 104q-47 74 -47 174.5t47 178.5l-105 102q20 39 60 59l100 -98q74 61 176.5 61.5t182.5 -63.5l102 100q39 -20 59 -59l-106 -104q47 -78 47 -175.5t-47 -175.5l106 -104q-20 -39 -59 -59l-105 102q-74 -61 -176 -61t-178 59l-102 -100q-39 20 -60 59z M246 749.5q0 -122.5 57 -183t138 -60.5t138.5 60.5t57.5 183t-57.5 182t-139.5 59.5t-138 -59.5t-56 -182z" />
<glyph unicode="&#xa5;" horiz-adv-x="1243" d="M186 1341l88 29l342 -561l330 561h119l-363 -588h295v-10l-39 -53h-282v-127h321v-10l-39 -54h-282v-426h-115v426h-295v11l29 53h266v127h-295v10l29 53h246z" />
<glyph unicode="&#xa6;" horiz-adv-x="684" d="M297 92v553h90v-553h-90zM297 932v553h90v-553h-90z" />
<glyph unicode="&#xa7;" horiz-adv-x="2064" d="M162 -189.5q0 62.5 18 164.5q18 0 31 -4q-2 -152 76 -215t210 -63t213 67.5t81 160.5t-62.5 153.5t-151 96.5t-176.5 74t-150.5 106.5t-62.5 161.5t53.5 165t143.5 104q-98 47 -153.5 110.5t-55.5 162.5q0 133 98.5 215t243 82t291.5 -60q-2 -72 -21 -196q-25 0 -30 4 q-29 193 -254 192q-106 0 -169 -62.5t-63 -151.5t62.5 -142t150.5 -89t177.5 -76t152 -112.5t62.5 -173.5q0 -182 -175 -264q189 -106 189 -272q0 -139 -110.5 -225t-287 -86t-329.5 83q-2 27 -2 89.5zM287 528q0 -100 112 -163q70 -39 139.5 -69t92.5 -40q68 29 106.5 84 t38.5 125t-49 126t-91 77.5t-103.5 48t-69.5 31.5q-176 -66 -176 -220z" />
<glyph unicode="&#xa8;" horiz-adv-x="436" d="M20 1239q0 33 20.5 54.5t53.5 21.5t54.5 -21.5t21.5 -54.5t-21.5 -54.5t-54.5 -21.5t-53.5 21.5t-20.5 54.5zM266 1239q0 33 20.5 54.5t53.5 21.5t54.5 -21.5t21.5 -54.5t-21.5 -54.5t-54.5 -21.5t-53.5 21.5t-20.5 54.5z" />
<glyph unicode="&#xa9;" horiz-adv-x="1552" d="M102 747.5q0 305.5 190.5 487.5t483.5 182t483.5 -182t190.5 -487.5t-190.5 -487.5t-483.5 -182t-483.5 182t-190.5 487.5zM182 747.5q0 -280.5 170 -444.5t424 -164t424 164t170 444.5t-170 444.5t-424 164t-424 -164t-170 -444.5zM420 752.5q0 193.5 111.5 317.5 t285.5 124q111 0 209 -43q0 -82 -20 -154q-8 -4 -31 -4q0 68 -44 104t-112 36q-150 0 -227.5 -101.5t-77.5 -273.5t76 -268.5t198.5 -96.5t231.5 72l29 -25q-111 -114 -268.5 -114t-259 116.5t-101.5 310z" />
<glyph unicode="&#xaa;" horiz-adv-x="667" d="M72 821q0 117 110 162q82 35 151.5 35t108.5 -4v133q0 68 -29.5 100.5t-116.5 32.5t-173 -49l-8 20q90 92 215 92q88 0 136 -48t48 -134v-362q0 -80 47 -80q27 0 53 8l4 -10q-39 -58 -92 -58q-74 0 -84 86q-94 -86 -181 -86t-138 44.5t-51 117.5zM147 821q0 -43 30 -71.5 t89 -28.5q100 0 176 67v191h-39q-256 0 -256 -158z" />
<glyph unicode="&#xab;" horiz-adv-x="1175" d="M254 780l315 359l58 -29l-262 -330l262 -329l-58 -31zM539 780l315 359l57 -29l-262 -330l262 -329l-57 -31z" />
<glyph unicode="&#xac;" horiz-adv-x="1150" d="M143.5 905q-0.5 23 6.5 47h837v-325q-20 -4 -38.5 -4t-37.5 4v235h-761q-6 20 -6.5 43z" />
<glyph unicode="&#xad;" horiz-adv-x="1087" d="M115 827v7h794l45 -93v-6h-794z" />
<glyph unicode="&#xae;" horiz-adv-x="1527" d="M123 747.5q0 305.5 181 487.5t459.5 182t460 -182t181.5 -487.5t-181.5 -487.5t-460 -182t-459.5 182t-181 487.5zM199 747.5q0 -280.5 161.5 -444.5t403.5 -164t403.5 164t161.5 444.5t-161.5 444.5t-403.5 164t-403.5 -164t-161.5 -444.5zM467 1149q0 23 4 29h289 q125 0 198.5 -70t73.5 -159t-60.5 -156.5t-162.5 -79.5q14 -8 43 -51l133 -193q51 -74 131 -74q0 -29 -2 -39h-133l-199 299q-33 53 -84 54h-71v-283q61 -25 135 -29q4 -18 -2 -41h-289q-6 23 4 41q49 6 67.5 18.5t18.5 43.5v665q-43 23 -94 25zM627 764h114q106 0 159.5 48 t53.5 130q0 180 -213 180h-114v-358z" />
<glyph unicode="&#xaf;" horiz-adv-x="493" d="M20 1139v61h453v-61h-453z" />
<glyph unicode="&#xb0;" horiz-adv-x="612" d="M61 1157q0 119 69 185.5t175.5 66.5t176 -66.5t69.5 -185.5t-69.5 -184.5t-176 -65.5t-175.5 65.5t-69 184.5zM162 1158.5q0 -101.5 40 -149.5t103.5 -48t104.5 49t41 149.5t-41 148.5t-104.5 48t-103.5 -48t-40 -149.5z" />
<glyph unicode="&#xb1;" horiz-adv-x="1175" d="M115 526v6h915l47 -92v-6h-917zM115 905v6h430v222h6l92 -72v-150h387l47 -92v-6h-434v-219h-6l-92 72v147h-385z" />
<glyph unicode="&#xb2;" horiz-adv-x="491" d="M49 772q186 213 241.5 299t55.5 146q0 113 -103.5 112.5t-131.5 -104.5q-25 0 -31 2v43.5t10 64.5q82 49 158 49t123 -46t47 -120.5t-56.5 -155.5t-242.5 -284h168q55 0 77.5 23.5t32.5 83.5q20 0 29 -4q0 -96 -10 -160h-357q-10 20 -10 51z" />
<glyph unicode="&#xb3;" horiz-adv-x="452" d="M43 780q12 49 16 51q68 -53 138.5 -53t111.5 32t41 94.5t-47 95t-145 40.5v54q76 4 123 40t47 99q0 113 -101 113q-57 0 -89 -21.5t-46 -87.5q-18 0 -24 4q0 61 6 109q78 45 153.5 45t119.5 -41t44 -106.5t-40 -115t-99 -65.5q158 -31 158 -180q0 -74 -56.5 -120 t-147.5 -46t-163 59z" />
<glyph unicode="&#xb4;" horiz-adv-x="380" d="M20 1133l232 329q63 -14 108 -55v-16l-307 -279z" />
<glyph unicode="&#xb5;" horiz-adv-x="1083" d="M39 944q0 20 6 39q119 51 242 76v-805q66 -88 190 -88q80 0 156 57.5t131 159.5v504q0 84 -45 123q4 16 6 20q63 29 149 29q-8 -74 -8 -168v-684q59 -2 90 -2h48q2 -16 2 -25.5v-15.5q-145 -53 -226 -72q-16 82 -16 213q-137 -227 -315 -227q-88 0 -162 47v-299 q-33 -6 -57.5 -6t-45.5 6v1116q-63 2 -96 2h-49z" />
<glyph unicode="&#xb6;" horiz-adv-x="1040" d="M82 942q0 170 92 280.5t258 110.5h424v-1231h-94v1145h-156v-1145h-94v447h-80q-166 0 -258 111.5t-92 281.5z" />
<glyph unicode="&#xb7;" horiz-adv-x="567" d="M205 784.5q0 34.5 22.5 57t55 22.5t56 -22.5t23.5 -57t-23.5 -57t-56 -22.5t-55 22.5t-22.5 57z" />
<glyph unicode="&#xb8;" horiz-adv-x="501" d="M20 -279l27 31q94 -41 184 -41q150 0 150 111q0 86 -123 86q-33 0 -72 -6l45 221h101l-35 -168h22q78 0 120 -35t42 -94t-62.5 -110.5t-172 -51.5t-226.5 57z" />
<glyph unicode="&#xb9;" horiz-adv-x="327" d="M43 721q0 35 4 43q53 4 71.5 13t18.5 32v487l-90 -12q-2 8 -2 33l131 67l25 -6v-594q41 -18 92 -20q0 -37 -4 -43h-246z" />
<glyph unicode="&#xba;" horiz-adv-x="743" d="M68 999.5q0 149.5 86 246.5t220 97t218 -96t84 -244.5t-87 -246t-222.5 -97.5t-217 95.5t-81.5 245zM144 1001.5q3 -135.5 62.5 -215t169 -79.5t166 76.5t56.5 199.5v16q-2 135 -62.5 217t-170.5 82h-7q-104 0 -160.5 -80.5t-53.5 -216z" />
<glyph unicode="&#xbb;" horiz-adv-x="1177" d="M268 451l260 329l-260 330l56 29l315 -359l-315 -360zM551 451l260 329l-260 330l55 29l316 -359l-316 -360z" />
<glyph unicode="&#xbc;" horiz-adv-x="1402" d="M137 581.5q0 12.5 8 24.5q63 6 86 16.5t23 39.5v620l-111 -12q-4 14 0 28q131 72 162 84l21 -8v-743q49 -23 114 -25q0 -29 -6 -45h-295q-2 8 -2 20.5zM322 25l636 1392h64l-639 -1392h-61zM741 373l377 540h37v-536h119q6 -23 6 -38t-2 -24h-123v-147q37 -16 90 -21 q0 -29 -4 -45h-237q-4 20 2 45q49 6 66.5 17.5t17.5 42.5v108h-322q-10 12 -27 58zM813 377h277v391z" />
<glyph unicode="&#xbd;" horiz-adv-x="1529" d="M137 581.5q0 12.5 8 24.5q63 6 86 16.5t23 39.5v620l-111 -12q-4 14 0 28q131 72 162 84l21 -8v-743q49 -23 114 -25q0 -29 -6 -45h-295q-2 8 -2 20.5zM322 25l657 1392h63l-659 -1392h-61zM881 154q236 268 305 376.5t69 181t-37.5 112.5t-101.5 40q-131 0 -168 -131 q-23 0 -30 2v48t12 77q109 63 199 63.5t148 -58t58 -151.5t-67.5 -188.5t-311.5 -361.5h215q70 0 98.5 28.5t39.5 104.5q27 0 37 -4q0 -113 -15 -193h-440q-10 27 -10 54z" />
<glyph unicode="&#xbe;" horiz-adv-x="1511" d="M147 637q18 45 23 47q84 -66 171 -66t137 42t50 124t-57 123t-178 51v58q88 0 147.5 55t59.5 135q0 139 -127 140q-68 0 -107 -32t-57 -112q-23 0 -29 4q0 76 6 133q98 55 190.5 55.5t143.5 -50t51 -131t-52 -141t-128 -81.5q211 -41 211 -221q0 -92 -70.5 -150.5 t-158.5 -58.5q-135 0 -226 76zM444 25l637 1392h64l-639 -1392h-62zM850 373l377 540h37v-536h118q6 -23 6.5 -38t-2.5 -24h-122v-147q37 -16 90 -21q0 -29 -4 -45h-238q-4 20 2 45q49 6 66.5 17.5t17.5 42.5v108h-321q-12 12 -27 58zM922 377h276v391z" />
<glyph unicode="&#xbf;" horiz-adv-x="1222" d="M236 274q0 233 352 353v260h20l66 -31v-295q-4 -2 -49 -20.5t-59.5 -25.5t-56.5 -27.5t-59.5 -34t-47 -38t-42.5 -46.5q-36 -62 -36 -117q0 -115 85 -178.5t223 -63.5t263 99l66 -76q-139 -113 -311.5 -113t-293 102.5t-120.5 251.5zM549 1191q0 34 24.5 57.5t59.5 23.5 t57.5 -22.5t22.5 -57.5t-22.5 -59.5t-57.5 -24.5t-59.5 24.5t-24.5 58.5z" />
<glyph unicode="&#xc0;" horiz-adv-x="1132" d="M-8 205q0 23 8 43q125 14 156 108l368 1090q27 16 80 16l365 -1102q31 -100 172 -112q-4 -31 -11 -43h-387q0 29 9 43q96 14 139 43l-107 325h-467l-112 -333q59 -27 149 -35q0 -18 -8 -43h-354zM279 1796v19q39 37 108 55l231 -330l-32 -20zM336 672h430l-219 659 l-23 -90z" />
<glyph unicode="&#xc1;" horiz-adv-x="1132" d="M-8 205q0 23 8 43q125 14 156 108l368 1090q27 16 80 16l365 -1102q31 -100 172 -112q-4 -31 -11 -43h-387q0 29 9 43q96 14 139 43l-107 325h-467l-112 -333q59 -27 149 -35q0 -18 -8 -43h-354zM336 672h430l-219 659l-23 -90zM553 1538l231 330q63 -14 109 -56v-16 l-307 -278z" />
<glyph unicode="&#xc2;" horiz-adv-x="1132" d="M-8 205q0 23 8 43q125 14 156 108l368 1090q27 16 80 16l365 -1102q31 -100 172 -112q-4 -31 -11 -43h-387q0 29 9 43q96 14 139 43l-107 325h-467l-112 -333q59 -27 149 -35q0 -18 -8 -43h-354zM301 1561l238 215h55l235 -215l-28 -35l-236 147l-233 -147zM336 672h430 l-219 659l-23 -90z" />
<glyph unicode="&#xc3;" horiz-adv-x="1132" d="M-8 205q0 23 8 43q125 14 156 108l368 1090q27 16 80 16l365 -1102q31 -100 172 -112q-4 -31 -11 -43h-387q0 29 9 43q96 14 139 43l-107 325h-467l-112 -333q59 -27 149 -35q0 -18 -8 -43h-354zM324 1583q37 180 155 180q49 0 111.5 -49t89.5 -49q72 0 90 94h51 q-36 -180 -155 -180q-53 0 -113.5 49t-87.5 49q-72 0 -90 -94h-51zM336 672h430l-219 659l-23 -90z" />
<glyph unicode="&#xc4;" horiz-adv-x="1132" d="M-8 205q0 23 8 43q125 14 156 108l368 1090q27 16 80 16l365 -1102q31 -100 172 -112q-4 -31 -11 -43h-387q0 29 9 43q96 14 139 43l-107 325h-467l-112 -333q59 -27 149 -35q0 -18 -8 -43h-354zM336 672h430l-219 659l-23 -90zM367 1644.5q0 32.5 20.5 54t53 21.5 t54 -21.5t21.5 -54t-21.5 -54t-54 -21.5t-53 21.5t-20.5 54zM612 1644.5q0 32.5 20.5 54t53.5 21.5t54.5 -21.5t21.5 -54t-21.5 -54t-54.5 -21.5t-53.5 21.5t-20.5 54z" />
<glyph unicode="&#xc5;" horiz-adv-x="1132" d="M-8 205q0 23 8 43q125 14 156 108l368 1090q27 16 80 16l365 -1102q31 -100 172 -112q-4 -31 -11 -43h-387q0 29 9 43q96 14 139 43l-107 325h-467l-112 -333q59 -27 149 -35q0 -18 -8 -43h-354zM336 672h430l-219 659l-23 -90zM408 1651.5q0 60.5 46 97.5t111.5 37 t111.5 -37t46 -97.5t-46 -97t-111.5 -36.5t-111.5 36.5t-46 97zM485 1652q0 -46 23.5 -68.5t56.5 -22.5t56.5 22.5t23.5 68.5t-22.5 68.5t-56.5 22.5t-57.5 -22.5t-23.5 -68.5z" />
<glyph unicode="&#xc6;" horiz-adv-x="1617" d="M12 102q0 23 8 43q86 10 123 60q12 14 33 49l602 1016q-51 16 -114 20q0 31 6 43h803q2 -39 2 -102.5t-11 -140.5q-8 -4 -34 -5q-10 109 -47 152t-138 43h-342v-518l293 10h53v-78h-53l-293 6v-540h375q100 0 138 42t48 150q27 0 39 -2q6 -82 6 -143.5t-2 -104.5h-837 q-4 27 6 43q76 10 102.5 29t26.5 64v276h-399l-195 -326q61 -35 129 -43q0 -18 -8 -43h-320zM438 569h367v625l-51 -96z" />
<glyph unicode="&#xc7;" horiz-adv-x="1161" d="M115 822.5q0 269.5 181 454.5t443 185q162 0 299 -59q0 -113 -28 -223q-23 0 -29 2q0 100 -68.5 153.5t-171.5 53.5q-233 0 -371.5 -158t-138.5 -413t134.5 -405.5t325 -150.5t351.5 105l27 -25q-156 -156 -369 -162l-26 -123h22q78 0 120 -34.5t42 -94t-62.5 -110.5 t-172 -51t-226.5 57l27 31q94 -41 184 -41q150 0 150 110q0 86 -123 86q-33 0 -72 -6l37 182q-209 31 -347 199t-138 437.5z" />
<glyph unicode="&#xc8;" horiz-adv-x="1017" d="M63 1393q0 31 7 43h802q2 -39 2 -102.5t-10 -141.5q-8 -4 -35 -4q-10 109 -47 151.5t-137 42.5h-342v-518l354 10h54v-77h-54l-354 8v-543h375q100 0 138 42t48 151q27 0 39 -2q6 -82 6 -143.5t-2 -104.5h-837q-4 27 6 43q76 10 102.5 28.5t26.5 63.5v1020 q-61 29 -142 33zM246 1796v19q39 37 108 55l232 -330l-33 -20z" />
<glyph unicode="&#xc9;" horiz-adv-x="1017" d="M63 1393q0 31 7 43h802q2 -39 2 -102.5t-10 -141.5q-8 -4 -35 -4q-10 109 -47 151.5t-137 42.5h-342v-518l354 10h54v-77h-54l-354 8v-543h375q100 0 138 42t48 151q27 0 39 -2q6 -82 6 -143.5t-2 -104.5h-837q-4 27 6 43q76 10 102.5 28.5t26.5 63.5v1020 q-61 29 -142 33zM520 1536l232 330q63 -14 108 -56v-16l-307 -278z" />
<glyph unicode="&#xca;" horiz-adv-x="1017" d="M63 1393q0 31 7 43h802q2 -39 2 -102.5t-10 -141.5q-8 -4 -35 -4q-10 109 -47 151.5t-137 42.5h-342v-518l354 10h54v-77h-54l-354 8v-543h375q100 0 138 42t48 151q27 0 39 -2q6 -82 6 -143.5t-2 -104.5h-837q-4 27 6 43q76 10 102.5 28.5t26.5 63.5v1020 q-61 29 -142 33zM266 1561l238 215h55l236 -215l-29 -35l-236 147l-233 -147z" />
<glyph unicode="&#xcb;" horiz-adv-x="1017" d="M63 1393q0 31 7 43h802q2 -39 2 -102.5t-10 -141.5q-8 -4 -35 -4q-10 109 -47 151.5t-137 42.5h-342v-518l354 10h54v-77h-54l-354 8v-543h375q100 0 138 42t48 151q27 0 39 -2q6 -82 6 -143.5t-2 -104.5h-837q-4 27 6 43q76 10 102.5 28.5t26.5 63.5v1020 q-61 29 -142 33zM319 1644.5q0 32.5 20.5 54t53.5 21.5t54.5 -21.5t21.5 -54t-21.5 -54t-54.5 -21.5t-53.5 21.5t-20.5 54zM565 1644.5q0 32.5 20.5 54t53.5 21.5t54.5 -21.5t21.5 -54t-21.5 -54t-54.5 -21.5t-53.5 21.5t-20.5 54z" />
<glyph unicode="&#xcc;" horiz-adv-x="505" d="M-33 1796v19q39 37 109 55l231 -330l-33 -20zM63 1393q0 31 7 43h364q0 -31 -4 -43q-74 -8 -100.5 -26.5t-26.5 -61.5v-1024q72 -31 137 -33q0 -25 -6 -43h-364q-4 27 6 43q76 10 102.5 28.5t26.5 63.5v1020q-63 27 -142 33z" />
<glyph unicode="&#xcd;" horiz-adv-x="505" d="M63 1393q0 31 7 43h364q0 -31 -4 -43q-74 -8 -100.5 -26.5t-26.5 -61.5v-1024q72 -31 137 -33q0 -25 -6 -43h-364q-4 27 6 43q76 10 102.5 28.5t26.5 63.5v1020q-63 27 -142 33zM242 1538l231 330q63 -14 109 -56v-16l-308 -278z" />
<glyph unicode="&#xce;" horiz-adv-x="505" d="M-10 1561l237 215h56l235 -215l-29 -35l-235 147l-234 -147zM63 1393q0 31 7 43h364q0 -31 -4 -43q-74 -8 -100.5 -26.5t-26.5 -61.5v-1024q72 -31 137 -33q0 -25 -6 -43h-364q-4 27 6 43q76 10 102.5 28.5t26.5 63.5v1020q-63 27 -142 33z" />
<glyph unicode="&#xcf;" horiz-adv-x="505" d="M55 1644.5q0 32.5 20.5 54t53.5 21.5t54.5 -21.5t21.5 -54t-21.5 -54t-54.5 -21.5t-53.5 21.5t-20.5 54zM63 1393q0 31 7 43h364q0 -31 -4 -43q-74 -8 -100.5 -26.5t-26.5 -61.5v-1024q72 -31 137 -33q0 -25 -6 -43h-364q-4 27 6 43q76 10 102.5 28.5t26.5 63.5v1020 q-63 27 -142 33zM301 1644.5q0 32.5 20.5 54t53.5 21.5t54.5 -21.5t21.5 -54t-21.5 -54t-54.5 -21.5t-53.5 21.5t-20.5 54z" />
<glyph unicode="&#xd0;" horiz-adv-x="1142" d="M41 722.5q0 14.5 4 31.5h156v608q-63 29 -140 31q0 27 5 43h419q281 0 449 -162t168 -453t-167 -453.5t-448 -162.5h-419q-4 25 4 43q76 10 102.5 28.5t26.5 63.5v352h-156q-4 16 -4 30.5zM299 262h184q242 0 372 152.5t130 406.5t-130 407.5t-372 153.5h-184v-628h270 q6 -31 0 -62h-270v-430z" />
<glyph unicode="&#xd1;" horiz-adv-x="1292" d="M63.5 224.5q-0.5 11.5 6.5 23.5q143 18 143 106v1008q-68 29 -135 31q0 27 4 43h237l537 -768l178 -267v959q-57 25 -160 33q0 31 7 43h372q0 -31 -4 -43q-145 -14 -145 -107v-1081h-45l-684 981l-92 143v-1046q66 -27 157 -35q0 -25 -6 -43h-368q-2 8 -2.5 19.5z M434 1583q37 180 156 180q49 0 111.5 -49t89.5 -49q72 0 90 94h51q-37 -180 -156 -180q-53 0 -113.5 49t-87.5 49q-72 0 -90 -94h-51z" />
<glyph unicode="&#xd2;" horiz-adv-x="1320" d="M117 817.5q0 282.5 145.5 463.5t397 181t399 -181t147.5 -463.5t-147.5 -461t-398 -178.5t-397 178.5t-146.5 461zM225 817q6 -291 127 -430t321.5 -139t312.5 150.5t112 394.5q0 297 -127 448.5t-323.5 151.5t-309.5 -159t-113 -384v-33zM375 1796v19q38 37 108 55 l232 -330l-33 -20z" />
<glyph unicode="&#xd3;" horiz-adv-x="1320" d="M117 817.5q0 282.5 145.5 463.5t397 181t399 -181t147.5 -463.5t-147.5 -461t-398 -178.5t-397 178.5t-146.5 461zM225 817q6 -291 127 -430t321.5 -139t312.5 150.5t112 394.5q0 297 -127 448.5t-323.5 151.5t-309.5 -159t-113 -384v-33zM647 1536l232 330 q63 -14 108 -56v-16l-307 -278z" />
<glyph unicode="&#xd4;" horiz-adv-x="1320" d="M117 817.5q0 282.5 145.5 463.5t397 181t399 -181t147.5 -463.5t-147.5 -461t-398 -178.5t-397 178.5t-146.5 461zM225 817q6 -291 127 -430t321.5 -139t312.5 150.5t112 394.5q0 297 -127 448.5t-323.5 151.5t-309.5 -159t-113 -384v-33zM393 1561l238 215h55l236 -215 l-29 -35l-236 147l-233 -147z" />
<glyph unicode="&#xd5;" horiz-adv-x="1320" d="M117 817.5q0 282.5 145.5 463.5t397 181t399 -181t147.5 -463.5t-147.5 -461t-398 -178.5t-397 178.5t-146.5 461zM225 817q6 -291 127 -430t321.5 -139t312.5 150.5t112 394.5q0 297 -127 448.5t-323.5 151.5t-309.5 -159t-113 -384v-33zM420 1583q36 180 155 180 q49 0 112 -49t89 -49q72 0 90 94h52q-37 -180 -156 -180q-53 0 -113.5 49t-87.5 49q-72 0 -90 -94h-51z" />
<glyph unicode="&#xd6;" horiz-adv-x="1320" d="M117 817.5q0 282.5 145.5 463.5t397 181t399 -181t147.5 -463.5t-147.5 -461t-398 -178.5t-397 178.5t-146.5 461zM225 817q6 -291 127 -430t321.5 -139t312.5 150.5t112 394.5q0 297 -127 448.5t-323.5 151.5t-309.5 -159t-113 -384v-33zM446 1644.5q0 32.5 20.5 54 t53.5 21.5t54.5 -21.5t21.5 -54t-21.5 -54t-54.5 -21.5t-53.5 21.5t-20.5 54zM692 1644.5q0 32.5 20.5 54t53.5 21.5t54.5 -21.5t21.5 -54t-21.5 -54t-54.5 -21.5t-53.5 21.5t-20.5 54z" />
<glyph unicode="&#xd7;" horiz-adv-x="1060" d="M190 494l287 301l-282 305l65 43l270 -291l277 291l65 -62l-278 -299l278 -301l-59 -51l-272 295l-271 -289z" />
<glyph unicode="&#xd8;" horiz-adv-x="1320" d="M115 76l145 182q-143 176 -143 457.5t145.5 463t384 181.5t379.5 -146l117 144h92l-160 -199q131 -178 131 -452.5t-147.5 -452.5t-396.5 -178q-211 0 -353 129l-104 -129h-90zM223 778q0 -31 2 -63q12 -229 101 -375l635 793q-127 158 -329 157.5t-313 -164.5 q-96 -141 -96 -348zM371 281q117 -135 320.5 -135.5t306 145t102.5 366.5q0 29 -2 60q-14 213 -94 352z" />
<glyph unicode="&#xd9;" horiz-adv-x="1296" d="M90 1393q-2 16 4 43h365q0 -31 -4 -43q-74 -8 -100.5 -26.5t-26.5 -61.5v-691q0 -182 89 -273t238.5 -91t236.5 92t87 272v746q-72 31 -137 33q0 31 6 43h364q2 -6 2 -16.5t-6 -26.5q-76 -8 -102.5 -25.5t-26.5 -62.5v-674q0 -229 -116.5 -340t-307 -111t-308.5 110.5 t-118 340.5v729q-63 27 -139 33zM369 1796v19q39 37 108 55l232 -330l-33 -20z" />
<glyph unicode="&#xda;" horiz-adv-x="1327" d="M90 1393q-2 16 4 43h365q0 -31 -4 -43q-74 -8 -100.5 -26.5t-26.5 -61.5v-691q0 -182 89 -273t238.5 -91t236.5 92t87 272v746q-72 31 -137 33q0 31 6 43h364q2 -6 2 -16.5t-6 -26.5q-76 -8 -102.5 -25.5t-26.5 -62.5v-674q0 -229 -116.5 -340t-307 -111t-308.5 110.5 t-118 340.5v729q-63 27 -139 33zM606 1536l232 330q63 -14 108 -56v-16l-307 -278z" />
<glyph unicode="&#xdb;" horiz-adv-x="1327" d="M90 1393q-2 16 4 43h365q0 -31 -4 -43q-74 -8 -100.5 -26.5t-26.5 -61.5v-691q0 -182 89 -273t238.5 -91t236.5 92t87 272v746q-72 31 -137 33q0 31 6 43h364q2 -6 2 -16.5t-6 -26.5q-76 -8 -102.5 -25.5t-26.5 -62.5v-674q0 -229 -116.5 -340t-307 -111t-308.5 110.5 t-118 340.5v729q-63 27 -139 33zM352 1561l238 215h55l236 -215l-29 -35l-236 147l-233 -147z" />
<glyph unicode="&#xdc;" horiz-adv-x="1327" d="M90 1393q-2 16 4 43h365q0 -31 -4 -43q-74 -8 -100.5 -26.5t-26.5 -61.5v-691q0 -182 89 -273t238.5 -91t236.5 92t87 272v746q-72 31 -137 33q0 31 6 43h364q2 -6 2 -16.5t-6 -26.5q-76 -8 -102.5 -25.5t-26.5 -62.5v-674q0 -229 -116.5 -340t-307 -111t-308.5 110.5 t-118 340.5v729q-63 27 -139 33zM403 1644.5q0 32.5 20.5 54t53.5 21.5t54.5 -21.5t21.5 -54t-21.5 -54t-54.5 -21.5t-53.5 21.5t-20.5 54zM649 1644.5q0 32.5 20.5 54t53.5 21.5t54.5 -21.5t21.5 -54t-21.5 -54t-54.5 -21.5t-53.5 21.5t-20.5 54z" />
<glyph unicode="&#xdd;" horiz-adv-x="1097" d="M-12 1436h348q8 -18 8 -45q-82 -8 -95 -21.5t-13 -29t16 -46.5l301 -542h2q16 45 41 84l334 526q-66 25 -129 29q0 20 4 45h303q2 -18 -4 -45q-55 -8 -83 -26.5t-60 -72.5l-371 -585v-424q70 -29 139 -35q0 -25 -6 -43h-367q-4 25 4 43q76 10 102.5 28.5t26.5 63.5v340 l-389 686q-51 17 -106 25zM530 1538l232 330q63 -14 108 -56v-16l-307 -278z" />
<glyph unicode="&#xde;" horiz-adv-x="1013" d="M63 1290q0 31 7 43h364q0 -31 -4 -43q-74 -8 -100.5 -26.5t-26.5 -61.5v-162h240q174 0 272 -87t98 -224t-98 -223t-272 -86h-240v-242q72 -31 137 -33q0 -25 -6 -43h-364q-4 27 6 43q76 10 102.5 29t26.5 64v1019q-63 27 -142 33zM303 477h211q135 0 208 66.5t73 186.5 t-72 187.5t-209 67.5h-211v-508z" />
<glyph unicode="&#xdf;" horiz-adv-x="1079" d="M57 102v17.5t2 30.5q80 8 109 27.5t29 66.5v735q0 154 100 254t265 100t259 -93t94 -206.5t-56 -185.5t-146 -105q123 -23 192.5 -111.5t69.5 -209.5t-95.5 -220.5t-269.5 -99.5q-70 0 -168 29q-10 25 -4 57q92 -29 168 -28q125 0 188.5 78.5t63.5 195.5t-70.5 195 t-222.5 78h-86q-10 20 -10 55h141q190 61 191 258q0 121 -69.5 190.5t-189.5 69.5t-181.5 -84t-61.5 -217v-877h-242z" />
<glyph unicode="&#xe0;" d="M102 438.5q0 114.5 77 188t243 110.5l182 43v99q0 96 -37 143t-145.5 47t-251.5 -53l-18 26q143 115 317 115q111 0 175.5 -69.5t64.5 -190.5v-518q0 -61 14 -87t47 -26t80 10l6 -14q-55 -82 -131 -82q-45 0 -78 30t-41 83q-104 -113 -229 -113t-200 72t-75 186.5z M160 1493v18q39 37 108 56l232 -330l-33 -20zM211 442q0 -84 49 -129t133 -45q125 0 211 88v365l-170 -43q-223 -58 -223 -236z" />
<glyph unicode="&#xe1;" d="M102 438.5q0 114.5 77 188t243 110.5l182 43v99q0 96 -37 143t-145.5 47t-251.5 -53l-18 26q143 115 317 115q111 0 175.5 -69.5t64.5 -190.5v-518q0 -61 14 -87t47 -26t80 10l6 -14q-55 -82 -131 -82q-45 0 -78 30t-41 83q-104 -113 -229 -113t-200 72t-75 186.5z M211 442q0 -84 49 -129t133 -45q125 0 211 88v365l-170 -43q-223 -58 -223 -236zM434 1233l232 330q63 -14 108 -56v-16l-307 -279z" />
<glyph unicode="&#xe2;" d="M102 438.5q0 114.5 77 188t243 110.5l182 43v99q0 96 -37 143t-145.5 47t-251.5 -53l-18 26q143 115 317 115q111 0 175.5 -69.5t64.5 -190.5v-518q0 -61 14 -87t47 -26t80 10l6 -14q-55 -82 -131 -82q-45 0 -78 30t-41 83q-104 -113 -229 -113t-200 72t-75 186.5z M182 1257l238 216h55l236 -216l-29 -34l-236 147l-233 -147zM211 442q0 -84 49 -129t133 -45q125 0 211 88v365l-170 -43q-223 -58 -223 -236z" />
<glyph unicode="&#xe3;" d="M102 438.5q0 114.5 77 188t243 110.5l182 43v99q0 96 -37 143t-145.5 47t-251.5 -53l-18 26q143 115 317 115q111 0 175.5 -69.5t64.5 -190.5v-518q0 -61 14 -87t47 -26t80 10l6 -14q-55 -82 -131 -82q-45 0 -78 30t-41 83q-104 -113 -229 -113t-200 72t-75 186.5z M205 1280q37 180 155 180q49 0 112 -49t89 -49q72 0 90 94h51q-36 -180 -155 -180q-53 0 -113.5 49t-87.5 49q-72 0 -90 -94h-51zM211 442q0 -84 49 -129t133 -45q125 0 211 88v365l-170 -43q-223 -58 -223 -236z" />
<glyph unicode="&#xe4;" d="M102 438.5q0 114.5 77 188t243 110.5l182 43v99q0 96 -37 143t-145.5 47t-251.5 -53l-18 26q143 115 317 115q111 0 175.5 -69.5t64.5 -190.5v-518q0 -61 14 -87t47 -26t80 10l6 -14q-55 -82 -131 -82q-45 0 -78 30t-41 83q-104 -113 -229 -113t-200 72t-75 186.5z M211 442q0 -84 49 -129t133 -45q125 0 211 88v365l-170 -43q-223 -58 -223 -236zM248 1341.5q0 32.5 20.5 54t53 21.5t54 -21.5t21.5 -54t-21.5 -54t-54 -21.5t-53 21.5t-20.5 54zM494 1341.5q0 32.5 20.5 54t53 21.5t54 -21.5t21.5 -54t-21.5 -54t-54 -21.5t-53 21.5 t-20.5 54z" />
<glyph unicode="&#xe5;" d="M102 438.5q0 114.5 77 188t243 110.5l182 43v99q0 96 -37 143t-145.5 47t-251.5 -53l-18 26q143 115 317 115q111 0 175.5 -69.5t64.5 -190.5v-518q0 -61 14 -87t47 -26t80 10l6 -14q-55 -82 -131 -82q-45 0 -78 30t-41 83q-104 -113 -229 -113t-200 72t-75 186.5z M211 442q0 -84 49 -129t133 -45q125 0 211 88v365l-170 -43q-223 -58 -223 -236zM289 1348.5q0 60.5 46 97.5t111.5 37t111.5 -37t46 -97.5t-46 -97.5t-111.5 -37t-111.5 37t-46 97.5zM367 1349q0 -46 23.5 -69t56 -23t56 23t23.5 69t-22.5 68.5t-56 22.5t-57 -22.5 t-23.5 -68.5z" />
<glyph unicode="&#xe6;" horiz-adv-x="1458" d="M102 336q0 115 77 188.5t243 110.5l182 43v98q0 96 -37 143.5t-145.5 47.5t-251.5 -54l-18 27q143 115 317 115q90 0 150.5 -47t80.5 -134q61 88 152.5 134.5t175.5 46.5q152 0 246 -103.5t94 -285.5q-12 -18 -16 -23h-637q-2 -18 -2 -59q0 -195 84 -306.5t241.5 -111.5 t307.5 106l10 -26q-147 -168 -352 -168q-94 0 -182.5 47t-143.5 139q-137 -186 -307 -186q-119 0 -194 71.5t-75 186.5zM211 340q0 -84 49 -129t133 -45q154 0 260 145q-49 104 -49 240v67l-170 -43q-223 -57 -223 -235zM723 698l260 17h272q-2 141 -71.5 208.5t-167.5 67.5 t-183 -73.5t-110 -219.5z" />
<glyph unicode="&#xe7;" d="M94 673q0 206 126 345t316.5 139t294.5 -86q0 -106 -16 -201l-33 7q2 98 -66.5 156.5t-176.5 58.5q-152 0 -243 -119t-91 -305.5t87 -301t235.5 -114.5t291.5 92l21 -20q-76 -72 -145.5 -106t-166.5 -38l-26 -123h22q78 0 120 -34.5t42 -94t-62.5 -110.5t-172 -51 t-226.5 57l27 31q94 -41 184 -41q150 0 150 110q0 86 -123 86q-33 0 -72 -6l37 182q-147 29 -240.5 155t-93.5 332z" />
<glyph unicode="&#xe8;" horiz-adv-x="950" d="M96 653q0 125 41 226.5t107 158.5q135 119 281.5 119t240.5 -103.5t94 -285.5q-12 -18 -16 -23h-637q-2 -18 -2 -59q0 -195 84 -306.5t241.5 -111.5t307.5 107l10 -27q-147 -168 -352 -168q-156 0 -278 123t-122 350zM215 801l260 16h273q-3 141 -72.5 209t-167.5 68 t-183 -74t-110 -219zM233 1493v18q39 37 109 56l231 -330l-32 -20z" />
<glyph unicode="&#xe9;" horiz-adv-x="950" d="M96 653q0 125 41 226.5t107 158.5q135 119 281.5 119t240.5 -103.5t94 -285.5q-12 -18 -16 -23h-637q-2 -18 -2 -59q0 -195 84 -306.5t241.5 -111.5t307.5 107l10 -27q-147 -168 -352 -168q-156 0 -278 123t-122 350zM215 801l260 16h273q-3 141 -72.5 209t-167.5 68 t-183 -74t-110 -219zM508 1235l231 330q63 -14 109 -56v-16l-307 -279z" />
<glyph unicode="&#xea;" horiz-adv-x="950" d="M96 653q0 125 41 226.5t107 158.5q135 119 281.5 119t240.5 -103.5t94 -285.5q-12 -18 -16 -23h-637q-2 -18 -2 -59q0 -195 84 -306.5t241.5 -111.5t307.5 107l10 -27q-147 -168 -352 -168q-156 0 -278 123t-122 350zM215 801l260 16h273q-3 141 -72.5 209t-167.5 68 t-183 -74t-110 -219zM254 1257l238 216h55l235 -216l-28 -34l-236 147l-233 -147z" />
<glyph unicode="&#xeb;" horiz-adv-x="950" d="M96 653q0 125 41 226.5t107 158.5q135 119 281.5 119t240.5 -103.5t94 -285.5q-12 -18 -16 -23h-637q-2 -18 -2 -59q0 -195 84 -306.5t241.5 -111.5t307.5 107l10 -27q-147 -168 -352 -168q-156 0 -278 123t-122 350zM215 801l260 16h273q-3 141 -72.5 209t-167.5 68 t-183 -74t-110 -219zM305 1341.5q0 32.5 20.5 54t53.5 21.5t54.5 -21.5t21.5 -54t-21.5 -54t-54.5 -21.5t-53.5 21.5t-20.5 54zM551 1341.5q0 32.5 20.5 54t53 21.5t54 -21.5t21.5 -54t-21.5 -54t-54 -21.5t-53 21.5t-20.5 54z" />
<glyph unicode="&#xec;" horiz-adv-x="532" d="M-29 1493v18q39 37 109 56l231 -330l-32 -20zM61 1028q0 20 7 41q113 47 241 76v-858q63 -29 146 -35q0 -29 -6 -47h-381q-2 18 2 47q80 8 108.5 27.5t28.5 66.5v680q-59 2 -93 2h-53z" />
<glyph unicode="&#xed;" horiz-adv-x="532" d="M61 1028q0 20 7 41q113 47 241 76v-858q63 -29 146 -35q0 -29 -6 -47h-381q-2 18 2 47q80 8 108.5 27.5t28.5 66.5v680q-59 2 -93 2h-53zM246 1235l231 330q63 -14 109 -56v-16l-307 -279z" />
<glyph unicode="&#xee;" horiz-adv-x="532" d="M-6 1257l237 216h56l235 -216l-28 -34l-236 147l-233 -147zM61 1028q0 20 7 41q113 47 241 76v-858q63 -29 146 -35q0 -29 -6 -47h-381q-2 18 2 47q80 8 108.5 27.5t28.5 66.5v680q-59 2 -93 2h-53z" />
<glyph unicode="&#xef;" horiz-adv-x="532" d="M45 1341.5q0 32.5 20.5 54t53.5 21.5t54.5 -21.5t21.5 -54t-21.5 -54t-54.5 -21.5t-53.5 21.5t-20.5 54zM61 1028q0 20 7 41q113 47 241 76v-858q63 -29 146 -35q0 -29 -6 -47h-381q-2 18 2 47q80 8 108.5 27.5t28.5 66.5v680q-59 2 -93 2h-53zM291 1341.5 q0 32.5 20.5 54t53 21.5t54 -21.5t21.5 -54t-21.5 -54t-54 -21.5t-53 21.5t-20.5 54z" />
<glyph unicode="&#xf0;" horiz-adv-x="999" d="M96 549q0 211 142.5 358.5t365.5 147.5q39 0 92 -4q-47 125 -116 227l-226 -109q-27 23 -32 58l219 106q-68 96 -156 185l45 41q115 -117 174 -195l230 111q25 -16 34 -56l-223 -108q232 -310 232 -656q0 -233 -110 -405t-282 -172t-280.5 130t-108.5 341zM205 545 q0 -164 76.5 -281t201.5 -117q78 0 135.5 43t90.5 117q59 143 59 324.5t-41 326.5q-68 18 -145 19q-176 0 -276.5 -108.5t-100.5 -323.5z" />
<glyph unicode="&#xf1;" horiz-adv-x="1085" d="M61 1032q0 20 7 39q135 53 227 74q10 -80 14 -203q106 215 316 215q115 0 189.5 -77t74.5 -224v-569q68 -29 145 -35q0 -23 -4 -47h-381q-2 18 2 47q78 8 106.5 27.5t28.5 66.5v506q0 106 -50 162.5t-140 56.5q-195 0 -287 -215v-569q63 -29 146 -35q0 -29 -6 -47h-381 q-2 18 2 47q80 8 108.5 27.5t28.5 66.5v684q-59 2 -93 2h-53zM326 1282q37 180 155 180q49 0 111.5 -49t89.5 -49q72 0 90 94h51q-36 -180 -155 -180q-53 0 -113.5 49t-87.5 49q-72 0 -90 -94h-51z" />
<glyph unicode="&#xf2;" horiz-adv-x="1019" d="M96 667q0 216 114 353t303 137t300 -135t111 -351t-114 -353.5t-306.5 -137.5t-300 135.5t-107.5 351.5zM206 668.5q3 -193.5 83 -306t229.5 -112.5t222 109.5t72.5 287.5q0 209 -81 329t-229.5 120t-224 -117t-72.5 -310.5zM244 1493v18q38 38 108 56l232 -330l-33 -20z " />
<glyph unicode="&#xf3;" horiz-adv-x="1060" d="M96 667q0 216 114 353t303 137t300 -135t111 -351t-114 -353.5t-306.5 -137.5t-300 135.5t-107.5 351.5zM206 668.5q3 -193.5 83 -306t229.5 -112.5t222 109.5t72.5 287.5q0 209 -81 329t-229.5 120t-224 -117t-72.5 -310.5zM516 1235l232 330q63 -14 108 -56v-16 l-307 -279z" />
<glyph unicode="&#xf4;" horiz-adv-x="1060" d="M96 667q0 216 114 353t303 137t300 -135t111 -351t-114 -353.5t-306.5 -137.5t-300 135.5t-107.5 351.5zM206 668.5q3 -193.5 83 -306t229.5 -112.5t222 109.5t72.5 287.5q0 209 -81 329t-229.5 120t-224 -117t-72.5 -310.5zM262 1257l238 216h55l236 -216l-29 -34 l-236 147l-233 -147z" />
<glyph unicode="&#xf5;" horiz-adv-x="1019" d="M96 667q0 216 114 353t303 137t300 -135t111 -351t-114 -353.5t-306.5 -137.5t-300 135.5t-107.5 351.5zM206 668.5q3 -193.5 83 -306t229.5 -112.5t222 109.5t72.5 287.5q0 209 -81 329t-229.5 120t-224 -117t-72.5 -310.5zM289 1280q36 180 155 180q49 0 111.5 -49 t89.5 -49q72 0 90 94h51q-37 -180 -155 -180q-53 0 -113.5 49t-87.5 49q-72 0 -90 -94h-51z" />
<glyph unicode="&#xf6;" horiz-adv-x="1060" d="M96 667q0 216 114 353t303 137t300 -135t111 -351t-114 -353.5t-306.5 -137.5t-300 135.5t-107.5 351.5zM206 668.5q3 -193.5 83 -306t229.5 -112.5t222 109.5t72.5 287.5q0 209 -81 329t-229.5 120t-224 -117t-72.5 -310.5zM315 1341.5q0 32.5 20.5 54t53.5 21.5 t54.5 -21.5t21.5 -54t-21.5 -54t-54.5 -21.5t-53.5 21.5t-20.5 54zM561 1341.5q0 32.5 20.5 54t53.5 21.5t54.5 -21.5t21.5 -54t-21.5 -54t-54.5 -21.5t-53.5 21.5t-20.5 54z" />
<glyph unicode="&#xf7;" horiz-adv-x="1191" d="M115 827v7h915l47 -93v-6h-917zM508 404.5q0 39.5 25.5 67.5t65.5 28t67.5 -28t27.5 -67.5t-27.5 -65.5t-67.5 -26t-65.5 26t-25.5 65.5zM508 1164q0 40 25.5 66.5t65.5 26.5t67.5 -26.5t27.5 -66.5t-27.5 -65.5t-67.5 -25.5t-65.5 25.5t-25.5 65.5z" />
<glyph unicode="&#xf8;" horiz-adv-x="1060" d="M96 78l113 141q-113 131 -113 345t123 352.5t297 138.5t287 -97l78 97h84l-115 -144q115 -133 115 -344t-123 -350t-298 -139t-290 94l-76 -94h-82zM206 581.5q3 -178.5 64 -286.5l482 598q-88 100 -236.5 100t-230.5 -116.5t-79 -295zM311 242q84 -94 233.5 -94.5 t229.5 110.5t80 289q0 176 -63 291z" />
<glyph unicode="&#xf9;" horiz-adv-x="1062" d="M41 1030q0 20 6 39q133 61 219 76v-647q0 -106 51.5 -168t135.5 -62t159.5 57.5t130.5 159.5v488q0 84 -45 123q4 16 7 20q63 29 149 29q-8 -74 -8 -168v-668q59 -2 90 -2h47q2 -16 2 -25.5v-15.5q-102 -53 -225 -71q-16 82 -17 213q-137 -227 -315 -228 q-111 0 -187.5 81t-76.5 233v536q-25 2 -55.5 2t-67.5 -2zM217 1493v18q39 37 109 56l231 -330l-33 -20z" />
<glyph unicode="&#xfa;" horiz-adv-x="1083" d="M41 1030q0 20 6 39q133 61 219 76v-647q0 -106 51.5 -168t135.5 -62t159.5 57.5t130.5 159.5v488q0 84 -45 123q4 16 7 20q63 29 149 29q-8 -74 -8 -168v-668q59 -2 90 -2h47q2 -16 2 -25.5v-15.5q-102 -53 -225 -71q-16 82 -17 213q-137 -227 -315 -228 q-111 0 -187.5 81t-76.5 233v536q-25 2 -55.5 2t-67.5 -2zM532 1235l232 330q63 -14 108 -56v-16l-307 -279z" />
<glyph unicode="&#xfb;" horiz-adv-x="1083" d="M41 1030q0 20 6 39q133 61 219 76v-647q0 -106 51.5 -168t135.5 -62t159.5 57.5t130.5 159.5v488q0 84 -45 123q4 16 7 20q63 29 149 29q-8 -74 -8 -168v-668q59 -2 90 -2h47q2 -16 2 -25.5v-15.5q-102 -53 -225 -71q-16 82 -17 213q-137 -227 -315 -228 q-111 0 -187.5 81t-76.5 233v536q-25 2 -55.5 2t-67.5 -2zM279 1257l237 216h55l236 -216l-29 -34l-235 147l-234 -147z" />
<glyph unicode="&#xfc;" horiz-adv-x="1083" d="M41 1030q0 20 6 39q133 61 219 76v-647q0 -106 51.5 -168t135.5 -62t159.5 57.5t130.5 159.5v488q0 84 -45 123q4 16 7 20q63 29 149 29q-8 -74 -8 -168v-668q59 -2 90 -2h47q2 -16 2 -25.5v-15.5q-102 -53 -225 -71q-16 82 -17 213q-137 -227 -315 -228 q-111 0 -187.5 81t-76.5 233v536q-25 2 -55.5 2t-67.5 -2zM332 1341.5q0 32.5 20.5 54t53 21.5t54 -21.5t21.5 -54t-21.5 -54t-54 -21.5t-53 21.5t-20.5 54zM578 1341.5q0 32.5 20 54t53 21.5t54.5 -21.5t21.5 -54t-21.5 -54t-54.5 -21.5t-53 21.5t-20 54z" />
<glyph unicode="&#xfd;" horiz-adv-x="1013" d="M8 1114.5v18.5h385q6 -23 6 -48q-82 -6 -151 -36l282 -736q6 31 19 58l229 590q12 29 12.5 52t-14.5 38q-29 29 -135 34q-8 25 -4 48h364q2 -6 2.5 -17.5t-8.5 -30.5q-33 -4 -92 -20l-438 -1075q-53 -131 -106.5 -184.5t-133.5 -53.5h-22q-16 37 -16.5 62.5t1.5 42.5h33 q53 0 85 23.5t69 92.5l104 222l-315 782q-23 59 -52.5 80.5t-101.5 27.5q-2 18 -2 29.5zM524 1233l232 330q63 -14 108 -56v-16l-307 -279z" />
<glyph unicode="&#xfe;" horiz-adv-x="1050" d="M61 1448q0 23 7 41q113 51 241 76v-699q76 189 269 189q150 0 261 -123t111 -366.5t-111.5 -365.5t-260.5 -124q-193 0 -269 190v-536q59 -27 146 -33q0 -29 -6 -47h-381q-2 18 2 47q80 8 108.5 27.5t28.5 66.5v1657q-35 2 -71 2t-75 -2zM309 387q61 -231 273 -231 q100 0 176 97t76 312t-76 313.5t-176 98.5q-211 0 -273 -232v-358z" />
<glyph unicode="&#xff;" horiz-adv-x="1013" d="M8 1114.5v18.5h385q6 -23 6 -48q-82 -6 -151 -36l282 -736q6 31 19 58l229 590q12 29 12.5 52t-14.5 38q-29 29 -135 34q-8 25 -4 48h364q2 -6 2.5 -17.5t-8.5 -30.5q-33 -4 -92 -20l-438 -1075q-53 -131 -106.5 -184.5t-133.5 -53.5h-22q-16 37 -16.5 62.5t1.5 42.5h33 q53 0 85 23.5t69 92.5l104 222l-315 782q-23 59 -52.5 80.5t-101.5 27.5q-2 18 -2 29.5zM338 1341.5q0 32.5 20.5 54t53 21.5t54 -21.5t21.5 -54t-21.5 -54t-54 -21.5t-53 21.5t-20.5 54zM584 1341.5q0 32.5 20.5 54t53 21.5t54 -21.5t21.5 -54t-21.5 -54t-54 -21.5 t-53 21.5t-20.5 54z" />
<glyph unicode="&#x152;" horiz-adv-x="1693" d="M117 714.5q0 282.5 145.5 464t396.5 181.5q111 0 248 -27h641q4 -47 4 -109.5t-12 -133.5q-8 -4 -35 -5q-10 109 -47 152t-137 43h-342v-518l293 10h53v-78h-53l-293 6v-540h375q100 0 138 42t48 150q27 0 39 -2q6 -82 6 -143.5t-2 -104.5h-665q-141 -27 -256 -26 q-252 0 -398.5 178t-146.5 460.5zM223 778q0 -31 2 -63q16 -291 142.5 -430.5t330.5 -139.5q102 0 183 39v1069q-117 37 -258 37q-193 0 -304 -164q-96 -141 -96 -348z" />
<glyph unicode="&#x153;" horiz-adv-x="1708" d="M96 564q0 216 114 353.5t300 137.5q262 0 362 -244q59 119 163 181.5t204 62.5q152 0 245 -103.5t93 -285.5q-4 -12 -14 -23h-637q-2 -18 -2 -59q0 -195 84 -306.5t241.5 -111.5t306.5 106l11 -26q-147 -168 -353 -168q-106 0 -201 59.5t-149 171.5q-104 -231 -354 -231 q-199 0 -306.5 135t-107.5 351zM206 566.5q3 -193.5 83 -306.5t229.5 -113t222 110t72.5 288q0 209 -81 328.5t-229.5 119.5t-224 -116.5t-72.5 -310zM934 698l260 17h270q-2 141 -70.5 208.5t-167 67.5t-183.5 -73.5t-109 -219.5z" />
<glyph unicode="&#x178;" horiz-adv-x="1097" d="M-12 1436h348q8 -18 8 -45q-82 -8 -95 -21.5t-13 -29t16 -46.5l301 -542h2q16 45 41 84l334 526q-66 25 -129 29q0 20 4 45h303q2 -18 -4 -45q-55 -8 -83 -26.5t-60 -72.5l-371 -585v-424q70 -29 139 -35q0 -25 -6 -43h-367q-4 25 4 43q76 10 102.5 28.5t26.5 63.5v340 l-389 686q-51 17 -106 25zM344 1644.5q0 32.5 20.5 54t53.5 21.5t54.5 -21.5t21.5 -54t-21.5 -54t-54.5 -21.5t-53.5 21.5t-20.5 54zM590 1644.5q0 32.5 20.5 54t53 21.5t54 -21.5t21.5 -54t-21.5 -54t-54 -21.5t-53 21.5t-20.5 54z" />
<glyph unicode="&#x2c6;" horiz-adv-x="569" d="M20 1155l238 215h55l236 -215l-29 -35l-235 148l-234 -148z" />
<glyph unicode="&#x2dc;" horiz-adv-x="569" d="M41 1178q37 180 156 180q49 0 111.5 -49t88.5 -49q72 0 90 94h52q-37 -180 -156 -180q-53 0 -113.5 49t-87.5 49q-72 0 -90 -94h-51z" />
<glyph unicode="&#x2000;" horiz-adv-x="935" />
<glyph unicode="&#x2001;" horiz-adv-x="1870" />
<glyph unicode="&#x2002;" horiz-adv-x="935" />
<glyph unicode="&#x2003;" horiz-adv-x="1870" />
<glyph unicode="&#x2004;" horiz-adv-x="623" />
<glyph unicode="&#x2005;" horiz-adv-x="467" />
<glyph unicode="&#x2006;" horiz-adv-x="311" />
<glyph unicode="&#x2007;" horiz-adv-x="311" />
<glyph unicode="&#x2008;" horiz-adv-x="233" />
<glyph unicode="&#x2009;" horiz-adv-x="374" />
<glyph unicode="&#x200a;" horiz-adv-x="103" />
<glyph unicode="&#x2010;" horiz-adv-x="1087" d="M115 827v7h794l45 -93v-6h-794z" />
<glyph unicode="&#x2011;" horiz-adv-x="1087" d="M115 827v7h794l45 -93v-6h-794z" />
<glyph unicode="&#x2012;" horiz-adv-x="1087" d="M115 827v7h794l45 -93v-6h-794z" />
<glyph unicode="&#x2013;" horiz-adv-x="1118" d="M115 827v7h956l47 -93v-6h-958z" />
<glyph unicode="&#x2014;" horiz-adv-x="1368" d="M115 827v7h1040l47 -93v-6h-1042z" />
<glyph unicode="&#x2018;" horiz-adv-x="411" d="M123 1563.5q0 84.5 63 193.5q20 33 62 94l61 -28q-4 -8 -20.5 -34t-23.5 -38t-19 -37q-37 -74 -37 -139q0 -117 119 -176v-6l-45 -80q-86 37 -123 101.5t-37 149z" />
<glyph unicode="&#x2019;" horiz-adv-x="409" d="M82 1763v9l45 79q160 -71 160 -229q0 -104 -66 -215q-18 -33 -59 -94l-62 28q4 4 18.5 29t19.5 33t16.5 29.5t17.5 35.5q29 68 29 121q0 115 -119 174z" />
<glyph unicode="&#x201a;" horiz-adv-x="411" d="M82 289v6l45 80q86 -37 123 -100.5t37 -152t-66 -192.5q-20 -35 -59 -92l-62 29q4 4 18.5 28.5t19.5 33t16.5 30t17.5 35.5q29 68 29 121q0 115 -119 174z" />
<glyph unicode="&#x201c;" horiz-adv-x="669" d="M121 1538q0 61 23.5 122.5t43 94.5t60.5 94l61 -28q-100 -158 -100 -260.5t119 -163.5v-6l-45 -80q-86 39 -124 102.5t-38 124.5zM381 1540q0 104 63 215q20 33 62 94l61 -28q-2 -4 -17 -29t-19.5 -33t-16.5 -29.5t-17 -36t-12 -34.5q-16 -45 -16 -92q0 -109 117 -170v-6 l-45 -80q-160 71 -160 229z" />
<glyph unicode="&#x201d;" horiz-adv-x="669" d="M82 1763v6l45 80q86 -37 123 -101.5t37 -149t-66 -193.5q-18 -33 -59 -94l-62 28q4 8 20.5 34t24 38t19.5 37q37 74 37 139q0 115 -119 176zM340 1763v6l45 80q86 -37 124 -101.5t38 -125.5t-23.5 -122.5t-43 -94.5t-60.5 -94l-62 28q2 4 14.5 22.5t15.5 25t13.5 23.5 t14.5 26.5t12 26t12 27.5t9 28q10 43 10 75q0 111 -119 170z" />
<glyph unicode="&#x201e;" horiz-adv-x="669" d="M82 289v6l45 80q86 -37 123 -101.5t37 -149.5t-66 -194q-18 -33 -59 -94l-62 29q4 8 20.5 33.5t24 38t19.5 36.5q37 74 37 140q0 115 -119 176zM340 289v6l45 80q86 -37 124 -101.5t38 -126t-23.5 -123t-43 -94t-60.5 -94.5l-62 29q2 4 14.5 22.5t15.5 24.5t13.5 23.5 t14.5 26.5t12 25.5t12 28t9 27.5q10 43 10 76q0 111 -119 170z" />
<glyph unicode="&#x2022;" horiz-adv-x="612" d="M201 784q0 45 29.5 77t74.5 32t77 -32t32 -77t-32 -74.5t-77 -29.5t-74.5 29.5t-29.5 74.5z" />
<glyph unicode="&#x2026;" horiz-adv-x="1224" d="M221 180q0 35 22.5 57.5t56.5 22.5t57.5 -22.5t23.5 -57.5t-23.5 -57.5t-57.5 -22.5t-56.5 22.5t-22.5 57.5zM535 180q0 35 22.5 57.5t56 22.5t57 -22.5t23.5 -57.5t-23.5 -57.5t-57 -22.5t-56 22.5t-22.5 57.5zM836 180q0 35 22.5 57.5t55 22.5t56 -23.5t23.5 -56.5 t-23.5 -56.5t-56 -23.5t-55 22.5t-22.5 57.5z" />
<glyph unicode="&#x202f;" horiz-adv-x="374" />
<glyph unicode="&#x2039;" horiz-adv-x="714" d="M158 780l317 359l55 -29l-260 -330l260 -329l-55 -31z" />
<glyph unicode="&#x203a;" horiz-adv-x="714" d="M180 553l260 330l-260 329l56 29l317 -358l-317 -361z" />
<glyph unicode="&#x205f;" horiz-adv-x="467" />
<glyph unicode="&#x20ac;" horiz-adv-x="1075" d="M61 557q0 31 13 61h135q-4 61 -4 94t4 91h-148q0 31 13 61h141q33 225 160 359.5t315.5 134.5t329.5 -162l-23 -25q-145 104 -297.5 104.5t-250 -110t-125.5 -301.5h460q0 -31 -12 -61h-455q-4 -57 -4 -90t4 -95h467q0 -31 -12 -61h-446q28 -184 125.5 -290.5t249 -106.5 t296.5 104l23 -24q-141 -162 -328.5 -162t-313.5 129t-161 350h-156z" />
<glyph unicode="&#x2122;" horiz-adv-x="1546" d="M53 1271q0 36 2 62h525q2 -27 2 -62.5t-4 -82.5q-20 -4 -33 -4q-4 61 -23.5 83.5t-72.5 22.5h-97v-596q51 -16 113 -20q0 -27 -4 -37h-293q0 27 4 37q72 4 92.5 13t20.5 32v571h-99q-53 0 -72.5 -21.5t-23.5 -78.5q-16 -6 -33 -2q-4 47 -4 83zM600 637q0 27 6 37 q84 8 86 53l47 557q-31 8 -71 12q-2 8 -2 20.5t2 16.5h147l215 -583l232 583h135q14 -18 14 -37q-47 0 -62.5 -11t-13.5 -38l49 -557q27 -12 76 -16q2 -10 2 -19.5t-2 -17.5h-211q-8 20 0 37q43 4 55.5 12t10.5 33l-41 512l-236 -594h-28l-226 606l-47 -553q35 -12 88 -16 q0 -16 -8 -37h-217z" />
<glyph unicode="&#x25fc;" horiz-adv-x="1034" d="M0 0v1034h1034v-1034h-1034z" />
</font>
</defs>
</svg>
