<?xml version="1.0" standalone="no"?>
<!DOCTYPE svg PUBLIC "-//W3C//DTD SVG 1.1//EN" "http://www.w3.org/Graphics/SVG/1.1/DTD/svg11.dtd" >
<svg xmlns="http://www.w3.org/2000/svg" xmlns:xlink="http://www.w3.org/1999/xlink" version="1.1">
<metadata></metadata>
<defs>
<font id="halantmedium" horiz-adv-x="1222" >
<font-face units-per-em="2048" ascent="1638" descent="-410" />
<missing-glyph horiz-adv-x="512" />
<glyph unicode="&#xfb01;" horiz-adv-x="1226" d="M53 131q0 21 8 45q72 10 103 31.5t31 75.5v637q-55 8 -127 8q0 31 4 59q61 27 123 35v127q0 203 110.5 304t283.5 101t311 -78.5t138 -168.5q0 -45 -32.5 -76t-78.5 -31t-87 41t-71 89t-84 88t-132 40q-162 -4 -162 -215v-219q403 0 627 25v-844q53 -25 133 -29 q0 -47 -8 -78h-461q-2 12 -2 33t8 45q72 8 102.5 29.5t30.5 75.5v643h-430v-715q59 -29 141 -33v-23.5t-6 -54.5h-471q-2 12 -2 33z" />
<glyph unicode="&#xfb02;" horiz-adv-x="1193" d="M53 130q0 20 6 46q72 8 104 29.5t32 75.5v639q-57 8 -127 8q-2 25 2 59q61 27 125 35v121q0 231 153 332q139 88 320.5 88t318.5 -39v-1319q55 -25 133 -29v-24.5t-8 -53.5h-461q-2 12 -2 33t8 45q72 8 103 29.5t31 75.5v1130q-84 39 -194 39t-158 -50t-48 -163v-213 q152 4 277 16q0 -66 -19 -116h-258v-721q53 -23 131 -27v-23.5t-6 -54.5h-461q-2 12 -2 32z" />
<glyph horiz-adv-x="0" />
<glyph horiz-adv-x="682" />
<glyph horiz-adv-x="0" />
<glyph horiz-adv-x="0" />
<glyph unicode="&#xd;" horiz-adv-x="681" />
<glyph unicode=" "  horiz-adv-x="512" />
<glyph unicode="&#x09;" horiz-adv-x="512" />
<glyph unicode="&#xa0;" horiz-adv-x="512" />
<glyph unicode="!" horiz-adv-x="937" d="M322 196.5q0 49.5 34.5 85t85 35.5t85 -35.5t34.5 -85t-34.5 -84t-85 -34.5t-85 34.5t-34.5 84zM346 1438h14l166 -62l-28 -934h-13l-98 52z" />
<glyph unicode="&#x22;" horiz-adv-x="765" d="M141 1690h187l-47 -394h-93zM420 1690h184l-45 -394h-92z" />
<glyph unicode="#" horiz-adv-x="1495" d="M106 463v131h300l75 383h-274v131h299l72 358h139l-70 -358h346l72 358h139l-69 -358h278v-131h-305l-76 -383h283v-131h-307l-72 -365h-141l71 365h-346l-71 -365h-142l72 365h-273zM545 594h348l76 383h-348z" />
<glyph unicode="$" horiz-adv-x="1019" d="M84 297l100 147q41 -55 105 -102q121 -92 234.5 -92t177 54t63.5 144.5t-53.5 137.5t-206 113.5t-211.5 111.5q-123 94 -123 242.5t98.5 238.5t233.5 101v123h100v-125q158 -23 279 -127l-90 -125q-37 47 -106 84t-154 37t-147 -48.5t-62 -140.5q0 -106 133 -166 q106 -49 161.5 -72.5t103.5 -51t99 -70.5q100 -84 100.5 -236.5t-97 -247t-238.5 -108.5v-127h-101v127q-201 20 -399 178z" />
<glyph unicode="%" horiz-adv-x="1693" d="M156 1078.5q0 142.5 67.5 238.5t197.5 96t197.5 -96t67.5 -242.5t-66.5 -245t-195.5 -98.5t-198.5 102.5t-69.5 245zM289 1073q0 -106 35.5 -169.5t96 -63.5t95.5 60.5t35 172.5q0 221 -131 221t-131 -221zM367 98l786 1307h176l-782 -1307h-180zM1026 433.5 q0 144.5 66.5 239.5t197.5 95t197.5 -96.5t66.5 -242.5t-65.5 -244.5t-195.5 -98.5t-198.5 101.5t-68.5 246zM1159 424q0 -104 35 -166.5t95.5 -62.5t96 60t35.5 169q0 225 -133 225q-129 0 -129 -225z" />
<glyph unicode="&#x26;" horiz-adv-x="1394" d="M84 406q0 76 45 144t97.5 110t156.5 114q-158 193 -158 315.5t104.5 215t224.5 92.5t207 -71t87 -164t-63.5 -170t-206.5 -187q115 -127 340 -322q61 104 141 326h307l-45 -152h-231q-53 -139 -103 -229q135 -111 311 -238l-131 -102q-182 139 -266 205 q-168 -221 -412 -221q-156 0 -280.5 96t-124.5 238zM252 467q0 -104 94 -170t213 -66q150 0 266 123q-242 201 -383 355q-92 -66 -141 -120t-49 -122zM377 1153q0 -104 143 -283q168 129 168 248q0 68 -54 117t-122 49q-135 0 -135 -131z" />
<glyph unicode="'" horiz-adv-x="686" d="M262 1690h187l-48 -394h-90z" />
<glyph unicode="(" horiz-adv-x="788" d="M211 819q0 614 491 1028l89 -73q-205 -191 -304.5 -441t-99.5 -515t99.5 -523t304.5 -449l-89 -73q-240 203 -365.5 471t-125.5 575z" />
<glyph unicode=")" horiz-adv-x="768" d="M-2 -154q205 190 305 448.5t100 523.5t-99 515t-306 441l90 73q492 -416 492 -1028q0 -307 -126 -575.5t-366 -470.5z" />
<glyph unicode="*" horiz-adv-x="962" d="M115 1155q0 37 15 90t34 72l229 -103l-43 259q29 14 85.5 14t84.5 -8l-31 -267l226 105q16 -20 31.5 -75.5t15.5 -88.5l-252 -29l190 -180q-14 -27 -57 -60.5t-78 -43.5l-125 225l-112 -225q-31 6 -76 36.5t-64 59.5l181 186z" />
<glyph unicode="+" horiz-adv-x="1277" d="M131 821v13h424v419h12l154 -123v-296h352l74 -146v-12h-426v-418h-10l-156 121v297h-350z" />
<glyph unicode="," horiz-adv-x="579" d="M162 182v11l78 133q100 -39 144 -108.5t44 -151.5v-15q-2 -172 -152 -360l-98 45q111 160 111 270.5t-127 175.5z" />
<glyph unicode="-" horiz-adv-x="1175" d="M131 821v13h825l72 -146v-12h-823z" />
<glyph unicode="." horiz-adv-x="581" d="M174 208q0 50 35 86t85 36t86 -36t36 -86t-36 -86t-86 -36t-85 36t-35 86z" />
<glyph unicode="/" horiz-adv-x="950" d="M180 -4l395 1565h162l-395 -1565h-162z" />
<glyph unicode="0" horiz-adv-x="1079" d="M94 733q0 309 117 488.5t328 179.5t328.5 -179.5t117.5 -488.5t-117.5 -485t-328.5 -176t-328 176t-117 485zM307 774q0 -311 56.5 -454.5t183.5 -143.5t176 134t49 384q0 315 -57.5 458.5t-184.5 143.5t-175 -135t-48 -387z" />
<glyph unicode="1" horiz-adv-x="677" d="M55 98v31t8 45q98 10 141.5 31.5t43.5 73.5v913l-187 -27q0 39 5 54q172 104 333 184l43 -19v-1169q80 -35 179 -41q0 -45 -9 -76h-557z" />
<glyph unicode="2" horiz-adv-x="960" d="M80 233q338 369 440.5 522.5t102.5 268.5t-55.5 177.5t-139.5 62.5q-176 0 -225 -207q-25 -2 -64 2v96.5t11 147.5q154 96 323.5 96t266 -94.5t96.5 -243.5q0 -102 -62 -217q-51 -92 -416 -457l-129 -129h379q94 0 136 42t61 153q31 0 51 -11q0 -197 -39 -344h-719 q-18 76 -18 135z" />
<glyph unicode="3" horiz-adv-x="946" d="M76 209q16 51 51 78q111 -84 243 -84t203.5 60.5t71.5 162.5q0 246 -319 262v86q125 8 199.5 88t74.5 185.5t-47 161t-129 55.5q-182 0 -231 -207q-25 -2 -64 2v96.5t10 147.5q168 96 350 96q137 0 229.5 -83t92.5 -201t-70.5 -209t-187.5 -138q291 -82 291 -338 q0 -156 -123 -257t-302 -101t-343 137z" />
<glyph unicode="4" horiz-adv-x="1007" d="M55 530l602 852h103v-835h182q10 -41 10 -68.5t-2 -44.5h-190v-231q59 -27 133 -31q0 -47 -8 -74h-436q-2 12 -2.5 32t8.5 42q70 10 99.5 31.5t29.5 75.5v155h-480q-39 49 -49 96zM201 547h383v530z" />
<glyph unicode="5" horiz-adv-x="989" d="M76 209q18 51 53 80q115 -84 252 -84t220 86t83 215t-63.5 198.5t-171 69.5t-256.5 -102l-37 18l65 662h410q135 0 174 88q29 0 51 -10q-8 -109 -49 -240h-488l-43 -373q125 90 261.5 90t242 -98t105.5 -279.5t-136.5 -319.5t-328 -138t-344.5 137z" />
<glyph unicode="6" horiz-adv-x="999" d="M108.5 581.5q0.5 243.5 157 470t445.5 351.5q59 -37 59 -78q-332 -164 -432 -522q100 88 247.5 88t236.5 -101.5t93 -250.5v-23q0 -180 -125.5 -311t-290.5 -131t-274 127q-117 137 -116.5 380.5zM305 575q0 -193 55.5 -290t149.5 -97t155.5 82t61.5 215q0 125 -57.5 202 t-162 77t-192.5 -68q-10 -80 -10 -121z" />
<glyph unicode="7" horiz-adv-x="866" d="M72 1061q0 182 20 303h692q43 -59 52 -127l-461 -1139q-23 -2 -59.5 -2t-94.5 17l379 876l107 213h-396q-94 0 -133 -30.5t-55 -122.5q-31 0 -51 12z" />
<glyph unicode="8" horiz-adv-x="1085" d="M123 376q0 118 78 196.5t227 164.5q-287 145 -287 322q0 150 131 244t300 94t272.5 -89t103.5 -221q0 -96 -64.5 -165.5t-193.5 -143.5q281 -149 281 -358q0 -135 -129 -240.5t-307.5 -105.5t-295 92t-116.5 210zM307 380q0 -93 65.5 -145.5t172 -52.5t174 60.5t67.5 162 t-68.5 166t-185.5 117.5q-121 -76 -173 -145.5t-52 -162.5zM332 1096q0 -158 252 -269q182 117 182 250q0 88 -52 150.5t-158.5 62.5t-165 -52t-58.5 -142z" />
<glyph unicode="9" horiz-adv-x="976" d="M76 968q0 173 123 303t287.5 130t275.5 -127q123 -141 123 -386t-151.5 -468t-438.5 -350q-61 39 -62 80q330 162 424 522q-100 -88 -246.5 -88t-236.5 100q-98 111 -98 284zM264 995q0 -133 59.5 -209.5t164 -76.5t190.5 67q8 61 8 107q0 205 -58.5 303t-151.5 98 t-152.5 -79t-59.5 -210z" />
<glyph unicode=":" horiz-adv-x="591" d="M174 276.5q0 51.5 35 87t86 35.5t87 -35.5t36 -87t-36 -86t-87 -34.5t-86 34.5t-35 86zM174 1043.5q0 52.5 35 88t86 35.5t87 -35.5t36 -88t-36 -87t-87 -34.5t-86 34.5t-35 87z" />
<glyph unicode=";" horiz-adv-x="591" d="M174 1047.5q0 50.5 35 86t87 35.5t87 -35.5t35 -86t-36 -86t-87 -35.5t-86 35.5t-35 86zM199 242v12l77 129q100 -37 144.5 -106.5t44.5 -151.5v-14q-2 -174 -152 -363l-98 45q111 160 111 269.5t-127 179.5z" />
<glyph unicode="&#x3c;" horiz-adv-x="1296" d="M186 786l795 404l113 -146l-672 -346l661 -288l-51 -101l-753 328z" />
<glyph unicode="=" horiz-adv-x="1308" d="M184 633v14h879l72 -145v-15h-879zM184 1001v15h879l72 -148v-12h-879z" />
<glyph unicode="&#x3e;" horiz-adv-x="1335" d="M209 455l672 346l-662 289l51 100l756 -328l90 -147l-792 -406z" />
<glyph unicode="?" horiz-adv-x="1189" d="M213 1372q135 115 309 115t305 -111.5t131 -267.5q0 -162 -172 -268q-74 -45 -172 -84v-242h-18l-111 51v303q8 4 55.5 24.5t66 30t59.5 31t60 40t44 44.5q45 49 45 128t-63.5 127t-157.5 48q-141 0 -272 -102zM440 222q0 48 32 81t80 33t82 -34t34 -81t-34 -79.5 t-82 -32.5t-80 32.5t-32 80.5z" />
<glyph unicode="@" horiz-adv-x="1855" d="M123 500q0 381 238.5 629.5t599 248.5t566.5 -217t206 -540q0 -262 -131.5 -405.5t-305.5 -143.5t-221 133q-113 -133 -264 -133q-113 0 -187.5 70.5t-74.5 187.5q0 162 147 252q125 78 299 77q31 0 64 -2v86q0 86 -38 126t-144.5 40t-223.5 -53l-41 55q158 145 361 146 q137 0 209.5 -79t72.5 -218v-428q0 -129 103 -129q82 0 150.5 103.5t68.5 314.5q0 276 -161 454t-461 178t-488 -208.5t-188 -557.5q0 -285 177 -471t505 -186q-2 -49 -39 -109q-369 0 -584 223.5t-215 555.5zM758 352q0 -68 36.5 -106.5t94.5 -38.5q102 0 170 74v297h-17 q-129 0 -206.5 -63.5t-77.5 -162.5z" />
<glyph unicode="A" d="M-4 98q0 43 8 76q115 20 152 119l360 1085q68 20 189 21l358 -1106q20 -63 56 -89t108 -30q-4 -49 -10 -76h-496q0 43 8 76q102 20 148 47l-99 309h-426l-102 -325q49 -27 156 -31q0 -27 -9 -76h-401zM381 623h369l-189 594l-18 -84z" />
<glyph unicode="B" horiz-adv-x="1202" d="M70 1298v23.5t6 50.5h475q250 0 364.5 -93t114.5 -241q0 -195 -190 -274q119 -31 183 -118t64 -202q0 -152 -124.5 -249t-366.5 -97h-522q-2 12 -2 32t8 44q70 10 99.5 30.5t29.5 74.5v991q-51 25 -139 28zM408 186h182q141 0 212.5 70t71.5 188.5t-71.5 189.5t-212.5 71 h-182v-519zM408 795l233 -2q178 63 178 245q0 115 -66.5 182.5t-201.5 67.5h-143v-493z" />
<glyph unicode="C" horiz-adv-x="1216" d="M109 724q0 300 192.5 488.5t472.5 188.5q205 0 340 -66q-4 -147 -37 -297q-55 0 -61 2q-4 111 -70.5 177.5t-177.5 66.5q-197 0 -317.5 -146.5t-120.5 -398.5t124 -390t311 -138t333 98l47 -51q-180 -186 -432 -186t-428 176t-176 476z" />
<glyph unicode="D" horiz-adv-x="1282" d="M70 1298v23.5t6 50.5h495q291 0 472.5 -167t181.5 -469t-176.5 -470t-460.5 -168h-514q-2 10 -2 31t10 45q70 10 99.5 30.5t29.5 74.5v993q-53 23 -141 26zM410 186h149q217 0 332 145.5t115 404.5t-116 405.5t-339 146.5h-141v-1102z" />
<glyph unicode="E" horiz-adv-x="1107" d="M72 1298q0 49 8 74h909q2 -45 2 -124t-12 -179q-14 -4 -80 -4q-10 121 -42 172t-130 51h-313v-500l317 19h70v-123h-70l-317 12v-510h331q100 0 133 52.5t46 177.5q16 2 38.5 2t47.5 -6q8 -104 8 -183t-2 -131h-938v31t8 45q70 10 99.5 30.5t29.5 74.5v991 q-57 25 -143 28z" />
<glyph unicode="F" horiz-adv-x="1048" d="M72 1298q0 49 8 74h909q2 -45 2 -124t-12 -179q-14 -4 -80 -4q-10 121 -42 172t-130 51h-313v-540l301 18h73v-123h-73l-301 12v-436q84 -31 211 -43q0 -45 -7 -78h-544v33t8 45q72 10 102.5 31.5t30.5 75.5v987q-57 25 -143 28z" />
<glyph unicode="G" horiz-adv-x="1329" d="M109 723q0 299 197.5 488.5t473.5 189.5q195 0 377 -66q-2 -125 -37 -291q-43 0 -63 3q-12 113 -88 174t-189 61q-211 0 -330.5 -145.5t-119.5 -405.5t109.5 -398t291.5 -138q125 0 242 61v367q-74 25 -156 28q0 49 6 82h469q2 -10 2 -29.5t-10 -52.5 q-72 -12 -102.5 -32.5t-30.5 -71.5v-449h-102l-43 68q-147 -94 -314 -94q-244 0 -413.5 176t-169.5 475z" />
<glyph unicode="H" horiz-adv-x="1390" d="M72 1298q0 49 8 74h469q0 -53 -6 -74q-70 -8 -99.5 -29.5t-29.5 -74.5v-408h565v484q-59 25 -139 28v23.5t6 50.5h471q2 -10 2 -30.5t-10 -43.5q-70 -8 -99.5 -29.5t-29.5 -74.5v-991q57 -25 141 -29q0 -43 -6 -76h-471q0 53 6 76q72 10 100.5 30.5t28.5 74.5v405h-565 v-481q59 -25 139 -29v-22.5t-6 -53.5h-469v31t8 45q70 10 99.5 30.5t29.5 74.5v991q-57 25 -143 28z" />
<glyph unicode="I" horiz-adv-x="626" d="M72 1298q0 49 8 74h469q0 -53 -6 -74q-70 -8 -99.5 -29.5t-29.5 -74.5v-991q59 -25 139 -29v-22.5t-6 -53.5h-469v31t8 45q70 10 99.5 30.5t29.5 74.5v991q-57 25 -143 28z" />
<glyph unicode="J" horiz-adv-x="608" d="M-20 -260q143 80 189 176t46 256v1098q-57 25 -143 28q0 49 8 74h469q0 -53 -6 -74q-70 -8 -99.5 -29.5t-29.5 -74.5v-1020q0 -375 -389 -491q-33 33 -45 57z" />
<glyph unicode="K" horiz-adv-x="1353" d="M72 1298q0 49 8 74h469q0 -53 -6 -74q-70 -8 -99.5 -29.5t-29.5 -74.5v-438l506 512q-51 27 -138 30q-2 12 -2 31t11 43h432q0 -49 -6 -74q-123 0 -209 -84l-402 -397q66 -14 119 -94l299 -428q49 -70 90 -92.5t113 -26.5v-10q0 -31 -10 -68h-302l-383 541q-29 41 -61 43 l-57 -57v-422q59 -25 139 -29v-22.5t-6 -53.5h-469v31t8 45q70 10 99.5 30.5t29.5 74.5v991q-57 25 -143 28z" />
<glyph unicode="L" horiz-adv-x="1099" d="M70 1298v23.5t6 50.5h469q2 -10 2 -30.5t-10 -43.5q-68 -8 -97.5 -29.5t-29.5 -74.5v-1008h354q96 0 129 50.5t43 169.5q39 0 72 -5q10 -109 10 -182.5t-2 -120.5h-942q-2 10 -2 31t10 45q70 10 99.5 30.5t29.5 74.5v991q-57 25 -141 28z" />
<glyph unicode="M" horiz-adv-x="1724" d="M39 98q4 51 10 76q143 20 148 113l65 987q-51 20 -108 22q-2 12 -2 34t10 42h354l332 -936l369 936h342q6 -25 6 -44v-30q-55 -6 -82 -30q-25 -23 -25 -73v-7l66 -987q68 -23 151 -27q2 -18 2 -36.5t-2 -39.5h-497q-2 20 -2 39t2 37q74 10 110 32q35 20 35 68v5l-45 921 l-66 -176l-368 -926h-60l-399 1114l-72 -1013q53 -20 152 -25q-2 -29 -10 -76h-416z" />
<glyph unicode="N" horiz-adv-x="1419" d="M84 130q0 20 8 44q137 18 137 113v989q-57 22 -136 22h-7q4 53 10 74h328l514 -700l147 -221v819q-53 25 -151 28v23.5t6 50.5h408q2 -12 2 -31.5t-9 -42.5q-139 -16 -139 -114v-1086h-86l-657 897l-113 166v-958q53 -25 152 -29v-22.5t-6 -53.5h-406q-2 12 -2 32z" />
<glyph unicode="O" horiz-adv-x="1380" d="M111 732q0 296 158.5 482.5t419.5 186.5t423 -187.5t162 -481.5t-161 -478t-423 -184t-420.5 183t-158.5 479zM344 766q0 -598 358 -598q166 0 251 137t85 391v37q-4 289 -100 430.5t-260 141.5t-249 -145.5t-85 -393.5z" />
<glyph unicode="P" horiz-adv-x="1118" d="M70 1298v23.5t6 50.5h526q211 0 343 -106.5t132 -263t-131 -263t-342 -106.5h-194v-418q82 -35 194 -41q0 -45 -8 -76h-522q-2 10 -2 31t10 45q70 10 99.5 30.5t29.5 74.5v989q-66 27 -141 30zM410 721h153q141 0 217 78t76 204.5t-74.5 204.5t-218.5 78h-153v-565z" />
<glyph unicode="Q" horiz-adv-x="1380" d="M111 731q0 297 158.5 483.5t419.5 186.5t423 -187.5t162 -471t-145.5 -469t-385.5 -222.5q57 -14 183.5 -81.5t242.5 -67.5q145 0 181 149l34 -6q2 -20 2 -59t-15 -103.5t-72.5 -122t-139.5 -57.5t-156.5 41t-125 90t-115 90t-123.5 41t-94 -39q-33 -37 -33 -99v-7h-35 q-31 61 -31 123q0 100 103 145q-205 47 -321.5 219t-116.5 424zM344 774q0 -600 358 -600q172 0 254 145.5t82 378.5q0 295 -95 446.5t-266 151.5t-252 -149.5t-81 -372.5z" />
<glyph unicode="R" horiz-adv-x="1241" d="M72 1298q0 49 8 74h526q209 0 322.5 -92t113.5 -250q0 -119 -65.5 -203t-192.5 -116q55 -29 105 -123l153 -291q35 -70 70 -94.5t96 -24.5q0 -45 -8 -80h-285l-247 498q-25 49 -52.5 70.5t-87.5 21.5h-114v-475q86 -33 170 -39v-22.5t-6 -53.5h-500v31t8 45 q70 10 99.5 30.5t29.5 74.5v989q-63 27 -143 30zM414 776h151q260 0 260 255t-260 255h-151v-510z" />
<glyph unicode="S" horiz-adv-x="1015" d="M121 267.5q0 78.5 18 224.5q39 0 78 -9v-9q0 -158 73 -226q75 -70 196.5 -70t189 56.5t67.5 146.5t-62.5 155.5t-151.5 108.5t-178 91t-151.5 131t-62.5 198q0 154 114 243t279.5 89t346.5 -64q-4 -154 -25 -274q-45 0 -64 4q-39 233 -256 233q-100 0 -160.5 -49 t-60.5 -134t63.5 -146.5t153.5 -103.5t180.5 -90t154 -131t63.5 -200q0 -166 -125 -265t-302 -99t-376 78q-2 33 -2 111.5z" />
<glyph unicode="T" horiz-adv-x="1097" d="M31 1214q0 72 8 158h1020q8 -66 8 -139.5t-6 -151.5q-23 -8 -41.5 -8t-28.5 2q-8 119 -49 165t-133 46h-160v-1081q74 -27 176 -31q2 -12 2 -31.5t-8 -44.5h-547q-2 10 -2 31t11 45q96 10 132 30.5t36 74.5v1007h-160q-92 0 -133 -46t-50 -165q-12 -2 -30.5 -2t-38.5 8 q-6 61 -6 133z" />
<glyph unicode="U" horiz-adv-x="1382" d="M66 1298v23.5t6 50.5h469q2 -12 2 -31.5t-8 -42.5q-70 -8 -99.5 -29.5t-29.5 -74.5v-684q0 -170 76.5 -251t210.5 -81t210 81t76 251v760q-57 25 -139 28v23.5t6 50.5h471v-30.5t-8 -43.5q-70 -8 -99.5 -29.5t-29.5 -74.5v-676q0 -229 -131 -337.5t-354.5 -108.5 t-355.5 108.5t-132 337.5v752q-59 25 -141 28z" />
<glyph unicode="V" horiz-adv-x="1257" d="M2 1349.5q0 16.5 2 22.5h467q6 -23 6 -74q-88 -10 -105.5 -27.5t-17.5 -37t11 -47.5l274 -707q29 -72 39 -129h8l344 918q-61 25 -143 30q0 51 6 74h362q-4 -47 -12 -74q-106 -18 -141 -108l-432 -1104h-76l-475 1188q-52 18 -111 24q-6 35 -6 51.5z" />
<glyph unicode="W" horiz-adv-x="1855" d="M8 1347.5v24.5h479q10 -33 11 -74q-92 -8 -112.5 -26.5t-20.5 -40t8 -45.5l205 -664q20 -70 26 -131h6l365 918h74l284 -797q23 -63 29 -127h4l268 883q-68 27 -116 30q4 41 12 74h313v-24.5t-4 -49.5q-59 -12 -87 -34.5t-46 -79.5l-354 -1098h-74l-334 915l-369 -915 h-75l-375 1188q-59 23 -113 24q-4 33 -4 49.5z" />
<glyph unicode="X" horiz-adv-x="1253" d="M41 1344.5q0 17.5 4 27.5h436q8 -23 8 -74q-76 -8 -93 -27.5t10 -51.5l260 -373l313 428q-63 18 -125 24q-2 20 -2 39t2 35h352v-25.5t-12 -48.5q-90 -8 -154 -96l-319 -436l399 -576q29 -8 82 -16q6 -33 6 -51.5v-24.5h-436q-8 18 -8 76q74 8 91 27.5t-7 52.5l-262 375 l-307 -430q61 -23 124 -25q2 -27 2.5 -45t-2.5 -31h-352v25.5t10 50.5q51 4 84 24.5t74 71.5l309 441l-399 571q-47 14 -80 16q-8 29 -8 46.5z" />
<glyph unicode="Y" d="M-2 1372h483q13 -37 13 -74q-121 -10 -121 -63q0 -25 18 -55l260 -473h6q18 61 58 124l274 445q-63 20 -121 22q0 29 9 74h346q0 -39 -9 -74q-59 -8 -88.5 -30.5t-64.5 -77.5l-346 -559v-432q61 -20 147 -25q0 -39 -6 -76h-498v27.5t7 48.5q72 10 103.5 30.5t31.5 74.5 v335l-385 664q-51 16 -109 20q-8 53 -8 74z" />
<glyph unicode="Z" horiz-adv-x="1120" d="M100 190l678 1080h-409q-88 0 -129 -41t-60 -148q-25 0 -53 13q0 150 20 278h850q12 -37 12.5 -61.5t0.5 -30.5l-676 -1077h440q90 0 130 40t59 146q29 0 51 -12q0 -158 -19 -279h-876q-18 37 -19 92z" />
<glyph unicode="[" horiz-adv-x="749" d="M168 -39v1796h442l105 -155h-371v-1641h266l103 -154h-410z" />
<glyph unicode="\" horiz-adv-x="933" d="M180 1561h164l393 -1565h-159z" />
<glyph unicode="]" horiz-adv-x="669" d="M35 -39h368v1641h-266l-102 155h411l134 -155v-1792h-443z" />
<glyph unicode="^" horiz-adv-x="974" d="M90 575l342 752q31 4 62.5 4t64.5 -4l340 -752q-55 -29 -129 -32l-283 618l-280 -618q-57 2 -117 32z" />
<glyph unicode="_" horiz-adv-x="1175" d="M131 340v12h825l72 -145v-12h-823z" />
<glyph unicode="`" horiz-adv-x="413" d="M20 1405v31q27 25 73 48t83 25l217 -350l-55 -33z" />
<glyph unicode="a" horiz-adv-x="978" d="M80 332.5q0 113.5 74.5 184.5t230.5 104l207 45v82q0 165 -160 165h-2q-119 0 -254 -49l-39 58q160 137 369 137q137 0 209.5 -79t72.5 -220v-449q0 -108 65 -108h1q14 0 76 12l16 -39q-82 -104 -178 -104q-61 0 -108.5 30.5t-61.5 85.5q-98 -117 -231 -117l-1 1 q-134 0 -210 73.5t-76 187zM289 348q0 -68 38 -104.5t101 -36.5q96 0 164 69v306l-121 -33q-182 -49 -182 -201z" />
<glyph unicode="b" horiz-adv-x="1081" d="M4 1415q4 47 14 74q156 61 326 76v-709q35 96 107.5 149.5t162.5 53.5q160 0 276 -126t116 -356.5t-144.5 -366.5t-351.5 -136q-143 0 -258 84q-47 -53 -117 -82l-31 30q43 98 43 228v1081q-20 2 -56 2t-87 -2zM344 223q80 -43 187.5 -43t182 101.5t74.5 295t-64.5 277.5 t-151.5 84t-150.5 -62.5t-77.5 -183.5v-469z" />
<glyph unicode="c" horiz-adv-x="923" d="M74 554q0 224 140 364.5t351 140.5q158 0 277 -74q-4 -129 -25 -244q-37 4 -51 9q-2 94 -61.5 149t-147.5 55q-125 0 -198.5 -100t-73.5 -282.5t74.5 -278.5t203.5 -96t273 77l32 -43q-163 -160 -351 -160l-1 1q-188 0 -315 129t-127 353z" />
<glyph unicode="d" horiz-adv-x="1128" d="M78 551.5q0 232.5 159.5 370t401.5 137.5q25 0 74 -4v360q-20 2 -56 2t-86 -2q4 45 13 74q158 61 327 76v-1254q0 -108 61 -108h1q14 0 76 12l20 -39q-88 -104 -180 -104q-121 0 -164 104q-113 -102 -265.5 -102t-267 122.5t-114.5 355zM287 573q0 -368 247 -368h1 q104 0 178 59v666q-55 12 -123 12q-150 0 -226.5 -86t-76.5 -283z" />
<glyph unicode="e" horiz-adv-x="980" d="M76 552.5q0 233.5 143 370t312 136.5t271.5 -99.5t102.5 -295.5q-10 -25 -26 -50h-594v-34q0 -186 75.5 -280.5t216 -94.5t291.5 88l27 -47q-160 -174 -383 -174q-166 0 -301 123.5t-135 357zM293 694l217 15l192 2q-2 127 -52 186t-125.5 59t-143.5 -64.5t-88 -197.5z " />
<glyph unicode="f" horiz-adv-x="657" d="M53 131q0 21 8 45q72 10 103 31.5t31 75.5v637q-55 8 -127 8q0 31 4 59q61 27 123 35v127q0 199 100 302t236.5 103t236.5 -92q-6 -96 -31 -196q-41 0 -73 8v26q0 68 -30 110t-91 42q-152 0 -152 -215v-213q154 4 277 16q0 -70 -17 -116h-260v-707q88 -35 203 -41 q2 -12 2 -32.5t-8 -45.5h-533q-2 12 -2 33z" />
<glyph unicode="g" horiz-adv-x="1048" d="M59 -112.5q0 135.5 146 221.5q-96 47 -96 167.5t153 190.5q-153 89 -153 264q0 152 112.5 240t272 88t264.5 -70q123 90 293 90q2 -10 2 -36.5t-11 -88.5l-215 -24q70 -82 70 -197q0 -150 -111.5 -238.5t-281.5 -88.5q-90 0 -170 28q-88 -45 -88 -108q0 -39 30.5 -64.5 t90.5 -25.5l399 2h10q119 0 181.5 -52.5t62.5 -144.5q-2 -164 -172 -301t-402 -137q-174 0 -280.5 74.5t-106.5 210zM276 -198q78 -48 233 -48t260 71t105 155v2q0 98 -114 98h-410q-43 0 -76 6q-78 -66 -78 -150q0 -86 80 -134zM317 752q0 -137 56.5 -204t138.5 -67 t130 61.5t48 172.5q0 135 -56 201.5t-139 66.5t-130.5 -61.5t-47.5 -169.5z" />
<glyph unicode="h" horiz-adv-x="1193" d="M57 131q0 21 9 45q72 8 102.5 29.5t30.5 75.5v1128q-35 4 -72 4t-70 -2q4 47 13 74q158 59 327 76v-703q104 201 316 201q127 0 207.5 -80.5t80.5 -230.5v-543q72 -27 142 -29q0 -47 -8 -78h-457q-2 12 -2 32t6 46q68 8 94.5 29.5t26.5 75.5v446q0 96 -44 144.5 t-120 48.5q-164 0 -242 -201v-516q57 -23 131 -27v-23.5t-6 -54.5h-463q-2 12 -2 33z" />
<glyph unicode="i" horiz-adv-x="604" d="M57 131q0 21 9 45q72 8 102.5 29.5t30.5 75.5v614q-35 4 -72 4t-70 -2q4 43 13 74q150 55 327 78v-846q57 -23 131 -27v-23.5t-6 -54.5h-463q-2 12 -2 33zM166 1332q0 54 38 92t92 38t92 -38t38 -92t-38 -93t-92 -39t-92 39t-38 93z" />
<glyph unicode="j" horiz-adv-x="563" d="M-29 -311q131 74 179.5 168t48.5 252v786q-35 4 -72 4t-70 -2q4 43 13 74q150 55 327 78v-918q0 -375 -387 -504zM166 1332q0 54 38 92t92 38t92 -38t38 -92t-38 -93t-92 -39t-92 39t-38 93z" />
<glyph unicode="k" horiz-adv-x="1148" d="M57 131q0 21 9 45q72 8 102.5 29.5t30.5 75.5v1134q-20 2 -56.5 2t-85.5 -2q4 45 13 74q154 61 327 76v-1008l377 369q-80 16 -137 45q0 37 10 63h430q0 -53 -6 -78q-127 0 -213 -86l-219 -211q43 -23 86 -84l201 -276q49 -72 91 -95.5t111 -27.5q0 -45 -10 -78h-284 l-291 404q-20 27 -33 35l-113 -111v-223q57 -23 131 -27v-23.5t-6 -54.5h-463q-2 12 -2 33z" />
<glyph unicode="l" horiz-adv-x="604" d="M57 131q0 21 9 45q72 8 102.5 29.5t30.5 75.5v1134q-20 2 -56.5 2t-85.5 -2q4 45 13 74q154 61 327 76v-1362q57 -23 131 -27v-23.5t-6 -54.5h-463q-2 12 -2 33z" />
<glyph unicode="m" horiz-adv-x="1798" d="M57 131q0 21 9 45q72 8 102.5 29.5t30.5 75.5v616q-59 2 -91 2h-51q4 45 13 72q147 55 307 76q16 -96 18 -193q104 205 318 205q104 0 180 -57.5t98 -163.5q49 104 135 162.5t203 58.5t197 -80.5t80 -230.5v-543q72 -27 141 -29v-23.5t-6 -54.5h-457q-2 10 -2 27.5 t6 50.5q68 8 94.5 29.5t26.5 75.5v446q0 96 -44 144.5t-120 48.5q-162 0 -244 -201v-516q57 -23 132 -27v-23.5t-7 -54.5h-448q-2 12 -2 32t6 46q68 8 94.5 29.5t26.5 75.5v446q0 96 -44 144.5t-120 48.5q-164 0 -242 -201v-516q57 -23 131 -27v-23.5t-6 -54.5h-463 q-2 12 -2 33z" />
<glyph unicode="n" horiz-adv-x="1183" d="M57 131q0 21 9 45q72 8 102.5 29.5t30.5 75.5v616q-59 2 -91 2h-51q4 45 13 72q147 55 307 76q16 -96 18 -193q104 205 318 205q127 0 207.5 -80.5t80.5 -230.5v-543q72 -27 142 -29q0 -47 -8 -78h-457q-2 12 -2 32t6 46q68 8 94.5 29.5t26.5 75.5v446q0 96 -44 144.5 t-120 48.5q-164 0 -242 -201v-516q57 -23 131 -27v-23.5t-6 -54.5h-463q-2 12 -2 33z" />
<glyph unicode="o" horiz-adv-x="1067" d="M76 565.5q0 227.5 127 360.5t333.5 133t330.5 -132t124 -359.5t-127 -360.5t-334.5 -133t-330.5 132t-123 359.5zM285 565q12 -389 260 -389q235 0 235 356q0 216 -66.5 323.5t-189.5 107.5q-239 0 -239 -376v-22z" />
<glyph unicode="p" horiz-adv-x="1122" d="M51 -339q0 22 8 46q72 10 103 32t31 75v1083q-59 2 -91 2h-51q4 45 12 72q147 55 304 76q16 -70 22 -170q76 182 262 182q160 0 275.5 -126t115.5 -355.5t-153.5 -366.5t-364.5 -137q-74 0 -133 22v-344q84 -39 191 -45q0 -43 -7 -78h-524v32zM391 213q72 -33 156 -33 q117 0 198.5 102.5t81.5 295t-64.5 276.5t-146 84t-142 -54.5t-83.5 -154.5v-516z" />
<glyph unicode="q" horiz-adv-x="1079" d="M78 551.5q0 232.5 156.5 370t388.5 137.5q100 0 192 -49q31 37 64 59h32v-1333q59 -23 142 -29v-23.5t-6 -54.5h-523q-2 16 -2 38t6 40q106 8 145.5 32.5t39.5 84.5v340q-113 -90 -259.5 -90t-261 122.5t-114.5 355zM287 573q0 -368 247 -368h1q104 0 178 59v649 q-66 29 -129 29q-135 0 -216 -88t-81 -281z" />
<glyph unicode="r" horiz-adv-x="761" d="M57 131q0 21 9 45q72 10 102.5 32t30.5 75v614q-59 2 -91 2h-51q4 45 13 72q147 55 307 76q20 -125 20 -273q49 127 146.5 206t212.5 79q10 -31 10 -77t-18 -112q-129 0 -229.5 -61t-121.5 -201v-393q86 -33 203 -39q0 -47 -8 -78h-533q-2 12 -2 33z" />
<glyph unicode="s" horiz-adv-x="856" d="M100 224.5q0 64.5 13 150.5q25 0 65 -4v-23q0 -178 217 -178q86 0 139.5 40t53.5 97.5t-47 99.5t-115 73.5t-136.5 68.5t-115.5 97.5t-47 139.5q0 135 96 204t230.5 69t261.5 -41q2 -33 2 -93.5t-12 -150.5q-31 0 -64 8q2 20 2 37q0 150 -170 150q-72 0 -118 -38 t-46 -97.5t48.5 -101.5t118 -72.5t139 -65.5t117.5 -95.5t48 -140.5q0 -129 -109.5 -207.5t-270 -78.5t-296.5 43q-4 45 -4 109.5z" />
<glyph unicode="t" horiz-adv-x="743" d="M51 928q0 31 4 59q51 20 127 35l158 274l41 -12v-260q154 4 274 16q0 -70 -16 -116h-258l2 -574q0 -133 106 -133q92 0 177 68l32 -39q-116 -172 -272 -172q-106 0 -175 65.5t-69 194.5v586q-57 8 -131 8z" />
<glyph unicode="u" horiz-adv-x="1163" d="M33 903q0 37 10 72q160 63 305 76v-639q0 -94 45 -145.5t121 -51.5q150 0 242 203v407q0 109 -70 146q2 25 14 43q92 39 209 39q25 0 52 -2q-9 -74 -9 -191v-620q82 -8 129 -9q2 -20 2 -38.5v-30.5q-137 -61 -305 -74q-16 90 -20 199q-119 -213 -318 -213 q-125 0 -206.5 83t-81.5 234v512q-25 2 -54.5 2t-64.5 -2z" />
<glyph unicode="v" horiz-adv-x="1046" d="M-14 1003.5q0 18.5 2 28.5h465q8 -27 8 -76q-88 -4 -137 -22l245 -723q8 63 35 131l180 485q14 33 14.5 54.5t-10.5 36.5q-23 31 -114 38q-8 31 -8 48.5t2 27.5h413v-6q0 -26 -14 -70q-68 -4 -125 -28l-334 -842h-164l-303 756q-23 59 -51 82.5t-96 31.5q-8 29 -8 47.5z " />
<glyph unicode="w" horiz-adv-x="1548" d="M35 1006.5q0 17.5 2 25.5h428q6 -35 6 -76q-78 -8 -95.5 -26.5t-17.5 -37t7 -38.5l141 -420q16 -45 22 -92h7l251 651h80l199 -559q18 -53 27 -90h4l180 498q10 33 10 54.5t-16.5 38.5t-102.5 21q-2 18 -2 38t4 38h349q2 -10 2 -27.5t-11 -48.5q-61 -12 -84 -20 l-340 -850h-77l-234 625l-262 -625h-80l-305 850q-37 16 -86 20q-6 33 -6 50.5z" />
<glyph unicode="x" horiz-adv-x="1054" d="M0 1002.5q0 19.5 2 29.5h465q6 -20 6 -76q-84 -4 -115 -14l217 -283l226 279q-37 14 -109 18q-4 18 -4 38t4 38h355v-28.5t-15 -47.5q-94 -4 -172 -98l-227 -270l221 -287q55 -70 91 -95.5t97 -29.5q8 -31 8.5 -49t-1.5 -29h-455q-6 23 -6 78q84 4 119 17l-228 288 l-233 -288q47 -12 112 -17q2 -20 2 -39.5t-2 -38.5h-356q2 41 12 78q94 4 176 96l234 281l-227 291q-76 102 -187 112q-10 27 -10 46.5z" />
<glyph unicode="y" horiz-adv-x="1056" d="M-2 1007.5q0 16.5 2 24.5h463q8 -27 8 -76q-88 -4 -135 -22l233 -688q12 49 31 96l193 485q14 33 14 55.5t-10 37.5q-25 29 -113 36q-8 29 -8 47.5t2 28.5h387v-8q0 -32 -14 -68q-47 -4 -90 -18l-453 -1044q-55 -135 -120 -200t-155 -65h-32q-23 66 -23 112t4 73h49 q78 0 121 29.5t82 111.5l43 92l-323 795q-25 59 -53.5 82.5t-96.5 31.5q-6 35 -6 51.5z" />
<glyph unicode="z" horiz-adv-x="940" d="M80 151.5q0 28.5 6 57.5l532 735h-262q-92 0 -134 -42t-62 -152q-31 0 -54 12q0 135 21 270h709q10 -29 10 -57.5t-10 -52.5l-525 -734h279q94 0 136 42t62 153q27 0 52 -12v-69.5t-21 -203.5h-733q-6 25 -6 53.5z" />
<glyph unicode="{" horiz-adv-x="1110" d="M188 778v117q106 6 137 52t31 145l-16 258q0 115 21.5 190.5t80.5 136.5q109 109 422 109h47v-113q-274 -4 -346 -100q-39 -51 -49 -101.5t-10 -136.5l12 -258q0 -109 -32.5 -163t-118.5 -78q88 -27 119.5 -81.5t31.5 -160.5l-12 -256q0 -70 5 -112t27.5 -89t63.5 -74 q98 -61 309 -65v-113h-109.5t-191 23.5t-167 85t-82 138.5t-21.5 192l16 256q0 98 -30.5 144t-137.5 54z" />
<glyph unicode="|" horiz-adv-x="649" d="M244 -4v1565h159v-1565h-159z" />
<glyph unicode="}" horiz-adv-x="1112" d="M201 -2q274 4 348 100q37 51 48 102.5t11 137.5l-14 256q0 109 31.5 162t117.5 80q-86 25 -117.5 79t-31.5 162l14 258q0 68 -5 110t-28.5 89t-66.5 74q-96 61 -307 65v113h109.5t191 -23.5t165 -85t80 -137.5t21.5 -190l-14 -258q0 -98 30.5 -144.5t139.5 -52.5v-117 q-109 -8 -139.5 -54t-30.5 -144l14 -256q0 -117 -21.5 -193t-80.5 -137q-104 -109 -418 -109h-47v113z" />
<glyph unicode="~" horiz-adv-x="1075" d="M100 483q8 150 80 236t187 86q72 0 199.5 -79t191.5 -79q123 0 149 164h68q-10 -150 -80 -237t-182 -87q-74 0 -206 79t-190 79q-121 0 -151 -162h-66z" />
<glyph unicode="&#xa1;" horiz-adv-x="937" d="M322 1194q0 49 34.5 84t85 35t85 -35t34.5 -85t-34.5 -85t-85 -35t-85 36t-34.5 85zM346 -47l41 944l98 51h13l28 -934l-166 -61h-14z" />
<glyph unicode="&#xa2;" horiz-adv-x="937" d="M119 651.5q0 182.5 107.5 299t271.5 126.5v125h98v-131q135 -18 233 -90l-75 -121q-84 94 -205 94t-194.5 -73.5t-73.5 -211t89 -218t219 -80.5t218 84l47 -39q-27 -51 -96.5 -99.5t-161.5 -58.5v-129h-98v127q-162 14 -270.5 113.5t-108.5 282z" />
<glyph unicode="&#xa3;" horiz-adv-x="1239" d="M117 678v14l37 78h165q-23 104 -22 176q4 176 105.5 282.5t263.5 106.5q109 0 175 -27.5t90.5 -39t60.5 -35t38 -23.5l-74 -120q-111 127 -240.5 127t-192 -63.5t-62.5 -163t26 -220.5h349v-14l-43 -78h-289q10 -61 10 -105q0 -210 -100 -331q98 39 177 39t190.5 -27 t154.5 -27q111 0 111 152l47 2l4 -31q2 -10 2 -26.5t-2 -53.5t-16.5 -73.5t-59.5 -67.5t-124 -31t-207 23.5t-202.5 23.5t-218.5 -43l-53 41q51 43 97 148.5t46 188.5t-20 198h-223z" />
<glyph unicode="&#xa4;" horiz-adv-x="976" d="M102 1044q31 59 91 89l108 -109q88 55 190.5 55t184.5 -57l110 108q61 -27 88 -88l-110 -110q53 -84 53 -189.5t-51 -185.5l106 -106q-31 -57 -88 -89l-104 105q-86 -57 -192.5 -57t-188.5 57l-106 -105q-59 35 -89 89l109 106q-51 80 -51 185.5t53 189.5zM299 744.5 q0 -119.5 54.5 -179t134 -59.5t136 59.5t56.5 179t-56.5 178t-136 58.5t-134 -58.5t-54.5 -178z" />
<glyph unicode="&#xa5;" horiz-adv-x="1212" d="M135 1305l162 28l309 -528q254 449 287 514h186l-346 -563h268v-15l-43 -71h-262v-119h305v-14l-43 -72h-262v-367h-180v367h-309v14l37 72h272v119h-309v14l37 72h239z" />
<glyph unicode="&#xa6;" horiz-adv-x="647" d="M244 -4v625h159v-625h-159zM244 934v627h159v-627h-159z" />
<glyph unicode="&#xa7;" horiz-adv-x="1689" d="M154 -213.5q0 72.5 18 205.5q35 0 78 -6v-13q0 -272 285 -272q106 0 173.5 53t67.5 130t-45 130.5t-112.5 84t-146.5 68.5t-146.5 76t-112.5 107.5t-45 159.5t55.5 165t147.5 111q-201 109 -201 293q0 147 112.5 232.5t276.5 85.5t332 -58q0 -106 -23 -254q-45 0 -65 5 q-31 215 -244 215q-96 0 -155.5 -50.5t-59.5 -130.5t63.5 -133t153.5 -90t181.5 -80t155 -119.5t63.5 -183.5q0 -190 -191 -285q188 -110 188 -286q0 -154 -124.5 -245t-302 -91t-375.5 72q-2 31 -2 103.5zM344 553q0 -55 17.5 -77.5t26.5 -36t32.5 -30t37 -24.5t45.5 -23.5 t44 -21.5q70 -35 100 -45q129 47 129 166q0 72 -55 137q-33 37 -139 88q-23 10 -88 41q-70 -25 -110 -72t-40 -102z" />
<glyph unicode="&#xa8;" horiz-adv-x="538" d="M20 1258.5q0 41.5 29 72.5t70 31t70.5 -31t29.5 -72.5t-29.5 -72.5t-69.5 -31t-70 31t-30 72.5zM319 1258.5q0 41.5 29 72.5t70 31t70.5 -31t29.5 -72.5t-29.5 -72.5t-69.5 -31t-70 31t-30 72.5z" />
<glyph unicode="&#xa9;" horiz-adv-x="1607" d="M111 749.5q0 313.5 196.5 502t497.5 188.5t496.5 -187.5t195.5 -503t-195.5 -503t-496.5 -187.5t-497.5 188.5t-196.5 502zM213 750.5q0 -283.5 169 -445.5t423 -162t422 162t168 445.5t-168 444.5t-423 161t-423 -161t-168 -444.5zM426 749.5q0 194.5 121 316.5t303 122 q119 0 225 -47q-6 -102 -37 -203q-25 -6 -57 -2q-4 152 -137 151q-113 0 -180.5 -91t-67.5 -241.5t68.5 -232.5t178 -82t206.5 68l49 -51q-117 -131 -283 -131t-277.5 114.5t-111.5 309z" />
<glyph unicode="&#xaa;" horiz-adv-x="696" d="M55 870q0 117 111 170q90 43 205 43q27 0 55 -2v88q0 117 -123 117q-94 0 -178 -41l-25 41q109 102 254 103q102 0 155.5 -54.5t53.5 -154.5v-314q0 -78 45 -78q16 0 54 11l10 -29q-53 -72 -123 -72q-102 0 -121 86q-80 -86 -174 -86t-146.5 47.5t-52.5 124.5zM201 885 q0 -41 24.5 -66.5t85 -25.5t115.5 55v174h-20q-84 0 -144.5 -32t-60.5 -105z" />
<glyph unicode="&#xab;" horiz-adv-x="1302" d="M246 754l342 387l84 -41l-252 -346l252 -348l-84 -44zM625 754l342 387l82 -41l-250 -346l250 -348l-82 -44z" />
<glyph unicode="&#xac;" horiz-adv-x="1284" d="M143.5 895q-0.5 39 10.5 78h956v-402q-29 -6 -55 -6l-56 6v248h-845q-10 37 -10.5 76z" />
<glyph unicode="&#xad;" horiz-adv-x="1175" d="M131 821v13h825l72 -146v-12h-823z" />
<glyph unicode="&#xae;" horiz-adv-x="1595" d="M123 749.5q0 313.5 191.5 502t483.5 188.5t483.5 -188.5t191.5 -502t-191.5 -502t-483.5 -188.5t-483.5 188.5t-191.5 502zM223 750.5q0 -283.5 164 -445.5t410.5 -162t410.5 162t164 445.5t-162.5 444.5t-410.5 161t-412 -161t-164 -444.5zM481 1114q0 43 4 53h318 q127 0 200.5 -66.5t73.5 -154.5t-49 -147.5t-137 -79.5q27 -16 55 -66l96 -151q27 -43 52.5 -58.5t64.5 -15.5q0 -23 -4 -55h-172l-166 289q-25 47 -67 47h-64v-256q57 -20 119 -25q2 -14 -4 -55h-316q-4 31 4 55q43 6 61.5 19.5t18.5 46.5v600q-39 16 -88 20zM686 778h92 q172 0 172 159t-172 159h-92v-318z" />
<glyph unicode="&#xaf;" horiz-adv-x="520" d="M20 1151v82h480v-82h-480z" />
<glyph unicode="&#xb0;" horiz-adv-x="649" d="M61 1180q0 125 75 195.5t188.5 70.5t188.5 -70.5t75 -195.5t-75 -195t-188.5 -70t-188.5 70t-75 195zM205 1181q0 -177 119 -177q53 0 87.5 44t34.5 134t-34.5 133t-87.5 43q-119 0 -119 -177z" />
<glyph unicode="&#xb1;" horiz-adv-x="1271" d="M131 481v13h942l74 -148v-10h-942zM131 954v13h424v258h12l154 -121v-137h352l74 -148v-10h-426v-258h-10l-156 123v135h-350z" />
<glyph unicode="&#xb2;" horiz-adv-x="507" d="M45 788q176 197 228.5 274t52.5 136q0 115 -93.5 115t-115.5 -101h-45q-2 16 -2 50t10 79q84 53 172 53.5t140 -51t52 -129t-56 -153.5t-241 -260h170q47 0 70 21.5t33 78.5q25 0 35 -6q0 -106 -19 -182h-379q-12 41 -12 75z" />
<glyph unicode="&#xb3;" horiz-adv-x="481" d="M39 772q20 55 31 62q66 -47 131 -47.5t100 27.5t35 77q0 123 -170 129v67q145 17 145 130q0 104 -86 104q-94 0 -119 -102q-33 0 -40 4v44.5t4 82.5q88 51 172 51t133 -44t49 -106.5t-36 -109.5t-95 -72q147 -41 147 -178q0 -78 -63.5 -131t-161.5 -53t-176 65z" />
<glyph unicode="&#xb4;" horiz-adv-x="411" d="M20 1147l216 352q39 -2 84 -25.5t71 -50.5v-26l-317 -283z" />
<glyph unicode="&#xb5;" horiz-adv-x="1173" d="M23 913q0 35 10 70q156 61 327 78v-778q53 -68 160 -68q156 0 248 203v416q0 113 -72 145q8 33 15 45q94 39 200 39q31 0 62 -4q-8 -74 -8 -191v-628q82 -8 129 -9q2 -31 2 -46v-23q-156 -53 -305 -74q-16 74 -21 197q-119 -211 -319 -211q-43 0 -91 14v-289 q-59 -10 -108 -10t-88 10v1112q-59 2 -91 2h-50z" />
<glyph unicode="&#xb6;" horiz-adv-x="1052" d="M59 961.5q0 181.5 103.5 296t275.5 114.5h455v-1274h-121v1157h-141v-1157h-119v453h-76q-172 0 -274.5 114.5t-102.5 296z" />
<glyph unicode="&#xb7;" horiz-adv-x="581" d="M170 808q0 50 35 86t85 36t86 -36t36 -86t-36 -86t-86 -36t-85 36t-35 86z" />
<glyph unicode="&#xb8;" horiz-adv-x="552" d="M20 -283l35 45q96 -45 191 -45q150 0 149 101q0 76 -112 76q-43 0 -84 -9l49 244h137l-35 -168h2q90 0 135 -38t45 -103.5t-72.5 -117.5t-193.5 -52t-246 67z" />
<glyph unicode="&#xb9;" horiz-adv-x="391" d="M45 737.5q0 14.5 6 34.5q53 4 74.5 14.5t21.5 36.5v445l-96 -15q-6 20 2 50q125 74 174 96l29 -10v-596q41 -19 92 -21v-22.5t-4 -36.5h-297q-2 10 -2 24.5z" />
<glyph unicode="&#xba;" horiz-adv-x="763" d="M53 1041.5q0 158.5 92.5 253t237.5 94.5t236.5 -93.5t91.5 -252t-92.5 -252t-239 -93.5t-236.5 92.5t-90 251zM201 1061q0 -143 49 -217t139 -74q174 0 174 254q0 145 -49 221t-139 76q-174 0 -174 -260z" />
<glyph unicode="&#xbb;" horiz-adv-x="1323" d="M258 406l248 348l-248 346l80 41l342 -387l-342 -392zM651 406l250 348l-250 346l82 41l342 -387l-342 -392z" />
<glyph unicode="&#xbc;" horiz-adv-x="1472" d="M121 559v26.5t8 37.5q63 6 90 19t27 46v572l-119 -17q-4 31 2 49q174 98 219 119l29 -12v-750q60 -24 115 -26q2 -8 2 -23.5t-9 -40.5h-364zM342 20l690 1434h92l-692 -1434h-90zM780 379l394 553h65v-541h119q8 -31 8 -51.5t-2 -32.5h-125v-127q35 -14 86 -18 q0 -39 -4 -64h-285q-2 10 -2 26.5t6 37.5q49 6 66.5 17t17.5 44v84h-311q-23 29 -33 72zM887 391h237v326z" />
<glyph unicode="&#xbd;" horiz-adv-x="1589" d="M121 559v26.5t8 37.5q63 6 90 19t27 46v572l-119 -17q-4 31 2 49q174 98 219 119l29 -12v-750q60 -24 115 -26q2 -8 2 -23.5t-9 -40.5h-364zM342 20l702 1434h91l-703 -1434h-90zM932 186q221 246 287.5 344.5t66.5 170t-34.5 109.5t-90.5 38q-115 0 -145 -125 q-35 0 -47 2v59t10 95q104 68 211.5 67.5t172 -64t64.5 -161.5t-68.5 -188.5t-305.5 -329.5h221q61 0 86.5 26.5t38.5 100.5q23 0 41 -6q0 -141 -25 -228h-469q-14 61 -14 90z" />
<glyph unicode="&#xbe;" horiz-adv-x="1533" d="M127 637q29 61 37 68q82 -59 163 -59.5t125 37.5t44 103q0 150 -209 162v76q82 6 131 53t49 113.5t-30.5 101.5t-84.5 35q-117 0 -147 -133q-35 0 -45 4q0 109 6 158q106 63 211.5 63t165 -54t59.5 -132t-45 -135.5t-121 -87.5q188 -51 189 -222q0 -100 -78 -165.5 t-200 -65.5t-220 80zM414 20l690 1434h90l-690 -1434h-90zM844 379l391 553h68v-541h118q6 -29 6 -49t-2 -35h-122v-127q35 -14 86 -18q0 -39 -5 -64h-284q-2 10 -2 26.5t6 37.5q49 6 66.5 17t17.5 44v84h-311q-23 29 -33 72zM950 391h238v330z" />
<glyph unicode="&#xbf;" horiz-adv-x="1189" d="M211 315q0 162 172 269q74 45 172 84v241h18l111 -51v-303q-8 -4 -55 -24.5t-65.5 -29.5t-59.5 -30.5t-60.5 -40t-44.5 -45.5q-45 -49 -45 -128t63.5 -127t157.5 -48q141 0 273 102l108 -133q-135 -115 -309 -114.5t-305 112t-131 266.5zM502 1202q0 47 33.5 80t82 33 t80 -33t31.5 -81t-31.5 -81t-80 -33t-82 34t-33.5 81z" />
<glyph unicode="&#xc0;" d="M-4 197q0 43 8 75q115 20 152 119l360 1086q68 20 189 20l358 -1106q20 -63 56 -89t108 -30q-4 -49 -10 -75h-496q0 43 8 75q102 20 148 47l-99 310h-426l-102 -326q49 -27 156 -31q0 -27 -9 -75h-401zM303 1843v31q27 25 73 48.5t83 25.5l217 -351l-55 -32zM381 721h369 l-189 594l-18 -84z" />
<glyph unicode="&#xc1;" d="M-4 197q0 43 8 75q115 20 152 119l360 1086q68 20 189 20l358 -1106q20 -63 56 -89t108 -30q-4 -49 -10 -75h-496q0 43 8 75q102 20 148 47l-99 310h-426l-102 -326q49 -27 156 -31q0 -27 -9 -75h-401zM381 721h369l-189 594l-18 -84zM575 1583l216 352q39 -2 84 -25.5 t71 -49.5v-27l-317 -283z" />
<glyph unicode="&#xc2;" d="M-4 197q0 43 8 75q115 20 152 119l360 1086q68 20 189 20l358 -1106q20 -63 56 -89t108 -30q-4 -49 -10 -75h-496q0 43 8 75q102 20 148 47l-99 310h-426l-102 -326q49 -27 156 -31q0 -27 -9 -75h-401zM305 1604l260 258h88l260 -258l-45 -45l-260 155l-256 -155z M381 721h369l-189 594l-18 -84z" />
<glyph unicode="&#xc3;" d="M-4 197q0 43 8 75q115 20 152 119l360 1086q68 20 189 20l358 -1106q20 -63 56 -89t108 -30q-4 -49 -10 -75h-496q0 43 8 75q102 20 148 47l-99 310h-426l-102 -326q49 -27 156 -31q0 -27 -9 -75h-401zM336 1618q29 236 180 235q49 0 121 -51t108 -51q74 0 95 92h63 q-24 -233 -180 -233q-49 0 -121 51t-106 51q-76 0 -95 -94h-65zM381 721h369l-189 594l-18 -84z" />
<glyph unicode="&#xc4;" d="M-4 197q0 43 8 75q115 20 152 119l360 1086q68 20 189 20l358 -1106q20 -63 56 -89t108 -30q-4 -49 -10 -75h-496q0 43 8 75q102 20 148 47l-99 310h-426l-102 -326q49 -27 156 -31q0 -27 -9 -75h-401zM360 1697q0 42 29 72.5t70 30.5t70.5 -30.5t29.5 -72.5t-29.5 -73 t-69.5 -31t-70 31t-30 73zM381 721h369l-189 594l-18 -84zM659 1697q0 42 29 72.5t70 30.5t70.5 -30.5t29.5 -72.5t-29.5 -73t-69.5 -31t-70 31t-30 73z" />
<glyph unicode="&#xc5;" d="M-4 197q0 43 8 75q115 20 152 119l360 1086q68 20 189 20l358 -1106q20 -63 56 -89t108 -30q-4 -49 -10 -75h-496q0 43 8 75q102 20 148 47l-99 310h-426l-102 -326q49 -27 156 -31q0 -27 -9 -75h-401zM381 721h369l-189 594l-18 -84zM418 1709q0 67 56 108t136 41 t136.5 -41t56.5 -108t-56.5 -107.5t-136.5 -40.5t-136 40.5t-56 107.5zM532 1710q0 -90 78 -90t78 89t-78 89q-33 0 -55.5 -22.5t-22.5 -65.5z" />
<glyph unicode="&#xc6;" horiz-adv-x="1734" d="M6 98v25.5t8 54.5q70 8 110 37t77 84l620 977q-51 18 -125 22q-2 10 -2 29t11 45h909q2 -45 2 -124t-12 -179q-14 -4 -80 -4q-10 121 -43 172t-131 51h-312v-500l283 19h70v-123h-70l-283 12v-510h332q100 0 133 52.5t45 177.5q16 2 39 2t47 -6q8 -104 8 -183t-2 -131 h-940v31t11 45q70 10 99.5 30.5t29.5 74.5v251h-371l-197 -311q63 -35 131 -41q0 -47 -8 -80h-389zM526 623h314v510l-70 -125z" />
<glyph unicode="&#xc7;" horiz-adv-x="1216" d="M109 821q0 301 192.5 489.5t472.5 188.5q205 0 340 -65q-4 -147 -37 -297q-55 0 -61 2q-4 111 -70.5 177t-177.5 66q-197 0 -317.5 -146t-120.5 -398t124 -390.5t311 -138.5t333 99l47 -52q-180 -186 -434 -186h-25l-22 -111h2q90 0 135 -37.5t45 -103t-73 -118 t-193.5 -52.5t-245.5 68l35 45q96 -45 190 -45q150 0 150 100q0 76 -113 76q-43 0 -84 -8l41 206q-197 51 -320.5 216t-123.5 415z" />
<glyph unicode="&#xc8;" horiz-adv-x="1107" d="M72 1397q0 49 8 73h909q2 -45 2 -123.5t-12 -179.5q-14 -4 -80 -4q-10 121 -42 172t-130 51h-313v-499l317 18h70v-123h-70l-317 13v-510h331q100 0 133 52t46 177q16 2 38.5 2t47.5 -6q8 -104 8 -183t-2 -130h-938v30.5t8 44.5q70 10 99.5 31t29.5 74v991 q-57 25 -143 29zM291 1843v31q27 25 73 48.5t82 25.5l218 -351l-56 -32z" />
<glyph unicode="&#xc9;" horiz-adv-x="1107" d="M72 1397q0 49 8 73h909q2 -45 2 -123.5t-12 -179.5q-14 -4 -80 -4q-10 121 -42 172t-130 51h-313v-499l317 18h70v-123h-70l-317 13v-510h331q100 0 133 52t46 177q16 2 38.5 2t47.5 -6q8 -104 8 -183t-2 -130h-938v30.5t8 44.5q70 10 99.5 31t29.5 74v991 q-57 25 -143 29zM561 1581l215 352q39 -2 84 -25.5t72 -49.5v-27l-318 -283z" />
<glyph unicode="&#xca;" horiz-adv-x="1107" d="M72 1397q0 49 8 73h909q2 -45 2 -123.5t-12 -179.5q-14 -4 -80 -4q-10 121 -42 172t-130 51h-313v-499l317 18h70v-123h-70l-317 13v-510h331q100 0 133 52t46 177q16 2 38.5 2t47.5 -6q8 -104 8 -183t-2 -130h-938v30.5t8 44.5q70 10 99.5 31t29.5 74v991 q-57 25 -143 29zM289 1604l260 258h88l260 -258l-45 -45l-260 155l-256 -155z" />
<glyph unicode="&#xcb;" horiz-adv-x="1107" d="M72 1397q0 49 8 73h909q2 -45 2 -123.5t-12 -179.5q-14 -4 -80 -4q-10 121 -42 172t-130 51h-313v-499l317 18h70v-123h-70l-317 13v-510h331q100 0 133 52t46 177q16 2 38.5 2t47.5 -6q8 -104 8 -183t-2 -130h-938v30.5t8 44.5q70 10 99.5 31t29.5 74v991 q-57 25 -143 29zM338 1697q0 42 28.5 72.5t69.5 30.5t71 -30.5t30 -72.5t-30 -73t-70 -31t-69.5 31t-29.5 73zM637 1697q0 42 28.5 72.5t69.5 30.5t71 -30.5t30 -72.5t-30 -73t-70 -31t-69.5 31t-29.5 73z" />
<glyph unicode="&#xcc;" horiz-adv-x="626" d="M10 1843v31q27 25 73 48.5t83 25.5l217 -351l-55 -32zM72 1397q0 49 8 73h469q0 -53 -6 -73q-70 -8 -99.5 -30t-29.5 -75v-991q59 -25 139 -29v-22.5t-6 -52.5h-469v30.5t8 44.5q70 10 99.5 31t29.5 74v991q-57 25 -143 29z" />
<glyph unicode="&#xcd;" horiz-adv-x="626" d="M72 1397q0 49 8 73h469q0 -53 -6 -73q-70 -8 -99.5 -30t-29.5 -75v-991q59 -25 139 -29v-22.5t-6 -52.5h-469v30.5t8 44.5q70 10 99.5 31t29.5 74v991q-57 25 -143 29zM281 1583l215 352q39 -2 84 -25.5t71 -49.5v-27l-317 -283z" />
<glyph unicode="&#xce;" horiz-adv-x="626" d="M10 1604l260 258h88l260 -258l-45 -45l-260 155l-256 -155zM72 1397q0 49 8 73h469q0 -53 -6 -73q-70 -8 -99.5 -30t-29.5 -75v-991q59 -25 139 -29v-22.5t-6 -52.5h-469v30.5t8 44.5q70 10 99.5 31t29.5 74v991q-57 25 -143 29z" />
<glyph unicode="&#xcf;" horiz-adv-x="626" d="M66 1697q0 42 28.5 72.5t69.5 30.5t70.5 -30.5t29.5 -72.5t-29.5 -73t-69.5 -31t-69.5 31t-29.5 73zM72 1397q0 49 8 73h469q0 -53 -6 -73q-70 -8 -99.5 -30t-29.5 -75v-991q59 -25 139 -29v-22.5t-6 -52.5h-469v30.5t8 44.5q70 10 99.5 31t29.5 74v991q-57 25 -143 29z M365 1697q0 42 28.5 72.5t69.5 30.5t70.5 -30.5t29.5 -72.5t-29.5 -73t-69.5 -31t-69.5 31t-29.5 73z" />
<glyph unicode="&#xd0;" horiz-adv-x="1282" d="M53 741.5q0 24.5 4 46.5h156v582q-53 23 -141 27v23.5t6 49.5h495q291 0 472.5 -166.5t181.5 -469t-176.5 -470t-460.5 -167.5h-514q-2 10 -2 30.5t10 44.5q70 10 99.5 31t29.5 74v315h-156q-4 25 -4 49.5zM412 285h149q217 0 332 145t115 404.5t-116 405.5t-339 146 h-141v-598h247q6 -23 6.5 -47t-6.5 -49h-247v-407z" />
<glyph unicode="&#xd1;" horiz-adv-x="1419" d="M84 228.5q0 19.5 8 43.5q137 18 137 113v989q-59 23 -143 23q4 53 10 73h328l514 -700l147 -221v819q-53 25 -151 29v23.5t6 49.5h408q2 -12 2 -31.5t-9 -41.5q-139 -16 -139 -115v-1085h-86l-657 897l-113 166v-959q53 -25 152 -29v-22.5t-6 -52.5h-406q-2 12 -2 31.5z M465 1618q29 236 180 235q47 0 121 -51t108 -51q74 0 95 92h63q-24 -233 -180 -233q-49 0 -121 51t-106 51q-76 0 -95 -94h-65z" />
<glyph unicode="&#xd2;" horiz-adv-x="1380" d="M111 830.5q0 295.5 158.5 482t419.5 186.5t423 -187.5t162 -481t-161 -478t-423 -184.5t-420.5 183.5t-158.5 479zM344 864q0 -598 358 -598q166 0 251 137.5t85 391.5v36q-4 289 -100 430.5t-260 141.5t-249 -145.5t-85 -393.5zM387 1843v31q27 25 73 48.5t83 25.5 l217 -351l-55 -32z" />
<glyph unicode="&#xd3;" horiz-adv-x="1380" d="M111 830.5q0 295.5 158.5 482t419.5 186.5t423 -187.5t162 -481t-161 -478t-423 -184.5t-420.5 183.5t-158.5 479zM344 864q0 -598 358 -598q166 0 251 137.5t85 391.5v36q-4 289 -100 430.5t-260 141.5t-249 -145.5t-85 -393.5zM657 1581l215 352q39 -2 84 -25.5 t72 -49.5v-27l-317 -283z" />
<glyph unicode="&#xd4;" horiz-adv-x="1380" d="M111 830.5q0 295.5 158.5 482t419.5 186.5t423 -187.5t162 -481t-161 -478t-423 -184.5t-420.5 183.5t-158.5 479zM344 864q0 -598 358 -598q166 0 251 137.5t85 391.5v36q-4 289 -100 430.5t-260 141.5t-249 -145.5t-85 -393.5zM385 1604l260 258h88l260 -258l-45 -45 l-260 155l-256 -155z" />
<glyph unicode="&#xd5;" horiz-adv-x="1380" d="M111 830.5q0 295.5 158.5 482t419.5 186.5t423 -187.5t162 -481t-161 -478t-423 -184.5t-420.5 183.5t-158.5 479zM344 864q0 -598 358 -598q166 0 251 137.5t85 391.5v36q-4 289 -100 430.5t-260 141.5t-249 -145.5t-85 -393.5zM420 1618q28 235 180 235q47 0 121 -51 t108 -51q74 0 95 92h63q-25 -233 -180 -233q-49 0 -121 51t-106 51q-76 0 -95 -94h-65z" />
<glyph unicode="&#xd6;" horiz-adv-x="1380" d="M111 830.5q0 295.5 158.5 482t419.5 186.5t423 -187.5t162 -481t-161 -478t-423 -184.5t-420.5 183.5t-158.5 479zM344 864q0 -598 358 -598q166 0 251 137.5t85 391.5v36q-4 289 -100 430.5t-260 141.5t-249 -145.5t-85 -393.5zM432 1697q0 42 28.5 72.5t69.5 30.5 t71 -30.5t30 -72.5t-30 -73t-69.5 -31t-69.5 31t-30 73zM731 1697q0 42 28.5 72.5t69.5 30.5t71 -30.5t30 -72.5t-30 -73t-69.5 -31t-69.5 31t-30 73z" />
<glyph unicode="&#xd7;" horiz-adv-x="1103" d="M160 457l305 323l-285 318l96 63l267 -297l280 297l121 -106l-291 -316l289 -321l-92 -66l-272 305l-275 -297z" />
<glyph unicode="&#xd8;" horiz-adv-x="1380" d="M109 70l147 186q-145 176 -145 474t158.5 484.5t420.5 186.5q217 0 367 -131l102 129h131l-162 -205q145 -184 145.5 -470t-160.5 -470t-423 -184q-219 0 -360 112l-90 -112h-131zM342 795q0 -209 51 -365l551 698q-94 168 -271 168t-259 -157q-72 -135 -72 -344z M442 326q92 -152 267.5 -152t253 142.5t77.5 361.5q0 27 -2 55q-10 174 -47 287z" />
<glyph unicode="&#xd9;" horiz-adv-x="1382" d="M66 1397v23.5t6 49.5h469q2 -12 2 -31.5t-8 -41.5q-70 -8 -99.5 -29.5t-29.5 -75.5v-684q0 -170 76.5 -251t210.5 -81t210 81t76 251v760q-57 25 -139 29v23.5t6 49.5h471v-30.5t-8 -42.5q-70 -8 -99.5 -29.5t-29.5 -75.5v-676q0 -229 -131 -337.5t-354.5 -108.5 t-355.5 108.5t-132 337.5v752q-59 25 -141 29zM389 1843v31q27 25 73 48.5t83 25.5l217 -351l-55 -32z" />
<glyph unicode="&#xda;" horiz-adv-x="1400" d="M66 1397v23.5t6 49.5h469q2 -12 2 -31.5t-8 -41.5q-70 -8 -99.5 -29.5t-29.5 -75.5v-684q0 -170 76.5 -251t210.5 -81t210 81t76 251v760q-57 25 -139 29v23.5t6 49.5h471v-30.5t-8 -42.5q-70 -8 -99.5 -29.5t-29.5 -75.5v-676q0 -229 -131 -337.5t-354.5 -108.5 t-355.5 108.5t-132 337.5v752q-59 25 -141 29zM641 1581l215 352q39 -2 84 -25.5t72 -49.5v-27l-318 -283z" />
<glyph unicode="&#xdb;" horiz-adv-x="1400" d="M66 1397v23.5t6 49.5h469q2 -12 2 -31.5t-8 -41.5q-70 -8 -99.5 -29.5t-29.5 -75.5v-684q0 -170 76.5 -251t210.5 -81t210 81t76 251v760q-57 25 -139 29v23.5t6 49.5h471v-30.5t-8 -42.5q-70 -8 -99.5 -29.5t-29.5 -75.5v-676q0 -229 -131 -337.5t-354.5 -108.5 t-355.5 108.5t-132 337.5v752q-59 25 -141 29zM369 1604l260 258h88l260 -258l-45 -45l-260 155l-256 -155z" />
<glyph unicode="&#xdc;" horiz-adv-x="1400" d="M66 1397v23.5t6 49.5h469q2 -12 2 -31.5t-8 -41.5q-70 -8 -99.5 -29.5t-29.5 -75.5v-684q0 -170 76.5 -251t210.5 -81t210 81t76 251v760q-57 25 -139 29v23.5t6 49.5h471v-30.5t-8 -42.5q-70 -8 -99.5 -29.5t-29.5 -75.5v-676q0 -229 -131 -337.5t-354.5 -108.5 t-355.5 108.5t-132 337.5v752q-59 25 -141 29zM414 1697q0 42 28.5 72.5t69.5 30.5t70.5 -30.5t29.5 -72.5t-29.5 -73t-69.5 -31t-69.5 31t-29.5 73zM713 1697q0 42 28.5 72.5t69.5 30.5t70.5 -30.5t29.5 -72.5t-29.5 -73t-69.5 -31t-69.5 31t-29.5 73z" />
<glyph unicode="&#xdd;" d="M-2 1470h483q13 -36 13 -73q-121 -10 -121 -64q0 -25 18 -55l260 -473h6q18 61 58 125l274 444q-63 20 -121 23q0 29 9 73h346q0 -39 -9 -73q-59 -8 -88.5 -31t-64.5 -78l-346 -559v-432q61 -20 147 -25q0 -39 -6 -75h-498v27.5t7 47.5q72 10 103.5 31t31.5 74v336 l-385 663q-51 16 -109 21q-8 53 -8 73zM608 1583l215 352q39 -2 84 -25.5t72 -49.5v-27l-317 -283z" />
<glyph unicode="&#xde;" horiz-adv-x="1144" d="M72 1298q0 49 8 74h469q0 -53 -6 -74q-70 -8 -99.5 -29.5t-29.5 -74.5v-117h227q205 0 323.5 -89t118.5 -240.5t-118.5 -239.5t-323.5 -88h-227v-217q59 -25 139 -29v-22.5t-6 -53.5h-469v31t8 45q70 10 99.5 30.5t29.5 74.5v991q-57 25 -143 28zM414 508h184 q123 0 193.5 62.5t70.5 178t-67.5 178t-196.5 62.5h-184v-481z" />
<glyph unicode="&#xdf;" d="M70 131q0 21 8 45q72 8 102.5 31t30.5 76v690q0 188 117.5 293.5t316.5 105.5t309.5 -97t110.5 -237q0 -98 -56.5 -168.5t-152.5 -103.5q125 -29 194.5 -117t69.5 -218t-106.5 -231.5t-311.5 -101.5q-84 0 -161 25q-6 25 -6 46t4 42q61 -25 127 -25q115 0 176 71 t61 188.5t-64.5 188.5t-195.5 71h-72q-8 33 -8 53t2 35h115q168 68 168 245q0 119 -57.5 184.5t-164 65.5t-159.5 -73.5t-53 -198.5v-918h-342q-2 12 -2 33z" />
<glyph unicode="&#xe0;" horiz-adv-x="978" d="M80 431q0 114 74.5 184.5t230.5 103.5l207 45v82q0 166 -162 166q-119 0 -254 -49l-39 57q160 137 369 137q137 0 209.5 -79t72.5 -220v-448q0 -109 66 -109q14 0 76 12l16 -39q-82 -104 -178 -104q-61 0 -108.5 30.5t-61.5 86.5q-98 -117 -232.5 -117t-210 73.5 t-75.5 187.5zM182 1503v31q27 25 73 48.5t83 25.5l217 -351l-55 -32zM289 446q0 -68 38 -104.5t101 -36.5q96 0 164 70v305l-121 -33q-182 -49 -182 -201z" />
<glyph unicode="&#xe1;" horiz-adv-x="978" d="M80 431q0 114 74.5 184.5t230.5 103.5l207 45v82q0 166 -162 166q-119 0 -254 -49l-39 57q160 137 369 137q137 0 209.5 -79t72.5 -220v-448q0 -109 66 -109q14 0 76 12l16 -39q-82 -104 -178 -104q-61 0 -108.5 30.5t-61.5 86.5q-98 -117 -232.5 -117t-210 73.5 t-75.5 187.5zM289 446q0 -68 38 -104.5t101 -36.5q96 0 164 70v305l-121 -33q-182 -49 -182 -201zM455 1241l215 352q39 -2 84 -25.5t71 -49.5v-27l-317 -283z" />
<glyph unicode="&#xe2;" horiz-adv-x="978" d="M80 431q0 114 74.5 184.5t230.5 103.5l207 45v82q0 166 -162 166q-119 0 -254 -49l-39 57q160 137 369 137q137 0 209.5 -79t72.5 -220v-448q0 -109 66 -109q14 0 76 12l16 -39q-82 -104 -178 -104q-61 0 -108.5 30.5t-61.5 86.5q-98 -117 -232.5 -117t-210 73.5 t-75.5 187.5zM184 1264l260 258h88l261 -258l-45 -45l-261 155l-256 -155zM289 446q0 -68 38 -104.5t101 -36.5q96 0 164 70v305l-121 -33q-182 -49 -182 -201z" />
<glyph unicode="&#xe3;" horiz-adv-x="978" d="M80 431q0 114 74.5 184.5t230.5 103.5l207 45v82q0 166 -162 166q-119 0 -254 -49l-39 57q160 137 369 137q137 0 209.5 -79t72.5 -220v-448q0 -109 66 -109q14 0 76 12l16 -39q-82 -104 -178 -104q-61 0 -108.5 30.5t-61.5 86.5q-98 -117 -232.5 -117t-210 73.5 t-75.5 187.5zM215 1278q29 236 180 235q49 0 122 -51t108 -51q74 0 94 92h63q-24 -233 -180 -233q-49 0 -120.5 51t-106.5 51q-76 0 -94 -94h-66zM289 446q0 -68 38 -104.5t101 -36.5q96 0 164 70v305l-121 -33q-182 -49 -182 -201z" />
<glyph unicode="&#xe4;" horiz-adv-x="978" d="M80 431q0 114 74.5 184.5t230.5 103.5l207 45v82q0 166 -162 166q-119 0 -254 -49l-39 57q160 137 369 137q137 0 209.5 -79t72.5 -220v-448q0 -109 66 -109q14 0 76 12l16 -39q-82 -104 -178 -104q-61 0 -108.5 30.5t-61.5 86.5q-98 -117 -232.5 -117t-210 73.5 t-75.5 187.5zM240 1357q0 42 28.5 72.5t69.5 30.5t70.5 -30.5t29.5 -72.5t-29.5 -73t-69.5 -31t-69.5 31t-29.5 73zM289 446q0 -68 38 -104.5t101 -36.5q96 0 164 70v305l-121 -33q-182 -49 -182 -201zM539 1357q0 42 28.5 72.5t69.5 30.5t70.5 -30.5t29.5 -72.5t-29.5 -73 t-69.5 -31t-69.5 31t-29.5 73z" />
<glyph unicode="&#xe5;" horiz-adv-x="978" d="M80 431q0 114 74.5 184.5t230.5 103.5l207 45v82q0 166 -162 166q-119 0 -254 -49l-39 57q160 137 369 137q137 0 209.5 -79t72.5 -220v-448q0 -109 66 -109q14 0 76 12l16 -39q-82 -104 -178 -104q-61 0 -108.5 30.5t-61.5 86.5q-98 -117 -232.5 -117t-210 73.5 t-75.5 187.5zM289 446q0 -68 38 -104.5t101 -36.5q96 0 164 70v305l-121 -33q-182 -49 -182 -201zM295 1369.5q0 66.5 56.5 107.5t136 41t136 -41t56.5 -107.5t-56.5 -107.5t-136 -41t-136 41t-56.5 107.5zM410 1370q0 -90 77.5 -90t77.5 89t-78 89q-33 0 -55 -22.5 t-22 -65.5z" />
<glyph unicode="&#xe6;" horiz-adv-x="1497" d="M80 332.5q0 113.5 74.5 184.5t230.5 104l207 45v82q0 166 -162 165q-119 0 -254 -49l-39 58q160 137 369 137q174 0 239 -139q131 139 301.5 139t272.5 -99.5t102 -295.5q-10 -25 -26 -50h-594v-34q0 -186 75.5 -280.5t216 -94.5t291.5 88l27 -47q-160 -174 -383 -174 q-98 0 -193.5 47t-158.5 137q-127 -184 -316 -184q-127 0 -203.5 73.5t-76.5 187zM289 348q0 -68 38 -104.5t101 -36.5q123 0 207 123q-43 98 -43 217v35l-121 -33q-182 -49 -182 -201zM809 694l217 15l193 2q-2 127 -51.5 186t-126 59t-144.5 -64.5t-88 -197.5z" />
<glyph unicode="&#xe7;" horiz-adv-x="923" d="M74 645q0 231 140 371.5t351 140.5q158 0 277 -74q-4 -129 -25 -243q-37 4 -51 8q-2 94 -61.5 149.5t-147.5 55.5q-125 0 -198.5 -100.5t-73.5 -283t74.5 -278.5t203.5 -96t273 78l32 -43q-143 -141 -317 -158l-25 -113h2q90 0 135.5 -37.5t45.5 -103t-73 -118 t-193.5 -52.5t-245.5 68l34 45q96 -45 191 -45q150 0 149 100q0 76 -112 76q-43 0 -84 -8l39 196q-145 31 -242.5 154t-97.5 311z" />
<glyph unicode="&#xe8;" horiz-adv-x="980" d="M76 651.5q0 233.5 143 369.5t312 136t271.5 -99.5t102.5 -295.5q-10 -25 -26 -49h-594v-35q0 -186 75.5 -280.5t216 -94.5t291.5 88l27 -47q-160 -174 -383 -174q-166 0 -301 124t-135 357.5zM238 1503v31q27 25 72.5 48.5t82.5 25.5l217 -351l-55 -32zM293 793l217 14 l192 2q-2 127 -52 186.5t-125.5 59.5t-143.5 -64.5t-88 -197.5z" />
<glyph unicode="&#xe9;" horiz-adv-x="980" d="M76 651.5q0 233.5 143 369.5t312 136t271.5 -99.5t102.5 -295.5q-10 -25 -26 -49h-594v-35q0 -186 75.5 -280.5t216 -94.5t291.5 88l27 -47q-160 -174 -383 -174q-166 0 -301 124t-135 357.5zM293 793l217 14l192 2q-2 127 -52 186.5t-125.5 59.5t-143.5 -64.5 t-88 -197.5zM508 1243l215 352q39 -2 84 -25.5t72 -49.5v-27l-318 -283z" />
<glyph unicode="&#xea;" horiz-adv-x="980" d="M76 651.5q0 233.5 143 369.5t312 136t271.5 -99.5t102.5 -295.5q-10 -25 -26 -49h-594v-35q0 -186 75.5 -280.5t216 -94.5t291.5 88l27 -47q-160 -174 -383 -174q-166 0 -301 124t-135 357.5zM238 1264l260 258h88l260 -258l-45 -45l-260 155l-256 -155zM293 793l217 14 l192 2q-2 127 -52 186.5t-125.5 59.5t-143.5 -64.5t-88 -197.5z" />
<glyph unicode="&#xeb;" horiz-adv-x="980" d="M76 651.5q0 233.5 143 369.5t312 136t271.5 -99.5t102.5 -295.5q-10 -25 -26 -49h-594v-35q0 -186 75.5 -280.5t216 -94.5t291.5 88l27 -47q-160 -174 -383 -174q-166 0 -301 124t-135 357.5zM283 1357q0 42 28.5 72.5t69.5 30.5t70.5 -30.5t29.5 -72.5t-29.5 -73 t-69.5 -31t-69.5 31t-29.5 73zM293 793l217 14l192 2q-2 127 -52 186.5t-125.5 59.5t-143.5 -64.5t-88 -197.5zM582 1357q0 42 28.5 72.5t69.5 30.5t70.5 -30.5t29.5 -72.5t-29.5 -73t-69.5 -31t-69.5 31t-29.5 73z" />
<glyph unicode="&#xec;" horiz-adv-x="604" d="M-2 1503v31q27 25 73 48.5t83 25.5l217 -351l-56 -32zM57 229.5q0 20.5 9 44.5q72 8 102.5 30t30.5 75v614q-35 4 -72 4t-70 -2q4 43 13 74q154 57 327 78v-846q57 -23 131 -27v-23.5t-6 -53.5h-463q-2 12 -2 32.5z" />
<glyph unicode="&#xed;" horiz-adv-x="604" d="M57 229.5q0 20.5 9 44.5q72 8 102.5 30t30.5 75v614q-35 4 -72 4t-70 -2q4 43 13 74q154 57 327 78v-846q57 -23 131 -27v-23.5t-6 -53.5h-463q-2 12 -2 32.5zM268 1243l215 352q39 -2 84 -25.5t72 -49.5v-27l-317 -283z" />
<glyph unicode="&#xee;" horiz-adv-x="604" d="M0 1264l260 258h88l260 -258l-45 -45l-260 155l-256 -155zM57 229.5q0 20.5 9 44.5q72 8 102.5 30t30.5 75v614q-35 4 -72 4t-70 -2q4 43 13 74q154 57 327 78v-846q57 -23 131 -27v-23.5t-6 -53.5h-463q-2 12 -2 32.5z" />
<glyph unicode="&#xef;" horiz-adv-x="604" d="M45 1357q0 42 28.5 72.5t69.5 30.5t71 -30.5t30 -72.5t-30 -73t-70 -31t-69.5 31t-29.5 73zM57 229.5q0 20.5 9 44.5q72 8 102.5 30t30.5 75v614q-35 4 -72 4t-70 -2q4 43 13 74q154 57 327 78v-846q57 -23 131 -27v-23.5t-6 -53.5h-463q-2 12 -2 32.5zM344 1357 q0 42 28.5 72.5t69.5 30.5t71 -30.5t30 -72.5t-30 -73t-70 -31t-69.5 31t-29.5 73z" />
<glyph unicode="&#xf0;" horiz-adv-x="1048" d="M76 545q0 221 156.5 367.5t379.5 146.5q51 0 76 -2q-33 104 -94 207l-223 -103q-37 31 -47 84l219 98q-76 100 -142 170l66 60q106 -92 182 -180l223 100q37 -31 50 -82l-211 -96q241 -312 241 -656q0 -256 -128 -420.5t-318.5 -164.5t-310 125t-119.5 346zM286 560 q3 -185 63.5 -284.5t169 -99.5t165.5 130t57 315.5t-22 308.5q-57 18 -125 18q-150 0 -230.5 -101.5t-77.5 -286.5z" />
<glyph unicode="&#xf1;" horiz-adv-x="1183" d="M57 229.5q0 20.5 9 44.5q72 8 102.5 30t30.5 75v616q-59 2 -91 2h-51q4 45 13 72q147 55 307 76q16 -96 18 -193q104 205 318 205q127 0 207.5 -80.5t80.5 -230.5v-543q72 -27 142 -29q0 -47 -8 -77h-457q-2 12 -2 31.5t6 45.5q68 8 94.5 30t26.5 75v446q0 96 -44 144.5 t-120 48.5q-164 0 -242 -201v-516q57 -23 131 -27v-23.5t-6 -53.5h-463q-2 12 -2 32.5zM342 1278q29 236 180 235q47 0 121 -51t109 -51q74 0 94 92h63q-24 -233 -180 -233q-49 0 -120.5 51t-106.5 51q-76 0 -94 -94h-66z" />
<glyph unicode="&#xf2;" horiz-adv-x="1067" d="M76 663.5q0 227.5 127 360.5t333.5 133t330.5 -132t124 -359.5t-127 -360.5t-334.5 -133t-330.5 132t-123 359.5zM240 1503v31q27 25 72.5 48.5t82.5 25.5l217 -351l-55 -32zM285 664q12 -390 260 -390q236 0 235 359q0 213 -66.5 320.5t-189.5 107.5q-240 0 -239 -379 v-18z" />
<glyph unicode="&#xf3;" horiz-adv-x="1091" d="M76 663.5q0 227.5 127 360.5t333.5 133t330.5 -132t124 -359.5t-127 -360.5t-334.5 -133t-330.5 132t-123 359.5zM285 664q12 -390 260 -390q236 0 235 359q0 213 -66.5 320.5t-189.5 107.5q-240 0 -239 -379v-18zM510 1243l215 352q39 -2 84 -25.5t72 -49.5v-27 l-318 -283z" />
<glyph unicode="&#xf4;" horiz-adv-x="1091" d="M76 663.5q0 227.5 127 360.5t333.5 133t330.5 -132t124 -359.5t-127 -360.5t-334.5 -133t-330.5 132t-123 359.5zM240 1264l260 258h88l260 -258l-45 -45l-260 155l-256 -155zM285 664q12 -390 260 -390q236 0 235 359q0 213 -66.5 320.5t-189.5 107.5q-240 0 -239 -379 v-18z" />
<glyph unicode="&#xf5;" horiz-adv-x="1067" d="M76 663.5q0 227.5 127 360.5t333.5 133t330.5 -132t124 -359.5t-127 -360.5t-334.5 -133t-330.5 132t-123 359.5zM272 1278q29 235 181 235q47 0 120.5 -51t108.5 -51q74 0 94 92h64q-25 -233 -181 -233q-49 0 -120.5 51t-106.5 51q-76 0 -94 -94h-66zM285 664 q12 -390 260 -390q236 0 235 359q0 213 -66.5 320.5t-189.5 107.5q-240 0 -239 -379v-18z" />
<glyph unicode="&#xf6;" horiz-adv-x="1091" d="M76 663.5q0 227.5 127 360.5t333.5 133t330.5 -132t124 -359.5t-127 -360.5t-334.5 -133t-330.5 132t-123 359.5zM285 664q12 -390 260 -390q236 0 235 359q0 213 -66.5 320.5t-189.5 107.5q-240 0 -239 -379v-18zM287 1357q0 42 28.5 72.5t69.5 30.5t70.5 -30.5 t29.5 -72.5t-29.5 -73t-69.5 -31t-69.5 31t-29.5 73zM586 1357q0 42 28.5 72.5t69.5 30.5t70.5 -30.5t29.5 -72.5t-29.5 -73t-69.5 -31t-69.5 31t-29.5 73z" />
<glyph unicode="&#xf7;" horiz-adv-x="1284" d="M131 821v13h942l74 -146v-12h-942zM516 372.5q0 55.5 37 93.5t91 38t93 -38t39 -93.5t-39 -92t-93 -36.5t-91 36.5t-37 92zM516 1134.5q0 53.5 37 92.5t91 39t93 -39t39 -92.5t-39 -90t-93 -36.5t-91 36.5t-37 90z" />
<glyph unicode="&#xf8;" horiz-adv-x="1091" d="M76 76l119 141q-119 131 -119 353.5t132 355.5t337 133q166 0 286 -86l72 86h113l-121 -144q121 -133 121 -354t-133 -354t-338 -133q-168 0 -287 86l-72 -84h-110zM285 588q0 -133 32 -226l414 494q-66 106 -193.5 106.5t-190 -101t-62.5 -273.5zM356 279 q68 -102 197 -103q250 0 250 367q0 127 -31 227z" />
<glyph unicode="&#xf9;" horiz-adv-x="1163" d="M33 1001q0 37 10 72q160 63 305 76v-639q0 -94 45 -145.5t121 -51.5q150 0 242 203v408q0 109 -70 145q2 25 14 43q92 39 209 39q25 0 52 -2q-9 -74 -9 -191v-620q82 -8 129 -8q2 -20 2 -39v-31q-137 -61 -305 -74q-16 90 -20 199q-119 -213 -318 -213q-125 0 -206.5 83 t-81.5 234v512q-25 2 -54.5 2.5t-64.5 -2.5zM248 1503v31q27 25 73 48.5t82 25.5l218 -351l-56 -32z" />
<glyph unicode="&#xfa;" horiz-adv-x="1173" d="M33 1001q0 37 10 72q160 63 305 76v-639q0 -94 45 -145.5t121 -51.5q150 0 242 203v408q0 109 -70 145q2 25 14 43q92 39 209 39q25 0 52 -2q-9 -74 -9 -191v-620q82 -8 129 -8q2 -20 2 -39v-31q-137 -61 -305 -74q-16 90 -20 199q-119 -213 -318 -213q-125 0 -206.5 83 t-81.5 234v512q-25 2 -54.5 2.5t-64.5 -2.5zM541 1243l215 352q39 -2 84 -25.5t71 -49.5v-27l-317 -283z" />
<glyph unicode="&#xfb;" horiz-adv-x="1173" d="M33 1001q0 37 10 72q160 63 305 76v-639q0 -94 45 -145.5t121 -51.5q150 0 242 203v408q0 109 -70 145q2 25 14 43q92 39 209 39q25 0 52 -2q-9 -74 -9 -191v-620q82 -8 129 -8q2 -20 2 -39v-31q-137 -61 -305 -74q-16 90 -20 199q-119 -213 -318 -213q-125 0 -206.5 83 t-81.5 234v512q-25 2 -54.5 2.5t-64.5 -2.5zM270 1264l260 258h88l261 -258l-45 -45l-261 155l-256 -155z" />
<glyph unicode="&#xfc;" horiz-adv-x="1173" d="M33 1001q0 37 10 72q160 63 305 76v-639q0 -94 45 -145.5t121 -51.5q150 0 242 203v408q0 109 -70 145q2 25 14 43q92 39 209 39q25 0 52 -2q-9 -74 -9 -191v-620q82 -8 129 -8q2 -20 2 -39v-31q-137 -61 -305 -74q-16 90 -20 199q-119 -213 -318 -213q-125 0 -206.5 83 t-81.5 234v512q-25 2 -54.5 2.5t-64.5 -2.5zM317 1357q0 42 29 72.5t70 30.5t70.5 -30.5t29.5 -72.5t-29.5 -73t-69.5 -31t-70 31t-30 73zM616 1357q0 42 29 72.5t70 30.5t70.5 -30.5t29.5 -72.5t-29.5 -73t-69.5 -31t-70 31t-30 73z" />
<glyph unicode="&#xfd;" horiz-adv-x="1056" d="M-2 1106q0 16 2 24h463q8 -27 8 -75q-88 -4 -135 -23l233 -688q12 49 31 96l193 486q14 33 14 55.5t-10 36.5q-25 29 -113 37q-8 29 -8 47t2 28h387q2 -35 -14 -75q-47 -4 -90 -19l-453 -1044q-55 -135 -120 -199.5t-155 -64.5h-32q-23 66 -23 111.5t4 72.5h49 q78 0 121 29.5t82 111.5l43 92l-323 795q-25 59 -53.5 83t-96.5 32q-6 35 -6 51zM551 1241l215 352q39 -2 84 -25.5t72 -49.5v-27l-318 -283z" />
<glyph unicode="&#xfe;" horiz-adv-x="1122" d="M57 -339q0 22 11 46q72 8 101.5 29.5t29.5 77.5v1601q-20 2 -56.5 2t-85.5 -2q4 45 13 74q154 61 327 76v-672q80 166 249 166t283.5 -126t114.5 -367.5t-114.5 -367.5t-283.5 -126t-249 166v-494q72 -33 162 -37q0 -43 -6 -78h-494q-2 10 -2 32zM397 385 q25 -92 83.5 -142t139 -50t145 84.5t64.5 287.5t-64.5 288t-145 85t-139 -50t-83.5 -143v-360z" />
<glyph unicode="&#xff;" horiz-adv-x="1056" d="M-2 1106q0 16 2 24h463q8 -27 8 -75q-88 -4 -135 -23l233 -688q12 49 31 96l193 486q14 33 14 55.5t-10 36.5q-25 29 -113 37q-8 29 -8 47t2 28h387q2 -35 -14 -75q-47 -4 -90 -19l-453 -1044q-55 -135 -120 -199.5t-155 -64.5h-32q-23 66 -23 111.5t4 72.5h49 q78 0 121 29.5t82 111.5l43 92l-323 795q-25 59 -53.5 83t-96.5 32q-6 35 -6 51zM334 1357q0 42 28.5 72.5t69.5 30.5t70.5 -30.5t29.5 -72.5t-29.5 -73t-69.5 -31t-69.5 31t-29.5 73zM633 1357q0 42 28.5 72.5t69.5 30.5t70.5 -30.5t29.5 -72.5t-29.5 -73t-69.5 -31 t-69.5 31t-29.5 73z" />
<glyph unicode="&#x152;" horiz-adv-x="1849" d="M111 731q0 295 165.5 482.5t430.5 187.5q111 0 272 -29h733q2 -45 2 -124t-12 -179q-14 -4 -80 -4q-10 121 -43 172t-131 51h-311v-500l282 19h70v-123h-70l-282 12v-510h331q100 0 133 52.5t46 177.5q16 2 38.5 2t47.5 -6q8 -104 8 -183t-2 -131h-756q-180 -29 -293 -28 q-262 0 -420.5 183t-158.5 478zM342 791q0 -29 2 -60q25 -557 371 -557q129 0 223 74v979q-115 69 -246 69q-180 0 -270 -157q-80 -139 -80 -348z" />
<glyph unicode="&#x153;" horiz-adv-x="1716" d="M76 565.5q0 227.5 127 360.5t332 133q250 0 362 -203q63 100 161.5 151.5t198.5 51.5q154 0 256.5 -99.5t102.5 -295.5q-6 -25 -27 -50h-592v-34q0 -186 76 -280.5t213 -94.5t287 94l29 -55q-158 -172 -377 -172q-98 0 -190.5 48t-147.5 142q-113 -188 -355 -188 q-211 0 -333.5 132t-122.5 359.5zM285 565q12 -389 260 -389q236 0 235 359q0 213 -66.5 320.5t-189.5 107.5q-240 0 -239 -379v-19zM1006 694l215 15l192 2q-2 127 -50 186t-126 59t-144.5 -65.5t-86.5 -196.5z" />
<glyph unicode="&#x178;" d="M-2 1470h483q13 -36 13 -73q-121 -10 -121 -64q0 -25 18 -55l260 -473h6q18 61 58 125l274 444q-63 20 -121 23q0 29 9 73h346q0 -39 -9 -73q-59 -8 -88.5 -31t-64.5 -78l-346 -559v-432q61 -20 147 -25q0 -39 -6 -75h-498v27.5t7 47.5q72 10 103.5 31t31.5 74v336 l-385 663q-51 16 -109 21q-8 53 -8 73zM391 1697q0 42 29 72.5t69.5 30.5t70.5 -30.5t30 -72.5t-30 -73t-69.5 -31t-69.5 31t-30 73zM690 1697q0 42 29 72.5t69.5 30.5t70.5 -30.5t30 -72.5t-30 -73t-69.5 -31t-69.5 31t-30 73z" />
<glyph unicode="&#x2c6;" horiz-adv-x="649" d="M20 1165l261 258h88l260 -258l-45 -45l-260 156l-256 -156z" />
<glyph unicode="&#x2dc;" horiz-adv-x="634" d="M41 1180q28 235 180 235q49 0 121 -51t109 -51q74 0 94 92h63q-25 -233 -180 -234q-49 0 -120.5 51.5t-106.5 51.5q-76 0 -95 -94h-65z" />
<glyph unicode="&#x2000;" horiz-adv-x="974" />
<glyph unicode="&#x2001;" horiz-adv-x="1948" />
<glyph unicode="&#x2002;" horiz-adv-x="974" />
<glyph unicode="&#x2003;" horiz-adv-x="1948" />
<glyph unicode="&#x2004;" horiz-adv-x="649" />
<glyph unicode="&#x2005;" horiz-adv-x="487" />
<glyph unicode="&#x2006;" horiz-adv-x="324" />
<glyph unicode="&#x2007;" horiz-adv-x="324" />
<glyph unicode="&#x2008;" horiz-adv-x="243" />
<glyph unicode="&#x2009;" horiz-adv-x="389" />
<glyph unicode="&#x200a;" horiz-adv-x="108" />
<glyph unicode="&#x2010;" horiz-adv-x="1175" d="M131 821v13h825l72 -146v-12h-823z" />
<glyph unicode="&#x2011;" horiz-adv-x="1175" d="M131 821v13h825l72 -146v-12h-823z" />
<glyph unicode="&#x2012;" horiz-adv-x="1175" d="M131 821v13h825l72 -146v-12h-823z" />
<glyph unicode="&#x2013;" horiz-adv-x="1257" d="M131 821v13h981l74 -146v-12h-981z" />
<glyph unicode="&#x2014;" horiz-adv-x="1458" d="M131 821v13h1079l74 -146v-12h-1079z" />
<glyph unicode="&#x2018;" horiz-adv-x="509" d="M145 1479q6 166 152 360l100 -45q-109 -162 -112 -258q0 -125 129 -190v-13l-80 -133q-193 80 -189 279z" />
<glyph unicode="&#x2019;" horiz-adv-x="507" d="M100 1694v12l78 133q189 -78 189 -264v-12q-2 -170 -152 -363l-98 47q109 156 112 258q0 121 -129 189z" />
<glyph unicode="&#x201a;" horiz-adv-x="507" d="M100 281v10l78 133q100 -39 144.5 -108.5t44.5 -151.5v-14q-2 -172 -152 -361l-98 45q111 160 110.5 270.5t-127.5 176.5z" />
<glyph unicode="&#x201c;" horiz-adv-x="829" d="M139 1444v16q4 168 152 363l100 -45q-113 -156 -112.5 -267.5t127.5 -181.5v-12l-78 -131q-189 76 -189 258zM459 1442q0 180 151 381l101 -45q-111 -160 -111 -269.5t127 -179.5v-12l-78 -131q-190 76 -190 256z" />
<glyph unicode="&#x201d;" horiz-adv-x="829" d="M100 1679v11l80 133q187 -74 187 -260v-17q-2 -172 -152 -360l-98 45q109 160 112 258q0 121 -129 190zM420 1679v11l78 133q190 -74 190.5 -256t-151.5 -381l-101 45q113 160 113 270.5t-129 177.5z" />
<glyph unicode="&#x201e;" horiz-adv-x="829" d="M100 281v10l80 133q187 -74 187 -260v-17q-2 -172 -152 -360l-98 45q109 160 112 258q0 121 -129 191zM420 281v10l78 133q190 -74 190.5 -256t-151.5 -381l-101 45q113 160 113 270.5t-129 178.5z" />
<glyph unicode="&#x2022;" horiz-adv-x="657" d="M178 747.5q0 63.5 43 108.5t106.5 45t108.5 -45t45 -108.5t-45 -106.5t-108.5 -43t-106.5 43t-43 106.5z" />
<glyph unicode="&#x2026;" horiz-adv-x="1349" d="M166 208q0 50 35 86t86 36t88 -36t37 -86t-37 -86t-88 -36t-86 36t-35 86zM553 208q0 50 35 86t86 36t88 -36t37 -86t-37 -86t-88 -36t-86 36t-35 86zM934 208q0 50 36 86t87 36t86 -36t35 -86t-35 -86t-86 -36t-87 36t-36 86z" />
<glyph unicode="&#x202f;" horiz-adv-x="389" />
<glyph unicode="&#x2039;" horiz-adv-x="849" d="M199 754l344 387l80 -41l-248 -346l248 -348l-80 -44z" />
<glyph unicode="&#x203a;" horiz-adv-x="849" d="M225 504l248 348l-248 346l80 41l344 -387l-344 -391z" />
<glyph unicode="&#x205f;" horiz-adv-x="487" />
<glyph unicode="&#x20ac;" horiz-adv-x="1144" d="M51 809q0 51 21 94h149q39 233 174 364.5t323.5 131.5t344.5 -150l-33 -65q-125 76 -260 76t-220 -91.5t-114 -265.5h422q2 -43 -20 -94h-414l-2 -74q0 -31 4 -84h426v-30.5t-21 -63.5h-393q31 -168 116 -257t216 -89t260 98l39 -51q-152 -186 -360 -186 q-178 0 -311.5 128t-174.5 357h-170q0 43 21 94h139q-4 53 -4 93t2 65h-160z" />
<glyph unicode="&#x2122;" horiz-adv-x="1665" d="M57 1286q0 41 6 86h570q4 -35 4 -79t-2 -87q-18 -6 -45 -6q-6 68 -26.5 92.5t-71.5 24.5h-84v-590q39 -16 96 -16q0 -37 -4 -52h-310q0 35 7 52q53 4 73.5 14t20.5 39v553h-88q-49 0 -70.5 -24.5t-26.5 -88.5q-20 -8 -45 2q-4 39 -4 80zM670 659q0 29 6 52q80 6 82 57 l37 547q-41 10 -78 10q-4 31 4 47h219l180 -512l203 512h205q8 -18 8 -47q-43 -4 -59.5 -15.5t-14.5 -41.5l37 -545q35 -12 82 -12q2 -15 2 -27t-2 -25h-278q-6 27 0 52q78 6 77 53l-22 493l-236 -598h-37l-219 603l-39 -539q33 -12 86 -12q-4 -37 -8 -52h-235z" />
<glyph unicode="&#x25fc;" horiz-adv-x="1034" d="M0 0v1034h1034v-1034h-1034z" />
</font>
</defs>
</svg>
