<?xml version="1.0" standalone="no"?>
<!DOCTYPE svg PUBLIC "-//W3C//DTD SVG 1.1//EN" "http://www.w3.org/Graphics/SVG/1.1/DTD/svg11.dtd" >
<svg xmlns="http://www.w3.org/2000/svg" xmlns:xlink="http://www.w3.org/1999/xlink" version="1.1">
<metadata></metadata>
<defs>
<font id="halantbold" horiz-adv-x="1458" >
<font-face units-per-em="2048" ascent="1638" descent="-410" />
<missing-glyph horiz-adv-x="512" />
<glyph unicode="&#xfb01;" horiz-adv-x="1380" d="M49 92v48t10 69q63 10 96 35.5t33 85.5v547q-37 8 -114 8q-2 18 -2 44.5t6 57.5q55 29 110 41v105q0 203 128 313t350.5 110t382 -80.5t159.5 -189.5q0 -68 -51 -109.5t-116.5 -41.5t-106.5 29.5t-68.5 72.5t-56.5 86q-68 100 -170 100h-8q-125 -2 -125 -159v-232 q420 6 684 23v-826q49 -20 115 -20v-41t-9 -76h-563v48t10 69q63 10 96 35.5t33 85.5v559h-366v-649q51 -31 135 -31v-41t-8 -76h-584z" />
<glyph unicode="&#xfb02;" horiz-adv-x="1378" d="M49 92v48t10 69q63 10 96 35.5t33 85.5v547q-37 8 -114 8q-2 18 -2 44.5t6 57.5q55 29 110 41v90q0 129 57.5 222.5t157.5 142.5q188 92 453 92q180 0 332 -43v-1303q49 -20 115 -20q2 -10 2 -36t-11 -81h-563v48t10 69q63 10 96 35.5t33 85.5v1028q-80 49 -176 49 q-188 0 -188 -158v-215q133 4 244 21q0 -102 -21 -166h-223v-660q49 -20 115 -20v-36t-9 -81h-563z" />
<glyph horiz-adv-x="0" />
<glyph horiz-adv-x="682" />
<glyph horiz-adv-x="0" />
<glyph horiz-adv-x="0" />
<glyph unicode="&#xd;" horiz-adv-x="681" />
<glyph unicode=" "  horiz-adv-x="512" />
<glyph unicode="&#x09;" horiz-adv-x="512" />
<glyph unicode="&#xa0;" horiz-adv-x="512" />
<glyph unicode="!" horiz-adv-x="897" d="M295 205.5q0 62.5 46 108.5t108.5 46t108.5 -46t46 -108.5t-46 -108.5t-108.5 -46t-108.5 46t-46 108.5zM311 1425h21l246 -92l-50 -846h-18l-143 74z" />
<glyph unicode="&#x22;" horiz-adv-x="856" d="M145 1655h244l-63 -477h-115zM469 1655h242l-62 -477h-117z" />
<glyph unicode="#" horiz-adv-x="1382" d="M66 397v189h268l69 348h-266v186h305l60 295h203l-60 -295h266l60 295h203l-60 -295h211v-186h-248l-71 -348h247v-189h-284l-62 -305h-205l62 305h-264l-62 -305h-205l62 305h-229zM537 586h266l69 348h-264z" />
<glyph unicode="$" horiz-adv-x="911" d="M10 252l152 233q47 -63 138 -119.5t176 -56.5t125 38t40 90t-31.5 86t-64.5 49.5t-111 44t-132 56t-109 72.5q-111 86 -111 241t96 247t234 108v134h137v-138q143 -23 272 -127l-143 -200q-37 49 -99.5 84.5t-123 35.5t-100.5 -25.5t-40 -76.5q0 -43 17.5 -60.5t30 -27.5 t39 -22.5t47.5 -20.5q61 -29 164.5 -71t180 -120.5t76.5 -203.5q0 -172 -99 -273.5t-241 -122.5v-135h-137v135q-199 18 -383 146z" />
<glyph unicode="%" horiz-adv-x="1644" d="M82 1020q0 139 72.5 230t208 91t207 -91t71.5 -232t-70.5 -234.5t-207 -93.5t-209 95.5t-72.5 234.5zM264 1010q0 -78 26.5 -123t69.5 -45q98 0 99 168q0 88 -24.5 122.5t-74.5 34.5q-96 1 -96 -157zM303 92l795 1249h262l-793 -1249h-264zM1040 421q0 140 72 230t207 90 t206.5 -91t71.5 -232.5t-69.5 -234.5t-205.5 -93t-209 95.5t-73 235.5zM1223 414q0 -84 25.5 -128t70.5 -44t70.5 42t25.5 126q0 158 -96 157q-49 0 -72.5 -34.5t-23.5 -118.5z" />
<glyph unicode="&#x26;" horiz-adv-x="1503" d="M61 403q0 111 76 198t209 175q-137 160 -137 264q0 172 126 291t269.5 119t246.5 -79t103 -200q0 -88 -90 -176q-82 -82 -205 -170q104 -109 283 -252q68 113 141 324h369l-78 -256h-258q-41 -96 -69 -152q158 -121 344 -253l-189 -164q-82 57 -289 209 q-172 -215 -424 -215q-168 0 -298 99t-130 238zM325.5 520q0.5 -78 85.5 -131t182 -53t181 51q-201 158 -336 291q-113 -80 -112.5 -158zM440 1176q0 -98 125 -250q131 106 131 194q0 59 -44.5 101.5t-112.5 42.5q-98 0 -99 -88z" />
<glyph unicode="'" horiz-adv-x="518" d="M133 1655h244l-64 -477h-114z" />
<glyph unicode="(" horiz-adv-x="808" d="M160 795.5q0 308.5 131 590t403 492.5l129 -106q-196 -183 -293.5 -446t-97.5 -530.5t97.5 -529.5t293.5 -444l-129 -107q-272 211 -403 491.5t-131 589z" />
<glyph unicode=")" horiz-adv-x="811" d="M-14 -178q197 182 294 444t97 529.5t-97.5 530.5t-293.5 446l131 106q270 -211 402 -492.5t132 -590t-132 -589t-402 -491.5z" />
<glyph unicode="*" horiz-adv-x="978" d="M106 1085q0 51 20.5 133t45.5 111l236 -127l-54 266q37 14 76 15q123 0 172 -15l-53 -270l239 131q25 -31 46.5 -115t21.5 -129l-276 -14l202 -180q-23 -37 -92 -86t-112 -57l-97 235l-94 -231q-45 10 -115.5 59t-89.5 86l195 174z" />
<glyph unicode="+" horiz-adv-x="1388" d="M154 815v21h415v413h19l233 -184v-229h307l107 -215v-19h-414v-416h-18l-234 185v231h-309z" />
<glyph unicode="," horiz-adv-x="651" d="M162 178v17l121 198q223 -80 223 -309q2 -117 -52.5 -242t-131.5 -211l-146 68q125 162 123 282.5t-137 196.5z" />
<glyph unicode="-" horiz-adv-x="1288" d="M154 815v21h862l106 -215v-19h-862z" />
<glyph unicode="." horiz-adv-x="544" d="M96 241.5q0 71.5 51.5 124t123 52.5t123.5 -52.5t52 -124t-52 -123.5t-122.5 -52t-123 52t-52.5 123.5z" />
<glyph unicode="/" horiz-adv-x="937" d="M82 -127l450 1782h252l-450 -1782h-252z" />
<glyph unicode="0" horiz-adv-x="1173" d="M82 753.5q0 333.5 137 516t365.5 182.5t368 -182.5t139.5 -516t-139.5 -510.5t-368 -177t-365.5 177t-137 510.5zM428 952q0 -487 33 -624q27 -117 130 -117t130 117q23 102 22 348q0 399 -28 500q-29 96 -74 116q-27 12 -66 13q-100 0 -124 -119q-23 -96 -23 -234z" />
<glyph unicode="1" horiz-adv-x="753" d="M20 92v47t13 70q98 10 149 35.5t51 85.5v827l-200 -33q-2 14 -2 41t10 47q248 156 444 252l66 -26v-1188q67 -31 178 -41q2 -12 2 -41t-10 -76h-701z" />
<glyph unicode="2" horiz-adv-x="1044" d="M102 303q340 358 379 417.5t72 117.5q49 90 49 186t-46 147.5t-116 51.5q-141 0 -182 -179q-16 -2 -40.5 -2t-59.5 5q-2 51 -2 127.5t10 160.5q162 115 358.5 115t306 -107.5t109.5 -269.5q0 -78 -23.5 -128t-40 -78.5t-53.5 -69.5t-63.5 -70t-83.5 -80l-98 -88 q-39 -35 -118 -103.5t-132 -115.5h393q76 0 114.5 38t59.5 144q33 0 70 -16q0 -246 -58 -414h-782q-23 131 -23 211z" />
<glyph unicode="3" horiz-adv-x="991" d="M68 223q33 88 82 119q113 -78 256 -78q90 0 145 50.5t55 141.5t-69.5 148.5t-196.5 57.5v126q111 18 166 85t55 156t-42 141.5t-108.5 52.5t-120.5 -46.5t-73 -132.5q-16 -2 -40.5 -2t-59.5 5q-2 51 -2 127.5t10 160.5q184 115 401 115q156 0 264.5 -91t108.5 -222 q0 -92 -63.5 -179.5t-182.5 -150.5q262 -98 262 -340q0 -168 -134 -284.5t-330.5 -116.5t-382.5 157z" />
<glyph unicode="4" horiz-adv-x="1081" d="M47 545l633 878h162v-850h182q12 -57 12 -97t-4 -66h-190v-181q47 -23 125 -22v-41t-9 -74h-530v48t10 67q66 10 97.5 34.5t31.5 88.5v80h-458q-47 70 -62 135zM262 573h305v406z" />
<glyph unicode="5" horiz-adv-x="993" d="M41 223q37 82 82 119q113 -78 256 -78q96 0 158.5 65.5t62.5 175t-56.5 172t-145.5 62.5t-214 -73l-43 20l72 717h426q131 0 174 102q33 0 70 -16q-2 -152 -58 -334h-475l-28 -276q119 53 252 53t235 -101.5t102 -277.5q0 -215 -142 -351t-353 -136t-375 157z" />
<glyph unicode="6" horiz-adv-x="1071" d="M94 594q0 176 86 356t239.5 316.5t340.5 208.5q98 -57 94 -119q-305 -133 -416 -488q102 45 230.5 45t232.5 -88q119 -98 119 -285.5t-137.5 -330.5t-325.5 -143t-317 131q-145 145 -146 397zM397 600q0 -205 49.5 -288t115 -83t113.5 73t48 175q0 127 -65.5 194.5 t-151.5 67.5q-53 0 -98 -16q-10 -70 -11 -123z" />
<glyph unicode="7" horiz-adv-x="923" d="M86 991q0 276 18 412h723q53 -92 66 -197l-434 -1114q-33 -4 -86.5 -4t-136.5 21l342 829l108 217h-350q-74 0 -113 -39t-59 -143q-47 0 -78 18z" />
<glyph unicode="8" horiz-adv-x="1118" d="M82 408q0 111 84 190.5t227 157.5q-293 160 -293 323.5t139.5 267t338 103.5t319.5 -96.5t121 -241.5q0 -94 -60.5 -164.5t-185.5 -144.5q264 -162 264 -369q0 -143 -138 -255.5t-344 -112.5t-339 102t-133 240zM377 387q0 -72 47 -120t127 -48t130 53.5t50 139.5 q0 162 -186 268q-168 -109 -168 -293zM412 1141q0 -139 196 -248q117 109 117 215q0 74 -36 131t-119 57t-120.5 -43t-37.5 -112z" />
<glyph unicode="9" horiz-adv-x="1019" d="M41 986q0 188 130 328t318.5 140t321.5 -131q160 -156 160 -421t-160 -484q-188 -260 -475 -373q-98 57 -98 119q301 133 397 487q-100 -45 -228 -45t-237 88q-129 104 -129 292zM340 1059q0 -141 68.5 -210t154.5 -69q51 0 101 17q4 47 4 98t-9.5 148.5t-56.5 172 t-112.5 74.5t-107.5 -69.5t-42 -161.5z" />
<glyph unicode=":" horiz-adv-x="692" d="M170 210q0 73 52 126t125 53t125 -53t52 -126t-52 -124t-125 -51t-125 51t-52 124zM170 1057.5q0 72.5 52 125t126 52.5t125 -52.5t51 -125t-52 -124.5t-125 -52t-125 52t-52 124.5z" />
<glyph unicode=";" horiz-adv-x="692" d="M170 1017q0 73 52 125t125 52t125 -52t52 -125t-52 -124t-125 -51t-125 51t-52 124zM195 172v18l122 197q223 -82 224 -309q2 -115 -52.5 -240t-132.5 -213l-145 68q125 168 124 285.5t-140 193.5z" />
<glyph unicode="&#x3c;" horiz-adv-x="1349" d="M170 784l838 424l174 -223l-660 -348l637 -264l-80 -142l-766 322z" />
<glyph unicode="=" horiz-adv-x="1363" d="M150 586v22h980l105 -215v-20h-979zM150 1047v22h980l105 -215v-20h-979z" />
<glyph unicode="&#x3e;" horiz-adv-x="1433" d="M215 455l659 348l-636 264l79 141l768 -319l142 -232l-838 -426z" />
<glyph unicode="?" horiz-adv-x="1148" d="M182 1341q125 119 304.5 119t323.5 -121.5t144 -285.5q0 -156 -161 -262q-61 -41 -172 -91v-221h-19l-168 80v311q16 8 63.5 30t71 34t62.5 36.5t58.5 46t34.5 54.5t15 74t-35.5 70.5t-95.5 29.5q-123 0 -264 -106zM383 202.5q0 63.5 45 109.5t108.5 46t109.5 -46 t46 -109.5t-46 -108.5t-109.5 -45t-108.5 45t-45 108.5z" />
<glyph unicode="@" horiz-adv-x="2033" d="M123 514q0 385 261 647t654.5 262t633 -234.5t239.5 -574.5q0 -279 -147.5 -413.5t-357.5 -134.5t-276 139q-51 -72 -114.5 -105.5t-175 -33.5t-187 72.5t-75.5 193.5q0 164 157 254q135 76 314 76q29 0 57 -3v48q0 137 -158 137q-109 0 -235 -41l-64 96q180 162 432 162 q170 0 254 -89t84 -255v-318q0 -152 88 -151q57 0 103 47q84 86 84 338t-168 428t-483.5 176t-509 -197.5t-193.5 -515t195.5 -502t531.5 -184.5q-2 -80 -53 -164q-203 0 -373 70t-281.5 186.5t-174 268t-62.5 315.5zM915 380.5q0 -61.5 24 -92t76 -30.5t91 51v232 q-86 -2 -138.5 -50.5t-52.5 -110z" />
<glyph unicode="A" horiz-adv-x="1335" d="M0 92v42t6 75q61 18 93 49t53 86l350 1077q125 25 329 29l349 -1112q25 -74 54.5 -100.5t98.5 -28.5q0 -35 -8 -117h-633q0 74 6 117q98 23 158 51l-86 291h-377l-92 -315q47 -27 166 -27q0 -61 -8 -117h-459zM436 692h291l-149 504l-15 -72z" />
<glyph unicode="B" horiz-adv-x="1353" d="M82 1349.5q0 26.5 10 73.5h537q293 0 431 -99t138 -261q0 -186 -182 -272q233 -84 233 -330q0 -178 -149.5 -273.5t-442.5 -95.5h-569v48t10 69q63 10 96 35.5t33 87.5v954q-53 23 -143 23q-2 14 -2 40.5zM555 221h88q272 0 272 240.5t-272 240.5h-88v-481zM555 831h143 q72 31 118 93.5t46 156t-63.5 154.5t-169.5 61h-74v-465z" />
<glyph unicode="C" horiz-adv-x="1286" d="M102 746.5q0 322.5 205 514t510 191.5q266 0 395 -74q-8 -180 -47 -389q-98 0 -104 2q-6 129 -70.5 209t-200 80t-236.5 -130t-101 -379t111.5 -372t294.5 -123t308 89l72 -82q-86 -96 -219.5 -156.5t-276.5 -60.5q-262 0 -451.5 179t-189.5 501.5z" />
<glyph unicode="D" d="M82 1349.5q0 26.5 10 73.5h594q305 0 502.5 -175t197.5 -490.5t-188 -490.5t-479 -175h-631v48t10 69q63 10 96 35.5t33 87.5v954q-53 23 -143 23q-2 14 -2 40.5zM555 221h104q186 0 281.5 137.5t95.5 399.5q0 538 -392 538h-1h-88v-1075z" />
<glyph unicode="E" horiz-adv-x="1224" d="M80 1309v41.5t10 72.5h1047v-146t-13 -235q-49 -4 -137 -4q-14 152 -33 189q-31 69 -124 69h-3h-274v-473l270 29h90v-180h-90l-270 18v-469h276q76 0 115 45q16 18 28.5 60t16.5 67l10 99v6q23 2 64 2t80 -11q10 -135 10 -235t-2 -162h-1067v47t12 70q63 10 96 35.5 t33 87.5v954q-51 23 -145 23z" />
<glyph unicode="F" horiz-adv-x="1167" d="M80 1309v41.5t10 72.5h1047v-146t-13 -235q-49 -4 -137 -4q-14 152 -33 189q-31 69 -124 69h-3h-274v-514l270 29h90v-180h-90l-270 18v-401q104 -31 219 -39v-41t-8 -76h-678v48t10 69q63 10 96 35.5t33 85.5v956q-51 23 -145 23z" />
<glyph unicode="G" horiz-adv-x="1464" d="M102 750.5q0 314.5 217.5 508t511.5 193.5q248 0 478 -72q-10 -176 -49 -376h-34t-71 2q-29 129 -113 200.5t-213 71.5q-168 0 -272 -133t-104 -389t98 -387t272 -131q92 0 181 41v333q-68 23 -181 23q0 78 8 129h603v-48t-11 -81q-88 -25 -112.5 -50.5t-24.5 -74.5v-418 h-176l-43 55q-148 -81 -309 -81h-4q-272 0 -462 185t-190 499.5z" />
<glyph unicode="H" horiz-adv-x="1583" d="M80 1309v41.5t10 72.5h602v-48t-10 -66q-63 -10 -96 -36t-33 -87v-355h473v455q-51 23 -143 23v40.5t8 73.5h604v-48t-10 -66q-66 -10 -97.5 -36t-31.5 -87v-957q47 -20 143 -20q2 -12 2 -41t-10 -76h-604v48t10 69q66 10 97.5 35.5t31.5 87.5v342h-473v-445 q47 -20 143 -20q2 -12 2 -41t-10 -76h-604v47t12 70q63 10 96 35.5t33 87.5v954q-51 23 -145 23z" />
<glyph unicode="I" horiz-adv-x="782" d="M80 1309v41.5t10 72.5h602v-48t-10 -66q-63 -10 -96 -36t-33 -87v-957q47 -20 143 -20q2 -12 2 -41t-10 -76h-604v47t12 70q63 10 96 35.5t33 87.5v954q-51 23 -145 23z" />
<glyph unicode="J" horiz-adv-x="770" d="M-43 -244q160 90 215 196.5t55 303.5v1030q-51 23 -145 23v41.5t10 72.5h602v-48t-10 -66q-63 -10 -96 -36t-33 -87v-930q0 -233 -139.5 -380.5t-366.5 -213.5q-53 39 -92 94z" />
<glyph unicode="K" horiz-adv-x="1622" d="M80 1309v41.5t10 72.5h602v-48t-10 -66q-63 -10 -96 -36t-33 -87v-402l522 502q-47 25 -139 25q-6 20 -6 49t14 63h498q0 -78 -6 -112q-127 0 -236 -101l-352 -331q68 -27 135 -129l266 -414q47 -76 86 -99.5t111 -27.5q2 -14 2 -42t-12 -75h-435l-335 522q-25 39 -52 45 l-61 -57v-373q47 -20 143 -20q2 -12 2 -41t-10 -76h-604v47t12 70q63 10 96 35.5t33 87.5v954q-51 23 -145 23z" />
<glyph unicode="L" horiz-adv-x="1173" d="M82 1349.5q0 26.5 10 73.5h602q2 -16 2 -44.5t-12 -69.5q-63 -10 -96 -36t-33 -87v-967h293q63 0 97 36t41 67.5t12.5 87t7.5 67.5q43 0 116 -6q14 -164 14 -252q0 -18 1 -33q0 -63 -2 -94h-1047v48t10 69q63 10 96 35.5t33 87.5v954q-47 23 -143 23q-2 14 -2 40.5z" />
<glyph unicode="M" horiz-adv-x="1894" d="M61 92q4 86 13 117q41 8 63.5 15t46 35t25.5 71l41 958q-61 23 -123 23v33.5t14 78.5h535l254 -764l299 764h522q4 -29 4 -57.5t-2 -54.5q-100 -18 -117 -66q-8 -23 -6 -55l41 -969q51 -12 160 -12q4 -29 4 -59.5t-2 -57.5h-664q-4 33 -4 62.5t2 54.5q119 20 150 59 q23 27 22 64v846l-426 -1086h-88l-381 1082l-53 -951q49 -14 152 -14q-4 -66 -15 -117h-467z" />
<glyph unicode="N" horiz-adv-x="1581" d="M98 1311q4 74 15 112h442l485 -614l111 -162v639q-51 23 -143 23v40.5t8 73.5h452v-48t-10 -66q-63 -10 -96 -36t-33 -87v-1094h-139l-625 791l-137 196v-850q47 -20 143 -20q2 -12 2 -41t-10 -76h-452v48t10 69q63 10 96 35.5t33 87.5v966q-45 12 -152 13z" />
<glyph unicode="O" d="M102 753.5q0 311.5 174.5 505t451 193.5t453.5 -193.5t177 -504t-177 -501t-453.5 -190.5t-451 189.5t-174.5 501zM496 776q0 -322 60 -451.5t179 -129.5t174.5 124.5t55.5 415.5q0 319 -63.5 452.5t-182.5 133.5t-171 -129t-52 -416z" />
<glyph unicode="P" horiz-adv-x="1251" d="M82 1349.5q0 26.5 10 73.5h592q242 0 397.5 -109.5t155.5 -285.5t-154.5 -283.5t-396.5 -107.5h-131v-389q72 -31 178 -39v-42t-10 -75h-635v48t10 69q63 10 96 35.5t33 87.5v954q-53 23 -143 23q-2 14 -2 40.5zM555 764h74q123 0 190.5 69.5t67.5 196.5t-66.5 195.5 t-191.5 68.5h-74v-530z" />
<glyph unicode="Q" d="M102 754q0 311 174.5 504.5t451 193.5t453.5 -193.5t177 -493.5t-166 -502t-416 -230q70 -12 216.5 -65.5t231.5 -53.5t140 45t66 119l53 -6q2 -27 2 -65t-8.5 -100.5t-37 -133t-86 -115.5t-138 -45t-161.5 42t-136 93q-145 135 -259 135t-133 -127h-53q-35 70 -35 144.5 t32 112.5t97 69q-213 53 -339 231.5t-126 440.5zM494 842q0 -41 2 -129t11 -174t33.5 -167t73 -121t121 -40t121.5 39q109 92 109 457q0 461 -125 559q-49 39 -122 39t-120 -39q-104 -90 -104 -424z" />
<glyph unicode="R" horiz-adv-x="1437" d="M80 1309v41.5t10 72.5h635q238 0 374 -95t136 -267q0 -121 -70.5 -206t-201.5 -126q66 -39 116 -139l119 -238q39 -78 77 -104.5t99 -26.5q0 -68 -12 -129h-399l-254 539q-31 67 -89 67h-2h-65v-452q78 -29 176 -37q2 -10 2 -36t-10 -81h-637v47t12 70q63 10 96 35.5 t33 87.5v954q-51 23 -145 23zM553 825h117q100 0 158.5 58.5t58.5 177.5t-58.5 176t-158.5 57h-117v-469z" />
<glyph unicode="S" horiz-adv-x="1122" d="M131 1077q0 178 130 276.5t314.5 98.5t389.5 -59q0 -154 -29 -359q-55 0 -107 6q-37 268 -233 269q-82 0 -137.5 -39t-55.5 -106.5t47.5 -122t117 -88t151.5 -78t151.5 -90.5t116.5 -128t47 -188q0 -186 -144.5 -296t-342.5 -110q-139 0 -412 64q-2 45 -2 143.5t19 274.5 q59 0 137 -13v-18q0 -299 268 -299q88 0 138 38t50 108.5t-45 126t-113.5 90t-148.5 79.5t-148.5 93.5t-113.5 132.5t-45 194z" />
<glyph unicode="T" horiz-adv-x="1208" d="M16 1226q0 91 15 197h1143q12 -96 12 -188t-4 -166q-31 -12 -61.5 -12t-49.5 2q-10 133 -52 184t-126 51h-127v-1065q55 -20 141 -20v-41t-8 -76h-598v47t12 70q61 10 93 35.5t32 87.5v962h-127q-84 0 -126 -51t-52 -184q-18 -2 -48 -2t-65 12q-4 66 -4 157z" />
<glyph unicode="U" horiz-adv-x="1492" d="M41 1346.5q0 25.5 10 76.5h602v-48t-10 -66q-63 -10 -96 -36t-33 -87v-680q0 -156 61.5 -221.5t174.5 -65.5q238 0 237 287v780q-51 23 -143 23v40.5t8 73.5h604v-48t-10 -66q-66 -10 -97.5 -36t-31.5 -87v-680q0 -227 -151.5 -333.5t-416 -106.5t-414 106.5 t-149.5 333.5v780q-51 23 -143 23q-2 12 -2 37.5z" />
<glyph unicode="V" horiz-adv-x="1392" d="M-8 1386.5v36.5h643q8 -29 8 -60.5t-2 -51.5q-149 -12 -149 -87q0 -26 14 -59l250 -573q25 -57 41 -135h8l334 823q-82 29 -158 31q0 86 6 112h416q-6 -55 -21 -112q-94 -20 -137 -121l-479 -1110h-129l-524 1210q-43 19 -111 21q-10 49 -10 75.5z" />
<glyph unicode="W" horiz-adv-x="2023" d="M10 1382.5q0 26.5 2 40.5h654q14 -59 14 -112q-102 -8 -128 -35t-26 -54.5t11 -56.5l174 -512q18 -49 24 -121h6l365 830h129l252 -692q29 -78 31 -138h6l243 754q-78 23 -120 25q4 61 14 112h352v-37.5t-6 -74.5q-51 -10 -82 -37t-49 -84l-387 -1110h-129l-322 823 l-366 -823h-129l-414 1212q-47 14 -111 19q-8 45 -8 71.5z" />
<glyph unicode="X" horiz-adv-x="1316" d="M6 1379.5q0 27.5 4 43.5h570q8 -33 8 -112q-57 -8 -73.5 -32t3.5 -44l221 -322l275 383q-55 10 -105 13q-8 39 -8 68.5v45.5h402q0 -68 -21 -114q-100 0 -168 -92l-297 -416l395 -576q31 -12 88 -16q8 -37 8.5 -66.5t-1.5 -50.5h-570q-8 29 -8 117q78 14 78 47 q0 10 -8 25l-217 313l-267 -375q37 -6 103 -10q10 -45 10 -72.5t-2 -44.5h-399v40t18 77h8q90 0 160 92l293 404l-408 589q-39 12 -84 17q-8 41 -8 68.5z" />
<glyph unicode="Y" horiz-adv-x="1382" d="M10 1423h658q14 -68 14 -112q-135 -12 -135 -82q0 -29 20 -64l211 -387h8q23 82 80 178l195 338q-41 14 -107 17q4 61 15 112h401q-4 -59 -16 -112q-90 -12 -125 -62q-14 -18 -41 -59l-316 -526v-441q47 -14 160 -14q0 -66 -8 -117h-662v42t7 75q45 8 68.5 15t49 35 t25.5 73v332l-379 632q-49 14 -77.5 14.5t-35.5 0.5q-10 68 -10 112z" />
<glyph unicode="Z" horiz-adv-x="1165" d="M90 238l598 1024h-344q-74 0 -112.5 -39t-61.5 -146q-39 0 -78 17q0 193 19 329h938q20 -55 20 -96v-49l-598 -1022h363q76 0 114.5 38t57.5 144q45 0 77 -18q0 -203 -16 -328h-956q-20 57 -20.5 98t-0.5 48z" />
<glyph unicode="[" horiz-adv-x="741" d="M162 -16v1826h526l160 -239h-414v-1587h254l160 -238h-481z" />
<glyph unicode="\" horiz-adv-x="911" d="M82 1655h254l448 -1782h-249z" />
<glyph unicode="]" horiz-adv-x="661" d="M-111 -16h414v1587h-256l-158 239h482l204 -239v-1823h-528z" />
<glyph unicode="^" horiz-adv-x="1089" d="M102 551l363 799q45 8 89 8t89 -8l363 -799q-70 -37 -185 -49l-276 590l-275 -590q-88 6 -168 49z" />
<glyph unicode="_" horiz-adv-x="1288" d="M154 397v21h862l106 -215v-19h-862z" />
<glyph unicode="`" horiz-adv-x="454" d="M20 1425v43q35 35 101 68t117 33l196 -379l-82 -49z" />
<glyph unicode="a" horiz-adv-x="1044" d="M49 332q0 213 287 270l239 47v62q0 133 -155 133q-113 0 -236 -41l-65 96q182 164 432 164q170 0 255 -90t85 -256v-363q0 -100 63 -100q10 0 76 12l29 -69q-55 -66 -107.5 -98.5t-130.5 -32.5t-144.5 31.5t-90.5 86.5q-94 -119 -235 -119l-1 1q-142 0 -221.5 74.5 t-79.5 191.5zM387 358q0 -45 23.5 -72.5t74 -27.5t90.5 49v225l-57 -18q-131 -41 -131 -156z" />
<glyph unicode="b" horiz-adv-x="1155" d="M-12 1374q4 76 20 115q197 70 434 78v-633q88 129 258 129t289 -131t119 -360.5t-158.5 -365.5t-390.5 -136q-160 0 -283 96q-61 -63 -141 -94l-47 47q37 102 37 229v1024q-23 4 -60.5 4t-76.5 -2zM442 238q55 -29 133 -29t135.5 89t57.5 271.5t-51 251t-112.5 68.5 t-105.5 -43t-57 -121v-487z" />
<glyph unicode="c" horiz-adv-x="917" d="M49 545.5q0 232.5 156.5 375t380.5 142.5q135 0 268 -57q-2 -109 -33 -297q-39 0 -76 10q-10 90 -55 141t-110 51q-193 0 -193 -326.5t207 -326.5q111 0 262 59l47 -73q-78 -80 -185 -129t-218 -49q-174 0 -312.5 123.5t-138.5 356z" />
<glyph unicode="d" horiz-adv-x="1212" d="M49 547.5q0 234.5 168 375t438 140.5h31v309q-23 4 -60.5 4t-76.5 -2q4 74 18 115q201 70 437 78v-1213q0 -100 61 -100q10 0 76 12l30 -69q-39 -43 -65 -68q-70 -63 -172 -63q-147 0 -219 100q-121 -96 -267.5 -96t-272.5 121.5t-126 356zM387 573q0 -315 182 -315 q66 0 117 31v604q-39 8 -90 8q-113 0 -161 -69.5t-48 -258.5z" />
<glyph unicode="e" horiz-adv-x="1021" d="M49 541q0 238 153.5 380t375.5 142q147 0 258 -82q127 -92 127 -319q-16 -49 -41 -84h-535v-5q0 -317 238 -317q125 0 284 61l47 -73q-174 -178 -421 -178q-170 0 -320 114q-74 55 -120 149.5t-46 211.5zM393 688l160 12l92 5q-2 206 -92 206q-129 0 -160 -223z" />
<glyph unicode="f" horiz-adv-x="751" d="M49 92v48t10 69q63 10 96 35.5t33 85.5v547q-49 8 -114 8q-2 18 -2 44.5t6 57.5q55 29 110 41v105q0 197 114 310t298 113q66 0 137.5 -26.5t120.5 -65.5q-6 -109 -43 -229q-61 0 -106 12q2 18 2 52t-23.5 72t-77.5 38q-104 0 -104 -160v-215q133 4 244 21 q0 -102 -21 -166h-223v-643q78 -29 176 -37v-41t-8 -76h-625z" />
<glyph unicode="g" horiz-adv-x="1097" d="M43 -135q0 139 158 227q-96 57 -97 178q0 72 41 127.5t111 85.5q-160 90 -160 249t125 245t306.5 86t295.5 -68q115 98 305 99q5 -18 5 -55q0 -36 -11 -107l-198 -25q53 -70 53 -166q0 -150 -124 -237.5t-314 -87.5q-100 0 -185 24q-55 -29 -55 -78q0 -29 22.5 -47 t57.5 -18h405q270 0 271 -219q0 -195 -175 -348.5t-436 -153.5q-178 0 -289.5 75t-111.5 214zM274 -45q0 -135 271 -135q150 0 232.5 47t82.5 108q0 78 -92 78h-389q-25 0 -70 4q-35 -47 -35 -102zM434 772q0 -246 113 -246q96 0 96 206v9q-6 213 -113 213q-96 0 -96 -182z " />
<glyph unicode="h" horiz-adv-x="1331" d="M49 92v48t10 69q63 10 96 35.5t33 85.5v1042q-23 4 -59.5 4t-77.5 -2q4 74 19 115q197 70 436 78v-688q102 184 317 184q143 0 230.5 -86t87.5 -238v-508q80 -22 133 -22h4v-42t-10 -75h-555q-2 16 -2 45t10 72q53 10 77.5 34.5t24.5 86.5v368q0 80 -36.5 120t-96.5 40 q-119 0 -184 -184v-445q49 -20 115 -20v-41t-9 -76h-563z" />
<glyph unicode="i" horiz-adv-x="696" d="M49 92v48t10 69q63 10 96 35.5t33 85.5v530q-31 4 -66.5 4t-70.5 -2q4 72 19 115q199 68 436 78v-826q49 -20 115 -20v-41t-9 -76h-563zM166 1314q0 75 53 127t128 52t126 -52t51 -127t-51 -127t-126 -52t-128 52t-53 127z" />
<glyph unicode="j" horiz-adv-x="649" d="M-8 -313q104 78 151 167t47 265v741q-31 4 -66.5 4t-70.5 -2q4 72 19 115q199 68 436 78v-893q0 -199 -116 -346.5t-326 -229.5zM168 1314q0 75 53 127t128 52t126 -52t51 -127t-51 -127t-126 -52t-128 52t-53 127z" />
<glyph unicode="k" horiz-adv-x="1294" d="M49 92v48t10 69q63 10 96 35.5t33 85.5v1042q-23 4 -59.5 4t-77.5 -2q4 74 19 115q197 70 436 78v-994l325 326q-90 18 -147 45q0 57 12 94h490q0 -78 -6 -112q-135 0 -236 -101l-145 -145q66 -31 123 -123l139 -221q47 -76 85.5 -99.5t110.5 -27.5q3 -18 3 -44 q0 -28 -13 -73h-391l-227 354q-14 25 -29 35l-94 -94v-158q49 -20 115 -20v-41t-9 -76h-563z" />
<glyph unicode="l" horiz-adv-x="696" d="M49 92v48t10 69q63 10 96 35.5t33 85.5v1042q-23 4 -59.5 4t-77.5 -2q4 74 19 115q197 70 436 78v-1338q49 -20 115 -20v-41t-9 -76h-563z" />
<glyph unicode="m" horiz-adv-x="1968" d="M49 92v48t10 69q63 10 96 35.5t33 85.5v528q-31 4 -66.5 4t-70.5 -2q4 72 19 113q186 68 407 80q18 -100 25 -185q98 195 321 195q113 0 194 -55.5t109 -157.5q98 213 332 213q143 0 231.5 -86t88.5 -238v-508q79 -22 131 -22h4v-42t-10 -75h-555q-2 16 -2 45t10 72 q53 10 77.5 34.5t24.5 86.5v368q0 160 -131 160q-117 0 -186 -184v-445q49 -20 116 -20v-42t-10 -75h-534q-2 16 -2 45t10 72q53 10 77.5 34.5t24.5 86.5v368q0 80 -36.5 120t-96.5 40q-119 0 -184 -184v-445q49 -20 115 -20v-41t-9 -76h-563z" />
<glyph unicode="n" horiz-adv-x="1310" d="M49 92v48t10 69q63 10 96 35.5t33 85.5v528q-31 4 -66.5 4t-70.5 -2q4 72 19 113q186 68 407 80q18 -100 25 -185q98 195 321 195q143 0 230.5 -86t87.5 -238v-508q80 -22 133 -22h4v-42t-10 -75h-555q-2 16 -2 45t10 72q53 10 77.5 34.5t24.5 86.5v368q0 80 -36.5 120 t-96.5 40q-119 0 -184 -184v-445q49 -20 115 -20v-41t-9 -76h-563z" />
<glyph unicode="o" horiz-adv-x="1128" d="M49 566.5q0 244.5 143.5 370.5t373 126t371.5 -126t142 -370.5t-143 -370.5t-372.5 -126t-372 126t-142.5 370.5zM387 565q14 -354 191 -354q90 0 125.5 79t35.5 226q0 406 -186 406q-166 0 -166 -312v-45z" />
<glyph unicode="p" horiz-adv-x="1212" d="M39 -350q0 33 12 69q63 10 95 35t32 86v1018q-33 4 -67.5 4t-67.5 -2q4 72 18 113q186 68 400 80q16 -70 24 -135q96 145 267.5 145t290 -131t118.5 -358.5t-163.5 -365.5t-395.5 -138q-59 0 -104 14v-322q78 -39 182 -43q2 -14 2 -41.5t-10 -74.5h-633v47zM498 238 q55 -29 133 -29t135 89t57 271.5t-51 251t-111.5 68.5t-105.5 -53.5t-57 -133.5v-464z" />
<glyph unicode="q" horiz-adv-x="1153" d="M49 546.5q0 233.5 163 375t409 141.5q125 0 237 -68q43 43 90 76h56v-1327q80 -23 139 -25v-41.5t-8 -74.5h-631v48t10 68q102 10 137 33t35 88v303q-105 -73 -224 -73h-3q-158 0 -284 121.5t-126 355zM387 573q0 -315 182 -315q66 0 117 31v583q-41 29 -113.5 29 t-129 -74.5t-56.5 -253.5z" />
<glyph unicode="r" horiz-adv-x="854" d="M49 92v48t10 69q63 10 96 35.5t33 85.5v528q-31 4 -66.5 4t-70.5 -2q4 72 19 113q186 68 407 80q25 -141 29 -287q49 131 144 214t214 83q10 -35 10 -113t-22 -180q-313 0 -346 -213v-311q74 -29 176 -37v-41t-8 -76h-625z" />
<glyph unicode="s" horiz-adv-x="862" d="M78 218q0 71 10 177q41 0 107 -8v-37t15 -67.5t50 -53.5q47 -20 108.5 -20t99.5 29.5t38 78t-63.5 96.5t-140.5 83.5t-140.5 107.5t-63.5 166q0 145 103.5 219t290.5 74q119 0 251 -43v-98.5t-12 -171.5q-53 0 -100 10q4 25 4 47q0 127 -133 127q-47 0 -79 -25.5t-32 -76 t66.5 -94.5t145.5 -75.5t145.5 -105.5t66.5 -178q0 -135 -120 -224t-302 -89t-313 38q-2 43 -2 114z" />
<glyph unicode="t" horiz-adv-x="788" d="M37 929.5q0 26.5 6 57.5q43 20 121 41l254 326l65 -19v-301q131 4 242 21q0 -102 -20 -166h-222l2 -510q0 -57 19.5 -80t72 -23t123.5 50l56 -70q-134 -186 -310 -186q-127 0 -203.5 76.5t-76.5 226.5v504q-55 8 -127 8q-2 18 -2 44.5z" />
<glyph unicode="u" horiz-adv-x="1290" d="M20 872q4 72 19 113q203 70 416 78v-629q0 -80 36.5 -119t96.5 -39q119 0 184 185v307q0 78 -22.5 117t-79.5 57q8 45 24 74q135 51 283 51q59 0 121 -8q-8 -74 -8 -219v-559q61 -14 116 -15q4 -33 4 -61.5v-44.5q-178 -74 -407 -78q-18 98 -25 180q-103 -192 -321 -192 h-2q-143 0 -230.5 86t-87.5 237v477q-31 2 -61.5 2h-55.5z" />
<glyph unicode="v" horiz-adv-x="1110" d="M-18 993.5q0 26.5 2 42.5h563q8 -31 8 -112q-76 0 -115 -11l197 -661q12 72 55 199l115 340q12 39 12 61t-6 33q-16 29 -80 39q-12 41 -12 69.5t2 42.5h442v-8q0 -53 -24 -104q-68 0 -119 -23l-332 -821h-272l-285 721q-18 57 -48 83t-93 40q-10 43 -10 69.5z" />
<glyph unicode="w" horiz-adv-x="1570" d="M27 991.5q0 26.5 4 44.5h518q10 -39 10 -110q-70 -6 -84 -29q-8 -12 -8 -29.5t10 -44.5l94 -295q14 -39 21 -86h6l223 553h129l174 -467q12 -33 21 -84h4l133 390q8 25 8 42t-13 33.5t-75 16.5v43.5t10 66.5h347q4 -14 4 -39.5t-17 -70.5q-49 -4 -76 -11l-335 -835h-129 l-215 518l-236 -518h-129l-311 829q-35 16 -80 17q-8 39 -8 65.5z" />
<glyph unicode="x" horiz-adv-x="1081" d="M-33 92q4 70 23 117q84 0 166 90l209 248l-230 282q-25 33 -39 48q-47 47 -119 47q-10 39 -10 68.5v43.5h582q8 -31 8 -112q-74 0 -111 -9l181 -221l184 217q-49 10 -94 13q-10 43 -10 69.5t2 42.5h393v-40.5t-21 -71.5q-84 0 -163 -93l-209 -237l213 -264q12 -16 28 -35 l25 -31q10 -12 16 -16t16.5 -12.5t18.5 -11.5t21 -7q24 -8 55 -8q10 -45 10 -72.5t-2 -44.5h-580q-8 35 -8 117q84 0 111 6l-187 231l-190 -227q33 -6 98 -10q10 -41 10.5 -70.5t-2.5 -46.5h-395z" />
<glyph unicode="y" horiz-adv-x="1110" d="M-18 993.5q0 26.5 2 42.5h563q8 -31 8 -112q-78 0 -115 -11l178 -620q14 72 44 143l145 355q14 39 14 60t-6 34q-16 29 -82 39q-10 43 -10 69.5t2 42.5h416v-8q0 -53 -25 -104q-43 -2 -92 -19l-465 -1005q-135 -297 -319 -297h-45q-29 102 -29 174.5t4 111.5h68 q90 0 141 24t90 83l-336 805q-23 57 -50.5 83.5t-90.5 39.5q-10 43 -10 69.5z" />
<glyph unicode="z" horiz-adv-x="985" d="M62 188q0 3 -1 6q0 42 7 76l467 641h-201q-74 0 -113 -38.5t-59 -143.5q-47 0 -78 19q0 154 18 288h762q14 -51 14 -95q0 -3 1 -6q0 -41 -7 -75l-460 -641h206q76 0 115 38t62 144q37 0 75 -16v-79.5t-18 -213.5h-774q-16 51 -16 96z" />
<glyph unicode="{" horiz-adv-x="1146" d="M180 717v164q141 8 174 73q18 37 22.5 73t4.5 106l-10 178q0 117 26 198q59 195 295 244q98 20 189.5 20.5t144.5 -1.5v-156q-203 -8 -283 -51q-45 -23 -70.5 -46.5t-37.5 -68.5q-17 -70 -17 -176l9 -193q0 -119 -46 -186.5t-143 -95.5q96 -31 142.5 -98.5t46.5 -186.5 l-9 -190q0 -172 35 -220q47 -66 105 -84q127 -37 268 -40v-158q-47 -2 -122 -2t-176 16.5t-173 54t-114 101t-56 132.5t-14 163l10 176q0 70 -4 105.5t-22.5 72.5t-60.5 53.5t-114 22.5z" />
<glyph unicode="|" horiz-adv-x="620" d="M174 -127v1782h252v-1782h-252z" />
<glyph unicode="}" horiz-adv-x="1144" d="M121 -20q201 8 280 49q45 25 71 49t38 69q18 66 18 177l-8 190q0 119 45 186.5t142 98.5q-186 53 -187 282l8 193q0 193 -57 246q-68 61 -161 76.5t-189 19.5v156q53 2 144 2t207 -25t183.5 -92.5t92 -147t24.5 -198.5l-8 -178q0 -70 4 -106t23.5 -72.5t61.5 -53 t114 -20.5v-164q-135 -10 -169 -64.5t-34 -189.5l8 -176q0 -119 -24.5 -200t-92.5 -148q-117 -119 -434 -119q-47 0 -100 2v158z" />
<glyph unicode="~" horiz-adv-x="1216" d="M102 442q10 213 100.5 320.5t223.5 107.5q76 0 211 -78.5t210 -78.5t118 37.5t57 130.5h92q-10 -213 -99 -320.5t-220 -107.5q-66 0 -211.5 78.5t-218 78.5t-116.5 -37.5t-59 -130.5h-88z" />
<glyph unicode="&#xa1;" horiz-adv-x="897" d="M295 1178.5q0 62.5 46 108.5t108.5 46t108.5 -46t46 -108.5t-46 -108.5t-108.5 -46t-108.5 46t-46 108.5zM311 -41l56 864l143 74h18l50 -846l-246 -92h-21z" />
<glyph unicode="&#xa2;" horiz-adv-x="1030" d="M115 602q0 205 123.5 342t302.5 148v131h137v-136q156 -25 262 -102l-113 -186q-53 59 -104 79.5t-140 20.5t-156 -71.5t-67 -198.5t89.5 -211t217.5 -84t228 90l61 -49q-37 -70 -110.5 -130.5t-167.5 -78.5v-135h-137v133q-178 18 -302 125.5t-124 312.5z" />
<glyph unicode="&#xa3;" horiz-adv-x="1169" d="M86 641v18l47 109h121q-10 57 -10 113q8 178 113.5 286.5t280.5 108.5t376 -123l-109 -176q-111 119 -231 119q-186 0 -187 -189q0 -57 15 -139h297v-18l-47 -109h-230q6 -37 6 -66q0 -193 -92 -286q2 0 26.5 11t68.5 22.5t97.5 11.5t147.5 -22.5t132 -22.5t65.5 27.5 t27.5 105.5l60 2q10 -33 10 -66.5t-1 -69.5t-17.5 -80t-68.5 -80t-139 -36t-220 20.5t-216 20.5t-192 -33l-41 35l12 17q119 186 119 309q0 66 -24 180h-197z" />
<glyph unicode="&#xa4;" horiz-adv-x="1095" d="M102 1067q39 86 127 125l123 -127q92 51 195.5 51t195.5 -49l123 123q88 -39 127 -125l-119 -119q61 -90 61.5 -204.5t-54.5 -202.5l108 -111q-41 -76 -125 -125l-110 113q-90 -55 -203 -55.5t-207 55.5l-111 -111q-82 45 -124 125l108 109q-53 92 -53 201.5t59 205.5z M365 739.5q0 -114.5 53 -173t131 -58.5t131 58.5t53 173t-52 172t-132 57.5t-132 -57.5t-52 -172z" />
<glyph unicode="&#xa5;" horiz-adv-x="1171" d="M70 1255l256 33l266 -487q68 121 233 454h271l-324 -532h234v-18l-48 -99h-235v-106h283v-21l-48 -96h-235v-291h-264v291h-326v18l47 99h279v106h-326v21l47 96h226z" />
<glyph unicode="&#xa6;" horiz-adv-x="600" d="M174 -127v717h252v-717h-252zM174 938v717h252v-717h-252z" />
<glyph unicode="&#xa7;" horiz-adv-x="1210" d="M143 498q0 98 58.5 176t154.5 119q-193 123 -192 319q0 162 130 251t312 89t391 -53q0 -141 -28 -326q-72 0 -107 4q-37 244 -233 244q-82 0 -137.5 -35t-55.5 -96.5t47 -110.5t117 -79.5t152 -70.5t151.5 -82t116.5 -117t47 -171q0 -203 -211 -309q190 -117 190.5 -296 t-144 -278.5t-343.5 -99.5q-133 0 -412 57q-2 43 -2 132.5t19 246.5q74 0 137 -10v-16q0 -272 268 -273q88 0 138.5 35t50.5 94.5t-34 104.5t-88 75.5t-119.5 61.5t-131.5 66.5t-119 78.5q-123 100 -123 269zM416 575.5q0 -86.5 80 -141.5q59 -39 182 -94q100 29 100 115 t-61.5 137t-186.5 108q-114 -38 -114 -124.5z" />
<glyph unicode="&#xa8;" horiz-adv-x="669" d="M20 1283q0 56 39 97t91.5 41t92.5 -41t40 -97t-40 -97t-92.5 -41t-91.5 41t-39 97zM389 1283q0 56 38 97t91 41t92 -41t39 -97t-39 -97t-91 -41t-91 41t-39 97z" />
<glyph unicode="&#xa9;" horiz-adv-x="1679" d="M123 753.5q0 327.5 204.5 522t513 194.5t512 -194.5t203.5 -522t-203.5 -522t-512 -194.5t-513 194.5t-204.5 522zM254 753.5q0 -288.5 166 -446t422 -157.5t419.5 157.5t163.5 446t-163.5 446.5t-419.5 158t-422 -158t-166 -446.5zM432 746.5q0 195.5 133 315.5t328 120 q125 0 244 -56q-12 -131 -58 -264q-23 -4 -45 -4l-45 4q-2 61 -8 91t-31.5 52.5t-83 22.5t-112 -78t-54.5 -199.5t59.5 -185t150.5 -63.5t175 59l76 -82q-127 -154 -303 -153.5t-301 113t-125 308z" />
<glyph unicode="&#xaa;" horiz-adv-x="731" d="M35 934q0 117 100.5 174t220.5 57q23 0 47 -2v35q0 94 -108 94q-80 0 -166 -28l-45 67q127 115 301 115q119 0 179.5 -62.5t60.5 -179.5v-254q0 -72 43 -71q16 0 53 10l20 -49q-78 -92 -166 -92q-55 0 -101 22.5t-62 60.5q-68 -84 -187 -83q-86 0 -138 50t-52 136z M270 971q0 -88 60 -88q45 0 73 35v161q-59 0 -96 -32.5t-37 -75.5z" />
<glyph unicode="&#xab;" horiz-adv-x="1466" d="M236 719l376 426l115 -58l-235 -368l235 -369l-115 -61zM733 719l377 426l115 -58l-236 -368l236 -369l-115 -61z" />
<glyph unicode="&#xac;" horiz-adv-x="1452" d="M143.5 882.5q-0.5 59.5 16.5 116.5h1108v-497q-39 -8 -78 -8l-78 8v264h-952q-16 57 -16.5 116.5z" />
<glyph unicode="&#xad;" horiz-adv-x="1288" d="M154 815v21h862l106 -215v-19h-862z" />
<glyph unicode="&#xae;" horiz-adv-x="1679" d="M123 753.5q0 327.5 204.5 522t513 194.5t512 -194.5t203.5 -522t-203.5 -522t-512 -194.5t-513 194.5t-204.5 522zM254 753.5q0 -288.5 166 -446t422 -157.5t419.5 157.5t163.5 446t-163.5 446.5t-419.5 158t-422 -158t-166 -446.5zM500 1069q0 57 6 86h350 q129 0 205 -62.5t76 -162.5q0 -145 -146 -201q41 -20 76 -84l49 -100q20 -45 41.5 -60.5t54.5 -15.5q0 -39 -6 -74h-219l-125 273q-14 39 -49 39h-53v-218q47 -16 98 -20v-17.5t-4 -56.5h-352q0 53 8 74q70 10 70 70v520q-23 10 -80 10zM760 799h65q119 0 119 131 q0 74 -26.5 102.5t-92.5 28.5h-65v-262z" />
<glyph unicode="&#xaf;" horiz-adv-x="555" d="M20 1165v111h515v-111h-515z" />
<glyph unicode="&#xb0;" horiz-adv-x="698" d="M61 1208q0 133 83 208t204 75t205 -75t84 -208t-83 -206.5t-205 -73.5t-205 73.5t-83 206.5zM258 1209.5q0 -152.5 90 -152.5q41 0 66.5 37.5t25.5 115.5q0 152 -91 152t-91 -152.5z" />
<glyph unicode="&#xb1;" horiz-adv-x="1392" d="M154 424v18h974l107 -215v-18h-975zM154 1018v18h415v305h19l233 -182v-123h307l107 -215v-18h-414v-305h-18l-234 184v121h-309z" />
<glyph unicode="&#xb2;" horiz-adv-x="530" d="M41 811q162 172 211 238.5t49 127t-23.5 87t-60.5 26.5q-76 0 -94 -94h-62q0 100 7 152q82 59 188 59t163.5 -56.5t57.5 -139.5t-56 -152.5t-235 -227.5h170q39 0 58.5 19.5t31.5 73.5q33 0 43 -9q0 -129 -28 -213h-408q-12 63 -12 109z" />
<glyph unicode="&#xb3;" horiz-adv-x="518" d="M33 760q27 61 51 78q55 -39 133 -39q98 0 98 84q0 112 -139 112v86q115 16 115 113q0 41 -19.5 68.5t-48.5 27.5q-76 0 -96 -94q-55 0 -66 2q-2 29 -2 69t7 83q96 57 192 57t152.5 -47t56.5 -117q0 -100 -125 -170q135 -53 135 -176q0 -88 -70.5 -148.5t-180 -60.5 t-193.5 72z" />
<glyph unicode="&#xb4;" horiz-adv-x="450" d="M18 1167l197 379h6q49 0 111.5 -31.5t99.5 -68.5v-41l-332 -287z" />
<glyph unicode="&#xb5;" horiz-adv-x="1290" d="M0 872q4 72 18 113q201 70 437 78v-744q37 -43 118 -43q133 0 199 185v307q0 78 -22.5 117t-79.5 57q8 45 24 74q135 51 283 51q59 0 121 -8q-8 -74 -8 -219v-559q61 -14 116 -15q4 -33 4 -61.5v-44.5q-193 -66 -407 -78q-18 98 -25 180q-104 -193 -323 -192v-306 q-96 -14 -175 -14t-143 14v1106q-33 4 -68.5 4t-68.5 -2z" />
<glyph unicode="&#xb6;" horiz-adv-x="1067" d="M31 987.5q0 194.5 116.5 315t296.5 120.5h494v-1331h-152v1176h-122v-1176h-152v463h-70q-180 0 -295.5 119t-115.5 313.5z" />
<glyph unicode="&#xb7;" horiz-adv-x="600" d="M125 835.5q0 71.5 51 124t123 52.5t124 -52.5t52 -124t-52 -124t-123 -52.5t-123 52.5t-52 124z" />
<glyph unicode="&#xb8;" horiz-adv-x="618" d="M20 -289l48 66q98 -53 182 -53q166 0 166 88q0 63 -101 63q-39 0 -100 -10l55 270h183l-33 -168q94 -6 136 -46t42 -95q0 -88 -86 -141.5t-223 -53.5t-269 80z" />
<glyph unicode="&#xb9;" horiz-adv-x="471" d="M49 736q0 22 8 44q104 12 105 62v389l-105 -17q-6 41 4 70q135 82 232 131l33 -14v-598q35 -15 94 -23q2 -10 2 -29.5t-8 -48.5h-363q-2 12 -2 34z" />
<glyph unicode="&#xba;" horiz-adv-x="790" d="M35 1097q0 171 100.5 260t260 89t260 -88t100.5 -260t-100.5 -260t-261.5 -88t-260 88t-99 259zM272 1128q0 -279 131 -278q115 0 115 225q0 272 -131 273q-115 -1 -115 -220z" />
<glyph unicode="&#xbb;" horiz-adv-x="1507" d="M244 350l233 369l-233 368l112 58l377 -426l-377 -430zM780 350l236 369l-236 368l115 58l377 -426l-377 -430z" />
<glyph unicode="&#xbc;" horiz-adv-x="1560" d="M100 555v37.5t9 50.5q131 12 131 78v508l-131 -21q-2 14 -2.5 36t8.5 40q180 111 288 162l41 -16v-760q51 -21 117 -27q2 -10 2 -30.5t-8 -57.5h-455zM373 16l757 1487h125l-757 -1487h-125zM834 387l411 569h105v-548h118q8 -39 8.5 -66t-1.5 -43h-125v-102 q31 -16 82 -17q0 -57 -7 -88h-344q-2 14 -2 37.5t8 50.5l29 4q14 0 20.5 4.5t12.5 6.5t8 5t6 8t6 9q2 16 2 29v53h-299q-31 49 -38 88zM985 408h186v247z" />
<glyph unicode="&#xbd;" horiz-adv-x="1667" d="M100 555v37.5t9 50.5q131 12 131 78v508l-131 -21q-2 14 -2.5 36t8.5 40q180 111 288 162l41 -16v-760q51 -21 117 -27q2 -10 2 -30.5t-8 -57.5h-455zM373 16l757 1487h125l-757 -1487h-125zM1001 229q203 213 264.5 298t61.5 182q0 51 -29.5 84.5t-74.5 33.5 q-94 0 -119 -116q-51 0 -66 2q-2 33 -2 84t8 104q100 74 230.5 74t201 -69.5t70.5 -176.5q0 -127 -141 -270q-63 -66 -219 -205h219q49 0 73.5 24.5t39.5 92.5q27 0 45 -11q0 -160 -37 -268h-508q-16 88 -17 137z" />
<glyph unicode="&#xbe;" horiz-adv-x="1560" d="M100 639q35 76 56 90q72 -49 149.5 -49t112.5 31.5t35 90t-45 95.5t-127 37v102q143 23 143 146q0 53 -26.5 87t-70.5 34t-79 -31t-47 -86q-51 0 -66 2q-2 33 -2 84t8 104q119 74 241 74t191.5 -59.5t69.5 -145.5q0 -127 -158 -213q170 -66 170 -221q0 -109 -88 -184.5 t-224 -75.5t-243 88zM375 16l758 1487h124l-757 -1487h-125zM836 387l411 569h105v-548h118q8 -39 8.5 -66t-1.5 -43h-125v-102q31 -16 82 -17q0 -57 -7 -88h-344q-2 14 -1.5 37.5t8.5 50.5l28 4q14 0 20.5 4.5t12.5 6.5t8 5t6 8t6 9q2 16 3 29v53h-300q-31 49 -38 88z M987 408h187v247z" />
<glyph unicode="&#xbf;" horiz-adv-x="1148" d="M180 365q0 156 162 262q61 41 172 90v221h18l168 -80v-311q-16 -8 -63 -29.5t-70.5 -34t-62.5 -37t-58.5 -46t-35 -54.5t-15.5 -74t36 -70.5t95 -29.5q123 0 265 107l161 -203q-125 -119 -304 -119t-323.5 122t-144.5 286zM442 1214.5q0 63.5 46.5 108.5t110 45 t108.5 -45t45 -108.5t-45 -109.5t-108.5 -46t-110 46t-46.5 109.5z" />
<glyph unicode="&#xc0;" horiz-adv-x="1335" d="M0 184v42t6 75q61 18 93 49t53 86l350 1077q125 25 329 29l349 -1112q25 -74 54.5 -100.5t98.5 -28.5q0 -35 -8 -117h-633q0 74 6 117q98 23 158 51l-86 291h-377l-92 -315q47 -27 166 -27q0 -61 -8 -117h-459zM334 1905v43q35 35 100.5 67.5t116.5 32.5l197 -379 l-82 -49zM436 784h291l-149 504l-15 -71z" />
<glyph unicode="&#xc1;" horiz-adv-x="1335" d="M0 184v42t6 75q61 18 93 49t53 86l350 1077q125 25 329 29l349 -1112q25 -74 54.5 -100.5t98.5 -28.5q0 -35 -8 -117h-633q0 74 6 117q98 23 158 51l-86 291h-377l-92 -315q47 -27 166 -27q0 -61 -8 -117h-459zM436 784h291l-149 504l-15 -71zM602 1642l197 379h6 q49 0 111.5 -31.5t99.5 -68.5v-41l-332 -287z" />
<glyph unicode="&#xc2;" horiz-adv-x="1335" d="M0 184v42t6 75q61 18 93 49t53 86l350 1077q125 25 329 29l349 -1112q25 -74 54.5 -100.5t98.5 -28.5q0 -35 -8 -117h-633q0 74 6 117q98 23 158 51l-86 291h-377l-92 -315q47 -27 166 -27q0 -61 -8 -117h-459zM309 1657l289 313h131l289 -313l-66 -55l-288 165 l-287 -165zM436 784h291l-149 504l-15 -71z" />
<glyph unicode="&#xc3;" horiz-adv-x="1335" d="M0 184v42t6 75q61 18 93 49t53 86l350 1077q125 25 329 29l349 -1112q25 -74 54.5 -100.5t98.5 -28.5q0 -35 -8 -117h-633q0 74 6 117q98 23 158 51l-86 291h-377l-92 -315q47 -27 166 -27q0 -61 -8 -117h-459zM350 1663q10 145 64.5 224t146.5 79q47 0 133 -54t131 -54 q80 0 101 92h82q-10 -145 -64.5 -224t-146.5 -79q-45 0 -131 54t-134 54q-80 0 -100 -92h-82zM436 784h291l-149 504l-15 -71z" />
<glyph unicode="&#xc4;" horiz-adv-x="1335" d="M0 184v42t6 75q61 18 93 49t53 86l350 1077q125 25 329 29l349 -1112q25 -74 54.5 -100.5t98.5 -28.5q0 -35 -8 -117h-633q0 74 6 117q98 23 158 51l-86 291h-377l-92 -315q47 -27 166 -27q0 -61 -8 -117h-459zM350 1762.5q0 56.5 39 97.5t91 41t92 -41t40 -97.5 t-40 -97.5t-92 -41t-91 41t-39 97.5zM436 784h291l-149 504l-15 -71zM719 1762.5q0 56.5 38 97.5t91 41t92 -41t39 -97.5t-39 -97.5t-91 -41t-91 41t-39 97.5z" />
<glyph unicode="&#xc5;" horiz-adv-x="1335" d="M0 184v42t6 75q61 18 93 49t53 86l350 1077q125 25 329 29l349 -1112q25 -74 54.5 -100.5t98.5 -28.5q0 -35 -8 -117h-633q0 74 6 117q98 23 158 51l-86 291h-377l-92 -315q47 -27 166 -27q0 -61 -8 -117h-459zM428 1781.5q0 73.5 69.5 120t166 46.5t166 -46.5t69.5 -120 t-69.5 -120.5t-166 -47t-166 47t-69.5 120.5zM436 784h291l-149 504l-15 -71zM590 1781q0 -87 73.5 -87t73.5 87t-73.5 87t-73.5 -87z" />
<glyph unicode="&#xc6;" horiz-adv-x="1884" d="M0 92v40t8 87q147 20 228 135l643 934q-49 20 -140 21v41.5t11 72.5h1046v-146t-12 -235q-49 -4 -137 -4q-14 152 -33 189q-31 70 -127 69h-275v-473l271 29h90v-180h-90l-271 18v-469h277q76 0 115 45q16 18 28.5 60t16.5 67l10 99v6q23 2 63.5 2t79.5 -11 q10 -135 10 -235t-2 -162h-1067v47t13 70q63 10 96 35.5t33 87.5v219h-328l-203 -293q72 -39 133 -39q0 -72 -8 -127h-479zM653 692h232v357l-92 -156z" />
<glyph unicode="&#xc7;" horiz-adv-x="1286" d="M102 838q0 324 205 515t510 191q266 0 395 -74q-8 -180 -47 -389q-98 0 -104 2q-6 129 -70.5 209t-200 80t-236.5 -130t-101 -379t111.5 -371.5t294.5 -122.5t308 88l72 -82q-86 -96 -219.5 -156.5t-276.5 -60.5q-25 0 -69 4l-21 -103q94 -6 136 -46t42 -95 q0 -88 -86 -141t-223 -53t-268 79l47 66q98 -53 182 -53q166 0 166 88q0 63 -100 63q-39 0 -100 -10l51 246q-178 70 -288 232.5t-110 402.5z" />
<glyph unicode="&#xc8;" horiz-adv-x="1224" d="M80 1401v42t10 73h1047v-146.5t-13 -234.5q-49 -4 -137 -5q-14 152 -33 189q-31 70 -127 70h-274v-474l270 29h90v-180h-90l-270 18v-469h276q76 0 115 47q16 16 29 58q14 49 20 107.5t6 64.5h64t80 -8q10 -135 10 -235.5t-2 -162.5h-1067v47t12 70q63 10 96 35.5 t33 87.5v954q-51 23 -145 23zM344 1905v43q35 35 100.5 67.5t116.5 32.5l197 -379l-82 -49z" />
<glyph unicode="&#xc9;" horiz-adv-x="1224" d="M80 1401v42t10 73h1047v-146.5t-13 -234.5q-49 -4 -137 -5q-14 152 -33 189q-31 70 -127 70h-274v-474l270 29h90v-180h-90l-270 18v-469h276q76 0 115 47q16 16 29 58q14 49 20 107.5t6 64.5h64t80 -8q10 -135 10 -235.5t-2 -162.5h-1067v47t12 70q63 10 96 35.5 t33 87.5v954q-51 23 -145 23zM610 1640l197 379h6q49 0 111.5 -31.5t99.5 -68.5v-41l-332 -287z" />
<glyph unicode="&#xca;" horiz-adv-x="1224" d="M80 1401v42t10 73h1047v-146.5t-13 -234.5q-49 -4 -137 -5q-14 152 -33 189q-31 70 -127 70h-274v-474l270 29h90v-180h-90l-270 18v-469h276q76 0 115 47q16 16 29 58q14 49 20 107.5t6 64.5h64t80 -8q10 -135 10 -235.5t-2 -162.5h-1067v47t12 70q63 10 96 35.5 t33 87.5v954q-51 23 -145 23zM317 1657l289 313h131l289 -313l-65 -55l-289 165l-287 -165z" />
<glyph unicode="&#xcb;" horiz-adv-x="1224" d="M80 1401v42t10 73h1047v-146.5t-13 -234.5q-49 -4 -137 -5q-14 152 -33 189q-31 70 -127 70h-274v-474l270 29h90v-180h-90l-270 18v-469h276q76 0 115 47q16 16 29 58q14 49 20 107.5t6 64.5h64t80 -8q10 -135 10 -235.5t-2 -162.5h-1067v47t12 70q63 10 96 35.5 t33 87.5v954q-51 23 -145 23zM358 1762.5q0 56.5 39 97.5t91.5 41t92.5 -41t40 -97.5t-40 -97.5t-92.5 -41t-91.5 41t-39 97.5zM727 1762.5q0 56.5 38 97.5t91 41t92 -41t39 -97.5t-39 -97.5t-91 -41t-91 41t-39 97.5z" />
<glyph unicode="&#xcc;" horiz-adv-x="782" d="M63 1905v43q35 35 100.5 67.5t117.5 32.5l196 -379l-82 -49zM82 1401v42t10 73h602v-48t-10 -67q-63 -10 -96 -36t-33 -87v-956q47 -20 143 -21q2 -14 2 -42t-10 -75h-604v47t12 70q63 10 96 35.5t33 87.5v954q-51 23 -145 23z" />
<glyph unicode="&#xcd;" horiz-adv-x="782" d="M80 1401v42t10 73h602v-48t-10 -67q-63 -10 -96 -36t-33 -87v-956q47 -20 143 -21q2 -14 2 -42t-10 -75h-604v47t12 70q63 10 96 35.5t33 87.5v954q-51 23 -145 23zM328 1642l196 379h6q49 0 112 -31.5t99 -68.5v-41l-331 -287z" />
<glyph unicode="&#xce;" horiz-adv-x="782" d="M37 1657l289 313h131l288 -313l-65 -55l-289 165l-287 -165zM82 1401v42t10 73h602v-48t-10 -67q-63 -10 -96 -36t-33 -87v-956q47 -20 143 -21q2 -14 2 -42t-10 -75h-604v47t12 70q63 10 96 35.5t33 87.5v954q-51 23 -145 23z" />
<glyph unicode="&#xcf;" horiz-adv-x="782" d="M78 1762.5q0 56.5 39 97.5t91 41t92 -41t40 -97.5t-40 -97.5t-92 -41t-91 41t-39 97.5zM82 1401v42t10 73h602v-48t-10 -67q-63 -10 -96 -36t-33 -87v-956q47 -20 143 -21q2 -14 2 -42t-10 -75h-604v47t12 70q63 10 96 35.5t33 87.5v954q-51 23 -145 23zM446 1762.5 q0 56.5 38 97.5t91.5 41t92.5 -41t39 -97.5t-39 -97.5t-91.5 -41t-91.5 41t-39 97.5z" />
<glyph unicode="&#xd0;" d="M66 763q0 34 8 68h153v547q-53 23 -143 23q-2 12 -2 40.5t10 74.5h594q305 0 502.5 -175.5t197.5 -490.5t-188 -490.5t-479 -175.5h-631v48t10 69q63 10 96 35.5t33 87.5v270h-153q-8 35 -8 69zM555 313h104q186 0 281.5 137.5t95.5 399.5q0 539 -393 539h-88v-558h219 q8 -33 8 -67.5t-8 -69.5h-219v-381z" />
<glyph unicode="&#xd1;" horiz-adv-x="1581" d="M98 1403q4 74 15 113h442l485 -615l111 -162v639q-51 23 -143 23v40.5t8 74.5h452v-48t-10 -67q-63 -10 -96 -36t-33 -87v-1094h-139l-625 791l-137 196v-849q47 -20 143 -21q2 -14 2 -42t-10 -75h-452v48t10 69q63 10 96 35.5t33 87.5v967q-45 12 -152 12zM502 1663 q10 145 64.5 224t146.5 79q45 0 131 -54t133 -54q80 0 100 92h82q-10 -145 -64.5 -224t-146.5 -79q-47 0 -133 54t-131 54q-80 0 -100 -92h-82z" />
<glyph unicode="&#xd2;" d="M102 846q0 311 174.5 504.5t451 193.5t453.5 -193.5t177 -503.5t-177 -500.5t-453.5 -190.5t-451 189.5t-174.5 500.5zM401 1905v43q35 35 100.5 67.5t116.5 32.5l197 -379l-82 -49zM496 868q0 -322 60 -451.5t179 -129.5t174.5 125t55.5 415q0 319 -63.5 452.5 t-182.5 133.5t-171 -129t-52 -416z" />
<glyph unicode="&#xd3;" d="M102 846q0 311 174.5 504.5t451 193.5t453.5 -193.5t177 -503.5t-177 -500.5t-453.5 -190.5t-451 189.5t-174.5 500.5zM496 868q0 -322 60 -451.5t179 -129.5t174.5 125t55.5 415q0 319 -63.5 452.5t-182.5 133.5t-171 -129t-52 -416zM668 1640l196 379h6 q49 0 111.5 -31.5t99.5 -68.5v-41l-331 -287z" />
<glyph unicode="&#xd4;" d="M102 846q0 311 174.5 504.5t451 193.5t453.5 -193.5t177 -503.5t-177 -500.5t-453.5 -190.5t-451 189.5t-174.5 500.5zM375 1657l289 313h131l288 -313l-65 -55l-289 165l-287 -165zM496 868q0 -322 60 -451.5t179 -129.5t174.5 125t55.5 415q0 319 -63.5 452.5 t-182.5 133.5t-171 -129t-52 -416z" />
<glyph unicode="&#xd5;" d="M102 846q0 311 174.5 504.5t451 193.5t453.5 -193.5t177 -503.5t-177 -500.5t-453.5 -190.5t-451 189.5t-174.5 500.5zM418 1663q10 145 64.5 224t146.5 79q47 0 133 -54t131 -54q80 0 100 92h82q-10 -145 -64.5 -224t-146.5 -79q-45 0 -131 54t-133 54q-80 0 -100 -92 h-82zM496 868q0 -322 60 -451.5t179 -129.5t174.5 125t55.5 415q0 319 -63.5 452.5t-182.5 133.5t-171 -129t-52 -416z" />
<glyph unicode="&#xd6;" d="M102 846q0 311 174.5 504.5t451 193.5t453.5 -193.5t177 -503.5t-177 -500.5t-453.5 -190.5t-451 189.5t-174.5 500.5zM416 1762.5q0 56.5 39 97.5t91 41t92 -41t40 -97.5t-40 -97.5t-92 -41t-91 41t-39 97.5zM496 868q0 -322 60 -451.5t179 -129.5t174.5 125t55.5 415 q0 319 -63.5 452.5t-182.5 133.5t-171 -129t-52 -416zM784 1762.5q0 56.5 38 97.5t91.5 41t92 -41t38.5 -97.5t-38.5 -97.5t-91 -41t-91.5 41t-39 97.5z" />
<glyph unicode="&#xd7;" horiz-adv-x="1157" d="M121 410l332 352l-291 332l135 90l264 -303l285 303l190 -162l-307 -336l303 -348l-133 -86l-276 315l-279 -305z" />
<glyph unicode="&#xd8;" d="M102 63l148 189q-147 174 -147.5 493.5t174 513t450.5 193.5q209 0 365 -115l88 113h180l-164 -211q162 -190 162 -492.5t-177 -493t-454 -190.5q-225 0 -371 95l-73 -95h-181zM494 842q0 -121 10 -262l420 540q-55 184 -203 184.5t-193 -159.5q-35 -121 -34 -303z M535 387q53 -176 198.5 -176t192.5 158q39 127 39 338q0 25 -2 94t-7 129z" />
<glyph unicode="&#xd9;" horiz-adv-x="1492" d="M41 1439.5q0 26.5 10 76.5h602v-48t-10 -67q-63 -10 -96 -36t-33 -87v-680q0 -156 61.5 -221.5t174.5 -65.5q238 0 237 287v780q-51 23 -143 23v40.5t8 74.5h604v-48t-10 -67q-66 -10 -97.5 -36t-31.5 -87v-680q0 -227 -151.5 -333.5t-416 -106.5t-414 106.5 t-149.5 333.5v780q-51 23 -143 23q-2 12 -2 38.5zM422 1905v43q35 35 100.5 67.5t116.5 32.5l197 -379l-82 -49z" />
<glyph unicode="&#xda;" horiz-adv-x="1492" d="M41 1439.5q0 26.5 10 76.5h602v-48t-10 -67q-63 -10 -96 -36t-33 -87v-680q0 -156 61.5 -221.5t174.5 -65.5q238 0 237 287v780q-51 23 -143 23v40.5t8 74.5h604v-48t-10 -67q-66 -10 -97.5 -36t-31.5 -87v-680q0 -227 -151.5 -333.5t-416 -106.5t-414 106.5 t-149.5 333.5v780q-51 23 -143 23q-2 12 -2 38.5zM690 1640l197 379h6q49 0 111.5 -31.5t99.5 -68.5v-41l-332 -287z" />
<glyph unicode="&#xdb;" horiz-adv-x="1492" d="M41 1439.5q0 26.5 10 76.5h602v-48t-10 -67q-63 -10 -96 -36t-33 -87v-680q0 -156 61.5 -221.5t174.5 -65.5q238 0 237 287v780q-51 23 -143 23v40.5t8 74.5h604v-48t-10 -67q-66 -10 -97.5 -36t-31.5 -87v-680q0 -227 -151.5 -333.5t-416 -106.5t-414 106.5 t-149.5 333.5v780q-51 23 -143 23q-2 12 -2 38.5zM397 1657l289 313h131l289 -313l-66 -55l-288 165l-287 -165z" />
<glyph unicode="&#xdc;" horiz-adv-x="1492" d="M41 1439.5q0 26.5 10 76.5h602v-48t-10 -67q-63 -10 -96 -36t-33 -87v-680q0 -156 61.5 -221.5t174.5 -65.5q238 0 237 287v780q-51 23 -143 23v40.5t8 74.5h604v-48t-10 -67q-66 -10 -97.5 -36t-31.5 -87v-680q0 -227 -151.5 -333.5t-416 -106.5t-414 106.5 t-149.5 333.5v780q-51 23 -143 23q-2 12 -2 38.5zM436 1762.5q0 56.5 39 97.5t91 41t92 -41t40 -97.5t-40 -97.5t-92 -41t-91 41t-39 97.5zM805 1762.5q0 56.5 38 97.5t91 41t92 -41t39 -97.5t-39 -97.5t-91 -41t-91 41t-39 97.5z" />
<glyph unicode="&#xdd;" horiz-adv-x="1382" d="M10 1516h658q14 -68 14 -113q-135 -12 -135 -82q0 -27 20 -64l211 -387h8q23 82 80 179l195 337q-41 14 -107 17q4 61 15 113h401q-4 -59 -16 -113q-90 -12 -125 -62q-14 -18 -41 -59l-316 -526v-441q47 -14 160 -14q0 -66 -8 -117h-662v42t7 75q45 8 68.5 15.5t49 35 t25.5 72.5v332l-379 633q-49 14 -77.5 14h-35.5q-10 68 -10 113zM705 1642l196 379h6q49 0 111.5 -31.5t99.5 -68.5v-41l-332 -287z" />
<glyph unicode="&#xde;" horiz-adv-x="1312" d="M80 1309v41.5t10 72.5h602v-48t-10 -66q-63 -10 -96 -36t-33 -87v-60h213q244 0 387 -92t143 -262t-143 -260t-387 -90h-213v-193q47 -20 143 -20q2 -12 2 -41t-10 -76h-604v47t12 70q63 10 96 35.5t33 87.5v954q-51 23 -145 23zM553 547h149q109 0 176.5 57.5 t67.5 167.5q0 223 -244 223h-149v-448z" />
<glyph unicode="&#xdf;" horiz-adv-x="1406" d="M84 92v47t12 70q63 10 96 36t33 87v635q0 457 539 456q223 0 355 -103t132 -257q0 -197 -215 -266q127 -39 197 -125t70 -211q0 -160 -120 -264.5t-370 -104.5q-94 0 -154 23q-6 31 -6 61.5t6 61.5q35 -16 78 -17q217 0 217 240q0 121 -57 181t-160 60h-51q-12 43 -12 75 t8 54h84q135 76 135 232q0 233 -174 233t-174 -233v-971h-469z" />
<glyph unicode="&#xe0;" horiz-adv-x="1044" d="M49 424q0 213 287 270l239 47v62q0 133 -155 133q-113 0 -236 -41l-65 96q182 164 432 164q170 0 255 -90t85 -256v-363q0 -100 63 -100q10 0 76 12l29 -69q-55 -66 -107.5 -98.5t-130.5 -32.5t-144.5 31.5t-90.5 86.5q-94 -119 -236.5 -118.5t-221.5 75t-79 191.5z M211 1518v43q35 35 100.5 67.5t116.5 32.5l197 -379l-82 -49zM387 451q0 -45 23.5 -73t74 -28t90.5 49v226l-57 -19q-131 -40 -131 -155z" />
<glyph unicode="&#xe1;" horiz-adv-x="1044" d="M49 424q0 213 287 270l239 47v62q0 133 -155 133q-113 0 -236 -41l-65 96q182 164 432 164q170 0 255 -90t85 -256v-363q0 -100 63 -100q10 0 76 12l29 -69q-55 -66 -107.5 -98.5t-130.5 -32.5t-144.5 31.5t-90.5 86.5q-94 -119 -236.5 -118.5t-221.5 75t-79 191.5z M387 451q0 -45 23.5 -73t74 -28t90.5 49v226l-57 -19q-131 -40 -131 -155zM479 1253l197 379h6q49 0 111.5 -31.5t99.5 -68.5v-41l-332 -287z" />
<glyph unicode="&#xe2;" horiz-adv-x="1044" d="M49 424q0 213 287 270l239 47v62q0 133 -155 133q-113 0 -236 -41l-65 96q182 164 432 164q170 0 255 -90t85 -256v-363q0 -100 63 -100q10 0 76 12l29 -69q-55 -66 -107.5 -98.5t-130.5 -32.5t-144.5 31.5t-90.5 86.5q-94 -119 -236.5 -118.5t-221.5 75t-79 191.5z M186 1270l289 313h131l289 -313l-66 -56l-288 166l-287 -166zM387 451q0 -45 23.5 -73t74 -28t90.5 49v226l-57 -19q-131 -40 -131 -155z" />
<glyph unicode="&#xe3;" horiz-adv-x="1044" d="M49 424q0 213 287 270l239 47v62q0 133 -155 133q-113 0 -236 -41l-65 96q182 164 432 164q170 0 255 -90t85 -256v-363q0 -100 63 -100q10 0 76 12l29 -69q-55 -66 -107.5 -98.5t-130.5 -32.5t-144.5 31.5t-90.5 86.5q-94 -119 -236.5 -118.5t-221.5 75t-79 191.5z M227 1276q10 145 64.5 224t146.5 79q47 0 132 -54.5t132 -54.5q80 0 101 93h82q-10 -145 -64.5 -224t-146.5 -79q-47 0 -133 54t-131 54q-80 0 -101 -92h-82zM387 451q0 -45 23.5 -73t74 -28t90.5 49v226l-57 -19q-131 -40 -131 -155z" />
<glyph unicode="&#xe4;" horiz-adv-x="1044" d="M49 424q0 213 287 270l239 47v62q0 133 -155 133q-113 0 -236 -41l-65 96q182 164 432 164q170 0 255 -90t85 -256v-363q0 -100 63 -100q10 0 76 12l29 -69q-55 -66 -107.5 -98.5t-130.5 -32.5t-144.5 31.5t-90.5 86.5q-94 -119 -236.5 -118.5t-221.5 75t-79 191.5z M227 1375.5q0 56.5 39 97t91.5 40.5t92 -40.5t39.5 -97t-39.5 -97.5t-92 -41t-91.5 41t-39 97.5zM387 451q0 -45 23.5 -73t74 -28t90.5 49v226l-57 -19q-131 -40 -131 -155zM596 1375.5q0 56.5 38 97t91 40.5t92 -40.5t39 -97t-39 -97.5t-91 -41t-91 41t-39 97.5z" />
<glyph unicode="&#xe5;" horiz-adv-x="1044" d="M49 424q0 213 287 270l239 47v62q0 133 -155 133q-113 0 -236 -41l-65 96q182 164 432 164q170 0 255 -90t85 -256v-363q0 -100 63 -100q10 0 76 12l29 -69q-55 -66 -107.5 -98.5t-130.5 -32.5t-144.5 31.5t-90.5 86.5q-94 -119 -236.5 -118.5t-221.5 75t-79 191.5z M305 1394.5q0 73.5 69.5 120t166 46.5t166 -46.5t69.5 -120t-69.5 -120.5t-166 -47t-166 47t-69.5 120.5zM387 451q0 -45 23.5 -73t74 -28t90.5 49v226l-57 -19q-131 -40 -131 -155zM467 1394q0 -87 73.5 -87t73.5 87t-73.5 87t-73.5 -87z" />
<glyph unicode="&#xe6;" horiz-adv-x="1548" d="M49 332q0 213 287 270l239 47v62q0 133 -155 133q-113 0 -236 -41l-65 96q182 164 432 164q164 0 250 -86q137 86 303 86q147 0 260 -82q125 -92 125 -319q-16 -49 -41 -84h-535v-5q0 -317 238 -317q125 0 285 61l47 -73q-174 -178 -422 -178q-102 0 -207.5 46 t-177.5 134q-115 -180 -328 -180q-137 0 -218 74.5t-81 191.5zM387 358q0 -45 23.5 -72.5t60.5 -27.5q84 0 141 94q-33 76 -37 180l-57 -18q-131 -41 -131 -156zM920 688l159 12l92 5q-2 206 -92 206q-129 0 -159 -223z" />
<glyph unicode="&#xe7;" horiz-adv-x="917" d="M49 633q0 238 156.5 380t380.5 142q135 0 268 -57q-2 -109 -33 -297q-39 0 -76 10q-10 90 -55 141.5t-110 51.5q-193 0 -193 -327t207 -327q111 0 262 60l47 -74q-133 -141 -323 -172l-21 -105q94 -6 136 -46t42 -95q0 -88 -86 -141t-223 -53t-268 79l47 66 q98 -53 182 -53q166 0 166 88q0 63 -100 63q-39 0 -101 -10l43 213q-147 35 -247.5 152.5t-100.5 310.5z" />
<glyph unicode="&#xe8;" horiz-adv-x="1021" d="M49 633q0 238 153.5 380t375.5 142q147 0 258 -82q127 -92 127 -319q-16 -49 -41 -84h-535v-4q0 -317 238 -318q125 0 284 62l47 -74q-174 -178 -421 -178q-170 0 -320 112q-74 57 -120 151.5t-46 211.5zM242 1518v43q35 35 100.5 67.5t116.5 32.5l196 -379l-82 -49z M393 780l160 13l92 4q-2 207 -92 207q-129 0 -160 -224z" />
<glyph unicode="&#xe9;" horiz-adv-x="1021" d="M49 633q0 238 153.5 380t375.5 142q147 0 258 -82q127 -92 127 -319q-16 -49 -41 -84h-535v-4q0 -317 238 -318q125 0 284 62l47 -74q-174 -178 -421 -178q-170 0 -320 112q-74 57 -120 151.5t-46 211.5zM393 780l160 13l92 4q-2 207 -92 207q-129 0 -160 -224zM508 1255 l197 379h6q49 0 111.5 -31.5t99.5 -68.5v-41l-332 -287z" />
<glyph unicode="&#xea;" horiz-adv-x="1021" d="M49 633q0 238 153.5 380t375.5 142q147 0 258 -82q127 -92 127 -319q-16 -49 -41 -84h-535v-4q0 -317 238 -318q125 0 284 62l47 -74q-174 -178 -421 -178q-170 0 -320 112q-74 57 -120 151.5t-46 211.5zM215 1270l289 313h131l289 -313l-66 -56l-289 166l-286 -166z M393 780l160 13l92 4q-2 207 -92 207q-129 0 -160 -224z" />
<glyph unicode="&#xeb;" horiz-adv-x="1021" d="M49 633q0 238 153.5 380t375.5 142q147 0 258 -82q127 -92 127 -319q-16 -49 -41 -84h-535v-4q0 -317 238 -318q125 0 284 62l47 -74q-174 -178 -421 -178q-170 0 -320 112q-74 57 -120 151.5t-46 211.5zM254 1375.5q0 56.5 39 97t91 40.5t92 -40.5t40 -97t-40 -97.5 t-92 -41t-91 41t-39 97.5zM393 780l160 13l92 4q-2 207 -92 207q-129 0 -160 -224zM623 1375.5q0 56.5 37.5 97t91 40.5t92.5 -40.5t39 -97t-39 -97.5t-91.5 -41t-91 41t-38.5 97.5z" />
<glyph unicode="&#xec;" horiz-adv-x="696" d="M31 1518v43q35 35 100.5 67.5t116.5 32.5l196 -379l-82 -49zM51 184v48t10 69q63 10 96 35.5t33 85.5v530q-31 4 -66.5 4t-70.5 -2q4 72 19 115q199 68 436 78v-825q49 -21 115 -21v-42t-9 -75h-563z" />
<glyph unicode="&#xed;" horiz-adv-x="696" d="M49 184v48t10 69q63 10 96 35.5t33 85.5v530q-31 4 -66.5 4t-70.5 -2q4 72 19 115q199 68 436 78v-825q49 -21 115 -21v-42t-9 -75h-563zM295 1255l197 379h6q49 0 111.5 -31.5t99.5 -68.5v-41l-332 -287z" />
<glyph unicode="&#xee;" horiz-adv-x="696" d="M6 1270l289 313h131l289 -313l-66 -56l-289 166l-286 -166zM51 184v48t10 69q63 10 96 35.5t33 85.5v530q-31 4 -66.5 4t-70.5 -2q4 72 19 115q199 68 436 78v-825q49 -21 115 -21v-42t-9 -75h-563z" />
<glyph unicode="&#xef;" horiz-adv-x="696" d="M45 1375.5q0 56.5 39 97t91 40.5t92 -40.5t40 -97t-40 -97.5t-92 -41t-91 41t-39 97.5zM51 184v48t10 69q63 10 96 35.5t33 85.5v530q-31 4 -66.5 4t-70.5 -2q4 72 19 115q199 68 436 78v-825q49 -21 115 -21v-42t-9 -75h-563zM414 1375.5q0 56.5 37.5 97t91 40.5 t92.5 -40.5t39 -97t-39 -97.5t-91 -41t-91 41t-39 97.5z" />
<glyph unicode="&#xf0;" horiz-adv-x="1110" d="M49 539.5q0 236.5 174 380t402 143.5h49q-23 96 -64 178l-219 -92q-49 41 -65 119l217 90q-49 74 -119 149l92 84q102 -72 191 -166l215 91q49 -45 67 -117l-190 -80q250 -321 250 -653q0 -285 -150.5 -440.5t-367 -155.5t-349.5 116.5t-133 353zM387 545 q15 -334 160 -334q72 0 117 110.5t45 296t-11 281.5q-43 12 -90 12q-221 0 -221 -331v-35z" />
<glyph unicode="&#xf1;" horiz-adv-x="1310" d="M49 184v48t10 69q63 10 96 35.5t33 85.5v528q-31 4 -66.5 4t-70.5 -2q4 72 19 113q186 68 407 80q18 -100 25 -184q98 195 321 194q143 0 230.5 -86t87.5 -238v-507q84 -23 137 -23v-42t-10 -75h-555q-2 16 -2 45t10 72q53 10 77.5 34.5t24.5 86.5v369q0 80 -36.5 119.5 t-96.5 39.5q-119 0 -184 -184v-444q49 -20 115 -21v-42t-9 -75h-563zM360 1276q10 145 64.5 224t146.5 79q45 0 131 -54.5t134 -54.5q80 0 100 93h82q-10 -145 -64.5 -224t-146.5 -79q-47 0 -133 54t-131 54q-80 0 -101 -92h-82z" />
<glyph unicode="&#xf2;" horiz-adv-x="1128" d="M49 658.5q0 244.5 143.5 370.5t373 126t371.5 -126t142 -370.5t-143 -370.5t-372.5 -126t-372 126t-142.5 370.5zM236 1518v43q35 35 100.5 67.5t116.5 32.5l196 -379l-82 -49zM387 657q14 -354 191 -354q90 0 125.5 79t35.5 226q0 406 -186 406q-166 0 -166 -312v-45z " />
<glyph unicode="&#xf3;" horiz-adv-x="1128" d="M49 658.5q0 244.5 143.5 370.5t373 126t371.5 -126t142 -370.5t-143 -370.5t-372.5 -126t-372 126t-142.5 370.5zM387 657q14 -354 191 -354q90 0 125.5 79t35.5 226q0 406 -186 406q-166 0 -166 -312v-45zM502 1255l196 379h7q49 0 111.5 -31.5t98.5 -68.5v-41 l-331 -287z" />
<glyph unicode="&#xf4;" horiz-adv-x="1128" d="M49 658.5q0 244.5 143.5 370.5t373 126t371.5 -126t142 -370.5t-143 -370.5t-372.5 -126t-372 126t-142.5 370.5zM209 1270l289 313h131l289 -313l-66 -56l-289 166l-287 -166zM387 657q14 -354 191 -354q90 0 125.5 79t35.5 226q0 406 -186 406q-166 0 -166 -312v-45z " />
<glyph unicode="&#xf5;" horiz-adv-x="1128" d="M49 658.5q0 244.5 143.5 370.5t373 126t371.5 -126t142 -370.5t-143 -370.5t-372.5 -126t-372 126t-142.5 370.5zM252 1276q10 145 64.5 224t146.5 79q45 0 131 -54.5t133 -54.5q80 0 100 93h82q-10 -145 -64 -224t-147 -79q-47 0 -133 54t-131 54q-80 0 -100 -92h-82z M387 657q14 -354 191 -354q90 0 125.5 79t35.5 226q0 406 -186 406q-166 0 -166 -312v-45z" />
<glyph unicode="&#xf6;" horiz-adv-x="1128" d="M49 658.5q0 244.5 143.5 370.5t373 126t371.5 -126t142 -370.5t-143 -370.5t-372.5 -126t-372 126t-142.5 370.5zM250 1375.5q0 56.5 39 97t91 40.5t92 -40.5t40 -97t-40 -97.5t-92 -41t-91 41t-39 97.5zM387 657q14 -354 191 -354q90 0 125.5 79t35.5 226 q0 406 -186 406q-166 0 -166 -312v-45zM618 1375.5q0 56.5 38 97t91.5 40.5t92.5 -40.5t39 -97t-39 -97.5t-91.5 -41t-91.5 41t-39 97.5z" />
<glyph unicode="&#xf7;" horiz-adv-x="1402" d="M154 815v21h974l107 -215v-19h-975zM524 332q0 74 51.5 126t125 52t126 -52t52.5 -126t-52.5 -125t-126 -51t-125 51t-51.5 125zM524 1098.5q0 70.5 51.5 123t125 52.5t126 -52.5t52.5 -124t-52.5 -122.5t-126 -51t-125 52t-51.5 122.5z" />
<glyph unicode="&#xf8;" horiz-adv-x="1128" d="M49 72l125 141q-125 129 -125 363.5t143.5 360.5t372.5 126q176 0 301 -74l66 74h147l-127 -141q127 -131 127 -365.5t-143 -360.5t-373 -126q-174 0 -303 73l-63 -71h-148zM387 610q0 -78 8 -149l305 344q-45 117 -147 117q-166 0 -166 -312zM426 330 q45 -119 143.5 -119t134 79t35.5 226q0 80 -8 156z" />
<glyph unicode="&#xf9;" horiz-adv-x="1290" d="M20 965q4 72 19 112q203 70 416 78v-629q0 -80 36.5 -118.5t96.5 -38.5q119 0 184 184v307q0 78 -22.5 117t-79.5 57q8 45 24 74q135 51 283 51q59 0 121 -8q-8 -74 -8 -219v-559q61 -14 116 -15q4 -35 4 -63.5v-42.5q-178 -74 -407 -78q-18 98 -25 180 q-104 -193 -323 -192q-143 0 -230.5 86t-87.5 237v478q-31 2 -61.5 2h-55.5zM285 1518v43q35 35 100.5 67.5t116.5 32.5l196 -379l-82 -49z" />
<glyph unicode="&#xfa;" horiz-adv-x="1290" d="M20 965q4 72 19 112q203 70 416 78v-629q0 -80 36.5 -118.5t96.5 -38.5q119 0 184 184v307q0 78 -22.5 117t-79.5 57q8 45 24 74q135 51 283 51q59 0 121 -8q-8 -74 -8 -219v-559q61 -14 116 -15q4 -35 4 -63.5v-42.5q-178 -74 -407 -78q-18 98 -25 180 q-104 -193 -323 -192q-143 0 -230.5 86t-87.5 237v478q-31 2 -61.5 2h-55.5zM551 1255l197 379h6q49 0 111.5 -31.5t99.5 -68.5v-41l-332 -287z" />
<glyph unicode="&#xfb;" horiz-adv-x="1290" d="M20 965q4 72 19 112q203 70 416 78v-629q0 -80 36.5 -118.5t96.5 -38.5q119 0 184 184v307q0 78 -22.5 117t-79.5 57q8 45 24 74q135 51 283 51q59 0 121 -8q-8 -74 -8 -219v-559q61 -14 116 -15q4 -35 4 -63.5v-42.5q-178 -74 -407 -78q-18 98 -25 180 q-104 -193 -323 -192q-143 0 -230.5 86t-87.5 237v478q-31 2 -61.5 2h-55.5zM258 1270l289 313h131l289 -313l-66 -56l-289 166l-286 -166z" />
<glyph unicode="&#xfc;" horiz-adv-x="1290" d="M20 965q4 72 19 112q203 70 416 78v-629q0 -80 36.5 -118.5t96.5 -38.5q119 0 184 184v307q0 78 -22.5 117t-79.5 57q8 45 24 74q135 51 283 51q59 0 121 -8q-8 -74 -8 -219v-559q61 -14 116 -15q4 -35 4 -63.5v-42.5q-178 -74 -407 -78q-18 98 -25 180 q-104 -193 -323 -192q-143 0 -230.5 86t-87.5 237v478q-31 2 -61.5 2h-55.5zM299 1375.5q0 56.5 39 97t91 40.5t92 -40.5t40 -97t-40 -97.5t-92 -41t-91 41t-39 97.5zM668 1375.5q0 56.5 37.5 97t91 40.5t92.5 -40.5t39 -97t-39 -97.5t-91.5 -41t-91 41t-38.5 97.5z" />
<glyph unicode="&#xfd;" horiz-adv-x="1110" d="M-18 1086.5q0 27.5 2 41.5h563q8 -31 8 -112q-78 0 -115 -10l178 -621q14 72 44 143l145 355q14 39 14 60.5t-6 33.5q-16 29 -82 39q-10 43 -10 70.5t2 41.5h416q2 -57 -25 -112q-43 -2 -92 -19l-465 -1005q-135 -297 -319 -297h-45q-29 102 -29 175t4 112h68 q90 0 141 23.5t90 82.5l-336 805q-23 57 -50.5 84t-90.5 39q-10 43 -10 70.5zM578 1255l196 379h6q49 0 111.5 -31.5t99.5 -68.5v-41l-332 -287z" />
<glyph unicode="&#xfe;" horiz-adv-x="1212" d="M49 -350q0 33 12 69q63 10 95 35t32 86v1532q-23 4 -59.5 4t-77.5 -2q4 74 19 115q197 70 436 78v-621q94 117 257 117t280.5 -130t117.5 -367.5t-117.5 -368.5t-280.5 -131t-257 116v-420q78 -39 184 -43v-41.5t-8 -74.5h-633v47zM506 385q18 -63 59 -104t86 -41 q170 0 170 324.5t-170 324.5q-45 0 -86 -41t-59 -105v-358z" />
<glyph unicode="&#xff;" horiz-adv-x="1110" d="M-18 1086.5q0 27.5 2 41.5h563q8 -31 8 -112q-78 0 -115 -10l178 -621q14 72 44 143l145 355q14 39 14 60.5t-6 33.5q-16 29 -82 39q-10 43 -10 70.5t2 41.5h416q2 -57 -25 -112q-43 -2 -92 -19l-465 -1005q-135 -297 -319 -297h-45q-29 102 -29 175t4 112h68 q90 0 141 23.5t90 82.5l-336 805q-23 57 -50.5 84t-90.5 39q-10 43 -10 70.5zM326 1377.5q0 56.5 38.5 97.5t91 41t92.5 -41t40 -97.5t-40 -97.5t-92.5 -41t-91 41t-38.5 97.5zM694 1377.5q0 56.5 38 97.5t91.5 41t92 -41t38.5 -97.5t-38.5 -97.5t-91 -41t-91.5 41t-39 97.5 z" />
<glyph unicode="&#x152;" horiz-adv-x="2048" d="M102 751.5q0 309.5 191.5 505t472.5 195.5q125 0 301 -29h854v-146t-12 -235q-49 -4 -137 -4q-14 152 -33 189q-31 70 -127 69h-275v-473l271 29h90v-180h-90l-271 18v-469h277q76 0 115 45q16 18 28.5 60t16.5 67l10 99v6q23 2 63.5 2t79.5 -11q10 -135 10 -235t-2 -162 h-886q-180 -29 -322 -29q-276 0 -450.5 189.5t-174.5 499zM494 815q0 -31 2 -110.5t11 -165.5t34 -166q49 -162 194 -162q172 0 275 121v850q-85 123 -230 123q-287 0 -286 -490z" />
<glyph unicode="&#x153;" horiz-adv-x="1724" d="M49 566.5q0 244.5 143.5 370.5t377 126t360.5 -150q133 150 352 150q145 0 258 -82q125 -92 125 -319q-14 -47 -41 -84h-532v-5q0 -317 237 -317q119 0 264 78l54 -94q-178 -174 -410 -174q-86 0 -174 33.5t-145 101.5q-119 -131 -351.5 -131t-375 126t-142.5 370.5z M387 565q14 -354 191 -354q90 0 125.5 79t35.5 226q0 406 -186 406q-166 0 -166 -312v-45zM1098 688l157 12l93 5q-3 206 -91 206q-55 0 -99 -53t-60 -170z" />
<glyph unicode="&#x178;" horiz-adv-x="1382" d="M10 1516h658q14 -68 14 -113q-135 -12 -135 -82q0 -27 20 -64l211 -387h8q23 82 80 179l195 337q-41 14 -107 17q4 61 15 113h401q-4 -59 -16 -113q-90 -12 -125 -62q-14 -18 -41 -59l-316 -526v-441q47 -14 160 -14q0 -66 -8 -117h-662v42t7 75q45 8 68.5 15.5t49 35 t25.5 72.5v332l-379 633q-49 14 -77.5 14h-35.5q-10 68 -10 113zM453 1762.5q0 56.5 38.5 97.5t91 41t92.5 -41t40 -97.5t-40 -97.5t-92.5 -41t-91 41t-38.5 97.5zM821 1762.5q0 56.5 38 97.5t91.5 41t92 -41t38.5 -97.5t-38.5 -97.5t-91 -41t-91.5 41t-39 97.5z" />
<glyph unicode="&#x2c6;" horiz-adv-x="749" d="M20 1178l289 313h131l289 -313l-65 -56l-289 166l-287 -166z" />
<glyph unicode="&#x2dc;" horiz-adv-x="718" d="M41 1184q10 145 64.5 224t146.5 79q47 0 133 -54.5t131 -54.5q80 0 100 92h82q-10 -145 -64 -224t-147 -79q-47 0 -132 54.5t-132 54.5q-80 0 -100 -92h-82z" />
<glyph unicode="&#x2000;" horiz-adv-x="1024" />
<glyph unicode="&#x2001;" horiz-adv-x="2048" />
<glyph unicode="&#x2002;" horiz-adv-x="1024" />
<glyph unicode="&#x2003;" horiz-adv-x="2048" />
<glyph unicode="&#x2004;" horiz-adv-x="682" />
<glyph unicode="&#x2005;" horiz-adv-x="512" />
<glyph unicode="&#x2006;" horiz-adv-x="341" />
<glyph unicode="&#x2007;" horiz-adv-x="341" />
<glyph unicode="&#x2008;" horiz-adv-x="256" />
<glyph unicode="&#x2009;" horiz-adv-x="409" />
<glyph unicode="&#x200a;" horiz-adv-x="113" />
<glyph unicode="&#x2010;" horiz-adv-x="1288" d="M154 815v21h862l106 -215v-19h-862z" />
<glyph unicode="&#x2011;" horiz-adv-x="1288" d="M154 815v21h862l106 -215v-19h-862z" />
<glyph unicode="&#x2012;" horiz-adv-x="1288" d="M154 815v21h862l106 -215v-19h-862z" />
<glyph unicode="&#x2013;" horiz-adv-x="1433" d="M154 815v21h1011l109 -215v-19h-1014z" />
<glyph unicode="&#x2014;" horiz-adv-x="1570" d="M154 815v21h1128l107 -215v-19h-1129z" />
<glyph unicode="&#x2018;" horiz-adv-x="632" d="M164 1372q0 115 54 239t130 212l148 -66q-125 -170 -125 -287.5t139 -193.5v-16l-121 -201q-225 84 -225 313z" />
<glyph unicode="&#x2019;" horiz-adv-x="632" d="M123 1606v18l121 199q225 -84 225 -312q2 -115 -52.5 -238.5t-131.5 -213.5l-148 67q127 164 125 284t-139 196z" />
<glyph unicode="&#x201a;" horiz-adv-x="630" d="M123 270v17l121 198q223 -80 223 -309q2 -117 -52.5 -241.5t-131.5 -210.5l-146 67q125 162 123 283t-137 196z" />
<glyph unicode="&#x201c;" horiz-adv-x="1032" d="M164 1337q0 115 53 240t131 213l148 -68q-125 -156 -125 -279.5t137 -201.5v-16l-119 -199q-225 82 -225 311zM561 1337q0 115 54.5 239t132.5 214l145 -68q-125 -162 -125 -281.5t141 -199.5v-16l-121 -199q-223 82 -227 311z" />
<glyph unicode="&#x201d;" horiz-adv-x="1032" d="M123 1573v16l123 201q223 -84 223 -313q2 -115 -52.5 -239t-131.5 -212l-146 66q125 174 125 280q-4 123 -141 201zM522 1573v16l121 201q225 -84 225 -313q0 -115 -53 -240t-131 -211l-147 66q125 164 125 283.5t-140 197.5z" />
<glyph unicode="&#x201e;" horiz-adv-x="1032" d="M123 270v17l123 200q223 -84 223 -313q2 -115 -52.5 -238.5t-131.5 -211.5l-146 65q125 174 125 281q-4 123 -141 200zM522 270v17l121 200q225 -84 225 -313q0 -115 -53 -239.5t-131 -210.5l-147 65q125 164 125 284t-140 197z" />
<glyph unicode="&#x2022;" horiz-adv-x="714" d="M147 700q0 86 61.5 148.5t147.5 62.5t148.5 -62.5t62.5 -148.5t-62.5 -147t-148.5 -61t-147.5 61t-61.5 147z" />
<glyph unicode="&#x2026;" horiz-adv-x="1509" d="M96 241.5q0 71.5 51.5 124t124 52.5t125 -52.5t52.5 -124t-52.5 -123.5t-124 -52t-124 52t-52.5 123.5zM578 241.5q0 71.5 51 124t124.5 52.5t126 -52.5t52.5 -124t-53.5 -123.5t-125 -52t-123.5 52t-52 123.5zM1061 241.5q0 71.5 52 124t124 52.5t124 -52.5t52 -124 t-52 -123.5t-124 -52t-124 52t-52 123.5z" />
<glyph unicode="&#x202f;" horiz-adv-x="409" />
<glyph unicode="&#x2039;" horiz-adv-x="1024" d="M250 719l379 426l112 -58l-233 -368l233 -369l-112 -61z" />
<glyph unicode="&#x203a;" horiz-adv-x="1024" d="M281 442l233 369l-233 369l112 57l379 -426l-379 -430z" />
<glyph unicode="&#x205f;" horiz-adv-x="512" />
<glyph unicode="&#x20ac;" horiz-adv-x="1232" d="M37 815q0 70 31 137h161q45 242 190.5 370t337 128t359.5 -135l-45 -115q-102 39 -213 39q-227 0 -278 -287h372v-14q0 -61 -30 -123h-359l-2 -57l2 -66h377v-14q0 -61 -31 -123h-329q57 -279 278 -279q106 0 213 89l59 -82q-160 -217 -380 -217q-186 0 -330 125.5 t-189 363.5h-186q0 70 31 137h139q-2 20 -2 62.5t2 60.5h-178z" />
<glyph unicode="&#x2122;" horiz-adv-x="1814" d="M59 1312q0 48 9 111h628q8 -55 8.5 -108t-2.5 -86q-37 -10 -61 -6q-6 74 -29.5 101.5t-70.5 27.5h-68v-586q29 -10 78 -10q0 -39 -6 -66h-330q0 45 8 66q70 8 70 65v531h-72q-47 0 -69.5 -28t-28.5 -101q-29 -4 -62 6q-2 35 -2 83zM754 690q4 53 8 66q72 8 74 63l22 535 q-25 8 -84 8q4 49 8 61h312l139 -422l166 422h291q2 -31 0 -61q-2 0 -9 -2q-53 -14 -61 -43q-2 -10 -2 -23l24 -534q27 -4 87 -4q2 -15 2 -31t-2 -35h-365q-2 16 -2 32.5t2 33.5q94 10 94 65v467l-235 -598h-47l-211 598l-29 -524q27 -8 84 -8q-4 -45 -8 -66h-258z" />
<glyph unicode="&#x25fc;" horiz-adv-x="1034" d="M0 0v1034h1034v-1034h-1034z" />
</font>
</defs>
</svg>
