<?xml version="1.0" standalone="no"?>
<!DOCTYPE svg PUBLIC "-//W3C//DTD SVG 1.1//EN" "http://www.w3.org/Graphics/SVG/1.1/DTD/svg11.dtd" >
<svg xmlns="http://www.w3.org/2000/svg">
<metadata></metadata>
<defs>
<font id="libre_franklinsemibold_italic" horiz-adv-x="1142" >
<font-face units-per-em="2048" ascent="1638" descent="-410" />
<missing-glyph horiz-adv-x="428" />
<glyph unicode="&#xfb01;" horiz-adv-x="1331" d="M98 934l19 129q4 12 9 17t21 5h156q14 0 23.5 10.5t11.5 24.5l18 133q18 131 98.5 199t217.5 68h194q18 0 29.5 -9.5t9.5 -25.5l-16 -125q-2 -12 -8.5 -16.5t-20.5 -4.5h-119q-53 0 -88 -34.5t-43 -92.5l-16 -106v-4q0 -16 20 -17h197q31 1 25 -26l-19 -135 q-2 -14 -8 -19.5t-21 -5.5h-198q-18 0 -21 -29l-118 -843q-2 -18 -8.5 -22.5t-20.5 -4.5h-209q-12 0 -21.5 12.5t-7.5 26.5l119 846q4 14 -12 14h-172q-25 0 -21 35zM866 45l142 1014q2 16 8 21t20 5h215q12 0 18.5 -11t4.5 -27l-143 -1010q-2 -25 -11.5 -31t-36.5 -6h-178 q-23 0 -33 12.5t-6 32.5zM1036 1288l29 195q4 37 35 37h217q12 0 18.5 -12.5t1.5 -30.5l-26 -199q-4 -23 -14.5 -31t-36.5 -8h-197q-35 0 -27 49z" />
<glyph unicode="&#xfb02;" horiz-adv-x="1333" d="M98 934l19 129q4 12 9 17t21 5h156q14 0 23.5 10.5t11.5 24.5l18 133q18 131 98.5 199t217.5 68h194q18 0 29.5 -9.5t9.5 -25.5l-16 -125q-2 -12 -8.5 -16.5t-20.5 -4.5h-119q-53 0 -88 -34.5t-43 -92.5l-16 -106v-4q0 -16 20 -17h197q31 1 25 -26l-19 -135 q-2 -14 -8 -19.5t-21 -5.5h-198q-18 0 -21 -29l-118 -843q-2 -18 -8.5 -22.5t-20.5 -4.5h-209q-12 0 -21.5 12.5t-7.5 26.5l119 846q4 14 -12 14h-172q-25 0 -21 35zM864 45l211 1448q2 16 7.5 21.5t19.5 5.5h213q27 0 20 -35l-202 -1448q-4 -25 -12.5 -31t-37.5 -6h-178 q-23 0 -34 12.5t-7 32.5z" />
<glyph horiz-adv-x="0" />
<glyph horiz-adv-x="0" />
<glyph unicode="&#xd;" horiz-adv-x="428" />
<glyph unicode=" "  horiz-adv-x="428" />
<glyph unicode="&#x09;" horiz-adv-x="428" />
<glyph unicode="&#xa0;" horiz-adv-x="428" />
<glyph unicode="!" horiz-adv-x="526" d="M41 45l33 227q2 16 8 20.5t18 4.5h242q14 0 22.5 -10.5t6.5 -26.5l-33 -225q-2 -23 -11.5 -29t-37.5 -6h-207q-23 0 -33 12.5t-8 32.5zM168 481l76 1014q0 14 5 19.5t17 5.5h256q12 0 20.5 -12.5t6.5 -24.5l-207 -1012q-6 -20 -14.5 -26.5t-32.5 -6.5h-92q-39 0 -35 43z " />
<glyph unicode="&#x22;" horiz-adv-x="919" d="M170 1010l6 487q0 14 5 18.5t19 4.5h224q12 0 20 -11.5t6 -25.5l-131 -484q-6 -23 -13 -27.5t-34 -4.5h-65q-18 0 -28.5 12t-8.5 31zM588 1010l6 487q0 14 5 18.5t19 4.5h224q12 0 20 -11.5t6 -25.5l-131 -484q-6 -23 -13 -27.5t-34 -4.5h-65q-18 0 -28.5 12t-8.5 31z " />
<glyph unicode="#" horiz-adv-x="1234" d="M43 522l10 78q2 14 9.5 19.5t21.5 5.5h235l82 284h-194q-20 0 -29.5 12.5t-5.5 30.5l10 78q2 14 9.5 19.5t21.5 5.5h231l127 438q4 16 10.5 21.5t16.5 3.5l90 -11q14 -2 22.5 -13t6.5 -26l-121 -413h287l127 438q6 16 12 21.5t16 3.5l90 -11q14 -2 22.5 -13t6.5 -26 l-121 -413h199q12 0 17 -11.5t3 -25.5l-10 -76q-2 -20 -12 -26.5t-35 -6.5h-205l-82 -284h195q12 0 18 -11.5t4 -25.5l-12 -76q-2 -20 -11 -26.5t-34 -6.5h-203l-129 -444q-4 -20 -9 -27.5t-17 -7.5q-10 0 -17 2l-63 8q-47 6 -41 41l125 428h-289l-129 -444q-4 -20 -9 -27.5 t-18 -7.5q-10 0 -16 2l-63 8q-47 6 -41 41l124 428h-196q-20 0 -30.5 12.5t-6.5 30.5zM471 625h287l82 284h-287z" />
<glyph unicode="$" horiz-adv-x="1306" d="M12 238q0 8 11 18l118 109q14 10 21 10q18 0 31 -27q59 -72 128.5 -111.5t167.5 -50.5h5q16 0 26 8.5t12 20.5l58 403v11q0 20 -19 30q-207 53 -300 146.5t-93 230.5q0 35 6 72q23 160 151 270.5t335 143.5q16 2 32.5 13t18.5 24l12 86q2 10 5 13t14 3h118 q16 0 26.5 -11.5t8.5 -31.5l-14 -88q0 -6 3 -9t9 -5q211 -35 340 -166q20 -6 21 -27q0 -10 -9 -18l-112 -115q-8 -8 -17 -8q-12 0 -28 26q-33 37 -86.5 67t-116.5 46h-4q-12 0 -22.5 -9t-12.5 -20l-55 -403v-10q0 -4 4 -6.5t12 -4.5l98 -28q141 -51 222.5 -147.5 t81.5 -229.5q0 -127 -63.5 -230.5t-178.5 -168t-260 -76.5q-25 -2 -34 -9.5t-13 -25.5l-11 -88q-2 -20 -10 -26.5t-33 -6.5h-98q-18 0 -28.5 12.5t-8.5 30.5l15 96q2 14 0 16.5t-13 2.5q-156 6 -260 58t-180 153q-31 16 -31 37zM412 1079q0 -53 37.5 -91t130.5 -75 q23 -2 38 10.5t19 34.5l49 353q2 12 -1 14t-13 -4q-117 -14 -188.5 -82t-71.5 -160zM702 193q0 -9 5.5 -6t9.5 6q119 6 191.5 72.5t72.5 162.5q0 61 -42 103t-138 75h-6q-33 0 -39 -31z" />
<glyph unicode="%" horiz-adv-x="1914" d="M168 1042q0 41 6 80q16 121 77.5 216.5t154 149.5t194.5 54q145 0 235.5 -103.5t90.5 -267.5q0 -37 -6 -77q-16 -121 -77 -215.5t-151 -147.5t-192 -53q-147 0 -239.5 101.5t-92.5 262.5zM240 25q0 16 8 26l1188 1473q8 10 15 12t14.5 1t13.5 -1h92q16 0 24.5 -10 t-2.5 -27l-1202 -1493q-8 -10 -15 -12t-17.5 -2h-14.5l-74 2q-14 0 -22 9t-8 22zM362 1001q0 -184 132 -184q92 0 151.5 82t77.5 221q8 47 8 97q0 88 -33.5 137t-99.5 49q-90 0 -150.5 -85t-78.5 -226q-6 -49 -7 -91zM1051 344q0 37 6 80q16 121 77.5 216t152.5 149.5 t194 54.5q145 0 235 -103.5t90 -265.5q0 -39 -6 -80q-16 -121 -76.5 -215t-150.5 -147t-193 -53q-147 0 -238 100t-91 264zM1245 307q0 -90 33 -139t98 -49q88 0 149.5 83t80.5 220q6 49 6 90q0 92 -33 142.5t-98 50.5q-88 0 -149.5 -85t-80.5 -227q-6 -45 -6 -86z" />
<glyph unicode="&#x26;" horiz-adv-x="1675" d="M55 338q0 33 6 70q16 117 106.5 216t274.5 201q16 6 26.5 13.5t10.5 17.5q0 6 -10 27q-96 113 -96 250q0 115 66.5 209t181 147t251.5 53q179 0 290.5 -80t111.5 -211q0 -14 -4 -43q-14 -102 -112.5 -206.5t-260.5 -178.5q-41 -6 -27 -32l215 -285q8 -8 11 -8q6 0 14 9 t18 23q68 55 138.5 143.5t103.5 155.5q6 8 16 9q10 0 25 -7l125 -43q16 -6 24.5 -23t2.5 -36q-76 -137 -297 -375q-18 -12 -22.5 -18t3.5 -19q49 -37 123 -62.5t150 -27.5q23 0 34 -11t7 -30l-19 -147q-4 -23 -12 -31t-25 -8q-135 0 -259 44t-204 116l-16 4q-14 0 -35 -25 q-225 -150 -491 -149q-211 0 -328 92t-117 256zM346 375q0 -80 59.5 -132.5t153.5 -52.5q72 0 148.5 31t132.5 80q39 18 24 43l-239 326q-9 12 -21 12q-14 0 -33 -18q-100 -43 -162.5 -122t-62.5 -167zM641 1171q-8 -72 41 -137l55 -73q4 -4 8 -5q14 0 31 17 q121 51 184.5 113.5t75.5 140.5l2 22q0 61 -44 93t-113 32q-95 0 -161.5 -60.5t-78.5 -142.5z" />
<glyph unicode="'" horiz-adv-x="501" d="M246 1010l6 487q0 14 5 18.5t19 4.5h224q12 0 20 -11.5t6 -25.5l-131 -484q-6 -23 -13 -27.5t-34 -4.5h-65q-18 0 -28.5 12t-8.5 31z" />
<glyph unicode="(" horiz-adv-x="622" d="M104 385q0 111 15 213q35 242 142.5 475.5t266.5 435.5q18 10 45 11h127q12 0 18.5 -11.5t2.5 -25.5q-137 -209 -234.5 -443.5t-130.5 -472.5q-16 -113 -16 -245q0 -303 109 -648q6 -4 5 -8t-14 -4h-135q-10 0 -18 9.5t-11 23.5q-84 180 -128 345t-44 345z" />
<glyph unicode=")" horiz-adv-x="622" d="M-84 -301q137 209 234.5 443.5t130.5 471.5q16 113 16 246q0 303 -109 647q-6 4 -5 8.5t14 4.5h135q10 0 18 -9.5t10 -23.5q84 -182 127 -345t43 -343q0 -109 -14 -215q-35 -242 -141.5 -475.5t-265.5 -436.5q-18 -10 -46 -10h-126q-13 0 -19 11.5t-2 25.5z" />
<glyph unicode="*" horiz-adv-x="892" d="M147 1202l56 105q6 10 10 10q6 0 16 -6l226 -101l6 -2q8 0 14 7.5t8 17.5l19 272q0 8 3 11.5t15 3.5h131q10 0 18.5 -11.5t4.5 -19.5l-60 -275q-2 -8 1 -6t10 4l258 107q4 2 10 2q8 0 15 -8t7 -19l21 -102v-12q0 -16 -14 -19l-256 -76q-10 -2 -16.5 -10t-2.5 -14 l146 -209q6 -8 6 -18q0 -14 -17 -25l-96 -59q-8 -6 -16 -7q-10 0 -17.5 6.5t-9.5 12.5l-115 242q0 2 -4 2t-12 -15l-190 -252q-2 -4 -11 -4q-8 0 -24 13l-90 69q-14 10 -15 23q0 6 6 14l215 219q4 6 6.5 10t-6.5 7l-239 71q-10 4 -15.5 15.5t-1.5 25.5z" />
<glyph unicode="+" horiz-adv-x="1175" d="M131 709l21 129q2 14 6 19t16 5h363l49 355q2 18 8 23t24 5h130q16 0 26 -11t6 -24l-47 -348h348q13 0 22 -11t7 -24l-20 -129q-2 -20 -10.5 -26t-35.5 -6h-339l-50 -363q-2 -12 -7 -15t-19 -3h-127q-20 0 -31.5 15t-7.5 40l45 326h-340q-41 0 -37 43z" />
<glyph unicode="," horiz-adv-x="489" d="M-33 -299q0 8 6 20l131 226q12 20 13 33q0 20 -29 20h-37q-20 0 -25.5 6t-2.5 23l32 231q2 16 11.5 27.5t21.5 11.5h246q27 0 22 -31l-32 -209q-2 -20 -15 -36l-225 -295q-18 -20 -32.5 -28.5t-31.5 -8.5h-38q-15 0 -15 10z" />
<glyph unicode="-" horiz-adv-x="778" d="M100 485l21 129q2 14 7 19.5t17 5.5h506q12 0 20.5 -11.5t6.5 -23.5l-19 -129q-2 -20 -11 -26.5t-34 -6.5h-475q-20 0 -30.5 12.5t-8.5 30.5z" />
<glyph unicode="." horiz-adv-x="485" d="M20 45l33 231q2 18 8.5 22.5t18.5 4.5h242q14 0 22 -11t4 -28l-31 -229q-2 -23 -11 -29t-38 -6h-207q-23 0 -34 13.5t-7 31.5z" />
<glyph unicode="/" horiz-adv-x="731" d="M-66 -20l728 1521q10 18 34 19h123q31 0 31 -27q0 -10 -6 -27l-711 -1489q-10 -20 -20.5 -25t-30.5 -5h-121q-16 0 -23.5 10t-3.5 23z" />
<glyph unicode="0" horiz-adv-x="1435" d="M125 594q0 70 14 174q33 236 135.5 411t252 269t323.5 94q156 0 273.5 -75.5t182 -217t64.5 -331.5q0 -80 -12 -177q-33 -233 -134.5 -405t-250 -263t-322.5 -91q-158 0 -276.5 73.5t-184 212t-65.5 326.5zM424 526q0 -328 238 -327q155 0 253.5 136t139.5 435 q18 156 18 223q0 334 -233 334q-152 0 -254.5 -143.5t-143.5 -444.5q-18 -123 -18 -213z" />
<glyph unicode="1" horiz-adv-x="1011" d="M18 29l25 178q2 12 7 16t22 4h233q20 0 23 23l133 950v6q0 10 -17 4l-233 -71q-4 -2 -14 -2q-27 0 -21 30l19 129q4 20 8 27.5t20 15.5l350 162q25 12 41.5 15.5t38.5 3.5h129q29 0 23 -33l-176 -1245v-4q0 -10 14 -11h219q29 1 27 -28l-25 -174q-4 -14 -10 -19.5 t-23 -5.5h-786q-18 0 -23.5 6t-3.5 23z" />
<glyph unicode="2" horiz-adv-x="1286" d="M14 47l19 133q4 23 18.5 40.5t71.5 60.5l455 374q211 166 298 269.5t87 205.5q0 88 -59.5 137.5t-155.5 49.5q-92 0 -186.5 -56.5t-168.5 -162.5q-8 -18 -26 -6l-185 110q-8 2 -8 12q0 12 19 37q106 139 259.5 214t321.5 75q217 0 349 -103.5t132 -287.5q0 -111 -44 -202 t-122.5 -170t-205.5 -177l-422 -324q-14 -10 -13 -18t13 -8h651q37 0 31 -29l-25 -194q-4 -14 -10 -20.5t-25 -6.5h-1028q-47 0 -41 47z" />
<glyph unicode="3" horiz-adv-x="1347" d="M30 254.5q-1 7.5 7 13.5l158 105q18 14 28 0q74 -92 162 -134t201 -42q152 0 254 75.5t102 198.5q0 96 -80 151.5t-203 57.5l-190 2q-23 0 -20 23l22 174q2 16 29 16l143 2q94 0 174 36t128 96.5t48 131.5q0 74 -61.5 120t-163.5 46q-106 0 -185 -38t-184 -118 q-16 -8 -18 -8q-12 0 -21 13l-116 127q-6 10 -6 16q0 12 12 24q104 92 243.5 144.5t286.5 52.5q160 0 274.5 -45t175 -125t60.5 -184q0 -127 -88 -230.5t-221 -146.5q-12 -4 -12 -10t12 -11q115 -31 185.5 -115.5t70.5 -201.5q0 -154 -83 -264.5t-233.5 -168.5t-351.5 -58 q-193 0 -323.5 68.5t-206.5 184.5q-8 14 -9 21.5z" />
<glyph unicode="4" horiz-adv-x="1382" d="M59 408l23 157q2 18 13 35.5t40 52.5l756 838q16 18 28.5 23.5t41.5 5.5h223q33 0 26 -33l-125 -887v-4q0 -10 15 -10h182q31 0 29 -27l-23 -158q-4 -16 -10 -21t-25 -5h-178q-10 0 -17 -6.5t-9 -18.5l-41 -317q-4 -20 -13.5 -26.5t-33.5 -6.5h-224q-20 0 -29.5 8 t-7.5 27l45 325v5q0 10 -14 10h-641q-18 0 -25.5 7t-5.5 26zM340 610q-23 -25 2 -24h414q12 0 17 5t7 17l82 570v6q0 10 -4 10q-8 0 -22 -20z" />
<glyph unicode="5" horiz-adv-x="1370" d="M41 254q0 10 14 20l154 103q8 4 12 4q14 0 33 -23q70 -78 141.5 -120.5t179.5 -42.5q117 0 208 46t141.5 125.5t50.5 178.5q0 100 -67.5 155.5t-186.5 55.5q-80 0 -148.5 -25.5t-160.5 -77.5q-16 -4 -21 -4q-14 0 -26 10l-154 93q-16 10 -16 32q0 8 4 33l153 668 q4 25 14.5 30t49.5 5h866q18 0 25.5 -5.5t7.5 -17.5q0 -10 -2 -16l-35 -181q-4 -16 -12.5 -21t-26.5 -5h-670q-16 0 -23 -6t-11 -21l-74 -332v-6q0 -14 16 -8q94 37 166 54.5t156 17.5q213 0 344 -105.5t131 -302.5q0 -178 -87 -310t-239.5 -203.5t-345.5 -71.5 q-184 0 -325.5 65.5t-225.5 181.5q-10 16 -10 27z" />
<glyph unicode="6" horiz-adv-x="1386" d="M123 573q0 80 12 172q35 246 138.5 425.5t261 273.5t352.5 94q106 0 199.5 -38t156 -100.5t76.5 -133.5v-6q0 -12 -14 -17l-189 -63q-2 -2 -6 -2q-12 0 -35 36q-37 55 -79 82t-113 27q-176 0 -289 -127t-141 -334l-4 -24q0 -8 8 -9q6 0 18 7q184 86 350 86 q143 0 249 -49.5t161 -138.5t55 -206q0 -156 -87 -280.5t-231.5 -195t-312.5 -70.5q-254 0 -395 157.5t-141 433.5zM408 483q0 -125 64.5 -211t186.5 -86q88 0 165 46.5t123 122t46 159.5q0 94 -63.5 149.5t-167.5 55.5q-70 0 -158 -25.5t-141 -56.5q-35 -23 -45 -55.5 t-10 -98.5z" />
<glyph unicode="7" horiz-adv-x="1253" d="M180 1313l45 182q4 14 12.5 19.5t28.5 5.5h1006q45 0 37 -45l-17 -99q-12 -57 -55 -106q-147 -180 -289.5 -414.5t-244 -455t-136.5 -363.5q-4 -23 -12 -30t-27 -7h-270q-14 0 -23.5 9t-9.5 26q0 16 4 24q233 561 713 1190q8 12 8 17q0 8 -20 8h-721q-35 0 -29 39z" />
<glyph unicode="8" horiz-adv-x="1388" d="M72 344q0 131 76.5 227.5t218.5 171.5q16 6 16 15q0 10 -14 18q-78 53 -117 107.5t-39 156.5q0 135 77 250t215 182.5t312 67.5q146 0 258.5 -48t175 -135t62.5 -200q0 -90 -41 -159.5t-93.5 -110.5t-121.5 -84q-12 -8 -13 -15q0 -4 13 -14q10 -6 74.5 -43t106.5 -109.5 t42 -170.5q0 -150 -90 -256.5t-242.5 -160.5t-339.5 -54q-248 0 -392 95t-144 269zM336 371q0 -86 74.5 -136.5t210.5 -50.5q165 0 262.5 69t97.5 179q0 63 -37 104.5t-119 67.5l-215 64q-6 2 -20 2q-45 0 -106.5 -43t-104.5 -113t-43 -143zM500 1079q0 -55 32.5 -92 t104.5 -57l166 -49q16 -4 26 -4q49 0 102.5 42t88.5 106.5t35 125.5q0 84 -63.5 134t-174.5 50q-92 0 -163.5 -34.5t-112.5 -94t-41 -127.5z" />
<glyph unicode="9" horiz-adv-x="1382" d="M119 256q0 14 16 20l184 62q4 2 11 2q18 0 35 -29q31 -57 77.5 -85.5t124.5 -28.5q172 0 283 127t141 333v11q0 16 -8 16q-6 0 -22 -6q-94 -39 -170 -59.5t-168 -20.5q-143 0 -248 50t-161 139.5t-56 205.5q0 156 87 281t232.5 194.5t310.5 69.5q252 0 392.5 -156.5 t140.5 -433.5q0 -258 -92 -479t-264 -354t-404 -133q-121 0 -214 39.5t-149.5 101t-76.5 125.5zM457 1008q0 -94 62.5 -150.5t164.5 -56.5q74 0 152.5 25.5t142.5 64.5q37 20 48 54t11 95q0 123 -63.5 209t-183.5 86q-88 0 -165 -46t-123 -121.5t-46 -159.5z" />
<glyph unicode=":" horiz-adv-x="485" d="M23 53l30 226q2 16 8.5 20t18.5 4h242q14 0 21 -11t5 -26l-31 -225q-4 -23 -13 -29t-36 -6h-207q-23 0 -33 13.5t-5 33.5zM127 803l31 225q2 16 8 20.5t20 4.5h242q14 0 22.5 -11.5t4.5 -25.5l-33 -225q-2 -23 -10.5 -29t-36.5 -6h-209q-23 0 -33 13t-6 34z" />
<glyph unicode=";" horiz-adv-x="509" d="M-31 -270l131 231q14 25 15 31q0 8 -19 8h-33q-20 0 -30 12.5t-8 30.5l32 233q2 14 7.5 18.5t19.5 4.5h244q12 0 20 -11.5t6 -25.5l-32 -219q-4 -20 -7 -27l-225 -305q-23 -27 -63 -26h-33q-14 0 -22.5 15t-2.5 30zM125 793l33 231q2 16 8 20.5t18 4.5h242 q14 0 22.5 -10.5t6.5 -26.5l-33 -230q-2 -23 -11.5 -28.5t-37.5 -5.5h-207q-45 0 -41 45z" />
<glyph unicode="&#x3c;" horiz-adv-x="1159" d="M111 649l20 160q2 20 11.5 29.5t29.5 15.5l887 330q12 4 18 4q18 0 30.5 -16.5t8.5 -34.5l-18 -133q-2 -23 -16.5 -35.5t-49.5 -26.5l-614 -221l538 -221q33 -14 47.5 -30.5t12.5 -41.5l-19 -129q-6 -37 -28 -37q-6 0 -27 8l-797 326q-16 6 -27.5 21.5t-6.5 31.5z" />
<glyph unicode="=" horiz-adv-x="1175" d="M94 434l17 129q2 14 8 19.5t18 5.5h907q12 0 20.5 -11.5t6.5 -23.5l-18 -129q-2 -20 -11.5 -26.5t-33.5 -6.5h-877q-20 0 -30.5 12.5t-6.5 30.5zM160 909l18 127q2 16 7 21.5t18 5.5h907q12 0 20.5 -11.5t6.5 -25.5l-17 -127q-2 -20 -12 -26.5t-35 -6.5h-876 q-41 0 -37 43z" />
<glyph unicode="&#x3e;" horiz-adv-x="1159" d="M94 313l19 129q2 25 15 36t52 26l613 217l-541 227q-66 27 -59 70l20 135q2 33 31 33q8 0 24 -6l795 -330q18 -6 28.5 -21.5t8.5 -33.5l-23 -160q-2 -18 -11 -27.5t-28 -15.5l-886 -328q-12 -4 -19 -4q-18 0 -29.5 15.5t-9.5 37.5z" />
<glyph unicode="?" horiz-adv-x="1087" d="M127 1237q0 12 2 18q86 137 226.5 211t314.5 74q137 0 238.5 -43t155.5 -117.5t54 -169.5q0 -31 -2 -45q-16 -109 -77.5 -182.5t-176.5 -167.5q-117 -96 -178 -170t-76 -180q-4 -20 -33 -21h-145q-16 0 -26.5 15.5t-8.5 40.5q18 131 86 222t183 196q90 84 134 139t54 125 q2 8 2 24q0 68 -52 108t-138 40q-92 0 -181.5 -54.5t-134.5 -138.5q-6 -6 -14 -6l-21 4l-168 45q-18 4 -18 33zM291 45l31 227q2 16 7 20.5t19 4.5h242q14 0 22.5 -10.5t5.5 -26.5l-32 -225q-2 -23 -11.5 -29t-35.5 -6h-209q-23 0 -33 13.5t-6 31.5z" />
<glyph unicode="@" horiz-adv-x="1708" d="M78 430q0 66 8 121q31 217 160 401.5t331.5 293t446.5 108.5q178 0 327.5 -61.5t240.5 -188.5t91 -313q0 -59 -8 -111q-20 -150 -86.5 -267.5t-165 -182t-211.5 -64.5q-86 0 -131 30.5t-55 82.5l-4 4q-6 0 -21 -29q-127 -117 -290 -117q-117 0 -192 83t-75 220q0 37 7 74 q18 123 82.5 228.5t164 168t215.5 62.5q152 0 211 -123h2q14 0 27 24l14 39q2 8 7.5 7.5t9.5 -0.5h125q8 0 14 -7.5t4 -15.5l-135 -440q-16 -59 -16 -84q0 -49 53 -49q59 0 116.5 44t101.5 129t60 199q6 49 6 92q0 213 -140 311.5t-351 98.5q-217 0 -380 -91t-261 -243.5 t-125 -341.5q-8 -49 -8 -108q0 -233 147.5 -366.5t419.5 -133.5q125 0 202 28.5t175 90.5q12 4 14 4q18 0 27 -21l49 -75q4 -12 4 -15q0 -10 -7 -19t-9 -11q-92 -58 -218 -92.5t-266 -34.5q-221 0 -381.5 86t-243.5 236.5t-83 338.5zM641 451q0 -68 29.5 -107t89.5 -39 q94 0 177 82t107 193q10 37 11 77q0 70 -36 109t-95 39q-72 0 -137.5 -49t-105.5 -131t-40 -174z" />
<glyph unicode="A" horiz-adv-x="1548" d="M-4 18q0 14 12 39l721 1434q8 18 21.5 23.5t35.5 5.5h258q35 0 43 -47l312 -1432l2 -12q0 -29 -27 -29h-248q-27 0 -32 33l-72 329q-2 10 -6 13.5t-17 3.5h-530q-12 0 -18.5 -5t-12.5 -18l-172 -340q-4 -10 -12 -13t-23 -3h-215q-20 0 -20 18zM549 621q0 -10 16 -11h393 q24 0 24 23q0 5 -1 10l-123 543q-2 18 -12 18t-19 -20l-272 -543q-6 -14 -6 -20z" />
<glyph unicode="B" horiz-adv-x="1464" d="M92 41l203 1446q2 18 11 25.5t26 7.5h526q268 0 410.5 -90.5t142.5 -260.5q0 -145 -84 -241.5t-233 -145.5q-14 -2 -14.5 -9t10.5 -11q129 -37 193.5 -110.5t64.5 -190.5q0 -252 -186.5 -356.5t-475.5 -104.5h-571q-15 0 -21 9q-4 5 -4 16q0 7 2 16zM420 225q0 -10 5 -13 t17 -3h242q145 0 249.5 66.5t104.5 207.5q0 90 -69.5 134.5t-190.5 44.5h-266q-16 0 -24.5 -7.5t-10.5 -25.5l-55 -393zM514 891q0 -16 21 -17h262q131 0 221 71t90 192q0 86 -69.5 130t-192.5 44h-240q-37 0 -39 -33l-51 -377z" />
<glyph unicode="C" horiz-adv-x="1472" d="M127 612q0 242 88 454t265 343t431 131q152 0 273 -60.5t190.5 -164t71.5 -230.5v-6q0 -29 -27 -28l-225 -15h-2q-20 0 -25 43q-10 113 -76.5 179.5t-183.5 66.5q-168 0 -273.5 -119t-151.5 -293t-46 -348q0 -182 74 -270t223 -88q135 0 236.5 66.5t173.5 205.5 q8 16 26 17q10 0 17 -2l182 -48q10 -4 10 -16q0 -14 -8 -37q-39 -90 -126 -185t-223 -161.5t-306 -66.5q-184 0 -316.5 77.5t-202 220t-69.5 334.5z" />
<glyph unicode="D" horiz-adv-x="1517" d="M92 51l203 1440q4 16 11 22.5t28 6.5h389q362 0 546.5 -160t184.5 -449q0 -283 -107.5 -487.5t-314.5 -314t-497 -109.5h-402q-19 0 -31 14q-10 12 -10 31v6zM425 243q0 -2 1 -3q0 -23 25 -23h112q295 0 436.5 186.5t141.5 522.5q0 197 -103.5 287t-312.5 90h-125 q-29 0 -35 -33l-139 -1020z" />
<glyph unicode="E" horiz-adv-x="1320" d="M92 45l205 1448q2 16 7 21.5t20 5.5h1001q22 0 22 -26q0 -6 -1 -13l-23 -154q-4 -18 -11 -25.5t-28 -7.5h-686q-16 0 -22.5 -5t-8.5 -21l-51 -369l-2 -12q0 -10 18 -10h480q16 0 20 -6.5t2 -20.5l-24 -174q-2 -12 -7.5 -16.5t-19.5 -4.5h-481q-12 0 -17.5 -6t-9.5 -22 l-51 -379v-8q0 -14 12 -15h727q14 0 20.5 -6t2.5 -22l-23 -172q-2 -14 -7 -19.5t-23 -5.5h-1006q-23 0 -31 10q-5 7 -5 20q0 7 1 15z" />
<glyph unicode="F" horiz-adv-x="1271" d="M90 20q0 14 2 25l205 1446q2 18 7 23.5t22 5.5h985q12 0 16 -6q3 -4 3 -13q0 -4 -1 -10l-24 -164q-2 -18 -8.5 -25.5t-26.5 -7.5h-676q-14 0 -20.5 -6t-8.5 -26l-53 -383l-2 -11q0 -14 20 -14h492q14 0 18 -4t2 -16l-22 -175q-2 -14 -9 -18t-24 -4h-487q-12 0 -18.5 -6 t-8.5 -29l-80 -569q-2 -20 -9 -26.5t-30 -6.5h-235q-16 0 -22.5 4t-6.5 16z" />
<glyph unicode="G" horiz-adv-x="1529" d="M125 602q0 256 97 470t276.5 341t416.5 127q156 0 279 -61.5t191.5 -163t70.5 -215.5q0 -18 -3 -25.5t-11 -9.5l-238 -35h-2q-8 0 -12 9.5t-8 35.5q-12 109 -84 178.5t-195 69.5q-158 0 -262 -110.5t-154.5 -284.5t-50.5 -367q0 -188 75 -276t220 -88t244.5 85t136.5 201 l14 78q4 12 4 14q0 10 -22 11h-281q-10 0 -14 5t-2 19l16 144q4 18 19 18l563 -2q20 0 26.5 -7t2.5 -24l-101 -714q-2 -25 -30 -25h-56q-16 0 -25 6t-14 23l-22 164q-2 10 -10 10q-12 0 -25 -15q-70 -90 -181.5 -149t-271.5 -59q-180 0 -310 75.5t-198.5 216t-68.5 330.5z " />
<glyph unicode="H" horiz-adv-x="1527" d="M90 35l207 1458q2 16 7 21.5t20 5.5h254q14 0 18 -6.5t0 -22.5l-76 -559l-2 -12q0 -16 21 -17h551q25 0 28 39l78 553q2 14 8 19.5t21 5.5h252q14 0 18 -10q3 -6 3 -19q0 -6 -1 -14l-205 -1446q-2 -20 -8 -25.5t-29 -5.5h-225q-25 0 -33 9t-4 32l84 614v4q0 10 -20 11 h-551q-25 0 -27 -31l-86 -606q-2 -20 -11 -26.5t-34 -6.5h-227q-21 0 -27 7q-5 5 -4 19v9z" />
<glyph unicode="I" horiz-adv-x="626" d="M92 45l205 1448q2 16 7 21.5t20 5.5h247q26 0 26 -29q0 -6 -1 -12l-203 -1442q-2 -25 -11 -31t-36 -6h-221q-23 0 -30 12q-4 7 -4 18q0 7 1 15z" />
<glyph unicode="J" horiz-adv-x="894" d="M2 57l47 179q4 16 10.5 20t22.5 0q29 -8 64.5 -16.5t72.5 -8.5q92 0 142.5 53.5t66.5 170.5l145 1038q2 16 8.5 21.5t20.5 5.5h252q21 0 21 -26q0 -7 -1 -15l-155 -1114q-29 -203 -134.5 -294t-301.5 -91q-113 0 -240 38q-27 10 -35 18q-6 6 -6 16v5z" />
<glyph unicode="K" horiz-adv-x="1492" d="M92 45l205 1448q2 16 7 21.5t20 5.5h245q14 0 22.5 -11.5t4.5 -27.5l-92 -660l-2 -10q0 -2 2 -2l20 20l650 668q12 14 24 18.5t39 4.5h231q27 0 27 -15q0 -10 -10 -20l-502 -498q-12 -14 -15 -21.5t-1 -21.5l372 -905q7 -13 7 -21q0 -18 -27 -18h-258q-35 0 -41 35 l-279 682q-2 6 -6 6q-6 0 -15 -10.5t-13 -14.5l-234 -235q-20 -18 -27 -43l-53 -387q-2 -18 -11 -25.5t-34 -7.5h-227q-30 0 -30 33q0 5 1 12z" />
<glyph unicode="L" horiz-adv-x="1267" d="M92 45l203 1444q2 18 9 24.5t22 6.5h249q27 0 21 -41l-172 -1227l-2 -10q0 -16 20 -17h676q25 0 25 -29v-8l-23 -163q-2 -14 -9 -19.5t-24 -5.5h-960q-36 0 -36 34q0 5 1 11z" />
<glyph unicode="M" horiz-adv-x="1912" d="M90 25l2 24l205 1444q2 18 7 22.5t22 4.5h348q33 0 39 -33l225 -967q2 -14 10 -14q6 0 17 18l489 963q8 18 17.5 25.5t23.5 7.5h367q23 0 23 -19q0 -5 -1 -10l-205 -1456q-2 -23 -10 -29t-33 -6h-219q-40 0 -40 33q0 6 1 12l148 1055q4 12 -2 12q-2 0 -11 -14l-542 -1073 q-8 -14 -16.5 -19.5t-24.5 -5.5h-150q-16 0 -24 7t-13 30l-235 1055q-2 14 -10 14q-6 0 -11 -12l-149 -1067q-4 -16 -10 -21.5t-23 -5.5h-190q-15 0 -20 5t-5 20z" />
<glyph unicode="N" horiz-adv-x="1552" d="M90 39l207 1454q2 16 7 21.5t24 5.5h202q18 0 28.5 -7.5t21.5 -25.5l526 -948q8 -14 20 -15q14 0 17 25l133 946q4 16 9 20.5t22 4.5h196q22 0 22 -22q0 -3 -1 -7l-207 -1468q-2 -14 -8 -18.5t-23 -4.5h-172q-27 0 -43 29l-563 995q-6 12 -14 12t-13 -22l-139 -985 q-4 -16 -10 -22.5t-27 -6.5h-188q-27 0 -27 31v8z" />
<glyph unicode="O" horiz-adv-x="1576" d="M125 598q0 82 12 170q33 240 139.5 414t271.5 266t372 92q279 0 435 -166t156 -463q0 -98 -12 -170q-33 -238 -138.5 -408.5t-269 -261.5t-370.5 -91q-283 0 -439.5 162.5t-156.5 455.5zM434 545q0 -180 74 -264t223 -84q193 0 304.5 138t152.5 431q14 109 14 203 q0 182 -71.5 269t-217.5 87q-190 0 -304.5 -144.5t-157.5 -443.5q-16 -115 -17 -192z" />
<glyph unicode="P" horiz-adv-x="1445" d="M92 43l205 1448q2 18 6 23.5t21 5.5h579q238 0 384.5 -101.5t146.5 -300.5q0 -164 -78 -280.5t-217.5 -177t-317.5 -60.5h-321q-27 0 -31 -29l-76 -538q-2 -20 -10 -26.5t-33 -6.5h-231q-28 0 -28 28q0 7 1 15zM506 836q0 -16 20 -17h277q143 0 232 83t89 216 q0 182 -258 182h-262q-18 0 -26.5 -8t-12.5 -26l-57 -418z" />
<glyph unicode="Q" horiz-adv-x="1581" d="M125 598q0 84 12 172q33 240 139.5 414t271.5 265t370 91q281 0 438 -166t157 -461q0 -82 -12 -172q-59 -428 -342 -628q-23 -16 -16 -29q12 -37 73.5 -75t137.5 -48q16 -4 21 -9t3 -18l-22 -157q-2 -20 -14.5 -26.5t-49.5 -6.5q-109 0 -210 60.5t-171 185.5 q-10 12 -20 12l-17 -4q-68 -18 -153 -18q-281 0 -438.5 162.5t-157.5 455.5zM434 541q0 -178 73 -261t222 -83q193 0 305.5 138t153.5 433q16 121 16 201q0 180 -72.5 268t-220.5 88q-193 0 -306 -145.5t-154 -442.5q-17 -120 -17 -196z" />
<glyph unicode="R" horiz-adv-x="1460" d="M92 45l205 1448q2 16 7 21.5t20 5.5h616q242 0 374 -93.5t132 -263.5q0 -160 -91 -284.5t-245 -173.5q-18 -8 -24.5 -14.5t-2.5 -16.5l191 -631q4 -16 4 -20q0 -23 -33 -23h-248q-33 0 -39 39l-153 598q-4 12 -9 16t-24 4h-266q-14 0 -20.5 -5t-8.5 -19l-84 -598 q-2 -23 -13 -29t-38 -6h-215q-36 0 -36 32q0 6 1 13zM512 885q0 -18 18 -19h275q151 0 238 72t87 205q0 86 -58 128t-169 42h-305q-14 0 -19.5 -7.5t-9.5 -23.5l-57 -391v-6z" />
<glyph unicode="S" horiz-adv-x="1361" d="M43 279q0 16 16 24l134 82q16 10 28 10q18 0 39 -24q53 -70 98 -108t111 -57.5t170 -19.5q145 0 234.5 57.5t89.5 174.5q0 55 -40 95t-132 73l-297 104q-141 47 -215 140.5t-74 209.5q0 147 83 261t223 176.5t306 62.5t294 -60.5t204 -156.5q14 -20 14 -29q0 -10 -12 -16 l-156 -104q-2 -2 -8 -3q-8 0 -20.5 12.5l-16.5 16.5q-49 55 -127 90t-186 35q-137 0 -224 -62.5t-87 -164.5q0 -106 161 -166l301 -105q158 -55 232 -138t74 -202q0 -160 -84 -274.5t-230.5 -173.5t-331.5 -59q-207 0 -348 70.5t-215 203.5q-8 14 -8 25z" />
<glyph unicode="T" horiz-adv-x="1370" d="M184 1323l25 172q2 14 8 19.5t25 5.5h1163q19 0 23 -6q2 -3 2 -8t-3 -13l-24 -172q-2 -14 -8 -18.5t-23 -4.5h-393q-18 0 -23.5 -5t-9.5 -21l-174 -1241q-2 -18 -8 -24.5t-23 -6.5h-241q-20 0 -26.5 8t-2.5 31l174 1235v6q0 18 -20 18h-414q-17 0 -23 6q-5 4 -4 13v6z " />
<glyph unicode="U" horiz-adv-x="1468" d="M137 434q0 43 13 154l129 903q2 18 7 23.5t19 5.5h244q14 0 23.5 -12.5t5.5 -28.5l-134 -951q-6 -49 -6 -90q0 -123 64.5 -180t193.5 -57q156 0 254.5 85t122.5 263l133 944q4 16 8.5 21.5t18.5 5.5h194q15 0 23 -12q7 -10 6 -23v-6l-133 -942q-41 -297 -207 -427 t-450 -130q-274 0 -401.5 113.5t-127.5 340.5z" />
<glyph unicode="V" horiz-adv-x="1482" d="M209 1497q0 23 29 23h247q14 0 21.5 -8.5t11.5 -30.5l213 -1098q4 -18 8 -18q8 0 15 16l524 1114q6 14 15.5 19.5t23.5 5.5h209q24 -1 24 -19q0 -12 -4 -18l-710 -1450q-10 -20 -22.5 -26.5t-35.5 -6.5h-215q-27 0 -39 7t-16 26l-297 1452z" />
<glyph unicode="W" horiz-adv-x="2193" d="M211 1487q0 33 41 33h215q23 0 32 -9.5t13 -29.5l145 -1014q2 -20 9 -21q8 0 14 19l438 1030q6 16 15.5 20.5t33.5 4.5h189q20 0 27.5 -8.5t11.5 -30.5l149 -1026q0 -12 8 -13q8 0 15 19l434 1034q6 14 15 19.5t32 5.5h176q31 0 31 -23q0 -12 -10 -39l-621 -1425 q-10 -20 -21.5 -26.5t-35.5 -6.5h-187q-25 0 -38 8t-15 27l-147 989q0 12 -6 12t-13 -12l-428 -991q-10 -20 -20.5 -26.5t-34.5 -6.5h-197q-25 0 -37 8t-14 29l-217 1433q-2 6 -2 17z" />
<glyph unicode="X" horiz-adv-x="1464" d="M-2 20q0 20 25 54l540 674q20 23 21 40q0 12 -4 21l-351 676q-6 10 -6 18q0 16 27 17h252q23 0 32 -6.5t17 -22.5l227 -463q6 -14 17 -14q6 0 18 14l365 471q10 12 20 16.5t31 4.5h227q20 0 21 -19q0 -16 -11 -31l-524 -649q-16 -18 -16 -33q0 -12 4 -18l370 -709 q17 -33 17 -43q0 -18 -35 -18h-240q-20 0 -31.5 5t-17.5 22l-256 512q-8 20 -18 20q-8 0 -23 -20l-401 -519q-10 -14 -21.5 -17t-35.5 -3h-207q-33 0 -33 20z" />
<glyph unicode="Y" horiz-adv-x="1464" d="M207 1505q0 14 29 15h253q20 0 29.5 -8.5t20.5 -30.5l249 -576q6 -16 15 -16q8 0 18 16l418 590q12 16 21.5 20.5t31.5 4.5h215q25 -1 25 -21q0 -8 -6 -18l-600 -803q-14 -16 -20.5 -34.5t-10.5 -59.5l-78 -547q-2 -25 -12 -31t-39 -6h-221q-20 0 -26.5 9t-4.5 30l80 565 q4 25 4 29q0 14 -10 39l-375 811q-6 12 -6 22z" />
<glyph unicode="Z" horiz-adv-x="1359" d="M8 37l10 72q2 20 8.5 34.5t26.5 36.5l887 1096q10 12 10 15t-14 3h-668q-35 0 -30 41l22 162q4 14 8 18.5t17 4.5h1101q12 0 18 -8q4 -5 5 -13q0 -5 -2 -10l-10 -80q-6 -27 -27 -57l-907 -1108q-8 -8 -6 -12.5t8 -4.5h731q16 0 21.5 -5t3.5 -19l-27 -178q-2 -14 -7 -19.5 t-24 -5.5h-1116q-21 0 -31 8q-8 7 -8 22v7z" />
<glyph unicode="[" horiz-adv-x="626" d="M31 -293l252 1790q2 14 7 18.5t27 4.5h388q12 0 19 -8.5t5 -18.5l-14 -117q-2 -8 -7.5 -10t-13.5 -2h-168q-18 0 -30.5 -13.5t-16.5 -33.5l-209 -1477v-10q0 -8 3 -10t9.5 -2h10.5h168q14 0 22.5 -10.5t5.5 -22.5l-14 -102q-4 -16 -6 -18.5t-18 -2.5h-377q-19 0 -32 13.5 t-11 31.5z" />
<glyph unicode="\" horiz-adv-x="731" d="M147 1503q0 10 6.5 13.5t20.5 3.5h123q12 0 22.5 -10.5t12.5 -22.5l299 -1522v-10q0 -4 -4 -6t-15 -2h-123q-18 0 -30.5 11t-14.5 32l-292 1489z" />
<glyph unicode="]" horiz-adv-x="626" d="M-88 -311l16 116q2 8 6.5 10.5t12.5 2.5h168q18 0 31.5 13t15.5 34l209 1476q2 6 2 15q0 6 -4 7t-10.5 1h-10.5h-168q-14 0 -22 10t-6 23l14 102q4 16 7 18.5t17 2.5h379q18 0 30.5 -14.5t10.5 -30.5l-250 -1790q-2 -14 -8 -18.5t-26 -4.5h-389q-13 0 -20 8t-5 19z" />
<glyph unicode="^" horiz-adv-x="972" d="M47 305l412 733q18 33 43.5 50.5t52.5 17.5q31 0 54.5 -20.5t31.5 -59.5l209 -739q2 -6 2 -15q0 -8 -4 -10t-17 -2h-118q-14 0 -27.5 7t-13.5 18l-133 503q-2 10 -11 11q-14 0 -24 -25l-277 -502q-4 -8 -10 -10t-12 -1t-12 1h-125q-14 0 -20.5 13.5t-0.5 29.5z" />
<glyph unicode="_" horiz-adv-x="1095" d="M0 -233l18 129q2 16 7.5 21t17.5 5h825q12 0 20.5 -11t6.5 -26l-18 -129q-2 -20 -10.5 -25t-35.5 -5l-796 -2q-18 0 -28.5 12t-6.5 31z" />
<glyph unicode="`" horiz-adv-x="612" d="M139 1391l4 16l59 121q11 20 29 8l451 -201q10 -6 16 -17t0 -24l-33 -63q-8 -16 -18 -17q-8 0 -23 7l-452 133q-33 10 -33 37z" />
<glyph unicode="a" d="M25 244q0 141 93 233t234.5 134t296.5 48l103 7q39 4 45 39l6 47q4 25 4 36q0 70 -44 108t-126 38q-170 0 -266 -139q-8 -12 -23 -13q-10 0 -16 2l-166 43q-18 4 -19 23q0 16 9 35q70 111 196.5 166t300.5 55q209 0 309.5 -78t100.5 -215q0 -18 -4 -59l-103 -721 q-4 -23 -9 -28t-25 -5h-174q-31 0 -31 45l4 70q0 14 -8 14q-10 0 -29 -20q-137 -129 -352 -129q-143 0 -225 72.5t-82 191.5zM289 285q0 -57 42 -91t115 -34q57 0 111.5 18.5t93.5 48.5q88 63 97 131l20 146v14q0 8 -4 11q-2 2 -8 2q-4 0 -8 -1l-97 -8 q-137 -10 -249.5 -64.5t-112.5 -172.5z" />
<glyph unicode="b" horiz-adv-x="1241" d="M59 49l203 1444q2 16 8 21.5t21 5.5h217q23 0 18 -41l-65 -475v-11q0 -10 6 -10q2 0 20 14q152 109 312 109q182 0 276 -117t94 -317q0 -172 -58 -331t-181 -260t-303 -101q-109 0 -185.5 49t-119.5 118q-8 8 -13 9q-14 0 -20 -25l-29 -96q-4 -20 -13 -27.5t-30 -7.5 h-117q-25 0 -35 14q-7 10 -7 23q0 6 1 12zM367 334q0 -82 56 -134.5t140 -52.5q115 0 190.5 85t111.5 209t36 243q0 248 -194 248q-76 0 -145.5 -35t-127.5 -94l-65 -438q-2 -10 -2 -31z" />
<glyph unicode="c" horiz-adv-x="1122" d="M68 455q0 168 75.5 318.5t215 241.5t319.5 91q174 0 278.5 -87t135.5 -218v-8q0 -18 -25 -21l-174 -20h-4q-8 0 -13.5 10t-9.5 24q-37 74 -74.5 108t-107.5 34q-113 0 -191.5 -78t-118.5 -194.5t-40 -229.5q0 -133 60.5 -201.5t170.5 -68.5q96 0 163 44t134 140 q6 8 11.5 8t17.5 -4l125 -35q18 -2 18 -26q0 -12 -4 -21q-66 -113 -190.5 -197.5t-298.5 -84.5q-141 0 -249 59t-166 166.5t-58 249.5z" />
<glyph unicode="d" horiz-adv-x="1241" d="M68 414q0 176 66.5 335.5t189 258t284.5 98.5q86 0 147.5 -31t110.5 -88q14 -14 23 -14q18 0 24 49l68 469q2 29 35 29h207q21 0 21 -27q0 -7 -1 -16l-205 -1442q-2 -20 -11 -27.5t-34 -7.5h-176q-43 0 -37 35l13 67v9q0 10 -7 10q-6 0 -22 -12q-68 -55 -142.5 -92 t-175.5 -37q-174 0 -276 111.5t-102 322.5zM336 406q0 -129 57.5 -191.5t155.5 -62.5q66 0 125 31.5t98 80.5t47 98l70 461q-43 55 -92 81t-111 26q-117 0 -195.5 -82t-116.5 -204t-38 -238z" />
<glyph unicode="e" horiz-adv-x="1196" d="M68 449q0 170 77.5 320.5t219 243.5t317.5 93q209 0 332 -124t123 -343q0 -59 -9 -115q-4 -18 -13 -25t-32 -7h-718q-18 0 -25.5 -23t-7.5 -68q0 -111 69.5 -173t182.5 -62q88 0 161.5 36t139.5 111q10 10 20 11q6 0 23 -9l116 -57q20 -6 21 -22q0 -8 -10 -23 q-111 -129 -228.5 -181t-277.5 -52q-143 0 -252 58t-169 164.5t-60 246.5zM367 637h477q49 0 49 84q0 92 -56.5 154.5t-154.5 62.5q-80 0 -148.5 -41t-112.5 -110.5t-54 -149.5z" />
<glyph unicode="f" horiz-adv-x="806" d="M98 934l19 129q4 12 9 17t21 5h156q14 0 23.5 10.5t11.5 24.5l18 133q18 131 98.5 199t217.5 68h194q18 0 29.5 -9.5t9.5 -25.5l-16 -125q-2 -12 -8.5 -16.5t-20.5 -4.5h-119q-53 0 -88 -34.5t-43 -92.5l-16 -106v-4q0 -16 20 -17h197q31 1 25 -26l-19 -135 q-2 -14 -8 -19.5t-21 -5.5h-198q-18 0 -21 -29l-118 -843q-2 -18 -8.5 -22.5t-20.5 -4.5h-209q-12 0 -21.5 12.5t-7.5 26.5l119 846q4 14 -12 14h-172q-22 0 -22 26q0 4 1 9z" />
<glyph unicode="g" horiz-adv-x="1273" d="M-66 -109q0 78 58.5 135.5t157.5 94.5q25 10 24 18q0 8 -14 15q-43 20 -64.5 48.5t-21.5 73.5q0 66 59.5 113t142.5 76q25 10 25 20q0 6 -12 13q-74 33 -113 90t-39 135q0 125 71 210t184.5 127t246.5 42q236 0 344 -101q6 -6 14 -6q16 0 45 29q41 41 104.5 69.5 t110.5 28.5q25 0 35 -8q9 -6 9 -20q0 -4 -1 -9l-16 -114q-2 -27 -10 -35t-29 -8q-72 0 -112 -10q-33 -8 -46.5 -20.5t-5.5 -31.5q14 -43 15 -80q0 -121 -76 -201.5t-193.5 -118.5t-244.5 -38q-78 0 -169 -18.5t-91 -67.5q0 -23 29.5 -33t103.5 -14l280 -16q352 -18 352 -273 q0 -195 -188 -278.5t-450 -83.5q-242 0 -378.5 65.5t-136.5 181.5zM162 -80q0 -141 299 -141q174 0 278.5 46t104.5 142q0 49 -36 74t-120 29l-319 18q-84 -16 -145.5 -58t-61.5 -110zM375 717q0 -70 56 -110t157 -40q114 0 191 61.5t77 176.5q0 74 -55.5 115t-157.5 41 q-113 0 -190.5 -67t-77.5 -177z" />
<glyph unicode="h" horiz-adv-x="1212" d="M59 45l205 1448q2 14 9.5 20.5t23.5 6.5h203q29 0 22 -33l-71 -510v-10q0 -8 3 -9.5t11 3.5q117 80 201 112.5t174 32.5q141 0 218 -71.5t77 -194.5q0 -29 -7 -64l-104 -741q-2 -20 -10 -27.5t-31 -7.5h-190q-18 0 -27.5 12.5t-7.5 32.5l100 705q4 29 4 38 q0 121 -141 121q-74 0 -138.5 -34.5t-152.5 -112.5l-104 -729q-4 -20 -12.5 -26.5t-32.5 -6.5h-183q-20 0 -30 12q-9 10 -9 27v6z" />
<glyph unicode="i" horiz-adv-x="524" d="M59 45l142 1014q2 16 8 21t20 5h215q12 0 18.5 -11t4.5 -27l-143 -1010q-2 -25 -11.5 -31t-36.5 -6h-178q-23 0 -33 12q-7 9 -7 22q0 5 1 11zM229 1288l29 195q4 37 35 37h217q12 0 18 -12q4 -7 5 -16q0 -7 -3 -15l-26 -199q-4 -23 -14.5 -31t-36.5 -8h-197q-28 0 -28 32 q0 8 1 17z" />
<glyph unicode="j" horiz-adv-x="524" d="M-203 -303l19 135q4 25 26 31l95 8q49 4 78.5 36t39.5 101l148 1051q2 16 8 21t20 5h207q14 0 22.5 -12t6.5 -26l-150 -1067q-24 -173 -112 -250.5t-266 -77.5q-88 0 -117 9q-25 8 -25 30v6zM229 1288l29 195q4 37 35 37h217q12 0 18 -12q4 -8 4 -16q0 -7 -2 -15 l-26 -199q-4 -23 -14.5 -31t-36.5 -8h-197q-28 0 -28 32q0 8 1 17z" />
<glyph unicode="k" horiz-adv-x="1208" d="M59 45l205 1448q2 16 7 21.5t20 5.5h217q27 0 18 -41l-120 -879l-3 -8q0 -4 19 14l493 457q25 23 52 22h186q16 0 26.5 -8t10.5 -18q0 -14 -14 -27l-345 -303q-14 -12 -19 -23.5t1 -27.5l272 -641q5 -13 5 -19q0 -18 -27 -18h-223q-18 0 -27.5 11.5t-17.5 31.5l-183 455 q-6 14 -12 14t-20 -10l-193 -174q-25 -20 -29 -49l-32 -242q-4 -25 -12.5 -31t-34.5 -6h-179q-41 0 -41 38v7z" />
<glyph unicode="l" horiz-adv-x="526" d="M57 45l211 1448q2 16 7.5 21.5t19.5 5.5h213q21 0 22 -22q0 -6 -2 -13l-202 -1448q-4 -25 -12.5 -31t-37.5 -6h-178q-23 0 -34 12q-8 9 -8 23q0 5 1 10z" />
<glyph unicode="m" horiz-adv-x="1871" d="M59 45l142 1014q4 16 9 21t17 5h215q14 0 17.5 -6t1.5 -24l-15 -92v-5q0 -16 17 -6q111 78 194.5 117t171.5 39q109 0 177.5 -52t87.5 -134q4 -8 8 -9q8 0 31 23q211 170 378 170q133 0 207 -72.5t74 -197.5q0 -39 -4 -62l-102 -739q-4 -20 -12.5 -27.5t-31.5 -7.5h-188 q-18 0 -27.5 12.5t-7.5 32.5l99 694q4 18 4 49q0 121 -131 121q-123 0 -252 -121q-18 -18 -26.5 -31.5t-10.5 -29.5l-98 -692q-2 -20 -10.5 -27.5t-30.5 -7.5h-189q-16 0 -26.5 12.5t-8.5 32.5l101 705q2 14 2 38q0 121 -131 121q-72 0 -134.5 -34.5t-148.5 -112.5 l-104 -729q-2 -20 -11.5 -26.5t-33.5 -6.5h-183q-20 0 -30 12q-8 9 -8 23q0 4 1 10z" />
<glyph unicode="n" horiz-adv-x="1212" d="M59 45l142 1014q4 16 8 21t18 5h217q12 0 16.5 -5t2.5 -19l-17 -109v-6q0 -8 5 -8q2 0 16 10q190 158 371 158q139 0 217 -74t78 -196q0 -18 -5 -56l-104 -745q-2 -20 -11 -27.5t-32 -7.5h-197q-33 0 -26 45l100 698l4 43q0 123 -141 123q-74 0 -138.5 -34.5 t-154.5 -112.5l-104 -729q-2 -20 -12.5 -26.5t-35.5 -6.5h-190q-28 0 -28 32q0 6 1 13z" />
<glyph unicode="o" horiz-adv-x="1226" d="M68 453q0 186 84 335.5t225 233.5t307 84q143 0 250.5 -60.5t165 -170t57.5 -250.5q0 -182 -81 -330t-221 -231.5t-312 -83.5q-144 0 -251.5 59t-165.5 165.5t-58 248.5zM334 414q0 -121 56 -186.5t161 -65.5q96 0 174 60.5t123 177t45 274.5q0 123 -55.5 189.5 t-157.5 66.5q-96 0 -175 -62.5t-125 -179.5t-46 -274z" />
<glyph unicode="p" horiz-adv-x="1239" d="M12 -297l189 1350q4 20 10 26t31 6h184q23 0 31 -7t6 -25l-10 -70v-2q0 -8 6 -8q12 0 26 12q57 41 91 62.5t91.5 40t131.5 18.5q168 0 269 -109.5t101 -320.5q0 -168 -56 -328t-175 -264t-295 -104q-86 0 -154.5 30.5t-117.5 85.5q-10 10 -19 10q-20 0 -24 -43l-54 -376 q-2 -16 -6 -20.5t-18 -4.5h-219q-15 0 -19 12q-2 5 -2 12.5t2 16.5zM352 260q41 -53 89 -79.5t112 -26.5q117 0 195.5 84t116.5 206.5t38 241.5q0 127 -57.5 186.5t-153.5 59.5q-68 0 -127 -30t-98 -75t-45 -90z" />
<glyph unicode="q" horiz-adv-x="1241" d="M70 426q0 164 58 320.5t180 259t302 102.5q219 0 316 -166q6 -8 12 -8q10 0 23 29l36 90q8 20 17.5 26t27.5 6h113q29 0 29 -28q0 -12 -2 -21l-189 -1347q-2 -16 -12 -21.5t-27 -5.5h-206q-27 0 -21 41l51 356l2 17q0 8 -4 8q-6 0 -22 -12q-147 -92 -293 -92 q-186 0 -288.5 117.5t-102.5 328.5zM338 414q0 -129 55.5 -195.5t153.5 -66.5q69 0 136 29.5t120 82.5l69 457q2 10 2 33q0 82 -53 134t-139 52q-115 0 -192.5 -83t-114.5 -205t-37 -238z" />
<glyph unicode="r" horiz-adv-x="841" d="M59 45l142 1014q4 16 8 21t18 5h203q33 0 27 -38l-17 -101v-8q0 -12 6 -12q8 0 19 12q78 80 164 124t159 44q43 0 62.5 -6t17.5 -23l-26 -192q-2 -18 -6.5 -23.5t-14.5 -3.5q-90 8 -123 8q-57 0 -121.5 -30.5t-111.5 -78.5t-53 -98l-88 -626q-2 -20 -11.5 -26.5 t-33.5 -6.5h-183q-20 0 -30 14q-8 10 -8 21q0 5 1 10z" />
<glyph unicode="s" horiz-adv-x="1073" d="M2 236q0 14 16 20l117 57q12 6 23 6q16 0 30 -20q76 -145 279 -145q90 0 176 34.5t86 116.5q0 76 -145 115l-203 53q-135 35 -198.5 98.5t-63.5 159.5q0 117 67.5 202t178 129t241.5 44q145 0 248.5 -56.5t157.5 -148.5q4 -8 4 -16q0 -14 -15 -23l-114 -53q-12 -4 -15 -4 q-14 0 -34 24q-33 49 -93.5 79t-144.5 30q-90 0 -162.5 -37t-72.5 -106q0 -35 23.5 -59.5t88.5 -43.5l234 -61q131 -35 195.5 -107.5t64.5 -173.5q0 -121 -72 -205t-186.5 -124.5t-239.5 -40.5q-182 0 -301 65.5t-164 169.5q-6 12 -6 21z" />
<glyph unicode="t" horiz-adv-x="854" d="M98 938l19 129q2 12 7 15t21 3h152q10 0 18.5 9.5t10.5 19.5l71 316q6 24 33 24h2h182q14 0 18.5 -9t2.5 -34l-45 -303v-4q0 -16 18 -17h226q31 0 31 -18q0 -3 -1 -8l-18 -139q-2 -14 -8.5 -18.5t-24.5 -4.5h-231q-25 0 -31 -29l-76 -548q-4 -16 -4 -43q0 -51 26.5 -71 t90.5 -20h119q14 0 22 -11t6 -25l-16 -107q-6 -31 -33 -37q-82 -8 -225 -8q-127 0 -195.5 54.5t-68.5 156.5q0 16 4 57l86 609v4q0 18 -27 18h-141q-21 0 -21 33v6z" />
<glyph unicode="u" horiz-adv-x="1204" d="M80 254q0 20 4 57l102 740q4 23 12.5 28.5t30.5 5.5h189q18 0 27.5 -12t7.5 -33l-99 -696q-4 -29 -4 -39q0 -131 135 -131q131 0 289 148l107 731q4 20 12 26t33 6h184q20 0 30 -13q8 -9 8 -22q0 -5 -1 -10l-148 -1013q-2 -16 -6 -21.5t-20 -5.5h-201q-33 0 -27 27 l17 104v4q0 10 -6 10t-21 -10q-102 -84 -189 -119.5t-179 -35.5q-129 0 -208 74.5t-79 199.5z" />
<glyph unicode="v" horiz-adv-x="1155" d="M119 1061q0 24 29 24h2h212q14 0 25.5 -11t13.5 -25l172 -674q4 -12 9 -13q12 0 24 29l357 672q13 22 36 22h2h150q19 0 27 -15q5 -9 4 -18q0 -7 -2 -14l-553 -1005q-10 -20 -22.5 -26.5t-35.5 -6.5h-120q-25 0 -39.5 12.5t-18.5 32.5l-270 1006z" />
<glyph unicode="w" horiz-adv-x="1660" d="M123 1061q0 24 27 24h2h200q14 0 25.5 -11t11.5 -25l115 -654q2 -14 8 -14q10 0 20 29l295 653q8 22 35 22h2h146q14 0 25.5 -11t11.5 -25l114 -654q0 -14 6 -14q10 0 21 29l291 653q13 22 39 22h2h131q17 0 27 -15q5 -8 5 -16t-4 -16l-471 -1013q-8 -16 -15 -20.5 t-26 -4.5h-143q-20 0 -32.5 11.5t-14.5 29.5l-113 633q-2 14 -8 14q-8 0 -18 -29l-289 -634q-6 -16 -13.5 -20.5t-27.5 -4.5h-150q-20 0 -31.5 11.5t-13.5 29.5l-188 1010z" />
<glyph unicode="x" horiz-adv-x="1177" d="M-35 20q0 18 33 58l412 446q23 23 22 37q0 8 -6 21l-276 462q-6 12 -7 21q0 20 29 20h211q23 0 35 -9t18 -25l178 -306q2 -8 11 -8q8 0 24 23l254 305q12 14 23.5 17t36.5 3h167q27 0 27 -18q0 -16 -12 -29l-383 -430q-20 -20 -21 -37q0 -10 7 -20l292 -498 q19 -31 19 -41q0 -8 -7.5 -10t-25.5 -2h-217q-39 0 -57 35l-191 327q-8 18 -18 19q-6 0 -13.5 -8t-17.5 -19l-291 -334q-16 -20 -69 -20h-156q-31 0 -31 20z" />
<glyph unicode="y" horiz-adv-x="1134" d="M-27 -301l17 131q4 29 71 29h132q47 0 89 27.5t66.5 69.5t24.5 81q0 16 -2 24l-258 973q-2 8 -2 23q0 28 26 28h2h234q27 0 33 -22l159 -676q6 -23 17 -22q12 0 24 26l340 658q16 36 45 36h2h150q20 0 20 -12q0 -6 -8 -22l-584 -1078q-68 -125 -136 -192.5t-150 -93 t-205 -25.5q-64 0 -88 7q-20 6 -20 24q0 3 1 6z" />
<glyph unicode="z" horiz-adv-x="1036" d="M-16 35l8 65q2 23 11 36.5t34 41.5l635 703q8 8 8 18q0 14 -27 14h-477q-16 0 -20 8.5t-2 28.5l16 109q6 26 35 26h2h815q21 0 21 -17q0 -3 -1 -7l-12 -78q-2 -16 -11 -30.5t-28 -34.5l-639 -709q-8 -12 -8 -19q0 -16 23 -16h530q29 0 23 -29l-15 -114q-4 -16 -11 -23.5 t-24 -7.5h-858q-20 0 -26 7q-4 4 -4 13q0 7 2 15z" />
<glyph unicode="{" horiz-adv-x="706" d="M2 563l12 86q4 20 11 21q117 0 181 53t79 149l59 418q14 111 108.5 170.5t221.5 59.5h110q12 0 19.5 -8.5t5.5 -18.5l-14 -117q-2 -8 -7.5 -10t-13.5 -2h-61q-80 0 -114 -30.5t-40 -86.5l-59 -428q-18 -104 -84 -155.5t-152 -61.5q-16 -2 -24.5 -7t0.5 -7q82 -6 138 -51 t56 -142q0 -29 -2 -43l-59 -432q-2 -12 -2 -31q0 -41 24.5 -56t89.5 -15h58q12 0 20 -10.5t8 -22.5l-16 -102q-2 -14 -5 -17.5t-20 -3.5h-102q-119 0 -200 58.5t-81 156.5q0 20 3 33l61 436q2 10 2 29q0 68 -46 109.5t-140 41.5q-10 0 -18.5 11.5t-6.5 25.5z" />
<glyph unicode="|" horiz-adv-x="522" d="M45 -287l281 1993q2 18 8 23.5t24 5.5h129q16 0 26.5 -11.5t6.5 -27.5l-280 -2013q-2 -12 -7.5 -16.5t-19.5 -4.5h-129q-20 0 -30.5 14.5t-8.5 36.5z" />
<glyph unicode="}" horiz-adv-x="706" d="M-88 -311l16 116q2 8 6.5 10.5t12.5 2.5h61q80 0 114 30.5t40 85.5l59 428q18 104 84 155.5t152 62.5q16 2 24 7t0 7q-82 6 -138 52t-56 145q0 25 2 38l59 433q2 12 2 30q0 41 -24.5 56.5t-89.5 15.5h-56q-14 0 -22 10t-6 23l14 102q4 16 7 18.5t17 2.5h103 q119 0 199.5 -57.5t80.5 -155.5q0 -23 -2 -35l-59 -436q-2 -10 -2 -31q0 -68 45 -109t137 -41q12 0 19.5 -10t5.5 -27l-12 -83q-2 -12 -4.5 -17.5t-6.5 -5.5q-115 0 -179 -53t-77 -150l-59 -418q-16 -111 -110.5 -170t-221.5 -59h-110q-13 0 -20 8t-5 19z" />
<glyph unicode="~" horiz-adv-x="1218" d="M143 743q0 12 13 31q92 70 160.5 103.5t148.5 33.5q61 0 104 -16t109 -49q51 -29 85 -42t75 -13q125 0 215 118q6 4 14 4q18 0 29 -28l34 -82q4 -6 5 -19q0 -18 -9 -34q-53 -64 -128.5 -98t-159.5 -34q-61 0 -106.5 17.5t-106.5 50.5q-51 29 -85 42t-77 13 q-72 0 -128 -35.5t-114 -95.5q-2 -2 -8 -2q-16 0 -23 25l-43 94q-4 12 -4 16z" />
<glyph unicode="&#xa1;" horiz-adv-x="526" d="M-6 -297l194 915q4 18 10.5 23.5t26.5 5.5h90q25 0 37.5 -13t7.5 -34l-63 -915q0 -15 -4 -19t-17 -4h-256q-12 0 -21 12.5t-5 28.5zM156 829l32 226q2 20 8.5 25t28.5 5h209q53 0 47 -51l-30 -223q-2 -14 -6.5 -18.5t-18.5 -4.5h-242q-12 0 -21 11.5t-7 29.5z" />
<glyph unicode="&#xa2;" d="M23 682q0 168 75.5 317.5t214 241.5t316.5 92l22 154q4 20 11.5 26.5t29.5 6.5h101q20 0 29 -12.5t7 -32.5l-22 -170q98 -37 158.5 -111t81.5 -166v-8q0 -18 -25 -21l-174 -20h-4q-8 0 -13.5 10t-9.5 25q-37 74 -74.5 107.5t-107.5 33.5q-113 0 -191.5 -78t-118.5 -194.5 t-40 -229.5q0 -133 60.5 -201.5t170.5 -68.5q96 0 163 44t134 140q6 8 11.5 8t17.5 -4l125 -34q18 -2 18 -27q0 -12 -4 -21q-49 -82 -133 -154.5t-197 -105.5l-28 -192q-2 -23 -11.5 -30t-33.5 -7h-93q-23 0 -34 14.5t-6 34.5l22 158q-205 10 -326.5 139t-121.5 336z" />
<glyph unicode="&#xa3;" horiz-adv-x="1300" d="M-47 39l24 168q2 12 5.5 14t15.5 2h51q84 -2 145.5 62.5t79.5 193.5q8 63 15 234q-4 4 -8.5 4h-8.5h-176q-8 0 -15 9t-5 19l14 113q0 6 3 8t6 2h5h144q10 0 20.5 9.5t10.5 19.5l-3 164q-2 147 70 256.5t190.5 166t256.5 56.5q150 0 272.5 -74.5t153.5 -201.5q6 -6 6 -9 q0 -4 -17 -10l-186 -55q-2 -2 -8 -2q-10 0 -17.5 8t-9.5 21q-23 51 -60.5 79.5t-105.5 28.5q-90 0 -157.5 -58.5t-81.5 -154.5q-4 -29 -4 -96q0 -51 4 -142q2 -4 18 -4h281q10 0 17 -8t5 -18l-16 -115q0 -8 -2 -10t-6.5 -2h-6.5h-254q-14 0 -22 -9.5t-10 -23.5 q-6 -111 -29 -211q-35 -137 -127 -235q-2 -2 -10 -6.5t-6 -5.5t10 -1h281q96 0 160.5 38t103.5 120q10 6 16 6l21 -4l157 -37q14 -4 22.5 -17.5t2.5 -31.5q-66 -145 -192 -222t-294 -77h-720q-15 0 -23 12.5t-6 26.5z" />
<glyph unicode="&#xa4;" horiz-adv-x="1150" d="M74 412l116 102q16 16 15 43q-39 82 -39 156q0 33 6 65q14 115 90 223q8 6 11 12.5t-1 12.5l-88 100q-8 16 -8 23q0 10 6 16l90 78q6 6 15 6q10 0 20 -14l90 -102q2 -2 6 -3q6 0 21 15q121 53 229 53q66 0 124.5 -19.5t99.5 -54.5q16 0 32 17l117 102q2 2 6 2q8 0 15 -14 l81 -94q12 -14 5 -25l-121 -102q-12 -12 -11 -29q41 -78 41 -172q0 -72 -24.5 -146.5t-73.5 -142.5q-6 0 -9 -4t1 -8l88 -102q14 -16 6 -27l-104 -92q-2 -2 -6 -2q-8 0 -17 14l-88 102l-4 2q-8 0 -18 -16q-123 -59 -236 -59q-65 0 -121.5 19.5t-97.5 53.5h-4q-23 0 -35 -16 l-117 -100q-6 -6 -12 -6q-10 0 -25 18l-67 78q-18 23 -4 37zM350 717q0 -86 59.5 -146.5t151.5 -60.5q80 0 149.5 43t111.5 112.5t42 145.5q0 86 -59.5 146.5t-151.5 60.5q-80 0 -149.5 -43t-111.5 -112.5t-42 -145.5z" />
<glyph unicode="&#xa5;" horiz-adv-x="1312" d="M139 1503q0 16 31 17h254q23 0 33 -9.5t16 -29.5l250 -576q6 -14 12 -14t13.5 11t9.5 13l413 580q12 18 20.5 21.5t35.5 3.5h198q15 0 24 -8.5t9 -18.5q0 -6 -6 -16l-565 -754h241q12 0 20.5 -11.5t6.5 -23.5l-10 -84q-2 -20 -11.5 -25.5t-35.5 -5.5h-273l-24 -172h280 q12 0 21.5 -11t7.5 -23l-12 -84q-2 -20 -11.5 -25.5t-33.5 -5.5h-275l-30 -215q-2 -25 -12.5 -31t-37.5 -6h-211q-23 0 -34 13.5t-7 33.5l29 205h-272q-20 0 -30.5 12t-8.5 31l12 82q4 16 8 20t17 4h297l22 170h-272q-20 0 -30.5 12.5t-6.5 30.5l10 84q4 16 8 20.5t17 4.5 h250l-351 760q-6 12 -6 20z" />
<glyph unicode="&#xa6;" horiz-adv-x="522" d="M45 -287l109 770q2 18 8 23.5t24 5.5h129q16 0 26.5 -11.5t8.5 -27.5l-110 -790q-2 -12 -7.5 -16.5t-19.5 -4.5h-129q-20 0 -30.5 14.5t-8.5 36.5zM219 934l107 772q2 18 8 23.5t24 5.5h129q16 0 26.5 -11.5t6.5 -27.5l-110 -791q-2 -12 -7.5 -16t-19.5 -4h-129 q-20 0 -29.5 13t-5.5 36z" />
<glyph unicode="&#xa7;" horiz-adv-x="1024" d="M-5 86q-1 6 5 12l137 62l10 4q8 0 15.5 -8.5t11.5 -20.5q90 -125 260 -125q102 0 170 42t68 116q0 37 -35 68.5t-119 66.5l-160 64q-137 55 -200.5 123.5t-63.5 164.5q0 109 61.5 190t172.5 128q-78 47 -113 102t-35 121q0 96 55.5 174t158 124t235.5 46 q143 0 246.5 -59.5t140.5 -147.5q10 -14 11 -21t-7 -12l-133 -61q-4 -2 -10 -2q-20 0 -29 27q-92 109 -211 108q-94 0 -154.5 -42t-60.5 -107q0 -29 26.5 -55.5t92.5 -53.5l153 -63q147 -61 215 -133t68 -173q0 -113 -55.5 -187.5t-159.5 -129.5q151 -94 151 -227 q0 -104 -58 -186.5t-165.5 -128.5t-253.5 -46q-164 0 -278.5 63.5t-149.5 162.5q-12 14 -13 20zM317 692q0 -35 30 -60.5t116 -64.5l106 -43q66 -4 119 41t62 109q2 10 2 31q0 39 -30 71.5t-110 65.5l-96 37q-82 -8 -140.5 -64.5t-58.5 -122.5z" />
<glyph unicode="&#xa8;" horiz-adv-x="659" d="M129 1309l24 186q2 16 7 20.5t18 4.5h188q14 0 22.5 -11.5t6.5 -25.5l-27 -185q-2 -20 -10 -25t-33 -5h-162q-41 0 -34 41zM503 1309l27 186q2 16 6 20.5t19 4.5h188q14 0 22.5 -11.5t4.5 -25.5l-27 -185q-2 -20 -10 -25t-33 -5h-162q-39 0 -35 41z" />
<glyph unicode="&#xa9;" horiz-adv-x="1699" d="M94 662q0 61 8 112q29 209 157 385t318.5 278.5t401.5 102.5q195 0 352.5 -90t246.5 -246.5t89 -347.5q0 -61 -8 -111q-31 -211 -159 -386t-319.5 -277t-400.5 -102q-196 0 -353 89t-245 244.5t-88 348.5zM260 637q0 -154 64.5 -267.5t183.5 -174t274 -60.5q176 0 329 80 t254 224.5t128 334.5q8 70 8 103q0 154 -66.5 269.5t-184 177.5t-271.5 62q-178 0 -330.5 -80.5t-253 -226t-127.5 -334.5q-8 -49 -8 -108zM469 698q0 39 6 78q18 125 84 222.5t164 150.5t215 53q135 0 216 -71.5t108 -176.5q4 -8 2 -11t-13 -5l-149 -20h-2q-8 0 -13.5 9 t-5.5 23q-20 49 -51 77t-84 28q-96 0 -165.5 -80t-90.5 -223q-6 -39 -6 -76q0 -98 45 -150.5t123 -52.5q72 0 127 40t102 114h2q4 0 9.5 -3t13.5 -8l96 -26q18 -4 12 -39q-55 -90 -150 -156.5t-228 -66.5q-166 0 -266.5 102t-100.5 268z" />
<glyph unicode="&#xaa;" horiz-adv-x="804" d="M129 1008q0 223 379 249l70 7q12 2 22 10t12 18l4 27q6 53 -18.5 77.5t-81.5 24.5q-51 0 -91 -21.5t-73 -70.5l-4 -2q-2 0 -7 2t-13 4l-113 31q-4 2 -6 15.5t0 23.5q47 70 118.5 102.5t188.5 32.5q268 -2 268 -190q0 -25 -2 -39l-49 -346q-4 -20 -4 -56q0 -29 2 -49 q2 -2 2 -6t-7 -5t-14 -1h-14h-106q-14 0 -20.5 8t-8.5 23v38q0 4 -4 5q-4 0 -20 -21q-59 -35 -104.5 -50t-96.5 -15q-100 0 -154.5 46t-54.5 128zM303 1020q-4 -35 20.5 -54.5t73.5 -19.5q35 0 69 14.5t58 38.5q49 29 56 68l12 84v8q0 4 -2 5t-6 0t-9 -1l-61 -4 q-86 -6 -144.5 -43t-66.5 -96z" />
<glyph unicode="&#xab;" horiz-adv-x="968" d="M88 535q0 18 8 28l285 361q8 10 14 9t11 -1h98q12 0 20 -10.5t2 -22.5l-219 -358q-14 -25 -10 -41l121 -348l2 -9q0 -4 -8.5 -4h-12.5h-96q-8 0 -16 7.5t-8 15.5l-183 340q-8 14 -8 33zM477 537q0 16 8 26l285 361q8 10 14.5 9t10.5 -1h98q12 0 20.5 -10.5t1.5 -22.5 l-219 -358q-14 -25 -10 -41l121 -348l2 -9q0 -4 -8 -4h-13h-96q-8 0 -16 7.5t-8 15.5l-183 340q-8 20 -8 35z" />
<glyph unicode="&#xac;" horiz-adv-x="1175" d="M131 709l21 129q2 14 6 19t16 5h907q13 0 22 -11t7 -24l-10 -63v-4l-53 -377q-2 -18 -8.5 -23.5t-30.5 -5.5h-142q-18 0 -28.5 11.5t-6.5 27.5l37 273h-700q-41 0 -37 43z" />
<glyph unicode="&#xad;" horiz-adv-x="778" d="M24 485l21 129q2 14 7 19.5t17 5.5h506q12 0 20.5 -11.5t6.5 -23.5l-19 -129q-2 -20 -11 -26.5t-34 -6.5h-475q-20 0 -30.5 12.5t-8.5 30.5z" />
<glyph unicode="&#xae;" horiz-adv-x="1116" d="M139 993q0 47 4 72q18 131 97 239.5t198 172t250 63.5q123 0 221.5 -57.5t154.5 -156.5t56 -220q0 -45 -4 -70q-18 -129 -98 -237.5t-198 -172t-249 -63.5q-123 0 -222 56.5t-154.5 155.5t-55.5 218zM256 967q0 -135 83 -213t226 -78q168 0 288 106.5t144 282.5 q4 22 4 65q0 137 -81.5 217t-225.5 80q-170 0 -289.5 -107.5t-142.5 -283.5q-6 -37 -6 -69zM406 825l63 461v4h4h215q78 0 122 -32.5t44 -90.5q0 -92 -100 -137q-6 2 -10.5 -1t-4.5 -7l56 -207q0 -2 1 -5t-5 -3h-95q-4 0 -8 5t-4 11l-43 197q-2 2 -4 2h-10h-72q-8 0 -16 -16 l-27 -193q0 -6 -2 -6h-8h-82q-6 0 -11.5 7t-2.5 11zM551 1100h4h98q35 0 61.5 21.5t26.5 56.5q1 32 -67 32h-88q-18 0 -21 -16l-12 -90q0 -2 -1 -3z" />
<glyph unicode="&#xaf;" horiz-adv-x="739" d="M137 1366l14 115q2 14 6 17t15 3h653q10 0 18.5 -11t6.5 -22l-17 -114q-2 -18 -10 -23.5t-31 -5.5h-624q-18 0 -26.5 12.5t-4.5 28.5z" />
<glyph unicode="&#xb0;" horiz-adv-x="950" d="M252 1368q0 111 50 199t138 138t195 50q137 0 223 -84t86 -219q0 -109 -52 -197t-140 -138t-193 -50q-137 0 -222 84t-85 217zM410 1366q0 -66 38.5 -104.5t108.5 -38.5q86 0 146.5 56t72.5 146q2 11 2 31q0 63 -39 101t-108 38q-92 0 -156.5 -65.5t-64.5 -163.5z" />
<glyph unicode="&#xb1;" horiz-adv-x="1175" d="M51 135l19 129q2 14 7 19.5t17 5.5h907q13 0 21 -11.5t6 -25.5l-16 -127q-2 -20 -12.5 -26.5t-34.5 -6.5h-877q-41 0 -37 43zM156 881l18 129q2 14 7 19t20 5h360l49 355q2 20 8.5 24t24.5 4h129q14 0 25.5 -11t7.5 -24l-49 -348h352q10 0 19.5 -11t7.5 -24l-19 -129 q-2 -20 -12 -26t-35 -6h-340l-51 -363q-2 -12 -7 -15t-18 -3h-129q-20 0 -30.5 15t-6.5 40l45 326h-339q-41 0 -37 43z" />
<glyph unicode="&#xb2;" horiz-adv-x="925" d="M5 815l12 84q2 14 11 24.5t46 39.5l285 235q133 104 188.5 169t55.5 130q0 55 -38 86t-98 31q-59 0 -117.5 -35t-105.5 -102q-6 -10 -16 -5l-117 70q-6 4 -6 8q0 8 12 23q68 88 164 135t203 47q137 0 220 -64.5t83 -181.5q0 -100 -56.5 -176t-179.5 -170l-264 -203 q-8 -6 -8 -11t8 -5h410q23 0 18 -18l-16 -123q-4 -16 -21 -17h-647q-31 0 -26 29z" />
<glyph unicode="&#xb3;" horiz-adv-x="956" d="M39 954l101 66q10 10 18 0q45 -57 100.5 -84t126.5 -27q96 0 160 48.5t64 125.5q0 61 -50.5 95t-125.5 36h-121q-14 0 -13 15l15 110q0 10 16 11l92 2q88 0 153.5 48t65.5 118q0 45 -37.5 74.5t-103.5 29.5t-114 -23.5t-117 -74.5q-16 -10 -25 2l-74 80q-4 8 -4 10 q0 8 9 16q68 57 154.5 90t178.5 33q150 0 235 -61.5t85 -161.5q0 -80 -55.5 -145.5t-139.5 -92.5q-8 -2 -8 -6t8 -6q74 -18 118 -71.5t44 -127.5q0 -145 -113.5 -227t-306.5 -82q-123 0 -205 43t-129 117q-10 16 -2 20z" />
<glyph unicode="&#xb4;" horiz-adv-x="612" d="M131 1323q0 14 10 16l508 201l6 2q8 0 15.5 -8t9.5 -18l26 -123q2 -6 2 -17q0 -10 -6 -15t-22 -9l-490 -135q-4 -2 -12 -3q-25 0 -31 31l-14 62q-2 6 -2 16z" />
<glyph unicode="&#xb6;" horiz-adv-x="1206" d="M143 1006q0 37 7 73q18 121 86.5 221.5t185.5 160t270 59.5h508q10 0 16.5 -8.5t4.5 -18.5l-15 -117q-2 -10 -5 -10h-11h-90q-8 0 -18.5 -9t-10.5 -20l-211 -1495q0 -2 -1 -7t-5 -7t-10 -2h-119q-14 0 -22.5 11t-6.5 22l211 1497q0 8 -3 9t-11 1h-76q-8 0 -17 -9t-12 -20 l-210 -1495q0 -10 -3.5 -13t-15.5 -3h-121q-12 0 -19 9t-5 24l106 764q0 6 -4 10q-168 8 -270.5 108.5t-102.5 264.5z" />
<glyph unicode="&#xb7;" horiz-adv-x="475" d="M109 668l30 213q2 16 6.5 19t16.5 3h237q12 0 19.5 -10t5.5 -25l-29 -209q-2 -23 -10 -27.5t-33 -4.5h-207q-20 0 -30.5 11t-5.5 30z" />
<glyph unicode="&#xb8;" horiz-adv-x="505" d="M-108 -365l39 66q4 8 8 0t4 -10q66 -33 133 -33q55 0 90 22.5t41 61.5q4 39 -29.5 55.5t-124.5 18.5q-16 0 -23 7t-3 17l102 170h125l-57 -116q-4 -6 -6 -7h2q92 -4 135 -47t43 -102q0 -86 -74 -133t-182 -47q-127 0 -205 55q-10 2 -15 8t-3 14z" />
<glyph unicode="&#xb9;" horiz-adv-x="751" d="M-18 797l14 112q2 8 5.5 10.5t13.5 2.5h147q12 0 15 14l84 598q0 6 -3.5 7t-9.5 -1l-145 -45l-8 -2q-8 0 -12.5 6t-2.5 14l13 80q2 12 5 17.5t13 9.5l219 102q27 12 51 13h80q16 0 15 -21l-111 -784q-2 -8 10 -8h137q21 -1 17 -19l-17 -108q-2 -10 -6 -13.5t-14 -3.5 h-494q-12 0 -15 4t-1 15z" />
<glyph unicode="&#xba;" horiz-adv-x="825" d="M162 1137q0 20 4 61q20 154 124.5 248t250.5 94q141 0 222 -84t81 -223q0 -18 -4 -64q-23 -150 -124.5 -241.5t-250.5 -91.5q-141 0 -222 82.5t-81 218.5zM340 1100q0 -143 119 -144q82 0 134 64.5t71 183.5q4 45 4 64q0 150 -123 149q-80 0 -131.5 -63.5t-67.5 -177.5 q-6 -39 -6 -76z" />
<glyph unicode="&#xbb;" horiz-adv-x="966" d="M47 166l219 346q14 27 10 41l-118 360l-2 11q0 8 16 8h98q14 0 25 -21l184 -362q6 -12 6 -29q0 -16 -10 -33l-280 -340q-2 -6 -8.5 -7t-14.5 -1h-94q-16 0 -25.5 8.5t-5.5 18.5zM438 166l217 346q15 27 11 41l-119 360l-2 11q0 8 16 8h98q16 0 27 -21l182 -362 q8 -16 9 -29q0 -14 -13 -33l-278 -340q-6 -8 -25 -8h-94q-16 0 -25.5 8.5t-3.5 18.5z" />
<glyph unicode="&#xbc;" horiz-adv-x="1892" d="M-41 584l14 112q2 8 5.5 10.5t13.5 2.5h147q12 0 15 14l84 598q0 6 -3.5 7t-9.5 -1l-145 -45l-8 -2q-8 0 -12.5 6t-2.5 14l13 80q2 12 5 17.5t13 9.5l219 102q27 12 51 13h80q16 0 15 -21l-111 -784q-2 -8 10 -8h137q21 -1 17 -19l-17 -108q-2 -10 -6 -13.5t-14 -3.5 h-494q-12 0 -15 4t-1 15zM217 25q0 16 8 26l1188 1473q8 10 15 12t14.5 1t13.5 -1h92q16 0 24.5 -10t-2.5 -27l-1202 -1493q-8 -10 -15 -12t-17.5 -2h-14.5l-74 2q-14 0 -22 9t-8 22zM900 256l14 100q2 18 35 56l475 526q12 12 19 15t24 3h141q18 0 17 -20l-80 -559 q0 -8 10 -8h115q18 0 18 -17l-14 -100q-4 -10 -7.5 -13t-15.5 -3h-113q-14 0 -16 -15l-27 -201q-2 -12 -7 -16t-21 -4h-142q-25 0 -22 23l29 204q2 8 -9 9h-403q-12 0 -16 4t-4 16zM1076 383q-14 -14 2 -14h260q8 0 11 3t5 11l51 358q0 10 -2 11q-4 0 -14 -15z" />
<glyph unicode="&#xbd;" horiz-adv-x="2002" d="M-41 584l14 112q2 8 5.5 10.5t13.5 2.5h147q12 0 15 14l84 598q0 6 -3.5 7t-9.5 -1l-145 -45l-8 -2q-8 0 -12.5 6t-2.5 14l13 80q2 12 5 17.5t13 9.5l219 102q27 12 51 13h80q16 0 15 -21l-111 -784q-2 -8 10 -8h137q21 -1 17 -19l-17 -108q-2 -10 -6 -13.5t-14 -3.5 h-494q-12 0 -15 4t-1 15zM271 25q0 16 8 26l1188 1473q8 10 15 12t14.5 1t13.5 -1h92q16 0 24.5 -10t-2.5 -27l-1202 -1493q-8 -10 -15 -12t-17.5 -2h-14.5l-74 2q-14 0 -22 9t-8 22zM1014 29l12 84q2 14 11 24t46 39l285 236q133 104 188.5 168.5t55.5 130.5q0 55 -38 85.5 t-98 30.5q-59 0 -117.5 -34.5t-105.5 -102.5q-6 -10 -16 -4l-117 70q-6 4 -6 8q0 8 12 22q68 88 164 135.5t203 47.5q137 0 220 -64.5t83 -181.5q0 -100 -56.5 -176t-179.5 -170l-264 -203q-8 -6 -8 -11t8 -5h410q23 0 18 -19l-16 -123q-4 -16 -21 -16h-647q-31 0 -26 29z " />
<glyph unicode="&#xbe;" horiz-adv-x="2015" d="M14 739l101 66q10 10 18 0q45 -57 100.5 -84t126.5 -27q96 0 160 48.5t64 125.5q0 61 -50.5 95t-125.5 36h-121q-14 0 -13 15l15 110q0 10 16 11l92 2q88 0 153.5 48t65.5 118q0 45 -37.5 74.5t-103.5 29.5t-114 -23.5t-117 -74.5q-16 -10 -25 2l-74 80q-4 8 -4 10 q0 8 9 16q68 57 154.5 90t178.5 33q150 0 235 -61.5t85 -161.5q0 -80 -55.5 -145.5t-139.5 -92.5q-8 -2 -8 -6t8 -6q74 -18 118 -71.5t44 -127.5q0 -145 -113.5 -227t-306.5 -82q-123 0 -205 43t-129 117q-10 16 -2 20zM422 25q0 16 8 26l1188 1473q8 10 15 12t14.5 1 t13.5 -1h92q16 0 24.5 -10t-2.5 -27l-1202 -1493q-8 -10 -15 -12t-17.5 -2h-14.5l-74 2q-14 0 -22 9t-8 22zM1012 256l14 100q2 18 35 56l475 526q12 12 19 15t24 3h141q18 0 17 -20l-80 -559q0 -8 10 -8h115q18 0 18 -17l-14 -100q-4 -10 -7.5 -13t-15.5 -3h-113 q-14 0 -16 -15l-27 -201q-2 -12 -7 -16t-21 -4h-142q-25 0 -22 23l29 204q2 8 -9 9h-403q-12 0 -16 4t-4 16zM1188 383q-14 -14 2 -14h260q8 0 11 3t5 11l51 358q0 10 -2 11q-4 0 -14 -15z" />
<glyph unicode="&#xbf;" horiz-adv-x="1079" d="M-27 -33q0 16 4 49q10 74 47 130.5t84.5 96.5t122.5 91q111 76 169.5 139.5t72.5 159.5q4 20 33 20h145q18 0 28.5 -16t6.5 -41q-18 -123 -81.5 -201t-176.5 -162q-86 -66 -131 -114.5t-55 -116.5q-2 -8 -2 -25q0 -66 52 -104.5t138 -38.5q92 0 182 53.5t133 132.5 q8 8 15 9q8 0 22 -6l168 -46q8 -2 13.5 -10t5.5 -20q0 -8 -4 -21q-86 -137 -226.5 -210.5t-316.5 -73.5q-215 0 -332 90t-117 235zM461 825l33 226q2 23 12 28.5t37 5.5h209q20 0 30.5 -12t8.5 -33l-33 -227q-2 -16 -7.5 -20.5t-19.5 -4.5h-242q-12 0 -21 11.5t-7 25.5z" />
<glyph unicode="&#xc0;" horiz-adv-x="1548" d="M-4 18q0 14 12 39l721 1434q8 18 21.5 23.5t35.5 5.5h258q35 0 43 -47l312 -1432l2 -12q0 -29 -27 -29h-248q-27 0 -32 33l-72 329q-2 10 -6 13.5t-17 3.5h-530q-12 0 -18.5 -5t-12.5 -18l-172 -340q-4 -10 -12 -13t-23 -3h-215q-20 0 -20 18zM549 621q0 -10 16 -11h393 q29 0 23 33l-123 543q-2 18 -12 18t-19 -20l-272 -543q-6 -14 -6 -20zM647 1825l4 16l59 121q11 20 29 8l451 -201q10 -6 16 -17t0 -24l-33 -63q-8 -16 -18 -17q-8 0 -23 7l-452 133q-33 10 -33 37z" />
<glyph unicode="&#xc1;" horiz-adv-x="1548" d="M-4 18q0 14 12 39l721 1434q8 18 21.5 23.5t35.5 5.5h258q35 0 43 -47l312 -1432l2 -12q0 -29 -27 -29h-248q-27 0 -32 33l-72 329q-2 10 -6 13.5t-17 3.5h-530q-12 0 -18.5 -5t-12.5 -18l-172 -340q-4 -10 -12 -13t-23 -3h-215q-20 0 -20 18zM549 621q0 -10 16 -11h393 q29 0 23 33l-123 543q-2 18 -12 18t-19 -20l-272 -543q-6 -14 -6 -20zM654 1757q0 14 10 16l508 201l6 2q8 0 15.5 -8t9.5 -18l26 -123q2 -6 2 -17q0 -10 -6 -15t-22 -9l-490 -135q-4 -2 -12 -3q-25 0 -31 31l-14 62q-2 6 -2 16z" />
<glyph unicode="&#xc2;" horiz-adv-x="1548" d="M-4 18q0 14 12 39l721 1434q8 18 21.5 23.5t35.5 5.5h258q35 0 43 -47l312 -1432l2 -12q0 -29 -27 -29h-248q-27 0 -32 33l-72 329q-2 10 -6 13.5t-17 3.5h-530q-12 0 -18.5 -5t-12.5 -18l-172 -340q-4 -10 -12 -13t-23 -3h-215q-20 0 -20 18zM549 621q0 -10 16 -11h393 q29 0 23 33l-123 543q-2 18 -12 18t-19 -20l-272 -543q-6 -14 -6 -20zM586 1712q0 10 10 20l248 215q14 10 27.5 14.5t35.5 4.5h125q20 0 30.5 -11.5t12.5 -15.5l186 -219q4 -4 11.5 -12t5.5 -10t-14 -2h-158q-25 0 -43 22l-84 107q-16 16 -21 16q-6 0 -15 -8t-19 -21 l-127 -106q-10 -8 -17.5 -10t-13.5 -1t-12 1h-148q-8 0 -14 5t-6 11z" />
<glyph unicode="&#xc3;" horiz-adv-x="1548" d="M-4 18q0 14 12 39l721 1434q8 18 21.5 23.5t35.5 5.5h258q35 0 43 -47l312 -1432l2 -12q0 -29 -27 -29h-248q-27 0 -32 33l-72 329q-2 10 -6 13.5t-17 3.5h-530q-12 0 -18.5 -5t-12.5 -18l-172 -340q-4 -10 -12 -13t-23 -3h-215q-20 0 -20 18zM549 621q0 -10 16 -11h393 q29 0 23 33l-123 543q-2 18 -12 18t-19 -20l-272 -543q-6 -14 -6 -20zM615 1866q0 14 12 28q49 29 88 43.5t90 14.5q41 0 75 -8.5t91 -26.5q76 -27 123 -27q72 0 143 55q4 2 15 2q25 0 28 -30l11 -90q2 -4 2 -15q0 -14 -19 -32q-96 -41 -180 -41q-41 0 -75 8t-79 22 q-76 27 -125 27q-45 0 -73.5 -13.5t-69.5 -41.5q-4 -2 -12 -2q-18 0 -25 30l-16 76q-4 16 -4 21z" />
<glyph unicode="&#xc4;" horiz-adv-x="1548" d="M-4 18q0 14 12 39l721 1434q8 18 21.5 23.5t35.5 5.5h258q35 0 43 -47l312 -1432l2 -12q0 -29 -27 -29h-248q-27 0 -32 33l-72 329q-2 10 -6 13.5t-17 3.5h-530q-12 0 -18.5 -5t-12.5 -18l-172 -340q-4 -10 -12 -13t-23 -3h-215q-20 0 -20 18zM549 621q0 -10 16 -11h393 q29 0 23 33l-123 543q-2 18 -12 18t-19 -20l-272 -543q-6 -14 -6 -20zM629 1743l24 186q2 16 7 20.5t18 4.5h188q14 0 22.5 -11.5t6.5 -25.5l-27 -185q-2 -20 -10 -25t-33 -5h-162q-41 0 -34 41zM1003 1743l27 186q2 16 6 20.5t19 4.5h188q14 0 22.5 -11.5t4.5 -25.5 l-27 -185q-2 -20 -10 -25t-33 -5h-162q-39 0 -35 41z" />
<glyph unicode="&#xc5;" horiz-adv-x="1548" d="M-4 18q0 14 12 39l721 1434q8 18 21.5 23.5t35.5 5.5h258q35 0 43 -47l312 -1432l2 -12q0 -29 -27 -29h-248q-27 0 -32 33l-72 329q-2 10 -6 13.5t-17 3.5h-530q-12 0 -18.5 -5t-12.5 -18l-172 -340q-4 -10 -12 -13t-23 -3h-215q-20 0 -20 18zM549 621q0 -10 16 -11h393 q29 0 23 33l-123 543q-2 18 -12 18t-19 -20l-272 -543q-6 -14 -6 -20zM709 1731q0 23 2 35q10 84 80.5 142t161.5 58q88 0 146 -58.5t58 -144.5q0 -65 -33.5 -120.5t-90 -88t-121.5 -32.5q-88 0 -145.5 59.5t-57.5 149.5zM817 1731q-4 -39 22 -68t64 -29q51 0 94.5 44 t43.5 98q0 33 -23.5 54.5t-60.5 21.5q-49 0 -90 -36t-50 -85z" />
<glyph unicode="&#xc6;" horiz-adv-x="2156" d="M-2 29q0 12 10 28l981 1434q12 18 22.5 23.5t30.5 5.5h1112q14 0 21.5 -11.5t5.5 -27.5l-22 -156q-4 -18 -10.5 -24.5t-26.5 -6.5h-649q-16 0 -29.5 -10t-16.5 -27l-49 -358l-2 -10q0 -8 6.5 -10t14.5 -2h448q14 0 24.5 -11.5t8.5 -25.5l-25 -168q-2 -10 -6 -13.5 t-18 -3.5h-453q-14 0 -24.5 -10t-12.5 -22l-53 -381q-2 -14 -1 -15.5t13 -1.5h693q16 0 25 -10t7 -27l-22 -163q-4 -14 -9 -19.5t-24 -5.5h-975q-20 0 -30.5 12.5t-8.5 32.5l47 322q0 10 -2 11t-12 1h-459q-10 0 -20 -7t-14 -18l-232 -338q-8 -10 -16 -13t-25 -3h-196 q-10 0 -18.5 8t-8.5 21zM645 614.5q0 -4.5 12 -4.5h342q15 0 27 12.5t14 26.5l82 582q4 31 -10 31q-20 0 -47 -43l-406 -584q-14 -16 -14 -20.5z" />
<glyph unicode="&#xc7;" horiz-adv-x="1472" d="M127 612q0 242 88 454t265 343t431 131q152 0 273 -60.5t190.5 -164t71.5 -230.5v-6q0 -29 -27 -28l-225 -15h-2q-20 0 -25 43q-10 113 -76.5 179.5t-183.5 66.5q-168 0 -273.5 -119t-151.5 -293t-46 -348q0 -182 74 -270t223 -88q135 0 236.5 66.5t173.5 205.5 q8 16 26 17q10 0 17 -2l182 -48q10 -4 10 -16q0 -14 -8 -37q-37 -86 -118 -177t-207.5 -158.5t-284.5 -75.5l-43 -88q-2 -6 -6 -7h2q92 -4 135 -47t43 -102q0 -86 -74 -133t-182 -47q-127 0 -205 55q-10 2 -15 8t-3 14l39 66q4 8 8 0t4 -10q66 -33 133 -33q55 0 90 22.5 t41 61.5q4 39 -29.5 55.5t-124.5 18.5q-16 0 -23 7t-3 17l86 144q-242 27 -374 193.5t-132 434.5z" />
<glyph unicode="&#xc8;" horiz-adv-x="1320" d="M92 45l205 1448q2 16 7 21.5t20 5.5h1001q27 0 21 -39l-23 -154q-4 -18 -11 -25.5t-28 -7.5h-686q-16 0 -22.5 -5t-8.5 -21l-51 -369l-2 -12q0 -10 18 -10h480q16 0 20 -6.5t2 -20.5l-24 -174q-2 -12 -7.5 -16.5t-19.5 -4.5h-481q-12 0 -17.5 -6t-9.5 -22l-51 -379v-8 q0 -14 12 -15h727q14 0 20.5 -6t2.5 -22l-23 -172q-2 -14 -7 -19.5t-23 -5.5h-1006q-23 0 -31 10t-4 35zM576 1825l4 16l59 121q11 20 29 8l451 -201q10 -6 16 -17t0 -24l-33 -63q-8 -16 -18 -17q-8 0 -23 7l-452 133q-33 10 -33 37z" />
<glyph unicode="&#xc9;" horiz-adv-x="1320" d="M92 45l205 1448q2 16 7 21.5t20 5.5h1001q27 0 21 -39l-23 -154q-4 -18 -11 -25.5t-28 -7.5h-686q-16 0 -22.5 -5t-8.5 -21l-51 -369l-2 -12q0 -10 18 -10h480q16 0 20 -6.5t2 -20.5l-24 -174q-2 -12 -7.5 -16.5t-19.5 -4.5h-481q-12 0 -17.5 -6t-9.5 -22l-51 -379v-8 q0 -14 12 -15h727q14 0 20.5 -6t2.5 -22l-23 -172q-2 -14 -7 -19.5t-23 -5.5h-1006q-23 0 -31 10t-4 35zM582 1757q0 14 10 16l508 201l6 2q8 0 15.5 -8t9.5 -18l26 -123q2 -6 2 -17q0 -10 -6 -15t-22 -9l-490 -135q-4 -2 -12 -3q-25 0 -31 31l-14 62q-2 6 -2 16z" />
<glyph unicode="&#xca;" horiz-adv-x="1320" d="M92 45l205 1448q2 16 7 21.5t20 5.5h1001q27 0 21 -39l-23 -154q-4 -18 -11 -25.5t-28 -7.5h-686q-16 0 -22.5 -5t-8.5 -21l-51 -369l-2 -12q0 -10 18 -10h480q16 0 20 -6.5t2 -20.5l-24 -174q-2 -12 -7.5 -16.5t-19.5 -4.5h-481q-12 0 -17.5 -6t-9.5 -22l-51 -379v-8 q0 -14 12 -15h727q14 0 20.5 -6t2.5 -22l-23 -172q-2 -14 -7 -19.5t-23 -5.5h-1006q-23 0 -31 10t-4 35zM514 1712q0 10 10 20l248 215q14 10 27.5 14.5t35.5 4.5h125q20 0 30.5 -11.5t12.5 -15.5l186 -219q4 -4 11.5 -12t5.5 -10t-14 -2h-158q-25 0 -43 22l-84 107 q-16 16 -21 16q-6 0 -15 -8t-19 -21l-127 -106q-10 -8 -17.5 -10t-13.5 -1t-12 1h-148q-8 0 -14 5t-6 11z" />
<glyph unicode="&#xcb;" horiz-adv-x="1320" d="M92 45l205 1448q2 16 7 21.5t20 5.5h1001q27 0 21 -39l-23 -154q-4 -18 -11 -25.5t-28 -7.5h-686q-16 0 -22.5 -5t-8.5 -21l-51 -369l-2 -12q0 -10 18 -10h480q16 0 20 -6.5t2 -20.5l-24 -174q-2 -12 -7.5 -16.5t-19.5 -4.5h-481q-12 0 -17.5 -6t-9.5 -22l-51 -379v-8 q0 -14 12 -15h727q14 0 20.5 -6t2.5 -22l-23 -172q-2 -14 -7 -19.5t-23 -5.5h-1006q-23 0 -31 10t-4 35zM557 1743l24 186q2 16 7 20.5t18 4.5h188q14 0 22.5 -11.5t6.5 -25.5l-27 -185q-2 -20 -10 -25t-33 -5h-162q-41 0 -34 41zM931 1743l27 186q2 16 6 20.5t19 4.5h188 q14 0 22.5 -11.5t4.5 -25.5l-27 -185q-2 -20 -10 -25t-33 -5h-162q-39 0 -35 41z" />
<glyph unicode="&#xcc;" horiz-adv-x="626" d="M92 45l205 1448q2 16 7 21.5t20 5.5h247q31 0 25 -41l-203 -1442q-2 -25 -11 -31t-36 -6h-221q-23 0 -30 11.5t-3 33.5zM197 1825l4 16l59 121q11 20 29 8l451 -201q10 -6 16 -17t0 -24l-33 -63q-8 -16 -18 -17q-8 0 -23 7l-452 133q-33 10 -33 37z" />
<glyph unicode="&#xcd;" horiz-adv-x="626" d="M92 45l205 1448q2 16 7 21.5t20 5.5h247q31 0 25 -41l-203 -1442q-2 -25 -11 -31t-36 -6h-221q-23 0 -30 11.5t-3 33.5zM203 1757q0 14 10 16l508 201l6 2q8 0 15.5 -8t9.5 -18l26 -123q2 -6 2 -17q0 -10 -6 -15t-22 -9l-490 -135q-4 -2 -12 -3q-25 0 -31 31l-14 62 q-2 6 -2 16z" />
<glyph unicode="&#xce;" horiz-adv-x="626" d="M92 45l205 1448q2 16 7 21.5t20 5.5h247q31 0 25 -41l-203 -1442q-2 -25 -11 -31t-36 -6h-221q-23 0 -30 11.5t-3 33.5zM136 1712q0 10 10 20l248 215q14 10 27.5 14.5t35.5 4.5h125q20 0 30.5 -11.5t12.5 -15.5l186 -219q4 -4 11.5 -12t5.5 -10t-14 -2h-158 q-25 0 -43 22l-84 107q-16 16 -21 16q-6 0 -15 -8t-19 -21l-127 -106q-10 -8 -17.5 -10t-13.5 -1t-12 1h-148q-8 0 -14 5t-6 11z" />
<glyph unicode="&#xcf;" horiz-adv-x="626" d="M92 45l205 1448q2 16 7 21.5t20 5.5h247q31 0 25 -41l-203 -1442q-2 -25 -11 -31t-36 -6h-221q-23 0 -30 11.5t-3 33.5zM179 1743l24 186q2 16 7 20.5t18 4.5h188q14 0 22.5 -11.5t6.5 -25.5l-27 -185q-2 -20 -10 -25t-33 -5h-162q-41 0 -34 41zM553 1743l27 186 q2 16 6 20.5t19 4.5h188q14 0 22.5 -11.5t4.5 -25.5l-27 -185q-2 -20 -10 -25t-33 -5h-162q-39 0 -35 41z" />
<glyph unicode="&#xd0;" horiz-adv-x="1466" d="M39 51l84 602h-4q-43 0 -39 47l18 127q4 16 8.5 21.5t18.5 5.5h27l90 637q4 16 11 22.5t28 6.5h389q362 0 546.5 -160t184.5 -449q0 -283 -107.5 -487.5t-314.5 -314t-498 -109.5h-401q-20 0 -31.5 14.5t-9.5 36.5zM372 245q-1 -3 1 -5q0 -23 24 -23h113q295 0 436 186.5 t141 522.5q0 197 -103 287t-312 90h-125q-29 0 -35 -33l-57 -416h360q14 0 22.5 -12.5t4.5 -26.5l-17 -127q-2 -23 -12 -29t-37 -6h-348l-55 -403q0 -2 -1 -5z" />
<glyph unicode="&#xd1;" horiz-adv-x="1552" d="M90 39l207 1454q2 16 7 21.5t24 5.5h202q18 0 28.5 -7.5t21.5 -25.5l526 -948q8 -14 20 -15q14 0 17 25l133 946q4 16 9 20.5t22 4.5h196q25 0 21 -29l-207 -1468q-2 -14 -8 -18.5t-23 -4.5h-172q-27 0 -43 29l-563 995q-6 12 -14 12t-13 -22l-139 -985q-4 -16 -10 -22.5 t-27 -6.5h-188q-31 0 -27 39zM639 1866q0 14 12 28q49 29 88 43.5t90 14.5q41 0 75 -8.5t91 -26.5q76 -27 123 -27q72 0 143 55q4 2 15 2q25 0 28 -30l11 -90q2 -4 2 -15q0 -14 -19 -32q-96 -41 -180 -41q-41 0 -75 8t-79 22q-76 27 -125 27q-45 0 -73.5 -13.5t-69.5 -41.5 q-4 -2 -12 -2q-18 0 -25 30l-16 76q-4 16 -4 21z" />
<glyph unicode="&#xd2;" horiz-adv-x="1576" d="M125 598q0 82 12 170q33 240 139.5 414t271.5 266t372 92q279 0 435 -166t156 -463q0 -98 -12 -170q-33 -238 -138.5 -408.5t-269 -261.5t-370.5 -91q-283 0 -439.5 162.5t-156.5 455.5zM434 545q0 -180 74 -264t223 -84q193 0 304.5 138t152.5 431q14 109 14 203 q0 182 -71.5 269t-217.5 87q-190 0 -304.5 -144.5t-157.5 -443.5q-16 -115 -17 -192zM670 1825l4 16l59 121q11 20 29 8l451 -201q10 -6 16 -17t0 -24l-33 -63q-8 -16 -18 -17q-8 0 -23 7l-452 133q-33 10 -33 37z" />
<glyph unicode="&#xd3;" horiz-adv-x="1576" d="M125 598q0 82 12 170q33 240 139.5 414t271.5 266t372 92q279 0 435 -166t156 -463q0 -98 -12 -170q-33 -238 -138.5 -408.5t-269 -261.5t-370.5 -91q-283 0 -439.5 162.5t-156.5 455.5zM434 545q0 -180 74 -264t223 -84q193 0 304.5 138t152.5 431q14 109 14 203 q0 182 -71.5 269t-217.5 87q-190 0 -304.5 -144.5t-157.5 -443.5q-16 -115 -17 -192zM676 1757q0 14 10 16l508 201l6 2q8 0 15.5 -8t9.5 -18l26 -123q2 -6 2 -17q0 -10 -6 -15t-22 -9l-490 -135q-4 -2 -12 -3q-25 0 -31 31l-14 62q-2 6 -2 16z" />
<glyph unicode="&#xd4;" horiz-adv-x="1576" d="M125 598q0 82 12 170q33 240 139.5 414t271.5 266t372 92q279 0 435 -166t156 -463q0 -98 -12 -170q-33 -238 -138.5 -408.5t-269 -261.5t-370.5 -91q-283 0 -439.5 162.5t-156.5 455.5zM434 545q0 -180 74 -264t223 -84q193 0 304.5 138t152.5 431q14 109 14 203 q0 182 -71.5 269t-217.5 87q-190 0 -304.5 -144.5t-157.5 -443.5q-16 -115 -17 -192zM609 1712q0 10 10 20l248 215q14 10 27.5 14.5t35.5 4.5h125q20 0 30.5 -11.5t12.5 -15.5l186 -219q4 -4 11.5 -12t5.5 -10t-14 -2h-158q-25 0 -43 22l-84 107q-16 16 -21 16q-6 0 -15 -8 t-19 -21l-127 -106q-10 -8 -17.5 -10t-13.5 -1t-12 1h-148q-8 0 -14 5t-6 11z" />
<glyph unicode="&#xd5;" horiz-adv-x="1576" d="M125 598q0 82 12 170q33 240 139.5 414t271.5 266t372 92q279 0 435 -166t156 -463q0 -98 -12 -170q-33 -238 -138.5 -408.5t-269 -261.5t-370.5 -91q-283 0 -439.5 162.5t-156.5 455.5zM434 545q0 -180 74 -264t223 -84q193 0 304.5 138t152.5 431q14 109 14 203 q0 182 -71.5 269t-217.5 87q-190 0 -304.5 -144.5t-157.5 -443.5q-16 -115 -17 -192zM637 1866q0 14 12 28q49 29 88 43.5t90 14.5q41 0 75 -8.5t91 -26.5q76 -27 123 -27q72 0 143 55q4 2 15 2q25 0 28 -30l11 -90q2 -4 2 -15q0 -14 -19 -32q-96 -41 -180 -41q-41 0 -75 8 t-79 22q-76 27 -125 27q-45 0 -73.5 -13.5t-69.5 -41.5q-4 -2 -12 -2q-18 0 -25 30l-16 76q-4 16 -4 21z" />
<glyph unicode="&#xd6;" horiz-adv-x="1576" d="M125 598q0 82 12 170q33 240 139.5 414t271.5 266t372 92q279 0 435 -166t156 -463q0 -98 -12 -170q-33 -238 -138.5 -408.5t-269 -261.5t-370.5 -91q-283 0 -439.5 162.5t-156.5 455.5zM434 545q0 -180 74 -264t223 -84q193 0 304.5 138t152.5 431q14 109 14 203 q0 182 -71.5 269t-217.5 87q-190 0 -304.5 -144.5t-157.5 -443.5q-16 -115 -17 -192zM652 1743l24 186q2 16 7 20.5t18 4.5h188q14 0 22.5 -11.5t6.5 -25.5l-27 -185q-2 -20 -10 -25t-33 -5h-162q-41 0 -34 41zM1026 1743l27 186q2 16 6 20.5t19 4.5h188q14 0 22.5 -11.5 t4.5 -25.5l-27 -185q-2 -20 -10 -25t-33 -5h-162q-39 0 -35 41z" />
<glyph unicode="&#xd7;" horiz-adv-x="1155" d="M115 446q0 16 16 31l338 297l-254 295q-14 18 -14 29q0 10 12 22l104 92q8 6 17 7q14 0 24 -15l258 -301l351 307q10 8 22 9q12 0 27 -19l80 -92q22 -27 10 -41l-358 -313l260 -303q10 -10 10 -21q0 -8 -8 -16l-105 -92q-10 -8 -20 -9q-10 0 -19.5 7.5t-19.5 17.5 l-246 287l-356 -312q-6 -6 -13 -6q-8 0 -24 17l-78 92q-14 14 -14 30z" />
<glyph unicode="&#xd8;" horiz-adv-x="1540" d="M-29 104q0 10 11 21l184 164q-59 131 -60 309q0 82 13 170q33 240 139.5 414t271 266t371.5 92q141 0 253 -46t187 -132l168 162q10 10 21 10q14 0 24 -14l74 -84q12 -17 12 -25t-8 -16l-196 -174q57 -133 57 -310q0 -78 -12 -170q-33 -238 -138.5 -408.5t-269.5 -261.5 t-371 -91q-287 0 -440 170l-153 -150q-14 -14 -29 -14q-16 0 -35 22l-53 62q-20 25 -21 34zM426 618q0 -61 8 -102l707 672q-63 137 -248 137q-190 0 -303 -143.5t-156 -444.5q-8 -56 -8 -119zM461 324q37 -66 98.5 -95.5t153.5 -29.5q190 0 300.5 137t151.5 430q9 58 9 119 q0 66 -11 106z" />
<glyph unicode="&#xd9;" horiz-adv-x="1468" d="M137 434q0 43 13 154l129 903q2 18 7 23.5t19 5.5h244q14 0 23.5 -12.5t5.5 -28.5l-134 -951q-6 -49 -6 -90q0 -123 64.5 -180t193.5 -57q156 0 254.5 85t122.5 263l133 944q4 16 8.5 21.5t18.5 5.5h194q14 0 22.5 -12.5t6.5 -28.5l-133 -942q-41 -297 -207 -427 t-450 -130q-274 0 -401.5 113.5t-127.5 340.5zM637 1825l4 16l59 121q11 20 29 8l451 -201q10 -6 16 -17t0 -24l-33 -63q-8 -16 -18 -17q-8 0 -23 7l-452 133q-33 10 -33 37z" />
<glyph unicode="&#xda;" horiz-adv-x="1468" d="M137 434q0 43 13 154l129 903q2 18 7 23.5t19 5.5h244q14 0 23.5 -12.5t5.5 -28.5l-134 -951q-6 -49 -6 -90q0 -123 64.5 -180t193.5 -57q156 0 254.5 85t122.5 263l133 944q4 16 8.5 21.5t18.5 5.5h194q14 0 22.5 -12.5t6.5 -28.5l-133 -942q-41 -297 -207 -427 t-450 -130q-274 0 -401.5 113.5t-127.5 340.5zM643 1757q0 14 10 16l508 201l6 2q8 0 15.5 -8t9.5 -18l26 -123q2 -6 2 -17q0 -10 -6 -15t-22 -9l-490 -135q-4 -2 -12 -3q-25 0 -31 31l-14 62q-2 6 -2 16z" />
<glyph unicode="&#xdb;" horiz-adv-x="1468" d="M137 434q0 43 13 154l129 903q2 18 7 23.5t19 5.5h244q14 0 23.5 -12.5t5.5 -28.5l-134 -951q-6 -49 -6 -90q0 -123 64.5 -180t193.5 -57q156 0 254.5 85t122.5 263l133 944q4 16 8.5 21.5t18.5 5.5h194q14 0 22.5 -12.5t6.5 -28.5l-133 -942q-41 -297 -207 -427 t-450 -130q-274 0 -401.5 113.5t-127.5 340.5zM576 1712q0 10 10 20l248 215q14 10 27.5 14.5t35.5 4.5h125q20 0 30.5 -11.5t12.5 -15.5l186 -219q4 -4 11.5 -12t5.5 -10t-14 -2h-158q-25 0 -43 22l-84 107q-16 16 -21 16q-6 0 -15 -8t-19 -21l-127 -106q-10 -8 -17.5 -10 t-13.5 -1t-12 1h-148q-8 0 -14 5t-6 11z" />
<glyph unicode="&#xdc;" horiz-adv-x="1468" d="M137 434q0 43 13 154l129 903q2 18 7 23.5t19 5.5h244q14 0 23.5 -12.5t5.5 -28.5l-134 -951q-6 -49 -6 -90q0 -123 64.5 -180t193.5 -57q156 0 254.5 85t122.5 263l133 944q4 16 8.5 21.5t18.5 5.5h194q14 0 22.5 -12.5t6.5 -28.5l-133 -942q-41 -297 -207 -427 t-450 -130q-274 0 -401.5 113.5t-127.5 340.5zM619 1743l24 186q2 16 7 20.5t18 4.5h188q14 0 22.5 -11.5t6.5 -25.5l-27 -185q-2 -20 -10 -25t-33 -5h-162q-41 0 -34 41zM993 1743l27 186q2 16 6 20.5t19 4.5h188q14 0 22.5 -11.5t4.5 -25.5l-27 -185q-2 -20 -10 -25 t-33 -5h-162q-39 0 -35 41z" />
<glyph unicode="&#xdd;" horiz-adv-x="1464" d="M207 1505q0 14 29 15h253q20 0 29.5 -8.5t20.5 -30.5l249 -576q6 -16 15 -16q8 0 18 16l418 590q12 16 21.5 20.5t31.5 4.5h215q25 -1 25 -21q0 -8 -6 -18l-600 -803q-14 -16 -20.5 -34.5t-10.5 -59.5l-78 -547q-2 -25 -12 -31t-39 -6h-221q-20 0 -26.5 9t-4.5 30l80 565 q4 25 4 29q0 14 -10 39l-375 811q-6 12 -6 22zM631 1757q0 14 10 16l508 201l6 2q8 0 15.5 -8t9.5 -18l26 -123q2 -6 2 -17q0 -10 -6 -15t-22 -9l-490 -135q-4 -2 -12 -3q-25 0 -31 31l-14 62q-2 6 -2 16z" />
<glyph unicode="&#xde;" horiz-adv-x="1458" d="M92 43l205 1450q2 16 7 21.5t20 5.5h243q14 0 23.5 -12.5t5.5 -28.5l-35 -250q-2 -8 1 -9t9 -1h306q238 0 384 -98.5t146 -286.5q0 -45 -4 -70q-31 -213 -192.5 -324.5t-411.5 -111.5h-338q-12 0 -20.5 -9.5t-10.5 -19.5l-37 -266q-2 -20 -10 -26.5t-33 -6.5h-221 q-18 0 -29.5 12.5t-7.5 30.5zM467 557q0 -6 5 -8t13 -2h293q131 0 217 65.5t103 184.5q2 11 2 34q0 168 -260 168h-271q-18 0 -30.5 -11t-14.5 -27l-55 -388q-2 -6 -2 -16z" />
<glyph unicode="&#xdf;" horiz-adv-x="1300" d="M86 895l18 129q2 12 8.5 17.5t22.5 5.5h78q25 0 33 43q31 190 170 310t387 120q186 0 282.5 -75t96.5 -200q0 -12 -4 -45q-14 -102 -83 -162.5t-214 -126.5q-53 -23 -76 -41t-27 -47q-2 -18 9.5 -28.5t54.5 -30.5q111 -41 184.5 -82t125.5 -111.5t52 -175.5q0 -39 -4 -61 q-25 -172 -153.5 -263t-319.5 -91q-80 0 -146.5 17t-105.5 48q-14 4 -19 14.5t-1 20.5l80 123q6 6 10 6q8 0 16 -16q43 -18 77 -27.5t81 -9.5q96 0 161.5 48t77.5 132q2 8 3 24q0 43 -24 71t-55.5 45.5t-109.5 51.5q-92 33 -146.5 85.5t-54.5 140.5q0 86 43 145t138 125 q88 51 131 89t53 104q8 57 -31 90.5t-121 33.5q-111 0 -185.5 -68.5t-90.5 -185.5l-150 -1058v-11q0 -12 -4 -15t-18 -3h-209q-12 0 -21.5 12.5t-7.5 26.5l115 807q2 10 0 12t-10 2h-86q-14 0 -23.5 10.5t-7.5 24.5z" />
<glyph unicode="&#xe0;" d="M25 244q0 141 93 233t234.5 134t296.5 48l103 7q39 4 45 39l6 47q4 25 4 36q0 70 -44 108t-126 38q-170 0 -266 -139q-8 -12 -23 -13q-10 0 -16 2l-166 43q-18 4 -19 23q0 16 9 35q70 111 196.5 166t300.5 55q209 0 309.5 -78t100.5 -215q0 -18 -4 -59l-103 -721 q-4 -23 -9 -28t-25 -5h-174q-31 0 -31 45l4 70q0 14 -8 14q-10 0 -29 -20q-137 -129 -352 -129q-143 0 -225 72.5t-82 191.5zM289 285q0 -57 42 -91t115 -34q57 0 111.5 18.5t93.5 48.5q88 63 97 131l20 146v14q0 8 -4 11t-16 1l-97 -8q-137 -10 -249.5 -64.5t-112.5 -172.5 zM397 1391l4 16l59 121q11 20 29 8l451 -201q10 -6 16 -17t0 -24l-33 -63q-8 -16 -18 -17q-8 0 -23 7l-452 133q-33 10 -33 37z" />
<glyph unicode="&#xe1;" d="M25 244q0 141 93 233t234.5 134t296.5 48l103 7q39 4 45 39l6 47q4 25 4 36q0 70 -44 108t-126 38q-170 0 -266 -139q-8 -12 -23 -13q-10 0 -16 2l-166 43q-18 4 -19 23q0 16 9 35q70 111 196.5 166t300.5 55q209 0 309.5 -78t100.5 -215q0 -18 -4 -59l-103 -721 q-4 -23 -9 -28t-25 -5h-174q-31 0 -31 45l4 70q0 14 -8 14q-10 0 -29 -20q-137 -129 -352 -129q-143 0 -225 72.5t-82 191.5zM289 285q0 -57 42 -91t115 -34q57 0 111.5 18.5t93.5 48.5q88 63 97 131l20 146v14q0 8 -4 11t-16 1l-97 -8q-137 -10 -249.5 -64.5t-112.5 -172.5 zM404 1323q0 14 10 16l508 201l6 2q8 0 15.5 -8t9.5 -18l26 -123q2 -6 2 -17q0 -10 -6 -15t-22 -9l-490 -135q-4 -2 -12 -3q-25 0 -31 31l-14 62q-2 6 -2 16z" />
<glyph unicode="&#xe2;" d="M25 244q0 141 93 233t234.5 134t296.5 48l103 7q39 4 45 39l6 47q4 25 4 36q0 70 -44 108t-126 38q-170 0 -266 -139q-8 -12 -23 -13q-10 0 -16 2l-166 43q-18 4 -19 23q0 16 9 35q70 111 196.5 166t300.5 55q209 0 309.5 -78t100.5 -215q0 -18 -4 -59l-103 -721 q-4 -23 -9 -28t-25 -5h-174q-31 0 -31 45l4 70q0 14 -8 14q-10 0 -29 -20q-137 -129 -352 -129q-143 0 -225 72.5t-82 191.5zM289 285q0 -57 42 -91t115 -34q57 0 111.5 18.5t93.5 48.5q88 63 97 131l20 146v14q0 8 -4 11t-16 1l-97 -8q-137 -10 -249.5 -64.5t-112.5 -172.5 zM336 1278q0 10 10 20l248 215q14 10 27.5 14.5t35.5 4.5h125q20 0 30.5 -11.5t12.5 -15.5l186 -219q4 -4 11.5 -12t5.5 -10t-14 -2h-158q-25 0 -43 22l-84 107q-16 16 -21 16q-6 0 -15 -8t-19 -21l-127 -106q-10 -8 -17.5 -10t-13.5 -1t-12 1h-148q-8 0 -14 5t-6 11z" />
<glyph unicode="&#xe3;" d="M25 244q0 141 93 233t234.5 134t296.5 48l103 7q39 4 45 39l6 47q4 25 4 36q0 70 -44 108t-126 38q-170 0 -266 -139q-8 -12 -23 -13q-10 0 -16 2l-166 43q-18 4 -19 23q0 16 9 35q70 111 196.5 166t300.5 55q209 0 309.5 -78t100.5 -215q0 -18 -4 -59l-103 -721 q-4 -23 -9 -28t-25 -5h-174q-31 0 -31 45l4 70q0 14 -8 14q-10 0 -29 -20q-137 -129 -352 -129q-143 0 -225 72.5t-82 191.5zM289 285q0 -57 42 -91t115 -34q57 0 111.5 18.5t93.5 48.5q88 63 97 131l20 146v14q0 8 -4 11t-16 1l-97 -8q-137 -10 -249.5 -64.5t-112.5 -172.5 zM365 1432q0 14 12 28q49 29 88 43.5t90 14.5q41 0 75 -8.5t91 -26.5q76 -27 123 -27q72 0 143 55q4 2 15 2q25 0 28 -30l11 -90q2 -4 2 -15q0 -14 -19 -32q-96 -41 -180 -41q-41 0 -75 8t-79 22q-76 27 -125 27q-45 0 -73.5 -13.5t-69.5 -41.5q-4 -2 -12 -2q-18 0 -25 30 l-16 76q-4 16 -4 21z" />
<glyph unicode="&#xe4;" d="M25 244q0 141 93 233t234.5 134t296.5 48l103 7q39 4 45 39l6 47q4 25 4 36q0 70 -44 108t-126 38q-170 0 -266 -139q-8 -12 -23 -13q-10 0 -16 2l-166 43q-18 4 -19 23q0 16 9 35q70 111 196.5 166t300.5 55q209 0 309.5 -78t100.5 -215q0 -18 -4 -59l-103 -721 q-4 -23 -9 -28t-25 -5h-174q-31 0 -31 45l4 70q0 14 -8 14q-10 0 -29 -20q-137 -129 -352 -129q-143 0 -225 72.5t-82 191.5zM289 285q0 -57 42 -91t115 -34q57 0 111.5 18.5t93.5 48.5q88 63 97 131l20 146v14q0 8 -4 11t-16 1l-97 -8q-137 -10 -249.5 -64.5t-112.5 -172.5 zM379 1309l24 186q2 16 7 20.5t18 4.5h188q14 0 22.5 -11.5t6.5 -25.5l-27 -185q-2 -20 -10 -25t-33 -5h-162q-41 0 -34 41zM753 1309l27 186q2 16 6 20.5t19 4.5h188q14 0 22.5 -11.5t4.5 -25.5l-27 -185q-2 -20 -10 -25t-33 -5h-162q-39 0 -35 41z" />
<glyph unicode="&#xe5;" d="M25 244q0 141 93 233t234.5 134t296.5 48l103 7q39 4 45 39l6 47q4 25 4 36q0 70 -44 108t-126 38q-170 0 -266 -139q-8 -12 -23 -13q-10 0 -16 2l-166 43q-18 4 -19 23q0 16 9 35q70 111 196.5 166t300.5 55q209 0 309.5 -78t100.5 -215q0 -18 -4 -59l-103 -721 q-4 -23 -9 -28t-25 -5h-174q-31 0 -31 45l4 70q0 14 -8 14q-10 0 -29 -20q-137 -129 -352 -129q-143 0 -225 72.5t-82 191.5zM289 285q0 -57 42 -91t115 -34q57 0 111.5 18.5t93.5 48.5q88 63 97 131l20 146v14q0 8 -4 11t-16 1l-97 -8q-137 -10 -249.5 -64.5t-112.5 -172.5 zM479 1407q0 23 2 35q10 84 80.5 142t161.5 58q88 0 146 -58.5t58 -144.5q0 -65 -33.5 -120.5t-90 -88t-121.5 -32.5q-88 0 -145.5 59.5t-57.5 149.5zM587 1407q-4 -39 22 -68t64 -29q51 0 94.5 44t43.5 98q0 33 -23.5 54.5t-60.5 21.5q-49 0 -90 -36t-50 -85z" />
<glyph unicode="&#xe6;" horiz-adv-x="1886" d="M23 248q0 16 4 53q23 156 171 248t420 108l127 9q16 2 32 12t18 27l6 47q2 14 2 39q0 143 -172 143q-74 0 -142.5 -37t-121.5 -113q-6 -6 -15 -6q-6 0 -24 6l-164 43q-14 2 -14 33q0 16 4 25q80 113 196.5 167t296.5 54q283 -2 350 -154q152 154 373 154q209 0 332 -124 t123 -343q0 -59 -8 -115q-4 -20 -9.5 -25t-27.5 -7h-709q-41 -1 -47 -58q-2 -12 -2 -39q0 -98 70.5 -163.5t179.5 -65.5q96 0 164.5 40t144.5 118q4 2 10 2q4 0 25 -11l117 -57q16 -6 16 -22q0 -10 -6 -23q-102 -123 -225 -178t-283 -55q-145 0 -242.5 59t-154.5 151 q-8 0 -14.5 -7t-10.5 -17q-100 -88 -210.5 -137t-262.5 -49t-234.5 71.5t-82.5 196.5zM287 266q0 -55 39 -85.5t114 -30.5q72 0 139.5 27.5t112.5 73.5t53 99l19 144l2 14q0 8 -5 10t-22 2l-102 -8q-152 -12 -251 -75.5t-99 -170.5zM1057 637l475 6q23 0 33 10.5t12 34.5 q2 12 2 37q0 88 -54.5 150.5t-150.5 62.5q-117 0 -208 -83t-109 -218z" />
<glyph unicode="&#xe7;" horiz-adv-x="1122" d="M68 455q0 168 75.5 318.5t215 241.5t319.5 91q174 0 278.5 -87t135.5 -218v-8q0 -18 -25 -21l-174 -20h-4q-8 0 -13.5 10t-9.5 24q-37 74 -74.5 108t-107.5 34q-113 0 -191.5 -78t-118.5 -194.5t-40 -229.5q0 -133 60.5 -201.5t170.5 -68.5q96 0 163 44t134 140 q6 8 11.5 8t17.5 -4l125 -35q18 -2 18 -26q0 -12 -4 -21q-61 -104 -175 -187t-269 -93l-43 -88q-2 -6 -6 -7h2q92 -4 135 -47t43 -102q0 -86 -74 -133t-182 -47q-127 0 -205 55q-10 2 -15 8t-3 14l38 66q4 8 8.5 0t4.5 -10q66 -33 133 -33q55 0 90 22.5t41 61.5 q4 39 -30 55.5t-124 18.5q-16 0 -23 7t-3 17l88 146q-182 25 -287.5 150.5t-105.5 318.5z" />
<glyph unicode="&#xe8;" horiz-adv-x="1196" d="M68 449q0 170 77.5 320.5t219 243.5t317.5 93q209 0 332 -124t123 -343q0 -59 -9 -115q-4 -18 -13 -25t-32 -7h-718q-18 0 -25.5 -23t-7.5 -68q0 -111 69.5 -173t182.5 -62q88 0 161.5 36t139.5 111q10 10 20 11q6 0 23 -9l116 -57q20 -6 21 -22q0 -8 -10 -23 q-111 -129 -228.5 -181t-277.5 -52q-143 0 -252 58t-169 164.5t-60 246.5zM367 637h477q49 0 49 84q0 92 -56.5 154.5t-154.5 62.5q-80 0 -148.5 -41t-112.5 -110.5t-54 -149.5zM430 1391l4 16l59 121q11 20 29 8l451 -201q10 -6 16 -17t0 -24l-33 -63q-8 -16 -18 -17 q-8 0 -23 7l-452 133q-33 10 -33 37z" />
<glyph unicode="&#xe9;" horiz-adv-x="1196" d="M68 449q0 170 77.5 320.5t219 243.5t317.5 93q209 0 332 -124t123 -343q0 -59 -9 -115q-4 -18 -13 -25t-32 -7h-718q-18 0 -25.5 -23t-7.5 -68q0 -111 69.5 -173t182.5 -62q88 0 161.5 36t139.5 111q10 10 20 11q6 0 23 -9l116 -57q20 -6 21 -22q0 -8 -10 -23 q-111 -129 -228.5 -181t-277.5 -52q-143 0 -252 58t-169 164.5t-60 246.5zM367 637h477q49 0 49 84q0 92 -56.5 154.5t-154.5 62.5q-80 0 -148.5 -41t-112.5 -110.5t-54 -149.5zM437 1323q0 14 10 16l508 201l6 2q8 0 15.5 -8t9.5 -18l26 -123q2 -6 2 -17q0 -10 -6 -15 t-22 -9l-490 -135q-4 -2 -12 -3q-25 0 -31 31l-14 62q-2 6 -2 16z" />
<glyph unicode="&#xea;" horiz-adv-x="1196" d="M68 449q0 170 77.5 320.5t219 243.5t317.5 93q209 0 332 -124t123 -343q0 -59 -9 -115q-4 -18 -13 -25t-32 -7h-718q-18 0 -25.5 -23t-7.5 -68q0 -111 69.5 -173t182.5 -62q88 0 161.5 36t139.5 111q10 10 20 11q6 0 23 -9l116 -57q20 -6 21 -22q0 -8 -10 -23 q-111 -129 -228.5 -181t-277.5 -52q-143 0 -252 58t-169 164.5t-60 246.5zM367 637h477q49 0 49 84q0 92 -56.5 154.5t-154.5 62.5q-80 0 -148.5 -41t-112.5 -110.5t-54 -149.5zM369 1278q0 10 10 20l248 215q14 10 27.5 14.5t35.5 4.5h125q20 0 30.5 -11.5t12.5 -15.5 l186 -219q4 -4 11.5 -12t5.5 -10t-14 -2h-158q-25 0 -43 22l-84 107q-16 16 -21 16q-6 0 -15 -8t-19 -21l-127 -106q-10 -8 -17.5 -10t-13.5 -1t-12 1h-148q-8 0 -14 5t-6 11z" />
<glyph unicode="&#xeb;" horiz-adv-x="1196" d="M68 449q0 170 77.5 320.5t219 243.5t317.5 93q209 0 332 -124t123 -343q0 -59 -9 -115q-4 -18 -13 -25t-32 -7h-718q-18 0 -25.5 -23t-7.5 -68q0 -111 69.5 -173t182.5 -62q88 0 161.5 36t139.5 111q10 10 20 11q6 0 23 -9l116 -57q20 -6 21 -22q0 -8 -10 -23 q-111 -129 -228.5 -181t-277.5 -52q-143 0 -252 58t-169 164.5t-60 246.5zM367 637h477q49 0 49 84q0 92 -56.5 154.5t-154.5 62.5q-80 0 -148.5 -41t-112.5 -110.5t-54 -149.5zM412 1309l24 186q2 16 7 20.5t18 4.5h188q14 0 22.5 -11.5t6.5 -25.5l-27 -185q-2 -20 -10 -25 t-33 -5h-162q-41 0 -34 41zM786 1309l27 186q2 16 6 20.5t19 4.5h188q14 0 22.5 -11.5t4.5 -25.5l-27 -185q-2 -20 -10 -25t-33 -5h-162q-39 0 -35 41z" />
<glyph unicode="&#xec;" horiz-adv-x="524" d="M59 45l142 1014q4 16 9 21t19 5h207q14 0 23.5 -11t7.5 -27l-143 -1010q-2 -25 -11.5 -31t-36.5 -6h-178q-23 0 -33 12.5t-6 32.5zM80 1391l4 16l59 121q11 20 29 8l451 -201q10 -6 16 -17t0 -24l-33 -63q-8 -16 -18 -17q-8 0 -23 7l-452 133q-33 10 -33 37z" />
<glyph unicode="&#xed;" horiz-adv-x="524" d="M59 45l142 1014q4 16 9 21t19 5h207q14 0 23.5 -11t7.5 -27l-143 -1010q-2 -25 -11.5 -31t-36.5 -6h-178q-23 0 -33 12.5t-6 32.5zM86 1323q0 14 10 16l508 201l6 2q8 0 15.5 -8t9.5 -18l26 -123q2 -6 2 -17q0 -10 -6 -15t-22 -9l-490 -135q-4 -2 -12 -3q-25 0 -31 31 l-14 62q-2 6 -2 16z" />
<glyph unicode="&#xee;" horiz-adv-x="524" d="M19 1278q0 10 10 20l248 215q14 10 27.5 14.5t35.5 4.5h125q20 0 30.5 -11.5t12.5 -15.5l186 -219q4 -4 11.5 -12t5.5 -10t-14 -2h-158q-25 0 -43 22l-84 107q-16 16 -21 16q-6 0 -15 -8t-19 -21l-127 -106q-10 -8 -17.5 -10t-13.5 -1t-12 1h-148q-8 0 -14 5t-6 11z M59 45l142 1014q4 16 9 21t19 5h207q14 0 23.5 -11t7.5 -27l-143 -1010q-2 -25 -11.5 -31t-36.5 -6h-178q-23 0 -33 12.5t-6 32.5z" />
<glyph unicode="&#xef;" horiz-adv-x="524" d="M59 45l142 1014q4 16 9 21t19 5h207q14 0 23.5 -11t7.5 -27l-143 -1010q-2 -25 -11.5 -31t-36.5 -6h-178q-23 0 -33 12.5t-6 32.5zM62 1309l24 186q2 16 7 20.5t18 4.5h188q14 0 22.5 -11.5t6.5 -25.5l-27 -185q-2 -20 -10 -25t-33 -5h-162q-41 0 -34 41zM436 1309 l27 186q2 16 6 20.5t19 4.5h188q14 0 22.5 -11.5t4.5 -25.5l-27 -185q-2 -20 -10 -25t-33 -5h-162q-39 0 -35 41z" />
<glyph unicode="&#xf0;" horiz-adv-x="1226" d="M66 444q0 43 6 86q23 154 107.5 276t212.5 190.5t276 68.5q113 0 163 -45q-57 141 -190 246l-285 -156q-8 -4 -12 -4q-14 0 -22 27l-23 38q-6 14 -7 21.5t7 11.5l248 125q-86 47 -178 88q-12 2 -17.5 10.5t2.5 16.5l127 90q8 6 15 6q6 0 20 -10q115 -29 234 -100l194 110 q2 2 6 2q14 0 23 -16l26 -64q0 -2 4.5 -9t-4.5 -13l-153 -74q160 -121 239.5 -292t79.5 -376q0 -76 -12 -159q-25 -168 -107.5 -294t-213 -195.5t-289.5 -69.5q-143 0 -252 59t-167 164.5t-58 240.5zM334 426q0 -125 56 -194.5t161 -69.5q127 0 217 102.5t113 272.5 q6 47 6 88q0 123 -56.5 193.5t-156.5 70.5q-127 0 -218 -104.5t-116 -276.5q-6 -43 -6 -82z" />
<glyph unicode="&#xf1;" horiz-adv-x="1212" d="M59 45l142 1014q4 16 8 21t18 5h217q12 0 16.5 -5t2.5 -19l-17 -109v-6q0 -8 5 -8q2 0 16 10q190 158 371 158q139 0 217 -74t78 -196q0 -18 -5 -56l-104 -745q-2 -20 -11 -27.5t-32 -7.5h-197q-33 0 -26 45l100 698l4 43q0 123 -141 123q-74 0 -138.5 -34.5 t-154.5 -112.5l-104 -729q-2 -20 -12.5 -26.5t-35.5 -6.5h-190q-33 0 -27 45zM408 1432q0 14 12 28q49 29 88 43.5t90 14.5q41 0 75 -8.5t91 -26.5q76 -27 123 -27q72 0 143 55q4 2 15 2q25 0 28 -30l11 -90q2 -4 2 -15q0 -14 -19 -32q-96 -41 -180 -41q-41 0 -75 8t-79 22 q-76 27 -125 27q-45 0 -73.5 -13.5t-69.5 -41.5q-4 -2 -12 -2q-18 0 -25 30l-16 76q-4 16 -4 21z" />
<glyph unicode="&#xf2;" horiz-adv-x="1226" d="M68 453q0 186 84 335.5t225 233.5t307 84q143 0 250.5 -60.5t165 -170t57.5 -250.5q0 -182 -81 -330t-221 -231.5t-312 -83.5q-144 0 -251.5 59t-165.5 165.5t-58 248.5zM334 414q0 -121 56 -186.5t161 -65.5q96 0 174 60.5t123 177t45 274.5q0 123 -55.5 189.5 t-157.5 66.5q-96 0 -175 -62.5t-125 -179.5t-46 -274zM432 1391l4 16l59 121q11 20 29 8l451 -201q10 -6 16 -17t0 -24l-33 -63q-8 -16 -18 -17q-8 0 -23 7l-452 133q-33 10 -33 37z" />
<glyph unicode="&#xf3;" horiz-adv-x="1226" d="M68 453q0 186 84 335.5t225 233.5t307 84q143 0 250.5 -60.5t165 -170t57.5 -250.5q0 -182 -81 -330t-221 -231.5t-312 -83.5q-144 0 -251.5 59t-165.5 165.5t-58 248.5zM334 414q0 -121 56 -186.5t161 -65.5q96 0 174 60.5t123 177t45 274.5q0 123 -55.5 189.5 t-157.5 66.5q-96 0 -175 -62.5t-125 -179.5t-46 -274zM439 1323q0 14 10 16l508 201l6 2q8 0 15.5 -8t9.5 -18l26 -123q2 -6 2 -17q0 -10 -6 -15t-22 -9l-490 -135q-4 -2 -12 -3q-25 0 -31 31l-14 62q-2 6 -2 16z" />
<glyph unicode="&#xf4;" horiz-adv-x="1226" d="M68 453q0 186 84 335.5t225 233.5t307 84q143 0 250.5 -60.5t165 -170t57.5 -250.5q0 -182 -81 -330t-221 -231.5t-312 -83.5q-144 0 -251.5 59t-165.5 165.5t-58 248.5zM334 414q0 -121 56 -186.5t161 -65.5q96 0 174 60.5t123 177t45 274.5q0 123 -55.5 189.5 t-157.5 66.5q-96 0 -175 -62.5t-125 -179.5t-46 -274zM371 1278q0 10 10 20l248 215q14 10 27.5 14.5t35.5 4.5h125q20 0 30.5 -11.5t12.5 -15.5l186 -219q4 -4 11.5 -12t5.5 -10t-14 -2h-158q-25 0 -43 22l-84 107q-16 16 -21 16q-6 0 -15 -8t-19 -21l-127 -106 q-10 -8 -17.5 -10t-13.5 -1t-12 1h-148q-8 0 -14 5t-6 11z" />
<glyph unicode="&#xf5;" horiz-adv-x="1226" d="M68 453q0 186 84 335.5t225 233.5t307 84q143 0 250.5 -60.5t165 -170t57.5 -250.5q0 -182 -81 -330t-221 -231.5t-312 -83.5q-144 0 -251.5 59t-165.5 165.5t-58 248.5zM334 414q0 -121 56 -186.5t161 -65.5q96 0 174 60.5t123 177t45 274.5q0 123 -55.5 189.5 t-157.5 66.5q-96 0 -175 -62.5t-125 -179.5t-46 -274zM400 1432q0 14 12 28q49 29 88 43.5t90 14.5q41 0 75 -8.5t91 -26.5q76 -27 123 -27q72 0 143 55q4 2 15 2q25 0 28 -30l11 -90q2 -4 2 -15q0 -14 -19 -32q-96 -41 -180 -41q-41 0 -75 8t-79 22q-76 27 -125 27 q-45 0 -73.5 -13.5t-69.5 -41.5q-4 -2 -12 -2q-18 0 -25 30l-16 76q-4 16 -4 21z" />
<glyph unicode="&#xf6;" horiz-adv-x="1226" d="M68 453q0 186 84 335.5t225 233.5t307 84q143 0 250.5 -60.5t165 -170t57.5 -250.5q0 -182 -81 -330t-221 -231.5t-312 -83.5q-144 0 -251.5 59t-165.5 165.5t-58 248.5zM334 414q0 -121 56 -186.5t161 -65.5q96 0 174 60.5t123 177t45 274.5q0 123 -55.5 189.5 t-157.5 66.5q-96 0 -175 -62.5t-125 -179.5t-46 -274zM414 1309l24 186q2 16 7 20.5t18 4.5h188q14 0 22.5 -11.5t6.5 -25.5l-27 -185q-2 -20 -10 -25t-33 -5h-162q-41 0 -34 41zM788 1309l27 186q2 16 6 20.5t19 4.5h188q14 0 22.5 -11.5t4.5 -25.5l-27 -185 q-2 -20 -10 -25t-33 -5h-162q-39 0 -35 41z" />
<glyph unicode="&#xf7;" horiz-adv-x="1177" d="M131 709l21 129q2 14 6 19t16 5h907q12 0 21.5 -11t7.5 -24l-20 -129q-2 -20 -10.5 -26t-35.5 -6h-876q-41 0 -37 43zM406 268l30 215q2 16 6 19.5t17 3.5h243q12 0 19.5 -10.5t5.5 -24.5l-31 -213q-2 -20 -10 -26.5t-35 -6.5h-209q-20 0 -29.5 12.5t-6.5 30.5zM518 1065 l31 213q2 16 6 20.5t16 4.5h242q12 0 20.5 -11.5t6.5 -25.5l-31 -213q-2 -20 -10 -25.5t-35 -5.5h-209q-20 0 -30.5 12.5t-6.5 30.5z" />
<glyph unicode="&#xf8;" horiz-adv-x="1210" d="M-25 92q0 12 15 25l114 96q-55 102 -55 240q0 186 84 335.5t225.5 233.5t307.5 84q213 0 344 -131l118 98q12 10 25 10q14 0 25 -14l45 -53q12 -17 12 -25t-10 -18l-135 -115q49 -100 49 -233q0 -182 -81 -330t-221.5 -231.5t-312.5 -83.5q-209 0 -336 120l-104 -88 q-14 -12 -29 -12q-16 0 -32 23l-29 34q-18 23 -19 35zM315 391l527 440q-53 98 -180 99q-96 0 -175 -62.5t-125.5 -179.5t-46.5 -274v-23zM358 244q57 -82 174 -82q96 0 174 60.5t123 177t45 274.5v4z" />
<glyph unicode="&#xf9;" horiz-adv-x="1204" d="M80 254q0 20 4 57l102 740q4 23 12.5 28.5t30.5 5.5h189q18 0 27.5 -12t7.5 -33l-99 -696q-4 -29 -4 -39q0 -131 135 -131q131 0 289 148l107 731q4 20 12 26t33 6h184q20 0 30.5 -13t6.5 -32l-148 -1013q-2 -16 -6 -21.5t-20 -5.5h-201q-33 0 -27 27l17 104v4 q0 10 -6 10t-21 -10q-102 -84 -189 -119.5t-179 -35.5q-129 0 -208 74.5t-79 199.5zM401 1391l4 16l59 121q11 20 29 8l451 -201q10 -6 16 -17t0 -24l-33 -63q-8 -16 -18 -17q-8 0 -23 7l-452 133q-33 10 -33 37z" />
<glyph unicode="&#xfa;" horiz-adv-x="1204" d="M80 254q0 20 4 57l102 740q4 23 12.5 28.5t30.5 5.5h189q18 0 27.5 -12t7.5 -33l-99 -696q-4 -29 -4 -39q0 -131 135 -131q131 0 289 148l107 731q4 20 12 26t33 6h184q20 0 30.5 -13t6.5 -32l-148 -1013q-2 -16 -6 -21.5t-20 -5.5h-201q-33 0 -27 27l17 104v4 q0 10 -6 10t-21 -10q-102 -84 -189 -119.5t-179 -35.5q-129 0 -208 74.5t-79 199.5zM408 1323q0 14 10 16l508 201l6 2q8 0 15.5 -8t9.5 -18l26 -123q2 -6 2 -17q0 -10 -6 -15t-22 -9l-490 -135q-4 -2 -12 -3q-25 0 -31 31l-14 62q-2 6 -2 16z" />
<glyph unicode="&#xfb;" horiz-adv-x="1204" d="M80 254q0 20 4 57l102 740q4 23 12.5 28.5t30.5 5.5h189q18 0 27.5 -12t7.5 -33l-99 -696q-4 -29 -4 -39q0 -131 135 -131q131 0 289 148l107 731q4 20 12 26t33 6h184q20 0 30.5 -13t6.5 -32l-148 -1013q-2 -16 -6 -21.5t-20 -5.5h-201q-33 0 -27 27l17 104v4 q0 10 -6 10t-21 -10q-102 -84 -189 -119.5t-179 -35.5q-129 0 -208 74.5t-79 199.5zM340 1278q0 10 10 20l248 215q14 10 27.5 14.5t35.5 4.5h125q20 0 30.5 -11.5t12.5 -15.5l186 -219q4 -4 11.5 -12t5.5 -10t-14 -2h-158q-25 0 -43 22l-84 107q-16 16 -21 16q-6 0 -15 -8 t-19 -21l-127 -106q-10 -8 -17.5 -10t-13.5 -1t-12 1h-148q-8 0 -14 5t-6 11z" />
<glyph unicode="&#xfc;" horiz-adv-x="1204" d="M80 254q0 20 4 57l102 740q4 23 12.5 28.5t30.5 5.5h189q18 0 27.5 -12t7.5 -33l-99 -696q-4 -29 -4 -39q0 -131 135 -131q131 0 289 148l107 731q4 20 12 26t33 6h184q20 0 30.5 -13t6.5 -32l-148 -1013q-2 -16 -6 -21.5t-20 -5.5h-201q-33 0 -27 27l17 104v4 q0 10 -6 10t-21 -10q-102 -84 -189 -119.5t-179 -35.5q-129 0 -208 74.5t-79 199.5zM383 1309l24 186q2 16 7 20.5t18 4.5h188q14 0 22.5 -11.5t6.5 -25.5l-27 -185q-2 -20 -10 -25t-33 -5h-162q-41 0 -34 41zM757 1309l27 186q2 16 6 20.5t19 4.5h188q14 0 22.5 -11.5 t4.5 -25.5l-27 -185q-2 -20 -10 -25t-33 -5h-162q-39 0 -35 41z" />
<glyph unicode="&#xfd;" horiz-adv-x="1134" d="M-27 -301l17 131q4 29 71 29h132q47 0 89 27.5t66.5 69.5t24.5 81q0 16 -2 24l-258 973q-2 8 -2 23q0 29 28 28h234q27 0 33 -22l159 -676q6 -23 17 -22q12 0 24 26l340 658q16 37 47 36h150q20 0 20 -12q0 -6 -8 -22l-584 -1078q-68 -125 -136 -192.5t-150 -93 t-205 -25.5q-64 0 -87.5 7t-19.5 30zM428 1323q0 14 10 16l508 201l6 2q8 0 15.5 -8t9.5 -18l26 -123q2 -6 2 -17q0 -10 -6 -15t-22 -9l-490 -135q-4 -2 -12 -3q-25 0 -31 31l-14 62q-2 6 -2 16z" />
<glyph unicode="&#xfe;" horiz-adv-x="1234" d="M12 -297l248 1784q4 20 11.5 26.5t31.5 6.5h184q21 0 31 -12.5t6 -32.5l-69 -504v-4q0 -6 2 -6q6 0 22 24q74 55 144.5 88t175.5 33q168 0 269 -110.5t101 -321.5q0 -53 -10 -135q-39 -274 -178 -416.5t-338 -142.5q-174 0 -264 114q-10 8 -25 8q-23 0 -26 -39l-54 -376 q-2 -16 -6 -20.5t-18 -4.5h-209q-14 0 -23.5 12.5t-5.5 28.5zM352 260q41 -53 89 -79.5t112 -26.5q131 0 221 104t119 313q8 55 8 111q0 250 -209 250q-68 0 -127 -30t-98 -75t-45 -90z" />
<glyph unicode="&#xff;" horiz-adv-x="1134" d="M-27 -301l17 131q4 29 71 29h132q47 0 89 27.5t66.5 69.5t24.5 81q0 16 -2 24l-258 973q-2 8 -2 23q0 29 28 28h234q27 0 33 -22l159 -676q6 -23 17 -22q12 0 24 26l340 658q16 37 47 36h150q20 0 20 -12q0 -6 -8 -22l-584 -1078q-68 -125 -136 -192.5t-150 -93 t-205 -25.5q-64 0 -87.5 7t-19.5 30zM404 1309l24 186q2 16 7 20.5t18 4.5h188q14 0 22.5 -11.5t6.5 -25.5l-27 -185q-2 -20 -10 -25t-33 -5h-162q-41 0 -34 41zM778 1309l27 186q2 16 6 20.5t19 4.5h188q14 0 22.5 -11.5t4.5 -25.5l-27 -185q-2 -20 -10 -25t-33 -5h-162 q-39 0 -35 41z" />
<glyph unicode="&#x152;" horiz-adv-x="2308" d="M125 598q0 82 12 170q33 242 141.5 415t278.5 265t389 92q256 0 363 -149l65 120q8 8 33 9h897q14 0 21.5 -11.5t5.5 -27.5l-23 -156q-4 -18 -10 -24.5t-27 -6.5h-665q-18 0 -31.5 -10t-15.5 -27l-50 -358v-8q0 -10 4.5 -12t16.5 -2h455q14 0 24 -11.5t8 -25.5l-24 -168 q-2 -10 -6.5 -13.5t-18.5 -3.5h-461q-12 0 -23 -10t-14 -22l-53 -381l-2 -13q0 -4 6 -4h11h708q17 0 26 -10t7 -27l-23 -163q-4 -14 -9 -19.5t-23 -5.5h-904q-23 0 -32 10l-41 113q-152 -143 -406 -143q-293 0 -451.5 161.5t-158.5 456.5zM436 547q0 -182 72 -266t223 -84 q191 0 301.5 137t151.5 432q16 119 16 201q0 184 -70.5 271t-216.5 87q-190 0 -304.5 -144.5t-157.5 -443.5q-14 -98 -15 -190z" />
<glyph unicode="&#x153;" horiz-adv-x="1996" d="M70 451q0 49 6 100q23 164 108.5 290t215.5 195.5t284 69.5q123 0 217 -50t143 -141q8 -4 13 -4q12 0 30 25q80 80 181.5 125t210.5 45q213 0 334.5 -124t121.5 -343q0 -63 -8 -119q-4 -16 -9 -21t-26 -7h-714q-16 0 -28.5 -13.5t-14.5 -38.5q-2 -14 -2 -41 q0 -104 70.5 -168.5t180.5 -64.5q86 0 161 38t147 120q4 2 10 2q4 0 24 -11l117 -57q16 -6 17 -25q0 -8 -7 -20q-111 -129 -228.5 -181t-276.5 -52q-123 0 -217.5 48t-145.5 136q-8 4 -10 4q-12 0 -31 -29q-82 -76 -184.5 -117.5t-216.5 -41.5q-144 0 -251.5 59 t-164.5 165.5t-57 246.5zM336 422q0 -127 55 -193.5t160 -66.5q133 0 220 103.5t114 291.5q8 51 8 107q0 129 -55.5 196.5t-157.5 67.5q-133 0 -221 -104.5t-115 -295.5q-8 -51 -8 -106zM1169 637l476 6q39 0 45 43q2 12 2 39q0 88 -53.5 149.5t-151.5 61.5q-119 0 -210 -83 t-108 -216z" />
<glyph unicode="&#x178;" horiz-adv-x="1464" d="M207 1505q0 14 29 15h253q20 0 29.5 -8.5t20.5 -30.5l249 -576q6 -16 15 -16q8 0 18 16l418 590q12 16 21.5 20.5t31.5 4.5h215q25 -1 25 -21q0 -8 -6 -18l-600 -803q-14 -16 -20.5 -34.5t-10.5 -59.5l-78 -547q-2 -25 -12 -31t-39 -6h-221q-20 0 -26.5 9t-4.5 30l80 565 q4 25 4 29q0 14 -10 39l-375 811q-6 12 -6 22zM607 1743l24 186q2 16 7 20.5t18 4.5h188q14 0 22.5 -11.5t6.5 -25.5l-27 -185q-2 -20 -10 -25t-33 -5h-162q-41 0 -34 41zM981 1743l27 186q2 16 6 20.5t19 4.5h188q14 0 22.5 -11.5t4.5 -25.5l-27 -185q-2 -20 -10 -25 t-33 -5h-162q-39 0 -35 41z" />
<glyph unicode="&#x2c6;" horiz-adv-x="735" d="M123 1278q0 10 10 20l248 215q14 10 27.5 14.5t35.5 4.5h125q20 0 30.5 -11.5t12.5 -15.5l186 -219q4 -4 11.5 -12t5.5 -10t-14 -2h-158q-25 0 -43 22l-84 107q-16 16 -21 16q-6 0 -15 -8t-19 -21l-127 -106q-10 -8 -17.5 -10t-13.5 -1t-12 1h-148q-8 0 -14 5t-6 11z" />
<glyph unicode="&#x2dc;" horiz-adv-x="782" d="M176 1432q0 14 12 28q49 29 88 43.5t90 14.5q41 0 75 -8.5t91 -26.5q76 -27 123 -27q72 0 143 55q4 2 15 2q25 0 28 -30l11 -90q2 -4 2 -15q0 -14 -19 -32q-96 -41 -180 -41q-41 0 -75 8t-79 22q-76 27 -125 27q-45 0 -73.5 -13.5t-69.5 -41.5q-4 -2 -12 -2q-18 0 -25 30 l-16 76q-4 16 -4 21z" />
<glyph unicode="&#x2000;" horiz-adv-x="988" />
<glyph unicode="&#x2001;" horiz-adv-x="1976" />
<glyph unicode="&#x2002;" horiz-adv-x="988" />
<glyph unicode="&#x2003;" horiz-adv-x="1976" />
<glyph unicode="&#x2004;" horiz-adv-x="658" />
<glyph unicode="&#x2005;" horiz-adv-x="494" />
<glyph unicode="&#x2006;" horiz-adv-x="329" />
<glyph unicode="&#x2007;" horiz-adv-x="329" />
<glyph unicode="&#x2008;" horiz-adv-x="247" />
<glyph unicode="&#x2009;" horiz-adv-x="395" />
<glyph unicode="&#x200a;" horiz-adv-x="109" />
<glyph unicode="&#x2010;" horiz-adv-x="778" d="M100 485l21 129q2 14 7 19.5t17 5.5h506q12 0 20.5 -11.5t6.5 -23.5l-19 -129q-2 -20 -11 -26.5t-34 -6.5h-475q-20 0 -30.5 12.5t-8.5 30.5z" />
<glyph unicode="&#x2011;" horiz-adv-x="778" d="M100 485l21 129q2 14 7 19.5t17 5.5h506q12 0 20.5 -11.5t6.5 -23.5l-19 -129q-2 -20 -11 -26.5t-34 -6.5h-475q-20 0 -30.5 12.5t-8.5 30.5z" />
<glyph unicode="&#x2012;" horiz-adv-x="778" d="M100 485l21 129q2 14 7 19.5t17 5.5h506q12 0 20.5 -11.5t6.5 -23.5l-19 -129q-2 -20 -11 -26.5t-34 -6.5h-475q-20 0 -30.5 12.5t-8.5 30.5z" />
<glyph unicode="&#x2013;" horiz-adv-x="1177" d="M98 467l19 131q4 16 8 20.5t16 4.5h908q12 0 20 -11.5t6 -23.5l-18 -131q-2 -18 -11.5 -24.5t-35.5 -6.5h-877q-18 0 -28.5 11.5t-6.5 29.5z" />
<glyph unicode="&#x2014;" horiz-adv-x="1841" d="M98 467l19 131q4 16 8 20.5t16 4.5h1571q10 0 19.5 -11.5t7.5 -23.5l-19 -131q-2 -18 -11 -24.5t-36 -6.5h-1540q-18 0 -28.5 11.5t-6.5 29.5z" />
<glyph unicode="&#x2018;" horiz-adv-x="479" d="M231 981l27 201q2 8 12 24l215 279q10 14 28.5 24.5t35.5 10.5h33q22 0 12 -25l-119 -201q-8 -14 -8 -26q0 -20 22 -25l33 -4q20 -2 24.5 -5t2.5 -20l-31 -215q-2 -14 -13 -25t-24 -11h-233q-12 0 -15.5 3t-1.5 15z" />
<glyph unicode="&#x2019;" horiz-adv-x="479" d="M160 987l119 201q8 14 8 26q0 20 -23 25l-33 4q-20 2 -24 5t-2 20l31 215q2 14 13 25.5t23 11.5h234q12 0 15 -3.5t1 -15.5l-26 -201q-2 -8 -13 -24l-215 -279q-10 -14 -28.5 -24t-34.5 -10h-33q-22 -1 -12 24z" />
<glyph unicode="&#x201a;" horiz-adv-x="479" d="M-14 -256l120 201q6 14 7 26q0 20 -23 25l-33 2q-20 4 -24 7t-2 20l30 215q2 14 12.5 25t22.5 11h236q12 0 15 -3t3 -15l-28 -203q-2 -6 -6.5 -12t-6.5 -10l-215 -279q-10 -14 -29.5 -24.5t-33.5 -10.5h-35q-24 0 -10 25z" />
<glyph unicode="&#x201c;" horiz-adv-x="905" d="M283 981l28 203q2 6 13 22l215 279q10 14 28.5 24.5t34.5 10.5h33q23 0 12 -25l-121 -201q-6 -12 -6 -24q0 -8 4 -17l178 232q8 14 28 24.5t36 10.5h35q20 0 10 -25l-121 -201q-6 -14 -6 -26q0 -20 23 -25l32 -2q20 -4 24.5 -7t2.5 -20l-31 -215q-2 -14 -13 -25t-24 -11 h-397q-12 0 -16 3t-2 15z" />
<glyph unicode="&#x201d;" horiz-adv-x="909" d="M160 987l119 201q8 14 8 26q0 20 -23 25l-33 4q-20 2 -24 5t-2 20l31 215q2 14 13 25.5t23 11.5h234q12 0 15 -3.5t1 -15.5l-26 -201q-2 -8 -13 -24l-215 -279q-10 -14 -28.5 -24t-34.5 -10h-33q-22 -1 -12 24zM586 987l119 201q8 14 8 26q0 20 -23 25l-33 4q-20 2 -24 6 t-2 19l31 215q2 14 13 25.5t23 11.5h234q12 0 15 -3.5t1 -15.5l-26 -201q-2 -8 -13 -24l-217 -279q-10 -14 -28.5 -24t-32.5 -10h-35q-20 -1 -10 24z" />
<glyph unicode="&#x201e;" horiz-adv-x="833" d="M-90 -256l120 201q6 14 7 26q0 20 -23 25l-33 2q-20 4 -24 7t-2 20l30 215q2 14 12.5 25t22.5 11h236q12 0 15 -3t3 -15l-28 -203q-2 -6 -6.5 -12t-6.5 -10l-215 -279q-10 -14 -29.5 -24.5t-33.5 -10.5h-35q-24 0 -10 25zM336 -256l120 201q6 14 7 26q0 20 -23 25l-33 2 q-20 4 -24 7t-2 20l30 215q2 14 12.5 25t22.5 11h236q12 0 15 -3t3 -15l-28 -203q-2 -6 -6.5 -12t-6.5 -10l-215 -279q-10 -14 -29.5 -24.5t-33.5 -10.5h-35q-24 0 -10 25z" />
<glyph unicode="&#x2022;" horiz-adv-x="673" d="M125 750q0 72 37 132t97 96t130 36q94 0 156.5 -62.5t62.5 -156.5q0 -70 -36.5 -131.5t-97 -97.5t-130.5 -36q-94 0 -156.5 63.5t-62.5 156.5z" />
<glyph unicode="&#x2026;" horiz-adv-x="1720" d="M-56 45l33 231q2 18 8.5 22.5t18.5 4.5h242q14 0 22 -11t4 -28l-31 -229q-2 -23 -11 -29t-38 -6h-207q-23 0 -34 13.5t-7 31.5zM555 45l33 231q2 18 8.5 22.5t18.5 4.5h242q14 0 22 -11t4 -28l-31 -229q-2 -23 -11 -29t-38 -6h-207q-23 0 -34 13.5t-7 31.5zM1163 45 l33 231q2 18 8.5 22.5t18.5 4.5h242q14 0 22 -11t4 -28l-31 -229q-2 -23 -11 -29t-38 -6h-207q-23 0 -34 13.5t-7 31.5z" />
<glyph unicode="&#x202f;" horiz-adv-x="395" />
<glyph unicode="&#x2039;" horiz-adv-x="577" d="M88 535q0 18 8 28l285 361q8 10 14 9t11 -1h98q12 0 20 -10.5t2 -22.5l-219 -358q-14 -25 -10 -41l121 -348l2 -9q0 -4 -8.5 -4h-12.5h-96q-8 0 -16 7.5t-8 15.5l-183 340q-8 14 -8 33z" />
<glyph unicode="&#x203a;" horiz-adv-x="579" d="M49 166l219 346q13 23 11 41l-119 360l-2 11q0 8 16 8h98q14 0 25 -21l182 -362q8 -16 8 -29q0 -14 -12 -33l-278 -340q-6 -8 -25 -8h-94q-16 0 -24.5 8.5t-4.5 18.5z" />
<glyph unicode="&#x205f;" horiz-adv-x="494" />
<glyph unicode="&#x20ac;" horiz-adv-x="1298" d="M-14 559l14 82q2 16 6 21.5t17 5.5h151q4 57 12 114l13 74h-127q-20 0 -30.5 12.5t-6.5 30.5l10 82q2 16 8 20.5t19 4.5h168q84 252 264 393t418 141q131 0 236.5 -49t170.5 -135q10 -7 10 -15q0 -6 -12 -16l-143 -100q-8 -6 -21 -6q-23 0 -26 18q-49 43 -94.5 65.5 t-104.5 22.5q-131 0 -229.5 -79t-157.5 -238h336q12 0 21.5 -12.5t6.5 -24.5l-12 -82q-2 -20 -11 -26.5t-34 -6.5h-350l-19 -106l-10 -82h361q12 0 20 -11.5t6 -25.5l-10 -82q-2 -20 -11 -25.5t-36 -5.5h-330q12 -158 88 -234.5t205 -76.5q72 0 143.5 32.5t120.5 82.5h8 q18 0 27 -13l90 -119q23 -23 17 -40q-94 -78 -210 -124t-239 -46q-236 0 -382 143t-169 393h-153q-20 0 -30.5 12.5t-8.5 30.5z" />
<glyph unicode="&#x2122;" horiz-adv-x="2009" d="M119 1397l16 106q0 10 4 13.5t17 3.5h727q18 0 14 -17l-16 -108q0 -14 -19 -15h-246q-12 0 -15 -3t-5 -13l-109 -776q-2 -10 -6 -14.5t-14 -4.5h-150q-12 0 -16 5.5t-2 19.5l109 772q2 14 -13 14h-260q-16 0 -16 17zM899 600l129 903q0 10 3 13.5t13 3.5h220q18 0 24 -21 l139 -604q6 -18 17 2l307 602q8 20 25 21h229q18 0 14 -19l-127 -909q-2 -14 -7 -18.5t-21 -4.5h-135q-31 0 -25 29l92 659q2 8 -1 7.5t-7 -9.5l-340 -669q-4 -10 -9 -13.5t-16 -3.5h-94q-10 0 -15 4.5t-7 18.5l-148 659q-2 8 -6 9.5t-6 -7.5l-94 -667q-2 -10 -6.5 -13.5 t-14.5 -3.5h-119q-10 0 -13 6.5t-1 24.5z" />
<glyph unicode="&#x25fc;" horiz-adv-x="1085" d="M0 0v1085h1085v-1085h-1085z" />
</font>
</defs>
</svg>
